<?xml version="1.0" encoding="UTF-8"?><svg id="b" xmlns="http://www.w3.org/2000/svg" xmlns:xlink="http://www.w3.org/1999/xlink" viewBox="0 0 451.36 252.87"><defs><style>.h{fill:#b2b2ff;}.i{stroke:red;}.i,.j,.k,.l,.m,.n{fill:none;}.i,.k,.l,.m,.n{stroke-miterlimit:10;}.i,.k,.m,.n{stroke-width:.4px;}.o{font-size:9.96px;}.o,.p,.q{font-family: "STIX Two Text";}.r{clip-path:url(#f);}.p{font-size:5.98px;}.s{letter-spacing:-.03em;}.t{fill:#fff;}.k{stroke:blue;}.l{stroke:gray;stroke-width:.2px;}.u{letter-spacing:-.03em;}.q{font-size:8.97px;}.v{letter-spacing:-.13em;}.w{fill:#ffb2b2;}.x{clip-path:url(#g);}.y{letter-spacing:.33em;}.z{clip-path:url(#d);}.aa{letter-spacing:0em;}.ab{clip-path:url(#e);}.ac{letter-spacing:.33em;}.ad{letter-spacing:.33em;}.m{stroke:#000;}.n{stroke:#bfbfbf;}.ae{letter-spacing:-.11em;}.af{letter-spacing:.33em;}.ag{letter-spacing:-.03em;}.ah{letter-spacing:-.03em;}.ai{letter-spacing:0em;}</style><clipPath id="d"><rect class="j" x="29.51" y="4.46" width="183.64" height="92.65"/></clipPath><clipPath id="e"><rect class="j" x="267.52" y="4.46" width="183.64" height="92.65"/></clipPath><clipPath id="f"><rect class="j" x="27.48" y="144.32" width="183.64" height="92.65"/></clipPath><clipPath id="g"><rect class="j" x="265.21" y="144.32" width="183.64" height="92.65"/></clipPath></defs><g id="c"><path class="n" d="M29.51,12.45h183.64M29.51,40.67h183.64M29.51,68.89h183.64M29.51,97.12h183.64"/><path class="l" d="M197.84.22v4.25M167.23.22v4.25M136.63.22v4.25M106.02.22v4.25M75.42.22v4.25M44.81.22v4.25M197.84,101.37v-4.25M167.23,101.37v-4.25M136.63,101.37v-4.25M106.02,101.37v-4.25M75.42,101.37v-4.25M44.81,101.37v-4.25"/><path class="l" d="M213.14,13.74h-2.83M213.14,15.18h-2.83M213.14,16.82h-2.83M213.14,18.71h-2.83M213.14,20.94h-2.83M213.14,23.68h-2.83M213.14,27.2h-2.83M213.14,32.17h-2.83M213.14,40.67h-2.83M213.14,41.96h-2.83M213.14,43.41h-2.83M213.14,45.04h-2.83M213.14,46.93h-2.83M213.14,49.17h-2.83M213.14,51.9h-2.83M213.14,55.43h-2.83M213.14,60.4h-2.83M213.14,68.89h-2.83M213.14,70.19h-2.83M213.14,71.63h-2.83M213.14,73.27h-2.83M213.14,75.16h-2.83M213.14,77.39h-2.83M213.14,80.13h-2.83M213.14,83.65h-2.83M213.14,88.62h-2.83M213.14,97.12h-2.83M29.51,13.74h2.83M29.51,15.18h2.83M29.51,16.82h2.83M29.51,18.71h2.83M29.51,20.94h2.83M29.51,23.68h2.83M29.51,27.2h2.83M29.51,32.17h2.83M29.51,40.67h2.83M29.51,41.96h2.83M29.51,43.41h2.83M29.51,45.04h2.83M29.51,46.93h2.83M29.51,49.17h2.83M29.51,51.9h2.83M29.51,55.43h2.83M29.51,60.4h2.83M29.51,68.89h2.83M29.51,70.19h2.83M29.51,71.63h2.83M29.51,73.27h2.83M29.51,75.16h2.83M29.51,77.39h2.83M29.51,80.13h2.83M29.51,83.65h2.83M29.51,88.62h2.83M29.51,97.12h2.83"/><path class="l" d="M213.14,12.45h-4.25M213.14,40.67h-4.25M213.14,68.89h-4.25M213.14,97.12h-4.25M29.51,12.45h4.25M29.51,40.67h4.25M29.51,68.89h4.25M29.51,97.12h4.25"/><rect class="m" x="29.51" y="4.46" width="183.64" height="92.65"/><text class="q" transform="translate(28.33 110.36)"><tspan x="0" y="0">catalan</tspan></text><text class="q" transform="translate(68.35 110.36)"><tspan x="0" y="0">fac</tspan></text><text class="q" transform="translate(98.96 110.36)"><tspan x="0" y="0">fib</tspan></text><text class="q" transform="translate(129.56 110.36)"><tspan x="0" y="0">gcd</tspan></text><text class="q" transform="translate(153.11 110.36)"><tspan x="0" y="0">primes</tspan></text><text class="q" transform="translate(190.78 110.36)"><tspan x="0" y="0">tak</tspan></text><text class="q" transform="translate(12.62 100.95)"><tspan x="0" y="0">10</tspan></text><text class="p" transform="translate(21.83 97.14)"><tspan x="0" y="0">0</tspan></text><text class="q" transform="translate(12.62 72.73)"><tspan x="0" y="0">10</tspan></text><text class="p" transform="translate(21.83 68.92)"><tspan x="0" y="0">1</tspan></text><text class="q" transform="translate(12.62 44.5)"><tspan x="0" y="0">10</tspan></text><text class="p" transform="translate(21.83 40.69)"><tspan x="0" y="0">2</tspan></text><text class="q" transform="translate(12.62 16.28)"><tspan x="0" y="0">10</tspan></text><text class="p" transform="translate(21.83 12.47)"><tspan x="0" y="0">3</tspan></text><g class="z"><path class="h" d="M187.88,97.12h9.96v-46.96h-9.96v46.96ZM157.27,97.12h9.96v-52.67h-9.96v52.67ZM126.66,97.12h9.96v-48.71h-9.96v48.71ZM96.06,97.12h9.96v-51.41h-9.96v51.41ZM65.45,97.12h9.96v-47.7h-9.96v47.7ZM34.85,97.12h9.96v-60.52h-9.96v60.52Z"/><path class="k" d="M187.88,97.12h9.96v-46.96h-9.96v46.96ZM157.27,97.12h9.96v-52.67h-9.96v52.67ZM126.66,97.12h9.96v-48.71h-9.96v48.71ZM96.06,97.12h9.96v-51.41h-9.96v51.41ZM65.45,97.12h9.96v-47.7h-9.96v47.7ZM34.85,97.12h9.96v-60.52h-9.96v60.52Z"/><path class="w" d="M197.84,97.12h9.96V15.66h-9.96v81.46ZM167.23,97.12h9.96V14.75h-9.96v82.37ZM136.63,97.12h9.96V13.32h-9.96v83.8ZM106.02,97.12h9.96V19.61h-9.96v77.51ZM75.42,97.12h9.96V17.92h-9.96v79.2ZM44.81,97.12h9.96V12.89h-9.96v84.23Z"/><path class="i" d="M197.84,97.12h9.96V15.66h-9.96v81.46ZM167.23,97.12h9.96V14.75h-9.96v82.37ZM136.63,97.12h9.96V13.32h-9.96v83.8ZM106.02,97.12h9.96V19.61h-9.96v77.51ZM75.42,97.12h9.96V17.92h-9.96v79.2ZM44.81,97.12h9.96V12.89h-9.96v84.23Z"/></g><text class="o" transform="translate(8.27 91.43) rotate(-90)"><tspan x="0" y="0">Executio</tspan><tspan class="ac" x="35.81" y="0">n</tspan><tspan x="44.58" y="0">tim</tspan><tspan class="ad" x="58.66" y="0">e</tspan><tspan x="66.93" y="0">(s)</tspan></text><path class="n" d="M267.52,4.55h183.64M267.52,27.69h183.64M267.52,50.83h183.64M267.52,73.97h183.64M267.52,97.11h183.64"/><path class="l" d="M435.85.21v4.25M405.25.21v4.25M374.64.21v4.25M344.04.21v4.25M313.43.21v4.25M282.82.21v4.25M435.85,101.37v-4.25M405.25,101.37v-4.25M374.64,101.37v-4.25M344.04,101.37v-4.25M313.43,101.37v-4.25M282.82,101.37v-4.25"/><path class="l" d="M451.16,4.55h-4.25M451.16,27.69h-4.25M451.16,50.83h-4.25M451.16,73.97h-4.25M451.16,97.11h-4.25M267.52,4.55h4.25M267.52,27.69h4.25M267.52,50.83h4.25M267.52,73.97h4.25M267.52,97.11h4.25"/><rect class="m" x="267.52" y="4.46" width="183.64" height="92.65"/><text class="q" transform="translate(266.35 110.36)"><tspan x="0" y="0">catalan</tspan></text><text class="q" transform="translate(306.37 110.36)"><tspan x="0" y="0">fac</tspan></text><text class="q" transform="translate(336.97 110.36)"><tspan x="0" y="0">fib</tspan></text><text class="q" transform="translate(367.58 110.36)"><tspan x="0" y="0">gcd</tspan></text><text class="q" transform="translate(391.12 110.36)"><tspan x="0" y="0">primes</tspan></text><text class="q" transform="translate(428.79 110.36)"><tspan x="0" y="0">tak</tspan></text><text class="q" transform="translate(259.39 100)"><tspan x="0" y="0">0</tspan></text><text class="q" transform="translate(250.18 76.86)"><tspan x="0" y="0">200</tspan></text><text class="q" transform="translate(250.18 53.72)"><tspan x="0" y="0">400</tspan></text><text class="q" transform="translate(250.18 30.58)"><tspan x="0" y="0">600</tspan></text><text class="q" transform="translate(250.18 7.44)"><tspan x="0" y="0">800</tspan></text><g class="ab"><path class="h" d="M425.89,97.11h9.96v-33.79h-9.96v33.79ZM395.28,97.11h9.96v-42.69h-9.96v42.69ZM364.68,97.11h9.96v-33.9h-9.96v33.9ZM334.07,97.11h9.96v-38.18h-9.96v38.18ZM303.47,97.11h9.96v-35.29h-9.96v35.29ZM272.86,97.11h9.96v-49.29h-9.96v49.29Z"/><path class="k" d="M425.89,97.11h9.96v-33.79h-9.96v33.79ZM395.28,97.11h9.96v-42.69h-9.96v42.69ZM364.68,97.11h9.96v-33.9h-9.96v33.9ZM334.07,97.11h9.96v-38.18h-9.96v38.18ZM303.47,97.11h9.96v-35.29h-9.96v35.29ZM272.86,97.11h9.96v-49.29h-9.96v49.29Z"/><path class="w" d="M435.85,97.11h9.96v-35.52h-9.96v35.52ZM405.25,97.11h9.96V12.88h-9.96v84.23ZM374.64,97.11h9.96v-35.52h-9.96v35.52ZM344.04,97.11h9.96v-63.52h-9.96v63.52ZM313.43,97.11h9.96v-43.5h-9.96v43.5ZM282.82,97.11h9.96v-60.86h-9.96v60.86Z"/><path class="i" d="M435.85,97.11h9.96v-35.52h-9.96v35.52ZM405.25,97.11h9.96V12.88h-9.96v84.23ZM374.64,97.11h9.96v-35.52h-9.96v35.52ZM344.04,97.11h9.96v-63.52h-9.96v63.52ZM313.43,97.11h9.96v-43.5h-9.96v43.5ZM282.82,97.11h9.96v-60.86h-9.96v60.86Z"/></g><text class="o" transform="translate(245.83 76.27) rotate(-90)"><tspan x="0" y="0">Siz</tspan><tspan class="ac" x="12" y="0">e</tspan><tspan x="20.26" y="0">(</tspan><tspan class="s" x="23.28" y="0">b</tspan><tspan x="28.53" y="0">yt</tspan><tspan class="aa" x="36.55" y="0">e</tspan><tspan class="ai" x="41.5" y="0">s)</tspan></text><rect class="t" x="374.06" y="6.51" width="73.23" height="28.05"/><rect class="m" x="374.06" y="6.51" width="73.23" height="28.05"/><path class="h" d="M383.22,16.67h2.99v-5.98h-2.99v5.98ZM377.24,16.67h2.99v-7.97h-2.99v7.97Z"/><path class="k" d="M383.22,16.67h2.99v-5.98h-2.99v5.98ZM377.24,16.67h2.99v-7.97h-2.99v7.97Z"/><text class="q" transform="translate(388.4 17.05)"><tspan class="v" x="0" y="0">W</tspan><tspan x="5.88" y="0">ARDuino</tspan></text><path class="w" d="M383.22,28.7h2.99v-5.98h-2.99v5.98ZM377.24,28.7h2.99v-7.97h-2.99v7.97Z"/><path class="i" d="M383.22,28.7h2.99v-5.98h-2.99v5.98ZM377.24,28.7h2.99v-7.97h-2.99v7.97Z"/><text class="q" transform="translate(394.62 29.08)"><tspan x="0" y="0">Espruino</tspan></text><path class="n" d="M27.48,166.96h183.64M27.48,190.3h183.64M27.48,213.63h183.64M27.48,236.97h183.64"/><path class="l" d="M195.81,140.07v4.25M165.21,140.07v4.25M134.6,140.07v4.25M104,140.07v4.25M73.39,140.07v4.25M42.78,140.07v4.25M195.81,241.22v-4.25M165.21,241.22v-4.25M134.6,241.22v-4.25M104,241.22v-4.25M73.39,241.22v-4.25M42.78,241.22v-4.25"/><path class="l" d="M211.12,166.96h-4.25M211.12,190.3h-4.25M211.12,213.63h-4.25M211.12,236.97h-4.25M27.48,166.96h4.25M27.48,190.3h4.25M27.48,213.63h4.25M27.48,236.97h4.25"/><rect class="m" x="27.48" y="144.32" width="183.64" height="92.65"/><text class="q" transform="translate(26.31 250.22)"><tspan x="0" y="0">catalan</tspan></text><text class="q" transform="translate(66.33 250.22)"><tspan x="0" y="0">fac</tspan></text><text class="q" transform="translate(96.93 250.22)"><tspan x="0" y="0">fib</tspan></text><text class="q" transform="translate(127.54 250.22)"><tspan x="0" y="0">gcd</tspan></text><text class="q" transform="translate(151.08 250.22)"><tspan x="0" y="0">primes</tspan></text><text class="q" transform="translate(188.75 250.22)"><tspan x="0" y="0">tak</tspan></text><text class="q" transform="translate(14.65 239.86)"><tspan x="0" y="0">0</tspan></text><text class="q" transform="translate(19.25 239.86)"><tspan x="0" y="0">k</tspan></text><text class="q" transform="translate(14.65 216.52)"><tspan x="0" y="0">2</tspan></text><text class="q" transform="translate(19.25 216.52)"><tspan x="0" y="0">k</tspan></text><text class="q" transform="translate(14.65 193.19)"><tspan x="0" y="0">4</tspan></text><text class="q" transform="translate(19.25 193.19)"><tspan x="0" y="0">k</tspan></text><text class="q" transform="translate(14.65 169.85)"><tspan x="0" y="0">6</tspan></text><text class="q" transform="translate(19.25 169.85)"><tspan x="0" y="0">k</tspan></text><g class="r"><path class="h" d="M185.85,236.97h9.96v-5.05h-9.96v5.05ZM155.24,236.97h9.96v-6.27h-9.96v6.27ZM124.64,236.97h9.96v-2.77h-9.96v2.77ZM94.03,236.97h9.96v-5.76h-9.96v5.76ZM63.43,236.97h9.96v-4.68h-9.96v4.68ZM32.82,236.97h9.96v-6.61h-9.96v6.61Z"/><path class="k" d="M185.85,236.97h9.96v-5.05h-9.96v5.05ZM155.24,236.97h9.96v-6.27h-9.96v6.27ZM124.64,236.97h9.96v-2.77h-9.96v2.77ZM94.03,236.97h9.96v-5.76h-9.96v5.76ZM63.43,236.97h9.96v-4.68h-9.96v4.68ZM32.82,236.97h9.96v-6.61h-9.96v6.61Z"/><path class="w" d="M195.81,236.97h9.96v-84.23h-9.96v84.23ZM165.21,236.97h9.96v-70.69h-9.96v70.69ZM134.6,236.97h9.96v-48.46h-9.96v48.46ZM104,236.97h9.96v-48.38h-9.96v48.38ZM73.39,236.97h9.96v-61.24h-9.96v61.24ZM42.78,236.97h9.96v-45.77h-9.96v45.77Z"/><path class="i" d="M195.81,236.97h9.96v-84.23h-9.96v84.23ZM165.21,236.97h9.96v-70.69h-9.96v70.69ZM134.6,236.97h9.96v-48.46h-9.96v48.46ZM104,236.97h9.96v-48.38h-9.96v48.38ZM73.39,236.97h9.96v-61.24h-9.96v61.24ZM42.78,236.97h9.96v-45.77h-9.96v45.77Z"/></g><text class="o" transform="translate(10.3 238.41) rotate(-90)"><tspan x="0" y="0">O</tspan><tspan class="ag" x="6.62" y="0">v</tspan><tspan x="11" y="0">erhea</tspan><tspan class="y" x="34.78" y="0">d</tspan><tspan x="43.64" y="0">(r</tspan><tspan class="aa" x="50.11" y="0">e</tspan><tspan class="ac" x="55.06" y="0">l</tspan><tspan x="60.92" y="0">Nati</tspan><tspan class="u" x="78.2" y="0">v</tspan><tspan x="82.59" y="0">e)</tspan></text><path class="n" d="M265.21,164.77h183.64M265.21,188.84h183.64M265.21,212.91h183.64M265.21,236.97h183.64"/><path class="l" d="M433.55,140.07v4.25M402.94,140.07v4.25M372.34,140.07v4.25M341.73,140.07v4.25M311.12,140.07v4.25M280.52,140.07v4.25M433.55,241.22v-4.25M402.94,241.22v-4.25M372.34,241.22v-4.25M341.73,241.22v-4.25M311.12,241.22v-4.25M280.52,241.22v-4.25"/><path class="l" d="M448.85,164.77h-4.25M448.85,188.84h-4.25M448.85,212.91h-4.25M448.85,236.97h-4.25M265.21,164.77h4.25M265.21,188.84h4.25M265.21,212.91h4.25M265.21,236.97h4.25"/><rect class="m" x="265.21" y="144.32" width="183.64" height="92.65"/><text class="q" transform="translate(264.04 250.22)"><tspan x="0" y="0">catalan</tspan></text><text class="q" transform="translate(304.06 250.22)"><tspan x="0" y="0">fac</tspan></text><text class="q" transform="translate(334.67 250.22)"><tspan x="0" y="0">fib</tspan></text><text class="q" transform="translate(365.28 250.22)"><tspan x="0" y="0">gcd</tspan></text><text class="q" transform="translate(388.82 250.22)"><tspan x="0" y="0">primes</tspan></text><text class="q" transform="translate(426.49 250.22)"><tspan x="0" y="0">tak</tspan></text><text class="q" transform="translate(257.09 239.86)"><tspan x="0" y="0">0</tspan></text><text class="q" transform="translate(257.09 215.79)"><tspan x="0" y="0">5</tspan></text><text class="q" transform="translate(252.48 191.73)"><tspan x="0" y="0">10</tspan></text><text class="q" transform="translate(252.48 167.66)"><tspan x="0" y="0">15</tspan></text><g class="x"><path class="h" d="M423.59,236.97h9.96v-4.81h-9.96v4.81ZM392.98,236.97h9.96v-4.81h-9.96v4.81ZM362.37,236.97h9.96v-4.81h-9.96v4.81ZM331.77,236.97h9.96v-4.81h-9.96v4.81ZM301.16,236.97h9.96v-4.81h-9.96v4.81ZM270.56,236.97h9.96v-4.81h-9.96v4.81Z"/><path class="k" d="M423.59,236.97h9.96v-4.81h-9.96v4.81ZM392.98,236.97h9.96v-4.81h-9.96v4.81ZM362.37,236.97h9.96v-4.81h-9.96v4.81ZM331.77,236.97h9.96v-4.81h-9.96v4.81ZM301.16,236.97h9.96v-4.81h-9.96v4.81ZM270.56,236.97h9.96v-4.81h-9.96v4.81Z"/><path class="w" d="M433.55,236.97h9.96v-80.29h-9.96v80.29ZM402.94,236.97h9.96v-54.27h-9.96v54.27ZM372.34,236.97h9.96v-84.23h-9.96v84.23ZM341.73,236.97h9.96v-40.45h-9.96v40.45ZM311.12,236.97h9.96v-62.92h-9.96v62.92ZM280.52,236.97h9.96v-33.32h-9.96v33.32Z"/><path class="i" d="M433.55,236.97h9.96v-80.29h-9.96v80.29ZM402.94,236.97h9.96v-54.27h-9.96v54.27ZM372.34,236.97h9.96v-84.23h-9.96v84.23ZM341.73,236.97h9.96v-40.45h-9.96v40.45ZM311.12,236.97h9.96v-62.92h-9.96v62.92ZM280.52,236.97h9.96v-33.32h-9.96v33.32Z"/></g><text class="o" transform="translate(248.13 249.34) rotate(-90)"><tspan x="0" y="0">O</tspan><tspan class="ah" x="6.62" y="0">v</tspan><tspan x="11" y="0">erhea</tspan><tspan class="ac" x="34.78" y="0">d</tspan><tspan x="43.62" y="0">(re</tspan><tspan class="af" x="55.04" y="0">l</tspan><tspan class="ae" x="60.91" y="0">W</tspan><tspan x="67.64" y="0">ARDuino)</tspan></text></g></svg>
