<?xml version="1.0" encoding="UTF-8"?>
<svg id="Layer_1" xmlns="http://www.w3.org/2000/svg" version="1.1" viewBox="0 0 534.2 139.7">
  <!-- Generator: Adobe Illustrator 29.2.1, SVG Export Plug-In . SVG Version: 2.1.0 Build 116)  -->
  <defs>
    <style>
      .st0 {
        stroke-dasharray: 6.2 4.1;
      }

      .st0, .st1, .st2, .st3, .st4 {
        fill: none;
        stroke: #010101;
        stroke-miterlimit: 10;
        stroke-width: .5px;
      }

      .st1 {
        stroke-dasharray: 5.9 3.9;
      }

      .st2 {
        stroke-dasharray: 5.9 3.9;
      }

      .st5 {
        fill: #fff;
      }

      .st6 {
        fill: #ec2026;
      }

      .st7 {
        fill: #4368b1;
      }

      .st8 {
        fill: #b7bcdf;
      }

      .st9, .st10 {
        font-size: 8px;
      }

      .st9, .st11 {
        fill: #010101;
      }

      .st9, .st12 {
        font-family: CMUSerif-Bold, 'CMU Serif';
        font-weight: 700;
      }

      .st10 {
        font-family: CMUSerif-Italic, 'CMU Serif';
        font-style: italic;
      }

      .st13 {
        fill: #f2c2c6;
      }

      .st12 {
        font-size: 11px;
      }

      .st4 {
        stroke-dasharray: 6 4;
      }
    </style>
  </defs>
  <g>
    <g>
      <rect class="st8" x="287.8" y="6.3" width="226.8" height="123.4"/>
      <path class="st7" d="M514.1,6.8v122.4h-225.8V6.8h225.8M515.1,5.8h-227.8v124.4h227.8V5.8h0Z"/>
    </g>
    <text class="st11" transform="translate(296.4 23.8)"><tspan class="st12" x="0" y="0">Client </tspan><tspan class="st10" x="38.1" y="0">global scope</tspan></text>
  </g>
  <g>
    <g>
      <rect class="st13" x="19.2" y="6.3" width="226.8" height="123.4"/>
      <path class="st6" d="M245.5,6.8v122.4H19.7V6.8h225.8M246.5,5.8H18.7v124.4h227.8V5.8h0Z"/>
    </g>
    <text class="st11" transform="translate(25.9 23.8)"><tspan class="st12" x="0" y="0">Server </tspan><tspan class="st10" x="39.9" y="0">local scope</tspan></text>
  </g>
  <g>
    <g>
      <rect class="st5" x="26.7" y="55.7" width="131.7" height="67.5"/>
      <path d="M158,56.1v66.7H27.1V56.1h131M158.8,55.3H26.3v68.2h132.5V55.3h0Z"/>
    </g>
    <text class="st9" transform="translate(51.3 93.8) scale(1 1)"><tspan x="0" y="0">Runtime &amp; program</tspan></text>
  </g>
  <g>
    <rect class="st5" x="372.3" y="78.1" width="135.5" height="45.7"/>
    <path d="M507.3,78.5v45h-134.7v-45h134.7M508.1,77.7h-136.2v46.5h136.2v-46.5h0Z"/>
  </g>
  <text class="st9" transform="translate(398.8 103.4)"><tspan x="0" y="0">Runtime &amp; program</tspan></text>
  <g>
    <g>
      <rect class="st5" x="293.2" y="78.1" width="73.6" height="45.7"/>
      <path d="M366.4,78.5v45h-72.8v-45h72.8M367.1,77.7h-74.3v46.5h74.3v-46.5h0Z"/>
    </g>
    <text class="st9" transform="translate(320.5 102.8)"><tspan x="0" y="0">Stub</tspan></text>
  </g>
  <g>
    <g>
      <rect class="st5" x="164.3" y="55.1" width="73.6" height="68.7"/>
      <path d="M237.5,55.5v67.9h-72.8V55.5h72.8M238.2,54.8h-74.3v69.4h74.3V54.8h0Z"/>
    </g>
    <text class="st9" transform="translate(181.7 85.4)"><tspan x="0" y="0">Debugger</tspan><tspan x="2.9" y="9.6">backend</tspan></text>
  </g>
  <g>
    <line class="st3" x1="303.3" y1="105.4" x2="230.7" y2="105.4"/>
    <path class="st11" d="M303.2,103.8c.9,0,1.7.8,1.7,1.7s-.8,1.7-1.7,1.7-1.7-.8-1.7-1.7.8-1.7,1.7-1.7Z"/>
    <polygon class="st11" points="228.1 105.4 231.8 103.9 230.9 105.4 231.8 107 228.1 105.4"/>
  </g>
  <g>
    <line class="st3" x1="229.7" y1="95.4" x2="302.3" y2="95.4"/>
    <path class="st11" d="M229.8,97.1c-.9,0-1.7-.8-1.7-1.7s.8-1.7,1.7-1.7,1.7.8,1.7,1.7-.8,1.7-1.7,1.7Z"/>
    <polygon class="st11" points="304.9 95.4 301.2 97 302.1 95.4 301.2 93.9 304.9 95.4"/>
  </g>
  <g>
    <polyline class="st3" points="241.9 123.4 241.9 126.4 238.9 126.4"/>
    <line class="st4" x1="235" y1="126.4" x2="28" y2="126.4"/>
    <polyline class="st3" points="26 126.4 23 126.4 23 123.4"/>
    <line class="st0" x1="23" y1="119.3" x2="23" y2="39.1"/>
    <polyline class="st3" points="23 37 23 34 26 34"/>
    <line class="st4" x1="30" y1="34" x2="236.9" y2="34"/>
    <polyline class="st3" points="238.9 34 241.9 34 241.9 37"/>
    <line class="st0" x1="241.9" y1="41.1" x2="241.9" y2="121.4"/>
  </g>
  <text class="st9" transform="translate(164.9 47)"><tspan x="0" y="0">Debugging session</tspan></text>
  <g>
    <polyline class="st3" points="508.1 70.2 508.1 73.2 505.1 73.2"/>
    <line class="st2" x1="501.2" y1="73.2" x2="297.8" y2="73.2"/>
    <polyline class="st3" points="295.8 73.2 292.8 73.2 292.8 70.2"/>
    <line class="st1" x1="292.8" y1="66.3" x2="292.8" y2="39"/>
    <polyline class="st3" points="292.8 37 292.8 34 295.8 34"/>
    <line class="st2" x1="299.7" y1="34" x2="503.1" y2="34"/>
    <polyline class="st3" points="505.1 34 508.1 34 508.1 37"/>
    <line class="st1" x1="508.1" y1="40.9" x2="508.1" y2="68.3"/>
  </g>
  <text class="st9" transform="translate(346.6 55.5)"><tspan x="0" y="0">Non-transferable resources</tspan></text>
</svg>