<?xml version="1.0" encoding="UTF-8"?>
<svg id="Layer_1" xmlns="http://www.w3.org/2000/svg" version="1.1" xmlns:xlink="http://www.w3.org/1999/xlink" viewBox="0 0 507.2 491.5">
  <!-- Generator: Adobe Illustrator 29.2.1, SVG Export Plug-In . SVG Version: 2.1.0 Build 116)  -->
  <defs>
    <style>
      .st0 {
        clip-path: url(#clippath-6);
      }

      .st1 {
        clip-path: url(#clippath-7);
      }

      .st2 {
        clip-path: url(#clippath-4);
      }

      .st3 {
        clip-path: url(#clippath-9);
      }

      .st4 {
        fill: #fff;
      }

      .st5, .st6, .st7, .st8 {
        fill: none;
      }

      .st9 {
        fill: #a8deef;
      }

      .st6 {
        stroke-dasharray: 6 6;
      }

      .st6, .st7, .st8 {
        stroke: #414042;
        stroke-miterlimit: 10;
      }

      .st7 {
        stroke-linecap: round;
        stroke-width: 2px;
      }

      .st10 {
        clip-path: url(#clippath-1);
      }

      .st11 {
        fill: #a8d4c5;
      }

      .st12 {
        fill: #e2e4e5;
      }

      .st13 {
        clip-path: url(#clippath-5);
      }

      .st14 {
        clip-path: url(#clippath-8);
      }

      .st15 {
        clip-path: url(#clippath-3);
      }

      .st16 {
        fill: #414042;
      }

      .st17 {
        clip-path: url(#clippath-2);
      }

      .st18 {
        clip-path: url(#clippath);
      }

      .st19 {
        fill: #fff1a4;
      }

      .st20 {
        fill: #f7a7b1;
      }
    </style>
    <clipPath id="clippath">
      <rect class="st5" width="507.2" height="491.5"/>
    </clipPath>
    <clipPath id="clippath-1">
      <rect class="st5" width="507.2" height="491.5"/>
    </clipPath>
    <clipPath id="clippath-2">
      <rect class="st5" width="507.2" height="491.5"/>
    </clipPath>
    <clipPath id="clippath-3">
      <rect class="st5" width="507.2" height="491.5"/>
    </clipPath>
    <clipPath id="clippath-4">
      <rect class="st5" width="507.2" height="491.5"/>
    </clipPath>
    <clipPath id="clippath-5">
      <rect class="st5" width="507.2" height="491.5"/>
    </clipPath>
    <clipPath id="clippath-6">
      <rect class="st5" width="507.2" height="491.5"/>
    </clipPath>
    <clipPath id="clippath-7">
      <rect class="st5" width="507.2" height="491.5"/>
    </clipPath>
    <clipPath id="clippath-8">
      <rect class="st5" width="507.2" height="491.5"/>
    </clipPath>
    <clipPath id="clippath-9">
      <rect class="st5" width="507.2" height="491.5"/>
    </clipPath>
  </defs>
  <g class="st18">
    <line class="st6" x1="253.6" y1="0" x2="253.6" y2="489.1"/>
  </g>
  <g>
    <path class="st16" d="M119.1,16v-7.2h1.9c.7,0,1.3.1,1.8.4.5.3.9.7,1.2,1.2.3.5.4,1.2.4,2s-.1,1.5-.4,2-.7.9-1.1,1.2c-.5.3-1.1.4-1.8.4h-2ZM120.4,15h.5c.5,0,.9,0,1.2-.3.3-.2.6-.5.7-.9.2-.4.3-.9.3-1.5s0-1.1-.3-1.4c-.2-.4-.4-.6-.7-.8-.3-.2-.7-.3-1.2-.3h-.5v5.1Z"/>
    <path class="st16" d="M128.5,16.1c-.5,0-1-.1-1.5-.3s-.8-.5-1.1-1c-.3-.4-.4-.9-.4-1.5s.1-1.1.4-1.5c.3-.4.6-.7,1-1,.4-.2.9-.3,1.4-.3s1,.1,1.4.3c.4.2.7.5.8.9.2.4.3.8.3,1.3s0,.2,0,.4c0,.1,0,.2,0,.3h-4.3v-.9h3.5l-.2.3c0-.5-.1-.9-.4-1.2-.2-.3-.6-.4-1-.4s-.6,0-.8.2-.4.4-.6.6c-.1.3-.2.6-.2,1s0,.8.2,1.1.4.5.7.6.6.2,1,.2.6,0,.8-.1c.2,0,.5-.2.7-.3l.4.8c-.3.2-.6.3-1,.5-.4.1-.7.2-1.1.2Z"/>
    <path class="st16" d="M134.1,16l-2.2-5.4h1.3l1,2.8c0,.3.2.5.3.8,0,.3.2.5.3.8h0c0-.3.2-.6.3-.8,0-.3.2-.5.3-.8l1-2.8h1.2l-2.1,5.4h-1.4Z"/>
    <path class="st16" d="M141.7,16.1c-.5,0-1-.1-1.5-.3s-.8-.5-1.1-1c-.3-.4-.4-.9-.4-1.5s.1-1.1.4-1.5c.3-.4.6-.7,1-1,.4-.2.9-.3,1.4-.3s1,.1,1.4.3c.4.2.7.5.8.9.2.4.3.8.3,1.3s0,.2,0,.4c0,.1,0,.2,0,.3h-4.3v-.9h3.5l-.2.3c0-.5-.1-.9-.4-1.2-.2-.3-.6-.4-1-.4s-.6,0-.8.2-.4.4-.6.6c-.1.3-.2.6-.2,1s0,.8.2,1.1.4.5.7.6.6.2,1,.2.6,0,.8-.1c.2,0,.5-.2.7-.3l.4.8c-.3.2-.6.3-1,.5-.4.1-.7.2-1.1.2Z"/>
    <path class="st16" d="M149.1,16.1c-.6,0-1.1-.2-1.4-.6-.3-.4-.5-.9-.5-1.5v-4.8h-1.8v-1h3v5.9c0,.4,0,.6.3.8.2.2.4.2.7.2s.3,0,.4,0c.1,0,.3,0,.5-.2l.3.9c-.3,0-.5.2-.7.2-.2,0-.5,0-.8,0Z"/>
    <path class="st16" d="M154.6,16.1c-.5,0-.9-.1-1.3-.3-.4-.2-.7-.5-1-1-.3-.4-.4-.9-.4-1.5s.1-1.1.4-1.5c.3-.4.6-.7,1-1,.4-.2.9-.3,1.3-.3s.9.1,1.3.3.7.5,1,1c.3.4.4.9.4,1.5s-.1,1.1-.4,1.5-.6.7-1,1-.9.3-1.3.3ZM154.6,15.1c.3,0,.5,0,.8-.2.2-.1.4-.4.5-.6.1-.3.2-.6.2-.9s0-.7-.2-.9c-.1-.3-.3-.5-.5-.6-.2-.2-.5-.2-.8-.2s-.5,0-.8.2-.4.4-.5.6c-.1.3-.2.6-.2.9s0,.7.2.9c.1.3.3.5.5.6.2.1.5.2.8.2Z"/>
    <path class="st16" d="M158.8,18.1v-7.5h1v.6h.1c.2-.2.5-.4.8-.5.3-.1.6-.2.9-.2.5,0,.9.1,1.2.3.3.2.6.5.7,1,.2.4.3.9.3,1.5s-.1,1.1-.3,1.6c-.2.4-.5.8-.9,1s-.8.3-1.2.3-.5,0-.8-.2c-.3-.1-.5-.3-.7-.5h0v.9c0,0,0,1.7,0,1.7h-1.3ZM161.2,15.1c.3,0,.5,0,.7-.2.2-.1.4-.3.5-.6.1-.3.2-.6.2-1s0-.7-.1-.9c0-.3-.2-.5-.4-.6-.2-.1-.4-.2-.7-.2s-.4,0-.6.2c-.2.1-.4.3-.6.5v2.4c.2.2.4.3.6.4.2,0,.4.1.6.1Z"/>
    <path class="st16" d="M168.1,16.1c-.5,0-1-.1-1.5-.3s-.8-.5-1.1-1c-.3-.4-.4-.9-.4-1.5s.1-1.1.4-1.5c.3-.4.6-.7,1-1,.4-.2.9-.3,1.4-.3s1,.1,1.4.3c.4.2.7.5.8.9.2.4.3.8.3,1.3s0,.2,0,.4c0,.1,0,.2,0,.3h-4.3v-.9h3.5l-.2.3c0-.5-.1-.9-.4-1.2-.2-.3-.6-.4-1-.4s-.6,0-.8.2-.4.4-.6.6c-.1.3-.2.6-.2,1s0,.8.2,1.1.4.5.7.6.6.2,1,.2.6,0,.8-.1c.2,0,.5-.2.7-.3l.4.8c-.3.2-.6.3-1,.5-.4.1-.7.2-1.1.2Z"/>
    <path class="st16" d="M172.5,16v-5.4h1v1.2h.1c.3-.4.6-.8,1-1,.4-.2.8-.3,1.3-.3s.4,0,.6,0c.2,0,.3,0,.5.2l-.3,1.1c-.2,0-.3-.1-.5-.1-.1,0-.3,0-.5,0-.4,0-.7.1-1.1.3-.3.2-.7.6-.9,1.1v3h-1.3Z"/>
    <path class="st16" d="M180.3,12.5l-.4-.7c.4-.2.7-.5.9-.7.2-.3.3-.6.3-1v-1c-.1,0,.5.8.5.8,0,0-.2.2-.3.2-.1,0-.3,0-.4,0-.3,0-.5,0-.6-.2-.2-.2-.3-.4-.3-.6s0-.5.3-.7c.2-.2.4-.3.7-.3s.6.1.8.4c.2.3.3.7.3,1.1s-.2,1.1-.5,1.5c-.3.4-.7.8-1.3,1.1Z"/>
    <path class="st16" d="M187.6,16.1c-.5,0-1,0-1.5-.2-.5-.2-.9-.4-1.2-.6l.5-.8c.3.2.7.4,1,.5.4.1.8.2,1.2.2s.7,0,.8-.2c.2-.1.3-.3.3-.5s0-.2,0-.2c0,0-.1-.1-.2-.2-.1,0-.3-.1-.5-.2-.2,0-.5-.1-.8-.2-.7-.2-1.2-.4-1.6-.6-.3-.3-.5-.6-.5-1s.2-.9.6-1.2c.4-.3,1-.5,1.8-.5s.9,0,1.3.2c.4.1.7.3,1,.5l-.6.8c-.3-.2-.5-.3-.8-.4s-.6-.1-.9-.1-.4,0-.6,0c-.1,0-.2.1-.3.2,0,0-.1.2-.1.3,0,.2.1.3.3.4.2,0,.6.2,1.1.3.6.1,1,.3,1.3.4s.5.3.7.5c.1.2.2.4.2.7s0,.6-.3.8c-.2.3-.5.5-.9.6-.4.1-.8.2-1.4.2Z"/>
    <path class="st16" d="M198,16v-5.4h1v.7h.1c.1-.2.3-.4.5-.6.2-.2.4-.2.7-.2s.5,0,.6.2c.2.2.3.4.4.7.1-.3.3-.5.5-.7.2-.2.4-.3.8-.3s.7.1.9.4.3.7.3,1.3v3.8h-1.2v-3.7c0-.5-.1-.7-.4-.7s-.3,0-.4.2-.2.3-.3.5v3.8h-1v-3.7c0-.2,0-.4-.1-.5,0-.1-.2-.2-.3-.2s-.3,0-.4.2-.2.3-.3.5v3.8h-1.2Z"/>
    <path class="st16" d="M206.6,16.1c-.4,0-.7,0-.9-.2-.3-.1-.5-.3-.6-.6-.2-.2-.2-.5-.2-.8,0-.6.3-1.1.9-1.4s1.5-.5,2.9-.6c0-.2,0-.4-.2-.5,0-.2-.2-.3-.4-.4-.2,0-.4-.1-.7-.1s-.4,0-.6,0c-.2,0-.4.1-.6.2s-.4.2-.6.3l-.5-.8c.2-.1.5-.3.7-.4.3-.1.5-.2.8-.3.3,0,.6-.1.9-.1.5,0,.9,0,1.3.3.3.2.6.4.8.8.2.3.3.8.3,1.3v3.2h-1v-.7h-.1c-.3.2-.6.4-1,.6-.3.2-.7.2-1.1.2ZM207,15.1c.3,0,.5,0,.8-.2s.5-.3.8-.5v-1.1c-.6,0-1.2.1-1.5.2-.4,0-.6.2-.8.4-.1.2-.2.3-.2.5s0,.3.1.4c0,.1.2.2.3.2.1,0,.3,0,.5,0Z"/>
    <path class="st16" d="M214.4,16.1c-.6,0-1.1-.1-1.5-.3-.5-.2-.8-.5-1.1-1s-.4-.9-.4-1.5.1-1.1.4-1.5c.3-.4.7-.7,1.1-1s1-.3,1.5-.3.8,0,1.2.2c.3.1.6.3.8.5l-.6.8c-.2-.2-.4-.3-.6-.4-.2,0-.4-.1-.7-.1-.4,0-.7,0-1,.2-.3.2-.5.4-.6.6-.2.3-.2.6-.2.9s0,.7.2.9c.2.3.4.5.6.6.3.1.6.2.9.2s.6,0,.8-.2c.3-.1.5-.3.7-.4l.5.8c-.3.3-.7.5-1,.6s-.8.2-1.2.2Z"/>
    <path class="st16" d="M218.2,16v-7.8h1.3v3.2c0,0,0,0,0,0,.2-.2.5-.5.8-.6.3-.2.7-.3,1.1-.3.6,0,1.1.2,1.4.6.3.4.4.9.4,1.6v3.3h-1.3v-3.2c0-.4,0-.8-.2-1-.2-.2-.4-.3-.8-.3s-.5,0-.7.2c-.2.1-.4.3-.7.6v3.7h-1.3Z"/>
    <path class="st16" d="M227.1,16v-4.4h-2.3v-1h3.6v5.4h-1.3ZM227.7,9.6c-.3,0-.5,0-.6-.2-.2-.2-.3-.4-.3-.6s0-.5.3-.6.4-.2.6-.2.5,0,.6.2c.2.2.3.4.3.6s0,.5-.3.6c-.2.2-.4.2-.6.2Z"/>
    <path class="st16" d="M231.4,16v-5.4h1v.8h.1c.3-.3.5-.5.9-.7.3-.2.7-.3,1.1-.3.6,0,1.1.2,1.4.6.3.4.4.9.4,1.6v3.3h-1.3v-3.2c0-.4,0-.8-.2-1-.2-.2-.4-.3-.8-.3s-.5,0-.7.2c-.2.1-.4.3-.7.6v3.7h-1.3Z"/>
    <path class="st16" d="M240.7,16.1c-.5,0-1-.1-1.5-.3s-.8-.5-1.1-1c-.3-.4-.4-.9-.4-1.5s.1-1.1.4-1.5c.3-.4.6-.7,1-1,.4-.2.9-.3,1.4-.3s1,.1,1.4.3c.4.2.7.5.8.9.2.4.3.8.3,1.3s0,.2,0,.4c0,.1,0,.2,0,.3h-4.3v-.9h3.5l-.2.3c0-.5-.1-.9-.4-1.2-.2-.3-.6-.4-1-.4s-.6,0-.8.2-.4.4-.6.6-.2.6-.2,1,0,.8.2,1.1c.2.3.4.5.7.6s.6.2,1,.2.5,0,.8-.1c.2,0,.5-.2.7-.3l.4.8c-.3.2-.6.3-1,.5-.4.1-.7.2-1.1.2Z"/>
  </g>
  <g>
    <path class="st16" d="M265.8,16v-7.2h2.4c.5,0,.9,0,1.3.2.4.1.7.4,1,.7.2.3.4.7.4,1.3s-.1.9-.4,1.3c-.2.3-.6.6-1,.7-.4.2-.8.2-1.3.2h-1.1v2.8h-1.3ZM267.1,12.2h1c.5,0,.9-.1,1.1-.3.3-.2.4-.5.4-.9s-.1-.7-.4-.9c-.3-.2-.6-.2-1.1-.2h-1v2.3ZM268,12.8l.9-.8,2.2,3.9h-1.4l-1.7-3.2Z"/>
    <path class="st16" d="M275.1,16.1c-.5,0-1-.1-1.5-.3s-.8-.5-1.1-1c-.3-.4-.4-.9-.4-1.5s.1-1.1.4-1.5c.3-.4.6-.7,1-1,.4-.2.9-.3,1.4-.3s1,.1,1.4.3c.4.2.7.5.8.9.2.4.3.8.3,1.3s0,.2,0,.4c0,.1,0,.2,0,.3h-4.3v-.9h3.5l-.2.3c0-.5-.1-.9-.4-1.2-.2-.3-.6-.4-1-.4s-.6,0-.8.2-.4.4-.6.6-.2.6-.2,1,0,.8.2,1.1c.2.3.4.5.7.6s.6.2,1,.2.5,0,.8-.1c.2,0,.5-.2.7-.3l.4.8c-.3.2-.6.3-1,.5-.4.1-.7.2-1.1.2Z"/>
    <path class="st16" d="M278.6,16v-5.4h1v.7h.1c.1-.2.3-.4.5-.6.2-.2.4-.2.7-.2s.5,0,.6.2c.2.2.3.4.4.7.1-.3.3-.5.5-.7.2-.2.4-.3.8-.3s.7.1.9.4.3.7.3,1.3v3.8h-1.2v-3.7c0-.5-.1-.7-.4-.7s-.3,0-.4.2c0,.1-.2.3-.3.5v3.8h-1v-3.7c0-.2,0-.4-.1-.5,0-.1-.2-.2-.3-.2s-.3,0-.4.2-.2.3-.3.5v3.8h-1.2Z"/>
    <path class="st16" d="M288,16.1c-.5,0-.9-.1-1.3-.3-.4-.2-.7-.5-1-1s-.4-.9-.4-1.5.1-1.1.4-1.5c.3-.4.6-.7,1-1,.4-.2.9-.3,1.3-.3s.9.1,1.3.3c.4.2.7.5,1,1,.3.4.4.9.4,1.5s-.1,1.1-.4,1.5-.6.7-1,1c-.4.2-.9.3-1.3.3ZM288,15.1c.3,0,.5,0,.8-.2.2-.1.4-.4.5-.6.1-.3.2-.6.2-.9s0-.7-.2-.9c-.1-.3-.3-.5-.5-.6-.2-.2-.5-.2-.8-.2s-.5,0-.8.2-.4.4-.5.6c-.1.3-.2.6-.2.9s0,.7.2.9c.1.3.3.5.5.6.2.1.5.2.8.2Z"/>
    <path class="st16" d="M295.6,16.1c-.5,0-1,0-1.3-.3-.3-.2-.6-.5-.7-.8s-.2-.7-.2-1.2v-2.2h-1.4v-.9h1.5c0,0,.2-1.8.2-1.8h1v1.7h2.5v1h-2.5v2.2c0,.3,0,.5.1.7s.2.3.4.4c.2,0,.4.1.7.1s.4,0,.6,0c.2,0,.4,0,.5-.2l.3.9c-.2,0-.5.2-.8.2-.3,0-.6,0-1,0Z"/>
    <path class="st16" d="M301.5,16.1c-.5,0-1-.1-1.5-.3s-.8-.5-1.1-1c-.3-.4-.4-.9-.4-1.5s.1-1.1.4-1.5c.3-.4.6-.7,1-1,.4-.2.9-.3,1.4-.3s1,.1,1.4.3c.4.2.7.5.8.9.2.4.3.8.3,1.3s0,.2,0,.4c0,.1,0,.2,0,.3h-4.3v-.9h3.5l-.2.3c0-.5-.1-.9-.4-1.2-.2-.3-.6-.4-1-.4s-.6,0-.8.2-.4.4-.6.6-.2.6-.2,1,0,.8.2,1.1c.2.3.4.5.7.6s.6.2,1,.2.5,0,.8-.1c.2,0,.5-.2.7-.3l.4.8c-.3.2-.6.3-1,.5-.4.1-.7.2-1.1.2Z"/>
    <path class="st16" d="M314,16.1c-.7,0-1.2-.2-1.7-.7-.4-.5-.6-1.2-.6-2.1s.1-1.1.3-1.5.5-.8.9-1c.4-.2.8-.3,1.2-.3s.6,0,.8.2c.2.1.5.3.7.5h0v-.9c0,0,0-2,0-2h1.3v7.8h-1v-.6h-.1c-.2.2-.5.4-.7.5-.3.1-.6.2-.9.2ZM314.3,15.1c.2,0,.4,0,.6-.2.2-.1.4-.3.6-.5v-2.4c-.2-.2-.4-.3-.6-.4-.2,0-.4-.1-.6-.1s-.5,0-.7.2c-.2.1-.4.3-.5.6-.1.3-.2.6-.2,1,0,.6.1,1,.3,1.3.2.3.6.5,1,.5Z"/>
    <path class="st16" d="M321.3,16.1c-.5,0-1-.1-1.5-.3s-.8-.5-1.1-1c-.3-.4-.4-.9-.4-1.5s.1-1.1.4-1.5c.3-.4.6-.7,1-1,.4-.2.9-.3,1.4-.3s1,.1,1.4.3c.4.2.7.5.8.9.2.4.3.8.3,1.3s0,.2,0,.4c0,.1,0,.2,0,.3h-4.3v-.9h3.5l-.2.3c0-.5-.1-.9-.4-1.2-.2-.3-.6-.4-1-.4s-.6,0-.8.2-.4.4-.6.6-.2.6-.2,1,0,.8.2,1.1c.2.3.4.5.7.6s.6.2,1,.2.5,0,.8-.1c.2,0,.5-.2.7-.3l.4.8c-.3.2-.6.3-1,.5-.4.1-.7.2-1.1.2Z"/>
    <path class="st16" d="M326.9,16l-2.2-5.4h1.3l1,2.8c0,.3.2.5.3.8s.2.5.3.8h0c0-.3.2-.6.3-.8s.2-.5.3-.8l1-2.8h1.2l-2.1,5.4h-1.4Z"/>
    <path class="st16" d="M334.2,16v-4.4h-2.3v-1h3.6v5.4h-1.3ZM334.7,9.6c-.3,0-.5,0-.6-.2-.2-.2-.3-.4-.3-.6s0-.5.3-.6c.2-.2.4-.2.6-.2s.5,0,.6.2.3.4.3.6,0,.5-.3.6c-.2.2-.4.2-.6.2Z"/>
    <path class="st16" d="M341.3,16.1c-.6,0-1.1-.1-1.5-.3s-.8-.5-1.1-1c-.3-.4-.4-.9-.4-1.5s.1-1.1.4-1.5c.3-.4.7-.7,1.1-1,.5-.2,1-.3,1.5-.3s.8,0,1.2.2c.3.1.6.3.8.5l-.6.8c-.2-.2-.4-.3-.6-.4-.2,0-.4-.1-.7-.1-.4,0-.7,0-1,.2-.3.2-.5.4-.6.6-.2.3-.2.6-.2.9s0,.7.2.9c.1.3.4.5.6.6.3.1.6.2.9.2s.6,0,.8-.2c.3-.1.5-.3.7-.4l.5.8c-.3.3-.7.5-1,.6-.4.1-.8.2-1.2.2Z"/>
    <path class="st16" d="M347.7,16.1c-.5,0-1-.1-1.5-.3s-.8-.5-1.1-1c-.3-.4-.4-.9-.4-1.5s.1-1.1.4-1.5c.3-.4.6-.7,1-1,.4-.2.9-.3,1.4-.3s1,.1,1.4.3c.4.2.7.5.8.9.2.4.3.8.3,1.3s0,.2,0,.4c0,.1,0,.2,0,.3h-4.3v-.9h3.5l-.2.3c0-.5-.1-.9-.4-1.2-.2-.3-.6-.4-1-.4s-.6,0-.8.2-.4.4-.6.6-.2.6-.2,1,0,.8.2,1.1c.2.3.4.5.7.6s.6.2,1,.2.5,0,.8-.1c.2,0,.5-.2.7-.3l.4.8c-.3.2-.6.3-1,.5-.4.1-.7.2-1.1.2Z"/>
  </g>
  <rect class="st4" x="298.8" y="68.1" width="207.9" height="195.9"/>
  <g class="st10">
    <rect class="st8" x="298.8" y="68.1" width="207.9" height="195.9"/>
  </g>
  <rect class="st11" x="408.4" y="149" width="92.1" height="63.6"/>
  <rect class="st8" x="408.4" y="149" width="92.1" height="63.6"/>
  <rect class="st19" x="304.6" y="149" width="92.1" height="63.6"/>
  <rect class="st8" x="304.6" y="149" width="92.1" height="63.6"/>
  <g>
    <path class="st16" d="M331.8,174.8v-8.7h2.3c.8,0,1.6.2,2.2.5.6.3,1.1.8,1.4,1.4s.5,1.4.5,2.4-.2,1.8-.5,2.4c-.3.6-.8,1.1-1.4,1.5-.6.3-1.3.5-2.1.5h-2.4ZM333.4,173.6h.6c.6,0,1-.1,1.4-.3.4-.2.7-.6.9-1,.2-.5.3-1,.3-1.8s-.1-1.3-.3-1.7c-.2-.5-.5-.8-.9-1-.4-.2-.9-.3-1.4-.3h-.6v6.2Z"/>
    <path class="st16" d="M343.1,175c-.7,0-1.3-.1-1.8-.4s-1-.7-1.3-1.2-.5-1.1-.5-1.8.2-1.3.5-1.8.7-.9,1.2-1.2,1.1-.4,1.6-.4,1.2.1,1.6.4.8.6,1,1.1c.2.5.4,1,.4,1.6s0,.3,0,.4,0,.3,0,.3h-5.2v-1.1h4.2l-.3.3c0-.6-.1-1.1-.4-1.5-.3-.3-.7-.5-1.2-.5s-.7,0-1,.3-.5.4-.7.8-.3.7-.3,1.2,0,.9.3,1.3c.2.3.5.6.8.7.3.2.7.2,1.2.2s.7,0,1-.1c.3,0,.6-.2.9-.4l.5,1c-.3.2-.7.4-1.2.6-.4.1-.9.2-1.4.2Z"/>
    <path class="st16" d="M351.1,175c-.3,0-.6,0-1-.2-.3-.1-.6-.4-.9-.6h0v.7h-1.3v-9.4h1.5v3.6c0,0,0,0,0,0,.3-.3.6-.5.9-.6.3-.2.7-.2,1.1-.2.6,0,1,.1,1.4.4.4.3.7.7.9,1.1.2.5.3,1.1.3,1.7s-.1,1.4-.4,1.9c-.3.5-.6.9-1.1,1.2-.4.3-.9.4-1.4.4ZM350.8,173.7c.3,0,.6,0,.8-.3.2-.2.4-.4.6-.7.1-.3.2-.7.2-1.2s0-.8-.2-1.1c-.1-.3-.3-.5-.5-.7s-.5-.2-.9-.2-.5,0-.8.2c-.3.1-.5.3-.8.6v2.9c.2.2.5.4.7.5.3,0,.5.1.7.1Z"/>
    <path class="st16" d="M357.8,175c-.8,0-1.3-.2-1.7-.7s-.5-1.1-.5-1.9v-4h1.5v3.8c0,.5,0,.9.3,1.2.2.2.5.4.9.4s.6,0,.8-.2c.3-.1.5-.4.8-.7v-4.4h1.5v6.5h-1.2v-1h-.2c-.3.4-.6.6-1,.9s-.8.3-1.3.3Z"/>
    <path class="st16" d="M366.4,177.7c-.6,0-1.1,0-1.6-.2s-.8-.3-1-.6-.4-.6-.4-1,0-.5.3-.7c.2-.2.4-.4.8-.6h0c-.2-.2-.3-.3-.5-.5s-.2-.4-.2-.7,0-.4.2-.6c.1-.2.3-.4.6-.6h0c-.2-.2-.4-.5-.6-.7-.2-.3-.2-.6-.2-1s.1-.9.4-1.3c.2-.3.6-.6,1-.8s.9-.3,1.3-.3.7,0,1,.2h2.7v1.2h-1.5c.1.1.2.3.3.5,0,.2.1.4.1.6,0,.5-.1.9-.3,1.2-.2.3-.5.6-.9.7-.4.2-.8.3-1.3.3s-.3,0-.5,0c-.2,0-.3,0-.5-.1-.1,0-.2.2-.3.3,0,0,0,.2,0,.3,0,.2.1.4.3.5.2.1.5.2.9.2h1.3c.8,0,1.5.1,1.9.4.4.2.7.6.7,1.2s-.2.8-.5,1.2-.7.6-1.3.8c-.6.2-1.2.3-2,.3ZM366.6,176.7c.4,0,.8,0,1.1-.1.3,0,.6-.2.7-.4.2-.2.3-.3.3-.5,0-.3-.1-.4-.3-.5s-.5-.1-1-.1h-1c-.2,0-.4,0-.6,0-.2,0-.3,0-.4,0-.2.1-.4.3-.5.4,0,.1-.1.3-.1.4,0,.3.2.5.5.7.3.2.8.2,1.4.2ZM366.4,171.8c.2,0,.4,0,.6-.2.2-.1.3-.3.4-.5.1-.2.2-.4.2-.7s0-.5-.2-.7c-.1-.2-.3-.3-.4-.5-.2-.1-.4-.2-.6-.2s-.4,0-.6.2c-.2.1-.3.3-.5.5-.1.2-.2.4-.2.7s0,.5.2.7c.1.2.3.3.5.5.2.1.4.2.6.2Z"/>
    <path class="st16" d="M338.8,190.9c-.6,0-1.2,0-1.8-.3-.6-.2-1-.4-1.4-.7l.7-1c.4.3.8.5,1.3.6.5.1.9.2,1.5.2s.8,0,1-.2c.2-.2.3-.3.3-.5s0-.2,0-.3-.1-.2-.3-.2c-.1,0-.3-.1-.5-.2s-.5-.1-.9-.2c-.9-.2-1.5-.4-1.9-.8-.4-.3-.6-.7-.6-1.2s.2-1,.7-1.4c.5-.4,1.2-.5,2.1-.5s1,0,1.5.3c.5.2.9.4,1.2.6l-.7.9c-.3-.2-.6-.4-1-.5s-.7-.2-1.1-.2-.5,0-.7,0c-.2,0-.3.1-.4.3,0,.1-.1.2-.1.4,0,.2.1.4.4.5.3.1.7.2,1.3.4.7.2,1.2.3,1.6.5.4.2.6.4.8.6.1.2.2.5.2.9s-.1.7-.4,1c-.2.3-.6.5-1,.7-.5.2-1,.3-1.7.3Z"/>
    <path class="st16" d="M347.9,190.9c-.7,0-1.2-.1-1.6-.4-.4-.2-.7-.6-.8-1s-.3-.9-.3-1.4v-2.7h-1.7v-1.1h1.8c0,0,.2-2.1.2-2.1h1.2v2h3v1.2h-3v2.7c0,.4,0,.6.1.9,0,.2.3.4.5.5.2.1.5.2.9.2s.5,0,.8,0c.2,0,.4-.1.7-.2l.3,1.1c-.3,0-.6.2-.9.3-.3,0-.7.1-1.1.1Z"/>
    <path class="st16" d="M353.8,190.9c-.8,0-1.3-.2-1.7-.7s-.5-1.1-.5-1.9v-4h1.5v3.8c0,.5,0,.9.3,1.2.2.2.5.4.9.4s.6,0,.8-.2c.3-.1.5-.4.8-.7v-4.4h1.5v6.5h-1.2v-1h-.2c-.3.4-.6.6-1,.9s-.8.3-1.3.3Z"/>
    <path class="st16" d="M363,190.9c-.3,0-.6,0-1-.2-.3-.1-.6-.4-.9-.6h0v.7h-1.3v-9.4h1.5v3.6c0,0,0,0,0,0,.3-.3.6-.5.9-.6.3-.2.7-.2,1.1-.2.6,0,1,.1,1.4.4.4.3.7.7.9,1.1.2.5.3,1.1.3,1.7s-.1,1.4-.4,1.9c-.3.5-.6.9-1.1,1.2-.4.3-.9.4-1.4.4ZM362.7,189.6c.3,0,.6,0,.8-.3.2-.2.4-.4.6-.7.1-.3.2-.7.2-1.2s0-.8-.2-1.1c-.1-.3-.3-.5-.5-.7s-.5-.2-.9-.2-.5,0-.8.2c-.3.1-.5.3-.8.6v2.9c.2.2.5.4.7.5.3,0,.5.1.7.1Z"/>
  </g>
  <g>
    <path class="st16" d="M428.9,184.6v-8.7h2.9c.6,0,1.1,0,1.6.2s.9.4,1.1.8c.3.4.4.9.4,1.5s-.1,1.1-.4,1.5c-.3.4-.7.7-1.1.9s-1,.3-1.6.3h-1.4v3.4h-1.5ZM430.5,180h1.2c.6,0,1.1-.1,1.4-.4s.5-.6.5-1.1-.2-.8-.5-1c-.3-.2-.8-.3-1.4-.3h-1.2v2.8ZM431.5,180.8l1.1-.9,2.7,4.7h-1.7l-2.1-3.8Z"/>
    <path class="st16" d="M438.9,184.7c-.8,0-1.3-.2-1.7-.7s-.5-1.1-.5-1.9v-4h1.5v3.8c0,.5,0,.9.3,1.2.2.2.5.4.9.4s.6,0,.8-.2c.3-.1.5-.4.8-.7v-4.4h1.5v6.5h-1.2v-1h-.2c-.3.4-.6.6-1,.9s-.8.3-1.3.3Z"/>
    <path class="st16" d="M444.8,184.6v-6.5h1.3v1h.2c.3-.3.7-.6,1-.8.4-.2.8-.3,1.3-.3.8,0,1.3.2,1.7.7.4.5.5,1.1.5,1.9v4h-1.5v-3.8c0-.5,0-.9-.3-1.2s-.5-.4-.9-.4-.6,0-.8.2c-.2.2-.5.4-.8.7v4.4h-1.5Z"/>
    <path class="st16" d="M456.9,184.7c-.7,0-1.2-.1-1.6-.4-.4-.2-.7-.6-.8-1s-.3-.9-.3-1.4v-2.7h-1.7v-1.1h1.8c0,0,.2-2.1.2-2.1h1.2v2h3v1.2h-3v2.7c0,.4,0,.6.1.9,0,.2.3.4.5.5.2.1.5.2.9.2s.5,0,.8,0c.2,0,.4-.1.7-.2l.3,1.1c-.3,0-.6.2-.9.3-.3,0-.7.1-1.1.1Z"/>
    <path class="st16" d="M463.6,184.6v-5.3h-2.8v-1.2h4.3v6.5h-1.5ZM464.2,176.9c-.3,0-.6,0-.8-.3s-.3-.4-.3-.7.1-.6.3-.7c.2-.2.5-.3.8-.3s.6,0,.8.3c.2.2.3.4.3.7s-.1.6-.3.7c-.2.2-.5.3-.8.3Z"/>
    <path class="st16" d="M468.2,184.6v-6.5h1.2v.8h.1c.2-.3.3-.5.6-.7s.5-.3.9-.3.6,0,.8.3c.2.2.3.5.4.8.2-.3.3-.6.6-.8.2-.2.5-.3.9-.3s.8.2,1.1.5.4.9.4,1.5v4.6h-1.5v-4.5c0-.6-.2-.9-.5-.9s-.3,0-.4.2c-.1.1-.2.3-.4.6v4.5h-1.3v-4.5c0-.3,0-.5-.1-.6s-.2-.2-.4-.2-.3,0-.4.2c-.1.1-.2.3-.4.6v4.5h-1.5Z"/>
    <path class="st16" d="M479.9,184.7c-.7,0-1.3-.1-1.8-.4s-1-.7-1.3-1.2-.5-1.1-.5-1.8.2-1.3.5-1.8.7-.9,1.2-1.2,1.1-.4,1.6-.4,1.2.1,1.6.4.8.6,1,1.1c.2.5.4,1,.4,1.6s0,.3,0,.4,0,.3,0,.3h-5.2v-1.1h4.2l-.3.3c0-.6-.1-1.1-.4-1.5-.3-.3-.7-.5-1.2-.5s-.7,0-1,.3-.5.4-.7.8-.3.7-.3,1.2,0,.9.3,1.3c.2.3.5.6.8.7.3.2.7.2,1.2.2s.7,0,1-.1c.3,0,.6-.2.9-.4l.5,1c-.3.2-.7.4-1.2.6-.4.1-.9.2-1.4.2Z"/>
  </g>
  <rect class="st11" x="304.6" y="223" width="196" height="34.3"/>
  <rect class="st8" x="304.6" y="223" width="196" height="34.3"/>
  <line class="st8" x1="500.6" y1="222.9" x2="500.6" y2="257.3"/>
  <line class="st8" x1="343.8" y1="222.9" x2="343.8" y2="257.3"/>
  <line class="st8" x1="383" y1="222.9" x2="383" y2="257.3"/>
  <line class="st8" x1="422.2" y1="222.9" x2="422.2" y2="257.3"/>
  <line class="st8" x1="461.4" y1="222.9" x2="461.4" y2="257.3"/>
  <rect class="st11" x="358.8" y="225.9" width="92" height="12"/>
  <g>
    <path class="st16" d="M373,234.3v-7.2h4.6v1.1h-3.3v1.8h2.8v1.1h-2.8v2.1h3.4v1.1h-4.7Z"/>
    <path class="st16" d="M381.1,234.3l-2.2-5.4h1.3l1,2.8c0,.3.2.5.3.8s.2.5.3.8h0c0-.3.2-.6.3-.8s.2-.5.3-.8l1-2.8h1.2l-2.1,5.4h-1.4Z"/>
    <path class="st16" d="M388.7,234.4c-.5,0-1-.1-1.5-.3s-.8-.5-1.1-1c-.3-.4-.4-.9-.4-1.5s.1-1.1.4-1.5c.3-.4.6-.7,1-1,.4-.2.9-.3,1.4-.3s1,.1,1.4.3c.4.2.7.5.8.9.2.4.3.8.3,1.3s0,.2,0,.4c0,.1,0,.2,0,.3h-4.3v-.9h3.5l-.2.3c0-.5-.1-.9-.4-1.2-.2-.3-.6-.4-1-.4s-.6,0-.8.2-.4.4-.6.6-.2.6-.2,1,0,.8.2,1.1c.2.3.4.5.7.6s.6.2,1,.2.5,0,.8-.1c.2,0,.5-.2.7-.3l.4.8c-.3.2-.6.3-1,.5-.4.1-.7.2-1.1.2Z"/>
    <path class="st16" d="M392.6,234.3v-5.4h1v.8h.1c.3-.3.5-.5.9-.7.3-.2.7-.3,1.1-.3.6,0,1.1.2,1.4.6.3.4.4.9.4,1.6v3.3h-1.3v-3.2c0-.4,0-.8-.2-1-.2-.2-.4-.3-.8-.3s-.5,0-.7.2c-.2.1-.4.3-.7.6v3.7h-1.3Z"/>
    <path class="st16" d="M402.6,234.4c-.5,0-1,0-1.3-.3-.3-.2-.6-.5-.7-.8s-.2-.7-.2-1.2v-2.2h-1.4v-.9h1.5c0,0,.2-1.8.2-1.8h1v1.7h2.5v1h-2.5v2.2c0,.3,0,.5.1.7s.2.3.4.4c.2,0,.4.1.7.1s.4,0,.6,0c.2,0,.4,0,.5-.2l.3.9c-.2,0-.5.2-.8.2-.3,0-.6,0-1,0Z"/>
    <path class="st16" d="M414.7,234.4c-.6,0-1-.1-1.5-.4-.4-.3-.8-.7-1-1.3-.2-.6-.4-1.2-.4-2s.1-1.5.4-2c.2-.6.6-1,1-1.3.4-.3.9-.4,1.5-.4s1,.1,1.5.4c.4.3.8.7,1,1.3.2.6.4,1.2.4,2s-.1,1.5-.4,2c-.2.6-.6,1-1,1.3-.4.3-.9.4-1.5.4ZM414.7,233.4c.3,0,.6-.1.8-.3.2-.2.4-.5.5-.9s.2-.9.2-1.5,0-1-.2-1.4c-.1-.4-.3-.7-.5-.9-.2-.2-.5-.3-.8-.3s-.6.1-.8.3-.4.5-.5.9c-.1.4-.2.9-.2,1.4s0,1.1.2,1.5.3.7.5.9c.2.2.5.3.8.3ZM416.8,236.2c-.7,0-1.2-.2-1.7-.5-.4-.4-.8-.8-1-1.4h1.3c0,.1.2.3.3.4s.3.2.5.3c.2,0,.4,0,.7,0s.2,0,.3,0c0,0,.2,0,.2,0l.2,1c-.1,0-.3,0-.4.1-.2,0-.3,0-.5,0Z"/>
    <path class="st16" d="M420.6,234.4c-.6,0-1.1-.2-1.4-.6s-.4-.9-.4-1.6v-3.3h1.3v3.2c0,.4,0,.8.2,1,.2.2.4.3.8.3s.5,0,.7-.2c.2-.1.4-.3.7-.6v-3.6h1.3v5.4h-1v-.9h-.1c-.3.3-.5.5-.8.7-.3.2-.7.3-1.1.3Z"/>
    <path class="st16" d="M428.3,234.4c-.5,0-1-.1-1.5-.3s-.8-.5-1.1-1c-.3-.4-.4-.9-.4-1.5s.1-1.1.4-1.5c.3-.4.6-.7,1-1,.4-.2.9-.3,1.4-.3s1,.1,1.4.3c.4.2.7.5.8.9.2.4.3.8.3,1.3s0,.2,0,.4c0,.1,0,.2,0,.3h-4.3v-.9h3.5l-.2.3c0-.5-.1-.9-.4-1.2-.2-.3-.6-.4-1-.4s-.6,0-.8.2-.4.4-.6.6-.2.6-.2,1,0,.8.2,1.1c.2.3.4.5.7.6s.6.2,1,.2.5,0,.8-.1c.2,0,.5-.2.7-.3l.4.8c-.3.2-.6.3-1,.5-.4.1-.7.2-1.1.2Z"/>
    <path class="st16" d="M433.8,234.4c-.6,0-1.1-.2-1.4-.6s-.4-.9-.4-1.6v-3.3h1.3v3.2c0,.4,0,.8.2,1,.2.2.4.3.8.3s.5,0,.7-.2c.2-.1.4-.3.7-.6v-3.6h1.3v5.4h-1v-.9h-.1c-.3.3-.5.5-.8.7-.3.2-.7.3-1.1.3Z"/>
    <path class="st16" d="M441.5,234.4c-.5,0-1-.1-1.5-.3s-.8-.5-1.1-1c-.3-.4-.4-.9-.4-1.5s.1-1.1.4-1.5c.3-.4.6-.7,1-1,.4-.2.9-.3,1.4-.3s1,.1,1.4.3c.4.2.7.5.8.9.2.4.3.8.3,1.3s0,.2,0,.4c0,.1,0,.2,0,.3h-4.3v-.9h3.5l-.2.3c0-.5-.1-.9-.4-1.2-.2-.3-.6-.4-1-.4s-.6,0-.8.2-.4.4-.6.6-.2.6-.2,1,0,.8.2,1.1c.2.3.4.5.7.6s.6.2,1,.2.5,0,.8-.1c.2,0,.5-.2.7-.3l.4.8c-.3.2-.6.3-1,.5-.4.1-.7.2-1.1.2Z"/>
  </g>
  <g>
    <path class="st16" d="M375.6,58.2c-.9,0-1.8-.2-2.6-.5-.8-.3-1.6-.8-2.2-1.4l1.4-1.6c.5.4,1,.8,1.7,1.1.6.3,1.3.4,2,.4s1.3-.1,1.7-.4c.4-.3.6-.7.6-1.1s0-.7-.3-.9-.4-.4-.8-.6-.7-.3-1.1-.5l-1.8-.8c-.5-.2-.9-.4-1.3-.7-.4-.3-.8-.7-1.1-1.1-.3-.5-.4-1-.4-1.6s.2-1.3.6-1.9c.4-.5.9-1,1.6-1.3.7-.3,1.5-.5,2.3-.5s1.6.1,2.3.4,1.4.7,1.9,1.2l-1.2,1.5c-.4-.4-.9-.6-1.4-.8-.5-.2-1.1-.3-1.7-.3s-1.1.1-1.5.4-.6.6-.6,1.1.1.6.3.8c.2.2.5.4.8.6.3.2.7.3,1.1.5l1.7.7c.6.2,1,.5,1.5.8.4.3.8.7,1,1.1.2.4.4,1,.4,1.6s-.2,1.3-.6,1.9c-.4.6-.9,1.1-1.7,1.4-.7.4-1.6.5-2.6.5Z"/>
    <path class="st16" d="M388,58.2c-1,0-1.9-.2-2.7-.6-.8-.4-1.5-1-1.9-1.8-.5-.8-.7-1.7-.7-2.8s.2-2,.7-2.7c.5-.8,1.1-1.3,1.9-1.8.8-.4,1.6-.6,2.5-.6s1.8.2,2.5.6c.7.4,1.2.9,1.5,1.6.4.7.5,1.5.5,2.4s0,.4,0,.7c0,.2,0,.4,0,.5h-7.8v-1.6h6.3l-.4.5c0-1-.2-1.7-.6-2.2-.4-.5-1-.7-1.8-.7s-1,.1-1.5.4c-.4.3-.8.6-1,1.1s-.4,1.1-.4,1.8.1,1.4.4,1.9c.3.5.7.9,1.2,1.1.5.2,1.1.4,1.8.4s1,0,1.4-.2.9-.3,1.3-.6l.8,1.4c-.5.3-1.1.6-1.8.8s-1.3.3-2.1.3Z"/>
    <path class="st16" d="M396,58v-9.8h1.9l.2,2.2h0c.5-.8,1.1-1.4,1.8-1.8.7-.4,1.5-.6,2.3-.6s.7,0,1,0c.3,0,.6.2.9.3l-.5,1.9c-.3-.1-.6-.2-.8-.2-.2,0-.6,0-.9,0-.7,0-1.3.2-1.9.6-.6.4-1.2,1.1-1.7,2v5.4h-2.3Z"/>
    <path class="st16" d="M410.1,58l-3.9-9.8h2.3l1.9,5.1c.2.5.3,1,.5,1.5.2.5.3,1,.5,1.5h0c.2-.5.3-1,.5-1.5.2-.5.3-1,.5-1.5l1.9-5.1h2.2l-3.8,9.8h-2.6Z"/>
    <path class="st16" d="M423.8,58.2c-1,0-1.9-.2-2.7-.6-.8-.4-1.5-1-1.9-1.8-.5-.8-.7-1.7-.7-2.8s.2-2,.7-2.7c.5-.8,1.1-1.3,1.9-1.8.8-.4,1.6-.6,2.5-.6s1.8.2,2.5.6c.7.4,1.2.9,1.5,1.6.4.7.5,1.5.5,2.4s0,.4,0,.7c0,.2,0,.4,0,.5h-7.8v-1.6h6.3l-.4.5c0-1-.2-1.7-.6-2.2-.4-.5-1-.7-1.8-.7s-1,.1-1.5.4c-.4.3-.8.6-1,1.1s-.4,1.1-.4,1.8.1,1.4.4,1.9c.3.5.7.9,1.2,1.1.5.2,1.1.4,1.8.4s1,0,1.4-.2.9-.3,1.3-.6l.8,1.4c-.5.3-1.1.6-1.8.8s-1.3.3-2.1.3Z"/>
    <path class="st16" d="M431.8,58v-9.8h1.9l.2,2.2h0c.5-.8,1.1-1.4,1.8-1.8.7-.4,1.5-.6,2.3-.6s.7,0,1,0c.3,0,.6.2.9.3l-.5,1.9c-.3-.1-.6-.2-.8-.2-.2,0-.6,0-.9,0-.7,0-1.3.2-1.9.6-.6.4-1.2,1.1-1.7,2v5.4h-2.3Z"/>
  </g>
  <g>
    <path class="st16" d="M370.6,109.3l2.8-8.7h1.8l2.8,8.7h-1.6l-1.3-4.6c-.1-.5-.3-.9-.4-1.4-.1-.5-.3-1-.4-1.4h0c-.1.5-.2,1-.4,1.4-.1.5-.3,1-.4,1.4l-1.3,4.6h-1.6ZM372.2,107v-1.2h4.1v1.2h-4.1Z"/>
    <path class="st16" d="M379.3,111.9v-9.1h1.3v.7h.2c.3-.3.6-.5,1-.6.4-.2.7-.3,1.1-.3.6,0,1.1.1,1.4.4s.7.7.9,1.2c.2.5.3,1.1.3,1.8s-.1,1.4-.4,1.9c-.3.5-.6.9-1.1,1.2-.4.3-.9.4-1.4.4s-.6,0-.9-.2c-.3-.1-.6-.3-.9-.6h0v1.1c0,0,0,2,0,2h-1.5ZM382.3,108.2c.3,0,.6,0,.8-.3.2-.2.4-.4.6-.7.1-.3.2-.7.2-1.2s0-.8-.2-1.1c-.1-.3-.3-.5-.5-.7s-.5-.2-.9-.2-.5,0-.8.2c-.3.1-.5.3-.8.6v2.9c.2.2.5.4.7.5.3,0,.5.1.7.1Z"/>
    <path class="st16" d="M387.3,111.9v-9.1h1.3v.7h.2c.3-.3.6-.5,1-.6.4-.2.7-.3,1.1-.3.6,0,1.1.1,1.4.4s.7.7.9,1.2c.2.5.3,1.1.3,1.8s-.1,1.4-.4,1.9c-.3.5-.6.9-1.1,1.2-.4.3-.9.4-1.4.4s-.6,0-.9-.2c-.3-.1-.6-.3-.9-.6h0v1.1c0,0,0,2,0,2h-1.5ZM390.2,108.2c.3,0,.6,0,.8-.3.2-.2.4-.4.6-.7.1-.3.2-.7.2-1.2s0-.8-.2-1.1c-.1-.3-.3-.5-.5-.7s-.5-.2-.9-.2-.5,0-.8.2c-.3.1-.5.3-.8.6v2.9c.2.2.5.4.7.5.3,0,.5.1.7.1Z"/>
    <path class="st16" d="M399.5,109.5c-.8,0-1.3-.2-1.7-.7-.4-.4-.6-1.1-.6-1.9v-5.8h-2.1v-1.2h3.6v7.1c0,.4.1.8.3.9.2.2.5.3.8.3s.3,0,.5,0,.4-.1.6-.2l.4,1.1c-.3.1-.6.2-.9.3-.3,0-.6.1-1,.1Z"/>
    <path class="st16" d="M406.1,109.3v-5.3h-2.8v-1.2h4.3v6.5h-1.5ZM406.7,101.6c-.3,0-.6,0-.8-.3s-.3-.4-.3-.7.1-.6.3-.7c.2-.2.5-.3.8-.3s.6,0,.8.3c.2.2.3.4.3.7s-.1.6-.3.7c-.2.2-.5.3-.8.3Z"/>
    <path class="st16" d="M414.6,109.5c-.7,0-1.3-.1-1.8-.4s-1-.7-1.3-1.2c-.3-.5-.5-1.1-.5-1.8s.2-1.3.5-1.8c.3-.5.8-.9,1.4-1.2.6-.3,1.2-.4,1.8-.4s1,0,1.4.3.7.4,1,.7l-.7,1c-.3-.2-.5-.4-.8-.5-.3-.1-.5-.2-.8-.2-.4,0-.8,0-1.1.3s-.6.4-.8.8c-.2.3-.3.7-.3,1.1s0,.8.3,1.1c.2.3.4.6.8.8.3.2.7.3,1.1.3s.7,0,1-.2c.3-.1.6-.3.8-.5l.6,1c-.4.3-.8.6-1.2.7-.5.2-.9.3-1.4.3Z"/>
    <path class="st16" d="M421.1,109.5c-.4,0-.8,0-1.1-.2-.3-.2-.6-.4-.8-.7-.2-.3-.3-.6-.3-1,0-.7.3-1.3,1-1.7.7-.4,1.8-.6,3.5-.7,0-.2,0-.5-.2-.6-.1-.2-.3-.3-.5-.5s-.5-.2-.9-.2-.5,0-.7,0c-.2,0-.5.1-.7.3-.2.1-.5.2-.7.3l-.6-1c.3-.2.6-.3.9-.4s.7-.2,1-.3.7-.1,1.1-.1c.6,0,1.1.1,1.5.3.4.2.7.5.9,1,.2.4.3.9.3,1.5v3.9h-1.2v-.8h-.2c-.3.3-.7.5-1.1.7s-.9.3-1.3.3ZM421.6,108.3c.3,0,.6,0,.9-.2.3-.1.6-.3.9-.6v-1.4c-.8,0-1.4.1-1.8.3-.4.1-.8.3-.9.5s-.3.4-.3.6,0,.4.2.5c.1.1.2.2.4.3.2,0,.4,0,.6,0Z"/>
    <path class="st16" d="M431.2,109.5c-.7,0-1.2-.1-1.6-.4-.4-.2-.7-.6-.8-1s-.3-.9-.3-1.4v-2.7h-1.7v-1.1h1.8c0,0,.2-2.1.2-2.1h1.2v2h3v1.2h-3v2.7c0,.4,0,.6.1.9,0,.2.3.4.5.5.2.1.5.2.9.2s.5,0,.8,0c.2,0,.4-.1.7-.2l.3,1.1c-.3,0-.6.2-.9.3-.3,0-.7.1-1.1.1Z"/>
    <path class="st16" d="M437.9,109.3v-5.3h-2.8v-1.2h4.3v6.5h-1.5ZM438.5,101.6c-.3,0-.6,0-.8-.3s-.3-.4-.3-.7.1-.6.3-.7c.2-.2.5-.3.8-.3s.6,0,.8.3c.2.2.3.4.3.7s-.1.6-.3.7c-.2.2-.5.3-.8.3Z"/>
    <path class="st16" d="M445.9,109.5c-.6,0-1.1-.1-1.6-.4s-.9-.7-1.2-1.2c-.3-.5-.5-1.1-.5-1.8s.2-1.3.5-1.8c.3-.5.7-.9,1.2-1.2.5-.3,1-.4,1.6-.4s1.1.1,1.6.4c.5.3.9.7,1.2,1.2s.5,1.1.5,1.8-.2,1.3-.5,1.8c-.3.5-.7.9-1.2,1.2-.5.3-1,.4-1.6.4ZM445.9,108.2c.4,0,.7,0,.9-.3.3-.2.5-.4.6-.8s.2-.7.2-1.1,0-.8-.2-1.1c-.1-.3-.3-.6-.6-.8-.3-.2-.6-.3-.9-.3s-.7,0-.9.3-.4.4-.6.8c-.1.3-.2.7-.2,1.1s0,.8.2,1.1c.1.3.3.6.6.8.3.2.6.3.9.3Z"/>
    <path class="st16" d="M450.9,109.3v-6.5h1.3v1h.2c.3-.3.7-.6,1-.8.4-.2.8-.3,1.3-.3.8,0,1.3.2,1.7.7.4.5.5,1.1.5,1.9v4h-1.5v-3.8c0-.5,0-.9-.3-1.2s-.5-.4-.9-.4-.6,0-.8.2c-.2.2-.5.4-.8.7v4.4h-1.5Z"/>
  </g>
  <rect class="st4" x="304.6" y="74" width="196" height="63.6"/>
  <rect class="st6" x="304.6" y="74" width="196" height="63.6"/>
  <rect class="st4" x=".5" y="266.7" width="207.9" height="195.9"/>
  <g class="st17">
    <rect class="st8" x=".5" y="266.7" width="207.9" height="195.9"/>
  </g>
  <rect class="st20" x="6.3" y="393.2" width="196" height="63.6"/>
  <rect class="st8" x="6.3" y="393.2" width="196" height="63.6"/>
  <rect class="st19" x="110.1" y="273.1" width="92.1" height="63.6"/>
  <rect class="st8" x="110.1" y="273.1" width="92.1" height="63.6"/>
  <rect class="st11" x="6.3" y="273.2" width="92.1" height="63.6"/>
  <rect class="st8" x="6.3" y="273.2" width="92.1" height="63.6"/>
  <g class="st15">
    <g>
      <path class="st16" d="M75.5,483c-.8,0-1.6-.1-2.3-.4-.7-.3-1.3-.7-1.9-1.3s-1-1.3-1.3-2.1-.4-1.8-.4-2.9.3-2.6.8-3.6c.5-1,1.2-1.8,2.1-2.3s1.9-.8,3.1-.8,1.5.2,2.2.5c.6.3,1.2.7,1.6,1.1l-1.3,1.4c-.3-.3-.7-.6-1.1-.8-.4-.2-.9-.3-1.4-.3s-1.3.2-1.9.6-1,.9-1.3,1.6c-.3.7-.5,1.5-.5,2.5s.2,1.8.5,2.5.7,1.3,1.3,1.6c.6.4,1.2.6,1.9.6s1-.1,1.5-.3c.4-.2.8-.5,1.2-.9l1.3,1.4c-.5.6-1.1,1.1-1.8,1.4-.7.3-1.5.5-2.3.5Z"/>
      <path class="st16" d="M88.4,483c-1.1,0-2-.3-2.6-1-.6-.7-.9-1.6-.9-2.8v-8.7h-3.2v-1.8h5.5v10.6c0,.7.2,1.1.5,1.4.3.3.8.4,1.2.4s.5,0,.8,0,.6-.2.9-.3l.5,1.7c-.5.2-.9.3-1.3.4-.4.1-.9.2-1.5.2Z"/>
      <path class="st16" d="M98.2,482.8v-7.9h-4.2v-1.8h6.5v9.8h-2.3ZM99.2,471.2c-.5,0-.9-.1-1.2-.4-.3-.3-.5-.7-.5-1.1s.2-.8.5-1.1c.3-.3.7-.4,1.2-.4s.9.1,1.2.4c.3.3.5.7.5,1.1s-.2.8-.5,1.1c-.3.3-.7.4-1.2.4Z"/>
      <path class="st16" d="M110.8,483c-1,0-1.9-.2-2.7-.6s-1.5-1-1.9-1.8c-.5-.8-.7-1.7-.7-2.8s.2-2,.7-2.7c.5-.8,1.1-1.3,1.9-1.8s1.6-.6,2.5-.6,1.8.2,2.5.6c.7.4,1.2.9,1.5,1.6.4.7.5,1.5.5,2.4s0,.4,0,.7,0,.4,0,.5h-7.8v-1.6h6.3l-.4.5c0-1-.2-1.7-.6-2.2-.4-.5-1-.7-1.8-.7s-1,.1-1.5.4-.8.6-1,1.1c-.3.5-.4,1.1-.4,1.8s.1,1.4.4,1.9c.3.5.7.9,1.2,1.1.5.2,1.1.4,1.8.4s1,0,1.4-.2.9-.3,1.3-.6l.8,1.4c-.5.3-1.1.6-1.8.8s-1.3.3-2.1.3Z"/>
      <path class="st16" d="M117.8,482.8v-9.8h1.9l.2,1.5h0c.5-.5,1-.9,1.5-1.2s1.2-.5,2-.5c1.1,0,2,.3,2.5,1,.5.7.8,1.7.8,2.9v6h-2.3v-5.7c0-.8-.1-1.4-.4-1.7s-.7-.6-1.4-.6-.9.1-1.3.3c-.4.2-.8.6-1.2,1v6.7h-2.3Z"/>
      <path class="st16" d="M135.9,483c-1,0-1.8-.2-2.4-.5-.6-.4-1-.8-1.3-1.5s-.4-1.3-.4-2.2v-4h-2.6v-1.7h2.7c0-.1.3-3.2.3-3.2h1.9v3.1h4.5v1.8h-4.5v4c0,.5,0,1,.2,1.3.1.4.4.6.7.8.3.2.8.2,1.3.2s.8,0,1.2,0,.7-.2,1-.3l.5,1.7c-.4.1-.9.3-1.4.4s-1.1.2-1.7.2Z"/>
    </g>
  </g>
  <g>
    <path class="st16" d="M118.4,295.4v-8.7h2.3c.8,0,1.6.2,2.2.5s1.1.8,1.4,1.4c.3.6.5,1.4.5,2.4s-.2,1.8-.5,2.4c-.3.7-.8,1.1-1.4,1.5-.6.3-1.3.5-2.1.5h-2.4ZM119.9,294.1h.6c.6,0,1-.1,1.4-.3.4-.2.7-.6.9-1,.2-.5.3-1,.3-1.8s-.1-1.3-.3-1.7c-.2-.5-.5-.8-.9-1-.4-.2-.9-.3-1.4-.3h-.6v6.2Z"/>
    <path class="st16" d="M129.7,295.5c-.7,0-1.3-.1-1.8-.4s-1-.7-1.3-1.2c-.3-.5-.5-1.1-.5-1.8s.2-1.3.5-1.8c.3-.5.7-.9,1.2-1.2.5-.3,1.1-.4,1.6-.4s1.2.1,1.6.4c.4.3.8.6,1,1.1.2.5.4,1,.4,1.6s0,.3,0,.4c0,.1,0,.3,0,.3h-5.2v-1.1h4.2l-.3.3c0-.6-.1-1.1-.4-1.5s-.7-.5-1.2-.5-.7,0-1,.3c-.3.2-.5.4-.7.8-.2.3-.3.7-.3,1.2s0,.9.3,1.3c.2.3.5.6.8.7.3.2.7.2,1.2.2s.7,0,1-.1c.3,0,.6-.2.9-.4l.5,1c-.3.2-.7.4-1.2.6s-.9.2-1.4.2Z"/>
    <path class="st16" d="M137.6,295.5c-.3,0-.6,0-1-.2-.3-.2-.6-.4-.9-.6h0v.7h-1.3v-9.4h1.5v3.6c0,0,0,0,0,0,.3-.3.6-.5.9-.6.3-.2.7-.2,1.1-.2.6,0,1,.1,1.4.4.4.3.7.7.9,1.1.2.5.3,1.1.3,1.7s-.1,1.4-.4,1.9c-.3.5-.6.9-1.1,1.2s-.9.4-1.4.4ZM137.3,294.3c.3,0,.6,0,.8-.3.2-.2.4-.4.6-.7.1-.3.2-.7.2-1.2s0-.8-.2-1.1c-.1-.3-.3-.5-.5-.7-.2-.2-.5-.2-.9-.2s-.5,0-.8.2c-.3.1-.5.3-.8.6v2.9c.2.2.5.4.7.5.3,0,.5.1.7.1Z"/>
    <path class="st16" d="M144.3,295.5c-.8,0-1.3-.2-1.7-.7s-.5-1.1-.5-1.9v-4h1.5v3.8c0,.5,0,.9.3,1.2.2.2.5.4.9.4s.6,0,.8-.2.5-.4.8-.7v-4.4h1.5v6.5h-1.2v-1h-.2c-.3.4-.6.6-1,.9-.4.2-.8.3-1.3.3Z"/>
    <path class="st16" d="M153,298.3c-.6,0-1.1,0-1.6-.2s-.8-.3-1-.6c-.2-.3-.4-.6-.4-1s0-.5.3-.7c.2-.2.4-.4.8-.6h0c-.2-.2-.3-.3-.5-.5-.1-.2-.2-.4-.2-.7s0-.4.2-.6c.1-.2.3-.4.6-.6h0c-.2-.2-.4-.5-.6-.7-.2-.3-.2-.6-.2-1s.1-.9.4-1.3c.2-.3.6-.6,1-.8s.9-.3,1.3-.3.7,0,1,.2h2.7v1.2h-1.5c.1.1.2.3.3.5s.1.4.1.6c0,.5-.1.9-.3,1.2-.2.3-.5.6-.9.7-.4.2-.8.3-1.3.3s-.3,0-.5,0c-.2,0-.3,0-.5-.1-.1,0-.2.2-.3.3,0,0,0,.2,0,.3,0,.2.1.4.3.5.2.1.5.2.9.2h1.3c.8,0,1.5.1,1.9.4.4.2.6.6.6,1.2s-.2.8-.5,1.2c-.3.3-.7.6-1.3.8s-1.2.3-2,.3ZM153.2,297.2c.4,0,.8,0,1.1-.1.3,0,.6-.2.7-.4.2-.2.3-.3.3-.5,0-.3-.1-.4-.3-.5s-.5-.1-1-.1h-1c-.2,0-.4,0-.6,0-.2,0-.3,0-.4,0-.2.1-.4.3-.5.4s-.1.3-.1.4c0,.3.2.5.5.7s.8.2,1.4.2ZM153,292.4c.2,0,.4,0,.6-.2.2-.1.3-.3.4-.5.1-.2.2-.4.2-.7s0-.5-.2-.7c-.1-.2-.3-.3-.4-.5-.2-.1-.4-.2-.6-.2s-.4,0-.6.2c-.2.1-.3.3-.5.5-.1.2-.2.4-.2.7s0,.5.2.7c.1.2.3.3.5.5.2.1.4.2.6.2Z"/>
    <path class="st16" d="M121.3,311.3v-5.3h-2.8v-1.2h4.3v6.5h-1.5ZM122,303.6c-.3,0-.6,0-.8-.3s-.3-.4-.3-.7.1-.6.3-.7c.2-.2.5-.3.8-.3s.6,0,.8.3c.2.2.3.4.3.7s-.1.6-.3.7-.5.3-.8.3Z"/>
    <path class="st16" d="M126.4,311.3v-6.5h1.3v1h.2c.3-.3.7-.6,1-.8.4-.2.8-.3,1.3-.3.8,0,1.3.2,1.7.7.4.5.5,1.1.5,1.9v4h-1.5v-3.8c0-.5,0-.9-.3-1.2-.2-.2-.5-.4-.9-.4s-.6,0-.8.2-.5.4-.8.7v4.4h-1.5Z"/>
    <path class="st16" d="M138.5,311.4c-.7,0-1.2-.1-1.6-.4s-.7-.6-.8-1c-.2-.4-.3-.9-.3-1.4v-2.7h-1.7v-1.1h1.8c0,0,.2-2.1.2-2.1h1.2v2h3v1.2h-3v2.7c0,.4,0,.6.1.9,0,.2.3.4.5.5.2.1.5.2.9.2s.5,0,.8,0c.2,0,.4-.1.6-.2l.3,1.1c-.3,0-.6.2-.9.3-.3,0-.7.1-1.1.1Z"/>
    <path class="st16" d="M145.6,311.4c-.7,0-1.3-.1-1.8-.4-.5-.3-1-.7-1.3-1.2-.3-.5-.5-1.1-.5-1.8s.2-1.3.5-1.8c.3-.5.7-.9,1.2-1.2.5-.3,1.1-.4,1.6-.4s1.2.1,1.6.4c.4.3.8.6,1,1.1.2.5.4,1,.4,1.6s0,.3,0,.4c0,.1,0,.3,0,.3h-5.2v-1.1h4.2l-.3.3c0-.6-.1-1.1-.4-1.5-.3-.3-.7-.5-1.2-.5s-.7,0-1,.3c-.3.2-.5.4-.7.8-.2.3-.3.7-.3,1.2s0,.9.3,1.3c.2.3.5.6.8.7.3.2.7.2,1.2.2s.7,0,1-.1c.3,0,.6-.2.9-.4l.5,1c-.3.2-.7.4-1.2.6s-.9.2-1.4.2Z"/>
    <path class="st16" d="M150.9,311.3v-6.5h1.3v1.5h.2c.3-.5.7-.9,1.2-1.2s1-.4,1.6-.4.5,0,.7,0,.4.1.6.2l-.3,1.3c-.2,0-.4-.1-.6-.2-.2,0-.4,0-.6,0-.4,0-.9.1-1.3.4-.4.3-.8.7-1.1,1.3v3.6h-1.5Z"/>
    <path class="st16" d="M158.4,306v-1.1h1.8c0,0,4,0,4,0v1.2h-5.8ZM160.2,311.3v-6.9c0-.5,0-1,.3-1.4.2-.4.5-.7.9-.9.4-.2.9-.3,1.6-.3s.7,0,1,0,.6.2.9.3l-.3,1.1c-.2,0-.5-.2-.7-.2-.2,0-.5,0-.7,0-.5,0-.9.1-1.1.4-.2.2-.3.6-.3,1.1v6.9h-1.5Z"/>
    <path class="st16" d="M168.2,311.4c-.4,0-.8,0-1.1-.2-.3-.2-.6-.4-.8-.7-.2-.3-.3-.6-.3-1,0-.7.3-1.3,1-1.7.7-.4,1.8-.6,3.5-.7,0-.2,0-.5-.2-.6s-.3-.3-.5-.5c-.2-.1-.5-.2-.9-.2s-.5,0-.7,0c-.2,0-.5.1-.7.3-.2.1-.5.2-.7.3l-.6-1c.3-.2.6-.3.9-.4.3-.1.7-.2,1-.3s.7-.1,1.1-.1c.6,0,1.1.1,1.5.3s.7.5.9,1c.2.4.3.9.3,1.5v3.9h-1.2v-.8h-.2c-.3.3-.7.5-1.1.7s-.9.3-1.3.3ZM168.7,310.2c.3,0,.6,0,.9-.2s.6-.3.9-.6v-1.4c-.8,0-1.4.1-1.8.3-.4.1-.8.3-.9.5s-.3.4-.3.6,0,.4.2.5c.1.1.2.2.4.3.2,0,.4,0,.6,0Z"/>
    <path class="st16" d="M177.6,311.4c-.7,0-1.3-.1-1.8-.4-.5-.3-1-.7-1.3-1.2-.3-.5-.5-1.1-.5-1.8s.2-1.3.5-1.8c.3-.5.8-.9,1.4-1.2s1.2-.4,1.8-.4,1,0,1.4.3c.4.2.7.4,1,.7l-.7,1c-.3-.2-.5-.4-.8-.5-.3-.1-.5-.2-.8-.2-.4,0-.8,0-1.1.3-.3.2-.6.4-.8.8-.2.3-.3.7-.3,1.1s0,.8.3,1.1c.2.3.4.6.8.8.3.2.7.3,1.1.3s.7,0,1-.2c.3-.1.6-.3.8-.5l.6,1c-.4.3-.8.6-1.2.7-.5.2-.9.3-1.4.3Z"/>
    <path class="st16" d="M185.4,311.4c-.7,0-1.3-.1-1.8-.4s-1-.7-1.3-1.2c-.3-.5-.5-1.1-.5-1.8s.2-1.3.5-1.8c.3-.5.7-.9,1.2-1.2.5-.3,1.1-.4,1.6-.4s1.2.1,1.6.4c.4.3.8.6,1,1.1.2.5.4,1,.4,1.6s0,.3,0,.4c0,.1,0,.3,0,.3h-5.2v-1.1h4.2l-.3.3c0-.6-.1-1.1-.4-1.5s-.7-.5-1.2-.5-.7,0-1,.3c-.3.2-.5.4-.7.8-.2.3-.3.7-.3,1.2s0,.9.3,1.3c.2.3.5.6.8.7.3.2.7.2,1.2.2s.7,0,1-.1c.3,0,.6-.2.9-.4l.5,1c-.3.2-.7.4-1.2.6s-.9.2-1.4.2Z"/>
  </g>
  <g>
    <path class="st16" d="M56.7,429.2l2.8-8.7h1.8l2.8,8.7h-1.6l-1.3-4.6c-.1-.5-.3-.9-.4-1.4-.1-.5-.3-1-.4-1.4h0c-.1.5-.2,1-.4,1.4-.1.5-.3,1-.4,1.4l-1.3,4.6h-1.6ZM58.4,426.9v-1.2h4.1v1.2h-4.1Z"/>
    <path class="st16" d="M65.5,431.8v-9.1h1.3v.7h.2c.3-.3.6-.5,1-.6.4-.2.7-.3,1.1-.3.6,0,1.1.1,1.4.4.4.3.7.7.9,1.2.2.5.3,1.1.3,1.8s-.1,1.4-.4,1.9-.6.9-1.1,1.2-.9.4-1.4.4-.6,0-.9-.2c-.3-.1-.6-.3-.9-.6h0v1.1c0,0,0,2,0,2h-1.5ZM68.4,428.1c.3,0,.6,0,.8-.3s.4-.4.6-.7c.1-.3.2-.7.2-1.2s0-.8-.2-1.1c-.1-.3-.3-.5-.5-.7-.2-.2-.5-.2-.9-.2s-.5,0-.8.2-.5.3-.8.6v2.9c.2.2.5.4.7.5s.5.1.7.1Z"/>
    <path class="st16" d="M73.4,431.8v-9.1h1.3v.7h.2c.3-.3.6-.5,1-.6.4-.2.7-.3,1.1-.3.6,0,1.1.1,1.4.4.4.3.7.7.9,1.2.2.5.3,1.1.3,1.8s-.1,1.4-.4,1.9-.6.9-1.1,1.2-.9.4-1.4.4-.6,0-.9-.2c-.3-.1-.6-.3-.9-.6h0v1.1c0,0,0,2,0,2h-1.5ZM76.4,428.1c.3,0,.6,0,.8-.3s.4-.4.6-.7c.1-.3.2-.7.2-1.2s0-.8-.2-1.1c-.1-.3-.3-.5-.5-.7-.2-.2-.5-.2-.9-.2s-.5,0-.8.2-.5.3-.8.6v2.9c.2.2.5.4.7.5s.5.1.7.1Z"/>
    <path class="st16" d="M85.6,429.4c-.8,0-1.3-.2-1.7-.7-.4-.4-.6-1.1-.6-1.9v-5.8h-2.1v-1.2h3.6v7.1c0,.4.1.8.3.9.2.2.5.3.8.3s.3,0,.5,0c.2,0,.4-.1.6-.2l.4,1.1c-.3.1-.6.2-.9.3-.3,0-.6.1-1,.1Z"/>
    <path class="st16" d="M92.2,429.2v-5.3h-2.8v-1.2h4.3v6.5h-1.5ZM92.9,421.5c-.3,0-.6,0-.8-.3-.2-.2-.3-.4-.3-.7s.1-.6.3-.7c.2-.2.5-.3.8-.3s.6,0,.8.3c.2.2.3.4.3.7s-.1.6-.3.7c-.2.2-.5.3-.8.3Z"/>
    <path class="st16" d="M100.8,429.4c-.7,0-1.3-.1-1.8-.4s-1-.7-1.3-1.2c-.3-.5-.5-1.1-.5-1.8s.2-1.3.5-1.8c.3-.5.8-.9,1.4-1.2.6-.3,1.2-.4,1.8-.4s1,0,1.4.3c.4.2.7.4,1,.7l-.7,1c-.3-.2-.5-.4-.8-.5-.3-.1-.5-.2-.8-.2-.4,0-.8,0-1.1.3-.3.2-.6.4-.8.8-.2.3-.3.7-.3,1.1s0,.8.3,1.1c.2.3.4.6.8.8.3.2.7.3,1.1.3s.7,0,1-.2c.3-.1.6-.3.8-.5l.6,1c-.4.3-.8.6-1.2.7-.5.2-.9.3-1.4.3Z"/>
    <path class="st16" d="M107.3,429.4c-.4,0-.8,0-1.1-.2-.3-.2-.6-.4-.8-.7-.2-.3-.3-.6-.3-1,0-.7.3-1.3,1-1.7s1.8-.6,3.5-.7c0-.2,0-.5-.2-.6-.1-.2-.3-.3-.5-.5-.2-.1-.5-.2-.9-.2s-.5,0-.7,0c-.2,0-.5.1-.7.3-.2.1-.5.2-.7.3l-.6-1c.3-.2.6-.3.9-.4.3-.1.7-.2,1-.3s.7-.1,1.1-.1c.6,0,1.1.1,1.5.3s.7.5.9,1c.2.4.3.9.3,1.5v3.9h-1.2v-.8h-.2c-.3.3-.7.5-1.1.7s-.9.3-1.3.3ZM107.8,428.2c.3,0,.6,0,.9-.2.3-.1.6-.3.9-.6v-1.4c-.8,0-1.4.1-1.8.3-.4.1-.8.3-.9.5s-.3.4-.3.6,0,.4.2.5c.1.1.2.2.4.3s.4,0,.6,0Z"/>
    <path class="st16" d="M117.3,429.4c-.7,0-1.2-.1-1.6-.4-.4-.2-.7-.6-.8-1-.2-.4-.3-.9-.3-1.4v-2.7h-1.7v-1.1h1.8c0,0,.2-2.1.2-2.1h1.2v2h3v1.2h-3v2.7c0,.4,0,.6.1.9s.3.4.5.5c.2.1.5.2.9.2s.5,0,.8,0c.2,0,.4-.1.6-.2l.3,1.1c-.3,0-.6.2-.9.3-.3,0-.7.1-1.1.1Z"/>
    <path class="st16" d="M124,429.2v-5.3h-2.8v-1.2h4.3v6.5h-1.5ZM124.7,421.5c-.3,0-.6,0-.8-.3-.2-.2-.3-.4-.3-.7s.1-.6.3-.7c.2-.2.5-.3.8-.3s.6,0,.8.3c.2.2.3.4.3.7s-.1.6-.3.7c-.2.2-.5.3-.8.3Z"/>
    <path class="st16" d="M132,429.4c-.6,0-1.1-.1-1.6-.4s-.9-.7-1.2-1.2c-.3-.5-.5-1.1-.5-1.8s.2-1.3.5-1.8c.3-.5.7-.9,1.2-1.2s1-.4,1.6-.4,1.1.1,1.6.4.9.7,1.2,1.2.5,1.1.5,1.8-.2,1.3-.5,1.8c-.3.5-.7.9-1.2,1.2s-1,.4-1.6.4ZM132,428.2c.4,0,.7,0,.9-.3s.5-.4.6-.8c.1-.3.2-.7.2-1.1s0-.8-.2-1.1c-.1-.3-.3-.6-.6-.8-.3-.2-.6-.3-.9-.3s-.7,0-.9.3c-.3.2-.4.4-.6.8s-.2.7-.2,1.1,0,.8.2,1.1c.1.3.3.6.6.8s.6.3.9.3Z"/>
    <path class="st16" d="M137.1,429.2v-6.5h1.3v1h.2c.3-.3.7-.6,1-.8.4-.2.8-.3,1.3-.3.8,0,1.3.2,1.7.7.4.5.5,1.1.5,1.9v4h-1.5v-3.8c0-.5,0-.9-.3-1.2-.2-.2-.5-.4-.9-.4s-.6,0-.8.2c-.2.2-.5.4-.8.7v4.4h-1.5Z"/>
  </g>
  <rect class="st11" x="6.3" y="347.5" width="196" height="34.3"/>
  <rect class="st8" x="6.3" y="347.5" width="196" height="34.3"/>
  <line class="st8" x1="202.3" y1="381.9" x2="202.3" y2="347.5"/>
  <line class="st8" x1="45.5" y1="381.9" x2="45.5" y2="347.5"/>
  <line class="st8" x1="84.7" y1="381.9" x2="84.7" y2="347.5"/>
  <line class="st8" x1="123.9" y1="381.9" x2="123.9" y2="347.5"/>
  <line class="st8" x1="163.1" y1="381.9" x2="163.1" y2="347.5"/>
  <rect class="st11" x="60.5" y="350.9" width="92" height="12"/>
  <g>
    <path class="st16" d="M74.7,359.3v-7.2h4.6v1.1h-3.3v1.8h2.8v1.1h-2.8v2.1h3.4v1.1h-4.7Z"/>
    <path class="st16" d="M82.7,359.3l-2.2-5.4h1.3l1,2.8c0,.3.2.5.3.8,0,.3.2.5.3.8h0c0-.3.2-.6.3-.8,0-.3.2-.5.3-.8l1-2.8h1.2l-2.1,5.4h-1.4Z"/>
    <path class="st16" d="M90.4,359.4c-.5,0-1-.1-1.5-.3s-.8-.5-1.1-1c-.3-.4-.4-.9-.4-1.5s.1-1.1.4-1.5c.3-.4.6-.7,1-1,.4-.2.9-.3,1.4-.3s1,.1,1.4.3c.4.2.7.5.8.9.2.4.3.8.3,1.3s0,.2,0,.4c0,.1,0,.2,0,.3h-4.3v-.9h3.5l-.2.3c0-.5-.1-.9-.4-1.2-.2-.3-.6-.4-1-.4s-.6,0-.8.2c-.2.1-.4.4-.6.6-.1.3-.2.6-.2,1s0,.8.2,1.1c.2.3.4.5.7.6s.6.2,1,.2.6,0,.8-.1c.2,0,.5-.2.7-.3l.4.8c-.3.2-.6.3-1,.5-.4.1-.7.2-1.1.2Z"/>
    <path class="st16" d="M94.2,359.3v-5.4h1v.8h.1c.3-.3.5-.5.9-.7s.7-.3,1.1-.3c.6,0,1.1.2,1.4.6.3.4.4.9.4,1.6v3.3h-1.3v-3.2c0-.4,0-.8-.2-1-.2-.2-.4-.3-.8-.3s-.5,0-.7.2c-.2.1-.4.3-.7.6v3.7h-1.3Z"/>
    <path class="st16" d="M104.2,359.4c-.5,0-1,0-1.3-.3-.3-.2-.6-.5-.7-.8s-.2-.7-.2-1.2v-2.2h-1.4v-.9h1.5c0,0,.2-1.8.2-1.8h1v1.7h2.5v1h-2.5v2.2c0,.3,0,.5.1.7s.2.3.4.4.4.1.7.1.4,0,.6,0c.2,0,.4,0,.5-.2l.3.9c-.2,0-.5.2-.8.2-.3,0-.6,0-1,0Z"/>
    <path class="st16" d="M116.4,359.4c-.6,0-1-.1-1.5-.4-.4-.3-.8-.7-1-1.3s-.4-1.2-.4-2,.1-1.5.4-2,.6-1,1-1.3c.4-.3.9-.4,1.5-.4s1,.1,1.5.4c.4.3.8.7,1,1.3s.4,1.2.4,2-.1,1.5-.4,2-.6,1-1,1.3c-.4.3-.9.4-1.5.4ZM116.4,358.4c.3,0,.6-.1.8-.3.2-.2.4-.5.5-.9s.2-.9.2-1.5,0-1-.2-1.4c-.1-.4-.3-.7-.5-.9-.2-.2-.5-.3-.8-.3s-.6.1-.8.3c-.2.2-.4.5-.5.9-.1.4-.2.9-.2,1.4s0,1.1.2,1.5c.1.4.3.7.5.9.2.2.5.3.8.3ZM118.5,361.2c-.7,0-1.2-.2-1.7-.5-.4-.4-.8-.8-1-1.4h1.3c0,.1.2.3.3.4.1.1.3.2.5.3.2,0,.4,0,.7,0s.2,0,.3,0c0,0,.2,0,.2,0l.2,1c-.1,0-.3,0-.4.1-.2,0-.3,0-.5,0Z"/>
    <path class="st16" d="M122.3,359.4c-.6,0-1.1-.2-1.4-.6-.3-.4-.4-.9-.4-1.6v-3.3h1.3v3.2c0,.4,0,.8.2,1,.1.2.4.3.8.3s.5,0,.7-.2.4-.3.7-.6v-3.6h1.3v5.4h-1v-.9h-.1c-.3.3-.5.5-.8.7-.3.2-.7.3-1.1.3Z"/>
    <path class="st16" d="M130,359.4c-.5,0-1-.1-1.5-.3s-.8-.5-1.1-1c-.3-.4-.4-.9-.4-1.5s.1-1.1.4-1.5c.3-.4.6-.7,1-1,.4-.2.9-.3,1.4-.3s1,.1,1.4.3c.4.2.7.5.8.9.2.4.3.8.3,1.3s0,.2,0,.4c0,.1,0,.2,0,.3h-4.3v-.9h3.5l-.2.3c0-.5-.1-.9-.4-1.2-.2-.3-.6-.4-1-.4s-.6,0-.8.2c-.2.1-.4.4-.6.6-.1.3-.2.6-.2,1s0,.8.2,1.1c.2.3.4.5.7.6s.6.2,1,.2.6,0,.8-.1c.2,0,.5-.2.7-.3l.4.8c-.3.2-.6.3-1,.5-.4.1-.7.2-1.1.2Z"/>
    <path class="st16" d="M135.5,359.4c-.6,0-1.1-.2-1.4-.6-.3-.4-.4-.9-.4-1.6v-3.3h1.3v3.2c0,.4,0,.8.2,1,.1.2.4.3.8.3s.5,0,.7-.2.4-.3.7-.6v-3.6h1.3v5.4h-1v-.9h-.1c-.3.3-.5.5-.8.7-.3.2-.7.3-1.1.3Z"/>
    <path class="st16" d="M143.2,359.4c-.5,0-1-.1-1.5-.3s-.8-.5-1.1-1c-.3-.4-.4-.9-.4-1.5s.1-1.1.4-1.5c.3-.4.6-.7,1-1,.4-.2.9-.3,1.4-.3s1,.1,1.4.3c.4.2.7.5.8.9.2.4.3.8.3,1.3s0,.2,0,.4c0,.1,0,.2,0,.3h-4.3v-.9h3.5l-.2.3c0-.5-.1-.9-.4-1.2-.2-.3-.6-.4-1-.4s-.6,0-.8.2c-.2.1-.4.4-.6.6-.1.3-.2.6-.2,1s0,.8.2,1.1c.2.3.4.5.7.6s.6.2,1,.2.6,0,.8-.1c.2,0,.5-.2.7-.3l.4.8c-.3.2-.6.3-1,.5-.4.1-.7.2-1.1.2Z"/>
  </g>
  <line class="st7" x1="159.1" y1="420.8" x2="159.1" y2="429.2"/>
  <line class="st7" x1="154.1" y1="420.8" x2="154.1" y2="429.2"/>
  <g class="st2">
    <rect class="st8" x=".5" y="68.1" width="207.9" height="150.6"/>
  </g>
  <rect class="st12" x="6.3" y="74" width="196" height="63.6"/>
  <rect class="st8" x="6.3" y="74" width="196" height="63.6"/>
  <polygon class="st4" points="69.1 91.2 69.1 125.2 43.8 125.2 43.8 96 49.9 91.2 69.1 91.2"/>
  <polygon class="st8" points="69.1 91.2 69.1 125.2 43.8 125.2 43.8 96 49.9 91.2 69.1 91.2"/>
  <polyline class="st8" points="43.8 96 49.7 97.1 49.9 91"/>
  <line class="st8" x1="53.2" y1="95.2" x2="66.4" y2="95.2"/>
  <line class="st8" x1="53.2" y1="98.5" x2="66.4" y2="98.5"/>
  <line class="st8" x1="46.8" y1="109.9" x2="66.4" y2="109.9"/>
  <line class="st8" x1="46.8" y1="112.9" x2="66.4" y2="112.9"/>
  <rect class="st12" x="43.8" y="115.8" width="25.2" height="9.4"/>
  <rect class="st8" x="43.8" y="115.8" width="25.2" height="9.4"/>
  <polygon class="st4" points="169.1 91.2 169.1 125.2 143.8 125.2 143.8 96 149.9 91.2 169.1 91.2"/>
  <polygon class="st8" points="169.1 91.2 169.1 125.2 143.8 125.2 143.8 96 149.9 91.2 169.1 91.2"/>
  <polyline class="st8" points="143.8 96 149.7 97.1 149.9 91"/>
  <line class="st8" x1="153.2" y1="95.2" x2="166.4" y2="95.2"/>
  <line class="st8" x1="153.2" y1="98.5" x2="166.4" y2="98.5"/>
  <line class="st8" x1="146.8" y1="109.9" x2="166.4" y2="109.9"/>
  <line class="st8" x1="146.8" y1="112.9" x2="166.4" y2="112.9"/>
  <line class="st8" x1="146.8" y1="115.9" x2="166.4" y2="115.9"/>
  <line class="st8" x1="146.8" y1="118.9" x2="166.4" y2="118.9"/>
  <line class="st8" x1="146.8" y1="121.9" x2="166.4" y2="121.9"/>
  <line class="st8" x1="46.8" y1="106.9" x2="66.4" y2="106.9"/>
  <line class="st8" x1="46.8" y1="104.1" x2="66.4" y2="104.1"/>
  <line class="st8" x1="46.8" y1="101.2" x2="66.4" y2="101.2"/>
  <line class="st8" x1="146.8" y1="107" x2="166.4" y2="107"/>
  <line class="st8" x1="146.8" y1="104.3" x2="166.4" y2="104.3"/>
  <line class="st8" x1="146.8" y1="101.4" x2="166.4" y2="101.4"/>
  <line class="st8" x1="79.5" y1="105.8" x2="129.1" y2="105.8"/>
  <polygon class="st16" points="128.4 108.3 132.7 105.8 128.4 103.3 128.4 108.3"/>
  <rect class="st19" x="110.1" y="148.8" width="92.1" height="63.6"/>
  <rect class="st8" x="110.1" y="148.8" width="92.1" height="63.6"/>
  <g>
    <path class="st16" d="M64.6,58v-13h8.3v1.9h-6v3.7h5.1v1.9h-5.1v5.4h-2.3Z"/>
    <path class="st16" d="M76.1,58v-9.8h1.9l.2,2.2h0c.5-.8,1.1-1.4,1.8-1.8.7-.4,1.5-.6,2.3-.6s.7,0,1,0c.3,0,.6.2.9.3l-.5,1.9c-.3-.1-.6-.2-.8-.2-.2,0-.6,0-.9,0-.7,0-1.3.2-1.9.6-.6.4-1.2,1.1-1.7,2v5.4h-2.3Z"/>
    <path class="st16" d="M91.4,58.2c-.9,0-1.7-.2-2.4-.6-.7-.4-1.3-1-1.8-1.8-.5-.8-.7-1.7-.7-2.8s.2-2,.7-2.8c.5-.8,1.1-1.3,1.8-1.8.7-.4,1.5-.6,2.4-.6s1.7.2,2.4.6c.7.4,1.3,1,1.8,1.8s.7,1.7.7,2.8-.2,2-.7,2.8c-.5.8-1.1,1.3-1.8,1.8-.7.4-1.5.6-2.4.6ZM91.4,56.4c.5,0,1-.1,1.4-.4.4-.3.7-.6.9-1.1.2-.5.3-1.1.3-1.7s0-1.2-.3-1.7-.5-.9-.9-1.1c-.4-.3-.8-.4-1.4-.4s-1,.1-1.4.4c-.4.3-.7.7-.9,1.1-.2.5-.3,1.1-.3,1.7s.1,1.2.3,1.7c.2.5.5.9.9,1.1s.8.4,1.4.4Z"/>
    <path class="st16" d="M99,58v-9.8h1.9l.2,1.5h0c.5-.5,1-.9,1.5-1.2.6-.3,1.2-.5,2-.5,1.1,0,2,.3,2.5,1,.5.7.8,1.7.8,2.9v6h-2.3v-5.7c0-.8-.1-1.4-.4-1.7s-.7-.6-1.4-.6-.9.1-1.3.3c-.4.2-.8.6-1.2,1v6.7h-2.3Z"/>
    <path class="st16" d="M117.1,58.2c-1,0-1.8-.2-2.4-.5-.6-.4-1-.8-1.3-1.5s-.4-1.3-.4-2.2v-4h-2.6v-1.7h2.7c0-.1.3-3.2.3-3.2h1.9v3.1h4.5v1.8h-4.5v4c0,.5,0,1,.2,1.3.1.4.4.6.7.8.3.2.8.2,1.3.2s.8,0,1.2,0,.7-.2,1-.3l.5,1.7c-.4.1-.9.3-1.4.4-.5.1-1.1.2-1.7.2Z"/>
    <path class="st16" d="M127.8,58.2c-1,0-1.9-.2-2.7-.6-.8-.4-1.5-1-1.9-1.8-.5-.8-.7-1.7-.7-2.8s.2-2,.7-2.7c.5-.8,1.1-1.3,1.9-1.8.8-.4,1.6-.6,2.5-.6s1.8.2,2.5.6c.7.4,1.2.9,1.5,1.6.4.7.5,1.5.5,2.4s0,.4,0,.7c0,.2,0,.4,0,.5h-7.8v-1.6h6.3l-.4.5c0-1-.2-1.7-.6-2.2-.4-.5-1-.7-1.8-.7s-1,.1-1.5.4c-.4.3-.8.6-1,1.1-.3.5-.4,1.1-.4,1.8s.1,1.4.4,1.9c.3.5.7.9,1.2,1.1.5.2,1.1.4,1.8.4s1,0,1.4-.2.9-.3,1.3-.6l.8,1.4c-.5.3-1.1.6-1.8.8s-1.3.3-2.1.3Z"/>
    <path class="st16" d="M134.8,58v-9.8h1.9l.2,1.5h0c.5-.5,1-.9,1.5-1.2.6-.3,1.2-.5,2-.5,1.1,0,2,.3,2.5,1,.5.7.8,1.7.8,2.9v6h-2.3v-5.7c0-.8-.1-1.4-.4-1.7s-.7-.6-1.4-.6-.9.1-1.3.3c-.4.2-.8.6-1.2,1v6.7h-2.3Z"/>
    <path class="st16" d="M150.3,58.2c-1.2,0-2.3-.5-3-1.4-.8-.9-1.2-2.2-1.2-3.8s.2-2,.6-2.7.9-1.4,1.6-1.8c.7-.4,1.4-.6,2.1-.6s1.1,0,1.5.3.8.5,1.2.9h0v-1.7c-.1,0-.1-3.5-.1-3.5h2.3v14h-1.9l-.2-1.1h0c-.4.4-.8.7-1.3,1s-1.1.4-1.6.4ZM150.9,56.4c.4,0,.8,0,1.2-.3.4-.2.7-.5,1.1-.9v-4.4c-.3-.3-.7-.6-1-.7-.3-.1-.7-.2-1.1-.2s-.9.1-1.2.4c-.4.3-.7.6-.9,1.1-.2.5-.3,1.1-.3,1.8,0,1,.2,1.8.6,2.4.4.6,1,.8,1.7.8Z"/>
  </g>
  <g>
    <path class="st16" d="M25.9,87.8c-.5,0-1,0-1.5-.3s-.9-.4-1.2-.8l.7-.9c.3.2.6.4.9.6.3.2.7.2,1.1.2s.7,0,1-.2c.2-.2.3-.4.3-.6s0-.4-.2-.5c-.1-.1-.2-.2-.4-.3s-.4-.2-.6-.3l-1-.4c-.2-.1-.5-.2-.7-.4-.2-.2-.4-.4-.6-.6-.2-.2-.2-.6-.2-.9s.1-.7.3-1c.2-.3.5-.5.9-.7.4-.2.8-.3,1.3-.3s.9,0,1.3.2.8.4,1.1.7l-.7.8c-.2-.2-.5-.4-.8-.5-.3-.1-.6-.2-1-.2s-.6,0-.8.2c-.2.1-.3.4-.3.6s0,.3.2.5.3.2.5.3.4.2.6.3l.9.4c.3.1.6.3.8.4.2.2.4.4.6.6.1.2.2.5.2.9s-.1.7-.3,1.1c-.2.3-.5.6-.9.8-.4.2-.9.3-1.4.3Z"/>
    <path class="st16" d="M32.4,87.8c-.5,0-.9-.1-1.3-.3-.4-.2-.7-.5-1-1-.3-.4-.4-.9-.4-1.5s.1-1.1.4-1.5c.3-.4.6-.7,1-1,.4-.2.9-.3,1.3-.3s.9.1,1.3.3.7.5,1,1c.3.4.4.9.4,1.5s-.1,1.1-.4,1.5-.6.7-1,1-.9.3-1.3.3ZM32.4,86.8c.3,0,.5,0,.8-.2.2-.1.4-.4.5-.6.1-.3.2-.6.2-.9s0-.7-.2-.9c-.1-.3-.3-.5-.5-.6-.2-.2-.5-.2-.8-.2s-.5,0-.8.2-.4.4-.5.6c-.1.3-.2.6-.2.9s0,.7.2.9c.1.3.3.5.5.6.2.1.5.2.8.2Z"/>
    <path class="st16" d="M38.3,87.8c-.6,0-1.1-.2-1.4-.6-.3-.4-.4-.9-.4-1.6v-3.3h1.3v3.2c0,.4,0,.8.2,1,.1.2.4.3.8.3s.5,0,.7-.2c.2-.1.4-.3.7-.6v-3.6h1.3v5.4h-1v-.9h-.1c-.3.3-.5.5-.8.7s-.7.3-1.1.3Z"/>
    <path class="st16" d="M43.8,87.7v-5.4h1v1.2h.1c.3-.4.6-.8,1-1,.4-.2.8-.3,1.3-.3s.4,0,.6,0c.2,0,.3,0,.5.2l-.3,1.1c-.2,0-.3-.1-.5-.1-.1,0-.3,0-.5,0-.4,0-.7.1-1.1.3-.3.2-.7.6-.9,1.1v3h-1.3Z"/>
    <path class="st16" d="M52.7,87.8c-.6,0-1.1-.1-1.5-.3-.5-.2-.8-.5-1.1-1s-.4-.9-.4-1.5.1-1.1.4-1.5c.3-.4.7-.7,1.1-1s1-.3,1.5-.3.8,0,1.2.2c.3.1.6.3.8.5l-.6.8c-.2-.2-.4-.3-.6-.4-.2,0-.4-.1-.7-.1-.4,0-.7,0-1,.2-.3.2-.5.4-.6.6-.2.3-.2.6-.2.9s0,.7.2.9c.2.3.4.5.6.6.3.1.6.2.9.2s.6,0,.8-.2c.3-.1.5-.3.7-.4l.5.8c-.3.3-.7.5-1,.6s-.8.2-1.2.2Z"/>
    <path class="st16" d="M59.2,87.8c-.5,0-1-.1-1.5-.3s-.8-.5-1.1-1c-.3-.4-.4-.9-.4-1.5s.1-1.1.4-1.5c.3-.4.6-.7,1-1,.4-.2.9-.3,1.4-.3s1,.1,1.4.3c.4.2.7.5.8.9.2.4.3.8.3,1.3s0,.2,0,.4c0,.1,0,.2,0,.3h-4.3v-.9h3.5l-.2.3c0-.5-.1-.9-.4-1.2-.2-.3-.6-.4-1-.4s-.6,0-.8.2-.4.4-.6.6c-.1.3-.2.6-.2,1s0,.8.2,1.1.4.5.7.6.6.2,1,.2.6,0,.8-.1c.2,0,.5-.2.7-.3l.4.8c-.3.2-.6.3-1,.5-.4.1-.7.2-1.1.2Z"/>
    <path class="st16" d="M72.6,87.8c-.4,0-.9,0-1.3-.2-.4-.2-.7-.4-1-.7-.3-.3-.5-.7-.7-1.2-.2-.5-.2-1-.2-1.6s.1-1.5.4-2c.3-.6.7-1,1.2-1.3.5-.3,1.1-.4,1.7-.4s.8,0,1.2.3c.4.2.6.4.9.6l-.7.8c-.2-.2-.4-.3-.6-.4-.2-.1-.5-.2-.8-.2s-.7.1-1.1.3c-.3.2-.5.5-.7.9-.2.4-.3.9-.3,1.4s0,1,.3,1.4c.2.4.4.7.7.9s.7.3,1.1.3.6,0,.8-.2.5-.3.7-.5l.7.8c-.3.3-.6.6-1,.8-.4.2-.8.3-1.3.3Z"/>
    <path class="st16" d="M78.6,87.8c-.5,0-.9-.1-1.3-.3-.4-.2-.7-.5-1-1-.3-.4-.4-.9-.4-1.5s.1-1.1.4-1.5c.3-.4.6-.7,1-1,.4-.2.9-.3,1.3-.3s.9.1,1.3.3.7.5,1,1c.3.4.4.9.4,1.5s-.1,1.1-.4,1.5-.6.7-1,1-.9.3-1.3.3ZM78.6,86.8c.3,0,.5,0,.8-.2.2-.1.4-.4.5-.6.1-.3.2-.6.2-.9s0-.7-.2-.9c-.1-.3-.3-.5-.5-.6-.2-.2-.5-.2-.8-.2s-.5,0-.8.2-.4.4-.5.6c-.1.3-.2.6-.2.9s0,.7.2.9c.1.3.3.5.5.6.2.1.5.2.8.2Z"/>
    <path class="st16" d="M85.1,87.8c-.7,0-1.2-.2-1.7-.7-.4-.5-.6-1.2-.6-2.1s.1-1.1.3-1.5c.2-.4.5-.8.9-1,.4-.2.8-.3,1.2-.3s.6,0,.8.2c.2.1.5.3.7.5h0v-.9c0,0,0-2,0-2h1.3v7.8h-1v-.6h-.1c-.2.2-.5.4-.7.5-.3.1-.6.2-.9.2ZM85.5,86.8c.2,0,.4,0,.6-.2.2-.1.4-.3.6-.5v-2.4c-.2-.2-.4-.3-.6-.4-.2,0-.4-.1-.6-.1s-.5,0-.7.2c-.2.1-.4.3-.5.6-.1.3-.2.6-.2,1,0,.6.1,1,.3,1.3.2.3.6.5,1,.5Z"/>
    <path class="st16" d="M92.5,87.8c-.5,0-1-.1-1.5-.3s-.8-.5-1.1-1c-.3-.4-.4-.9-.4-1.5s.1-1.1.4-1.5c.3-.4.6-.7,1-1,.4-.2.9-.3,1.4-.3s1,.1,1.4.3c.4.2.7.5.8.9.2.4.3.8.3,1.3s0,.2,0,.4c0,.1,0,.2,0,.3h-4.3v-.9h3.5l-.2.3c0-.5-.1-.9-.4-1.2-.2-.3-.6-.4-1-.4s-.6,0-.8.2-.4.4-.6.6c-.1.3-.2.6-.2,1s0,.8.2,1.1.4.5.7.6.6.2,1,.2.6,0,.8-.1c.2,0,.5-.2.7-.3l.4.8c-.3.2-.6.3-1,.5-.4.1-.7.2-1.1.2Z"/>
  </g>
  <g>
    <path class="st16" d="M138.9,175.8v-8.7h2.3c.8,0,1.6.2,2.2.5.6.3,1.1.8,1.4,1.4s.5,1.4.5,2.4-.2,1.8-.5,2.4c-.3.6-.8,1.1-1.4,1.5-.6.3-1.3.5-2.1.5h-2.4ZM140.4,174.6h.6c.6,0,1-.1,1.4-.3.4-.2.7-.6.9-1,.2-.5.3-1,.3-1.8s-.1-1.3-.3-1.7c-.2-.5-.5-.8-.9-1-.4-.2-.9-.3-1.4-.3h-.6v6.2Z"/>
    <path class="st16" d="M150.2,176c-.7,0-1.3-.1-1.8-.4-.5-.3-1-.7-1.3-1.2-.3-.5-.5-1.1-.5-1.8s.2-1.3.5-1.8c.3-.5.7-.9,1.2-1.2s1.1-.4,1.6-.4,1.2.1,1.6.4.8.6,1,1.1c.2.5.4,1,.4,1.6s0,.3,0,.4c0,.1,0,.3,0,.3h-5.2v-1.1h4.2l-.3.3c0-.6-.1-1.1-.4-1.5-.3-.3-.7-.5-1.2-.5s-.7,0-1,.3c-.3.2-.5.4-.7.8s-.3.7-.3,1.2,0,.9.3,1.3c.2.3.5.6.8.7.3.2.7.2,1.2.2s.7,0,1-.1c.3,0,.6-.2.9-.4l.5,1c-.3.2-.7.4-1.2.6-.4.1-.9.2-1.4.2Z"/>
    <path class="st16" d="M158.1,176c-.3,0-.6,0-1-.2-.3-.1-.6-.4-.9-.6h0v.7h-1.3v-9.4h1.5v3.6c0,0,0,0,0,0,.3-.3.6-.5.9-.6.3-.2.7-.2,1.1-.2.6,0,1,.1,1.4.4.4.3.7.7.9,1.1.2.5.3,1.1.3,1.7s-.1,1.4-.4,1.9-.6.9-1.1,1.2c-.4.3-.9.4-1.4.4ZM157.8,174.7c.3,0,.6,0,.8-.3.2-.2.4-.4.6-.7.1-.3.2-.7.2-1.2s0-.8-.2-1.1c-.1-.3-.3-.5-.5-.7-.2-.2-.5-.2-.9-.2s-.5,0-.8.2c-.3.1-.5.3-.8.6v2.9c.2.2.5.4.7.5s.5.1.7.1Z"/>
    <path class="st16" d="M164.8,176c-.8,0-1.3-.2-1.7-.7s-.5-1.1-.5-1.9v-4h1.5v3.8c0,.5,0,.9.3,1.2.2.2.5.4.9.4s.6,0,.8-.2c.3-.1.5-.4.8-.7v-4.4h1.5v6.5h-1.2v-1h-.2c-.3.4-.6.6-1,.9-.4.2-.8.3-1.3.3Z"/>
    <path class="st16" d="M173.5,178.7c-.6,0-1.1,0-1.6-.2s-.8-.3-1-.6-.4-.6-.4-1,0-.5.3-.7c.2-.2.4-.4.8-.6h0c-.2-.2-.3-.3-.5-.5-.1-.2-.2-.4-.2-.7s0-.4.2-.6c.1-.2.3-.4.6-.6h0c-.2-.2-.4-.5-.6-.7-.2-.3-.2-.6-.2-1s.1-.9.4-1.3c.2-.3.6-.6,1-.8.4-.2.9-.3,1.3-.3s.7,0,1,.2h2.7v1.2h-1.5c.1.1.2.3.3.5s.1.4.1.6c0,.5-.1.9-.3,1.2-.2.3-.5.6-.9.7-.4.2-.8.3-1.3.3s-.3,0-.5,0c-.2,0-.3,0-.5-.1-.1,0-.2.2-.3.3,0,0,0,.2,0,.3,0,.2.1.4.3.5.2.1.5.2.9.2h1.3c.8,0,1.5.1,1.9.4.4.2.6.6.6,1.2s-.2.8-.5,1.2c-.3.3-.7.6-1.3.8-.6.2-1.2.3-2,.3ZM173.6,177.7c.4,0,.8,0,1.1-.1.3,0,.6-.2.7-.4.2-.2.3-.3.3-.5,0-.3-.1-.4-.3-.5-.2,0-.5-.1-1-.1h-1c-.2,0-.4,0-.6,0-.2,0-.3,0-.4,0-.2.1-.4.3-.5.4,0,.1-.1.3-.1.4,0,.3.2.5.5.7.3.2.8.2,1.4.2ZM173.5,172.8c.2,0,.4,0,.6-.2.2-.1.3-.3.4-.5.1-.2.2-.4.2-.7s0-.5-.2-.7c-.1-.2-.3-.3-.4-.5-.2-.1-.4-.2-.6-.2s-.4,0-.6.2c-.2.1-.3.3-.5.5-.1.2-.2.4-.2.7s0,.5.2.7c.1.2.3.3.5.5.2.1.4.2.6.2Z"/>
    <path class="st16" d="M130.5,191.7v-6.5h1.2v.8h.1c.2-.3.3-.5.6-.7.2-.2.5-.3.9-.3s.6,0,.8.3c.2.2.3.5.4.8.1-.3.3-.6.6-.8.2-.2.5-.3.9-.3s.8.2,1.1.5.4.9.4,1.5v4.6h-1.5v-4.5c0-.6-.2-.9-.5-.9s-.3,0-.4.2c-.1.1-.2.3-.4.6v4.5h-1.3v-4.5c0-.3,0-.5-.1-.6,0-.1-.2-.2-.4-.2s-.3,0-.4.2c-.1.1-.2.3-.4.6v4.5h-1.5Z"/>
    <path class="st16" d="M141,191.9c-.4,0-.8,0-1.1-.2-.3-.2-.6-.4-.8-.7-.2-.3-.3-.6-.3-1,0-.7.3-1.3,1-1.7.7-.4,1.8-.6,3.5-.7,0-.2,0-.5-.2-.6-.1-.2-.3-.3-.5-.5-.2-.1-.5-.2-.9-.2s-.5,0-.7,0c-.2,0-.5.1-.7.3-.2.1-.5.2-.7.3l-.6-1c.3-.2.6-.3.9-.4s.7-.2,1-.3.7-.1,1.1-.1c.6,0,1.1.1,1.5.3.4.2.7.5.9,1,.2.4.3.9.3,1.5v3.9h-1.2v-.8h-.2c-.3.3-.7.5-1.1.7s-.9.3-1.3.3ZM141.4,190.7c.3,0,.6,0,.9-.2.3-.1.6-.3.9-.6v-1.4c-.8,0-1.4.1-1.8.3-.4.1-.8.3-.9.5s-.3.4-.3.6,0,.4.2.5c.1.1.2.2.4.3s.4,0,.6,0Z"/>
    <path class="st16" d="M146.9,191.7v-6.5h1.3v1h.2c.3-.3.7-.6,1-.8.4-.2.8-.3,1.3-.3.8,0,1.3.2,1.7.7.4.5.5,1.1.5,1.9v4h-1.5v-3.8c0-.5,0-.9-.3-1.2s-.5-.4-.9-.4-.6,0-.8.2c-.2.2-.5.4-.8.7v4.4h-1.5Z"/>
    <path class="st16" d="M156.9,191.9c-.4,0-.8,0-1.1-.2-.3-.2-.6-.4-.8-.7-.2-.3-.3-.6-.3-1,0-.7.3-1.3,1-1.7.7-.4,1.8-.6,3.5-.7,0-.2,0-.5-.2-.6-.1-.2-.3-.3-.5-.5-.2-.1-.5-.2-.9-.2s-.5,0-.7,0c-.2,0-.5.1-.7.3-.2.1-.5.2-.7.3l-.6-1c.3-.2.6-.3.9-.4s.7-.2,1-.3.7-.1,1.1-.1c.6,0,1.1.1,1.5.3.4.2.7.5.9,1,.2.4.3.9.3,1.5v3.9h-1.2v-.8h-.2c-.3.3-.7.5-1.1.7s-.9.3-1.3.3ZM157.3,190.7c.3,0,.6,0,.9-.2.3-.1.6-.3.9-.6v-1.4c-.8,0-1.4.1-1.8.3-.4.1-.8.3-.9.5s-.3.4-.3.6,0,.4.2.5c.1.1.2.2.4.3s.4,0,.6,0Z"/>
    <path class="st16" d="M165.5,194.6c-.6,0-1.1,0-1.6-.2s-.8-.3-1-.6-.4-.6-.4-1,0-.5.3-.7c.2-.2.4-.4.8-.6h0c-.2-.2-.3-.3-.5-.5-.1-.2-.2-.4-.2-.7s0-.4.2-.6c.1-.2.3-.4.6-.6h0c-.2-.2-.4-.5-.6-.7-.2-.3-.2-.6-.2-1s.1-.9.4-1.3c.2-.3.6-.6,1-.8.4-.2.9-.3,1.3-.3s.7,0,1,.2h2.7v1.2h-1.5c.1.1.2.3.3.5s.1.4.1.6c0,.5-.1.9-.3,1.2-.2.3-.5.6-.9.7-.4.2-.8.3-1.3.3s-.3,0-.5,0c-.2,0-.3,0-.5-.1-.1,0-.2.2-.3.3,0,0,0,.2,0,.3,0,.2.1.4.3.5.2.1.5.2.9.2h1.3c.8,0,1.5.1,1.9.4.4.2.6.6.6,1.2s-.2.8-.5,1.2c-.3.3-.7.6-1.3.8-.6.2-1.2.3-2,.3ZM165.7,193.6c.4,0,.8,0,1.1-.1.3,0,.6-.2.7-.4.2-.2.3-.3.3-.5,0-.3-.1-.4-.3-.5-.2,0-.5-.1-1-.1h-1c-.2,0-.4,0-.6,0-.2,0-.3,0-.4,0-.2.1-.4.3-.5.4,0,.1-.1.3-.1.4,0,.3.2.5.5.7.3.2.8.2,1.4.2ZM165.5,188.7c.2,0,.4,0,.6-.2.2-.1.3-.3.4-.5.1-.2.2-.4.2-.7s0-.5-.2-.7c-.1-.2-.3-.3-.4-.5-.2-.1-.4-.2-.6-.2s-.4,0-.6.2c-.2.1-.3.3-.5.5-.1.2-.2.4-.2.7s0,.5.2.7c.1.2.3.3.5.5.2.1.4.2.6.2Z"/>
    <path class="st16" d="M174.1,191.9c-.7,0-1.3-.1-1.8-.4-.5-.3-1-.7-1.3-1.2-.3-.5-.5-1.1-.5-1.8s.2-1.3.5-1.8c.3-.5.7-.9,1.2-1.2s1.1-.4,1.6-.4,1.2.1,1.6.4.8.6,1,1.1c.2.5.4,1,.4,1.6s0,.3,0,.4c0,.1,0,.3,0,.3h-5.2v-1.1h4.2l-.3.3c0-.6-.1-1.1-.4-1.5-.3-.3-.7-.5-1.2-.5s-.7,0-1,.3c-.3.2-.5.4-.7.8s-.3.7-.3,1.2,0,.9.3,1.3c.2.3.5.6.8.7.3.2.7.2,1.2.2s.7,0,1-.1c.3,0,.6-.2.9-.4l.5,1c-.3.2-.7.4-1.2.6-.4.1-.9.2-1.4.2Z"/>
    <path class="st16" d="M179.4,191.7v-6.5h1.3v1.5h.2c.3-.5.7-.9,1.2-1.2.5-.3,1-.4,1.6-.4s.5,0,.7,0c.2,0,.4.1.6.2l-.3,1.3c-.2,0-.4-.1-.6-.2s-.4,0-.6,0c-.4,0-.9.1-1.3.4s-.8.7-1.1,1.3v3.6h-1.5Z"/>
  </g>
  <rect class="st9" x="6.3" y="148.8" width="92.1" height="63.6"/>
  <rect class="st8" x="6.3" y="148.8" width="92.1" height="63.6"/>
  <line class="st8" x1="90.2" y1="180.6" x2="117.1" y2="180.6"/>
  <polygon class="st16" points="91 183.1 86.7 180.6 91 178.1 91 183.1"/>
  <polygon class="st16" points="116.3 183.1 120.7 180.6 116.3 178.1 116.3 183.1"/>
  <g>
    <path class="st16" d="M134.8,87.7v-7.2h2.2c.5,0,.9,0,1.3.2s.7.3.9.6c.2.3.3.6.3,1s-.1.7-.3,1c-.2.3-.5.5-.9.6h0c.5.1.9.3,1.2.6s.4.7.4,1.2-.1.9-.4,1.2c-.2.3-.6.5-1,.7-.4.2-.9.2-1.4.2h-2.4ZM136.1,83.4h.8c.5,0,.9,0,1.1-.3.2-.2.3-.4.3-.8s-.1-.6-.3-.7-.6-.2-1-.2h-.9v1.9ZM136.1,86.7h1c.5,0,.9,0,1.2-.3s.4-.5.4-.9-.1-.7-.4-.8c-.3-.2-.7-.2-1.2-.2h-1v2.2Z"/>
    <path class="st16" d="M142,89.9c-.1,0-.3,0-.4,0-.1,0-.3,0-.4,0l.2-1c0,0,.1,0,.2,0s.2,0,.2,0c.3,0,.6,0,.8-.3.2-.2.4-.4.5-.7v-.3c.1,0-2.3-5.3-2.3-5.3h1.3l1.1,2.7c0,.2.2.5.3.8.1.3.2.5.3.8h0c0-.3.2-.5.3-.8,0-.3.2-.5.3-.8l1-2.7h1.2l-2.3,5.6c-.1.4-.3.8-.5,1.1s-.5.5-.8.7-.7.2-1.1.2Z"/>
    <path class="st16" d="M151.4,87.8c-.5,0-1,0-1.3-.3-.3-.2-.6-.5-.7-.8s-.2-.7-.2-1.2v-2.2h-1.4v-.9h1.5c0,0,.2-1.8.2-1.8h1v1.7h2.5v1h-2.5v2.2c0,.3,0,.5.1.7s.2.3.4.4c.2,0,.4.1.7.1s.4,0,.6,0c.2,0,.4,0,.5-.2l.3.9c-.2,0-.5.2-.8.2-.3,0-.6,0-1,0Z"/>
    <path class="st16" d="M157.3,87.8c-.5,0-1-.1-1.5-.3s-.8-.5-1.1-1c-.3-.4-.4-.9-.4-1.5s.1-1.1.4-1.5c.3-.4.6-.7,1-1,.4-.2.9-.3,1.4-.3s1,.1,1.4.3c.4.2.7.5.8.9.2.4.3.8.3,1.3s0,.2,0,.4c0,.1,0,.2,0,.3h-4.3v-.9h3.5l-.2.3c0-.5-.1-.9-.4-1.2-.2-.3-.6-.4-1-.4s-.6,0-.8.2-.4.4-.6.6c-.1.3-.2.6-.2,1s0,.8.2,1.1.4.5.7.6.6.2,1,.2.6,0,.8-.1c.2,0,.5-.2.7-.3l.4.8c-.3.2-.6.3-1,.5-.4.1-.7.2-1.1.2Z"/>
    <path class="st16" d="M164.1,87.8c-.6,0-1.1-.1-1.5-.3-.5-.2-.8-.5-1.1-1s-.4-.9-.4-1.5.1-1.1.4-1.5c.3-.4.7-.7,1.1-1s1-.3,1.5-.3.8,0,1.2.2c.3.1.6.3.8.5l-.6.8c-.2-.2-.4-.3-.6-.4-.2,0-.4-.1-.7-.1-.4,0-.7,0-1,.2-.3.2-.5.4-.6.6-.2.3-.2.6-.2.9s0,.7.2.9c.2.3.4.5.6.6.3.1.6.2.9.2s.6,0,.8-.2c.3-.1.5-.3.7-.4l.5.8c-.3.3-.7.5-1,.6s-.8.2-1.2.2Z"/>
    <path class="st16" d="M170.2,87.8c-.5,0-.9-.1-1.3-.3-.4-.2-.7-.5-1-1-.3-.4-.4-.9-.4-1.5s.1-1.1.4-1.5c.3-.4.6-.7,1-1,.4-.2.9-.3,1.3-.3s.9.1,1.3.3.7.5,1,1c.3.4.4.9.4,1.5s-.1,1.1-.4,1.5-.6.7-1,1-.9.3-1.3.3ZM170.2,86.8c.3,0,.5,0,.8-.2.2-.1.4-.4.5-.6.1-.3.2-.6.2-.9s0-.7-.2-.9c-.1-.3-.3-.5-.5-.6-.2-.2-.5-.2-.8-.2s-.5,0-.8.2-.4.4-.5.6c-.1.3-.2.6-.2.9s0,.7.2.9c.1.3.3.5.5.6.2.1.5.2.8.2Z"/>
    <path class="st16" d="M176.7,87.8c-.7,0-1.2-.2-1.7-.7-.4-.5-.6-1.2-.6-2.1s.1-1.1.3-1.5c.2-.4.5-.8.9-1,.4-.2.8-.3,1.2-.3s.6,0,.8.2c.2.1.5.3.7.5h0v-.9c0,0,0-2,0-2h1.3v7.8h-1v-.6h-.1c-.2.2-.5.4-.7.5-.3.1-.6.2-.9.2ZM177,86.8c.2,0,.4,0,.6-.2.2-.1.4-.3.6-.5v-2.4c-.2-.2-.4-.3-.6-.4-.2,0-.4-.1-.6-.1s-.5,0-.7.2c-.2.1-.4.3-.5.6-.1.3-.2.6-.2,1,0,.6.1,1,.3,1.3.2.3.6.5,1,.5Z"/>
    <path class="st16" d="M184,87.8c-.5,0-1-.1-1.5-.3s-.8-.5-1.1-1c-.3-.4-.4-.9-.4-1.5s.1-1.1.4-1.5c.3-.4.6-.7,1-1,.4-.2.9-.3,1.4-.3s1,.1,1.4.3c.4.2.7.5.8.9.2.4.3.8.3,1.3s0,.2,0,.4c0,.1,0,.2,0,.3h-4.3v-.9h3.5l-.2.3c0-.5-.1-.9-.4-1.2-.2-.3-.6-.4-1-.4s-.6,0-.8.2-.4.4-.6.6c-.1.3-.2.6-.2,1s0,.8.2,1.1.4.5.7.6.6.2,1,.2.6,0,.8-.1c.2,0,.5-.2.7-.3l.4.8c-.3.2-.6.3-1,.5-.4.1-.7.2-1.1.2Z"/>
  </g>
  <polyline class="st8" points="197.6 325.7 270.8 325.7 270.8 201.6 312.6 201.6"/>
  <polygon class="st16" points="198.4 328.2 194 325.7 198.4 323.2 198.4 328.2"/>
  <g class="st13">
    <path class="st16" d="M191.3,364.7c0,4.8-3.9,8.6-8.6,8.6s-8.6-3.9-8.6-8.6,3.9-8.6,8.6-8.6,8.6,3.9,8.6,8.6"/>
    <rect class="st4" x="177.4" y="361" width="10.6" height="7.4"/>
    <rect class="st8" x="177.4" y="361" width="10.6" height="7.4"/>
    <polyline class="st8" points="176.4 361 182.7 364.7 189 361"/>
    <path class="st16" d="M332.8,240.1c0,4.8-3.9,8.6-8.6,8.6s-8.6-3.9-8.6-8.6,3.9-8.6,8.6-8.6,8.6,3.9,8.6,8.6"/>
    <rect class="st4" x="318.9" y="236.4" width="10.6" height="7.4"/>
    <rect class="st8" x="318.9" y="236.4" width="10.6" height="7.4"/>
    <polyline class="st8" points="317.9 236.4 324.2 240.1 330.4 236.4"/>
    <line class="st8" x1="182.7" y1="276.3" x2="182.7" y2="207"/>
    <polygon class="st16" points="185.2 275.5 182.7 279.9 180.2 275.5 185.2 275.5"/>
    <polygon class="st16" points="185.2 207.7 182.7 203.4 180.2 207.7 185.2 207.7"/>
    <path class="st16" d="M191.3,290.7c0,4.8-3.9,8.6-8.6,8.6s-8.6-3.9-8.6-8.6,3.9-8.6,8.6-8.6,8.6,3.9,8.6,8.6"/>
    <rect class="st4" x="177.4" y="287" width="10.6" height="7.4"/>
    <rect class="st8" x="177.4" y="287" width="10.6" height="7.4"/>
    <polyline class="st8" points="176.4 287 182.7 290.7 189 287"/>
    <polyline class="st8" points="197.5 290.7 236.2 290.7 236.2 164.8 309 164.8"/>
    <polygon class="st16" points="198.3 293.2 194 290.7 198.3 288.2 198.3 293.2"/>
    <polygon class="st16" points="308.2 167.3 312.6 164.8 308.2 162.4 308.2 167.3"/>
    <path class="st8" d="M177.4,240.1c0,3.8-3,6.8-6.8,6.8s-6.8-3-6.8-6.8,3-6.8,6.8-6.8,6.8,3,6.8,6.8Z"/>
  </g>
  <path class="st16" d="M166.8,243.4l2.3-7.2h1.5l2.3,7.2h-1.4l-1.1-3.8c-.1-.4-.2-.8-.3-1.2s-.2-.8-.3-1.2h0c-.1.4-.2.8-.3,1.2s-.2.8-.3,1.2l-1.1,3.8h-1.3ZM168.2,241.4v-1h3.4v1h-3.4Z"/>
  <g class="st0">
    <path class="st8" d="M231.7,240.1c0,3.8-3,6.8-6.8,6.8s-6.8-3-6.8-6.8,3-6.8,6.8-6.8,6.8,3,6.8,6.8Z"/>
  </g>
  <path class="st16" d="M222.1,243.8v-7.2h2.2c.5,0,.9,0,1.3.2s.7.3.9.6c.2.3.3.6.3,1s-.1.7-.3,1c-.2.3-.5.5-.9.6h0c.5.1.9.3,1.2.6s.4.7.4,1.2-.1.9-.4,1.2c-.2.3-.6.5-1,.7-.4.2-.9.2-1.4.2h-2.4ZM223.4,239.6h.8c.5,0,.9,0,1.1-.3.2-.2.3-.4.3-.8s-.1-.6-.3-.7-.6-.2-1-.2h-.9v1.9ZM223.4,242.8h1c.5,0,.9,0,1.2-.3s.4-.5.4-.9-.1-.7-.4-.8c-.3-.2-.7-.2-1.2-.2h-1v2.2Z"/>
  <g class="st1">
    <path class="st8" d="M289,240.1c0,3.8-3,6.8-6.8,6.8s-6.8-3-6.8-6.8,3-6.8,6.8-6.8,6.8,3,6.8,6.8Z"/>
  </g>
  <path class="st16" d="M281.9,244c-.4,0-.9,0-1.3-.2-.4-.2-.7-.4-1-.7-.3-.3-.5-.7-.7-1.2-.2-.5-.2-1-.2-1.6s.1-1.5.4-2c.3-.6.7-1,1.2-1.3.5-.3,1.1-.4,1.7-.4s.8,0,1.2.3c.4.2.6.4.9.6l-.7.8c-.2-.2-.4-.3-.6-.4-.2-.1-.5-.2-.8-.2s-.7.1-1.1.3c-.3.2-.5.5-.7.9s-.3.9-.3,1.4,0,1,.3,1.4.4.7.7.9c.3.2.7.3,1.1.3s.6,0,.8-.2c.2-.1.5-.3.7-.5l.7.8c-.3.3-.6.6-1,.8-.4.2-.8.3-1.3.3Z"/>
  <g class="st14">
    <path class="st4" d="M206.6,347.5c0,3.8-3,6.8-6.8,6.8s-6.8-3-6.8-6.8,3-6.8,6.8-6.8,6.8,3,6.8,6.8"/>
    <path class="st8" d="M206.6,347.5c0,3.8-3,6.8-6.8,6.8s-6.8-3-6.8-6.8,3-6.8,6.8-6.8,6.8,3,6.8,6.8Z"/>
  </g>
  <path class="st16" d="M196.6,351.3v-7.2h1.9c.7,0,1.3.1,1.8.4s.9.7,1.2,1.2c.3.5.4,1.2.4,2s-.1,1.5-.4,2c-.3.5-.7.9-1.1,1.2-.5.3-1.1.4-1.8.4h-2ZM197.9,350.3h.5c.5,0,.9,0,1.2-.3.3-.2.6-.5.7-.9.2-.4.3-.9.3-1.5s0-1.1-.3-1.4c-.2-.4-.4-.6-.7-.8-.3-.2-.7-.3-1.2-.3h-.5v5.1Z"/>
  <g class="st3">
    <path class="st16" d="M191.3,325.7c0,4.8-3.9,8.6-8.6,8.6s-8.6-3.9-8.6-8.6,3.9-8.6,8.6-8.6,8.6,3.9,8.6,8.6"/>
    <rect class="st4" x="177.4" y="322" width="10.6" height="7.4"/>
    <rect class="st8" x="177.4" y="322" width="10.6" height="7.4"/>
    <polyline class="st8" points="176.4 322 182.7 325.7 189 322"/>
    <line class="st8" x1="182.7" y1="332.2" x2="182.7" y2="351.4"/>
    <polygon class="st16" points="180.2 350.7 182.7 355 185.2 350.7 180.2 350.7"/>
    <path class="st16" d="M332.8,202.1c0,4.8-3.9,8.6-8.6,8.6s-8.6-3.9-8.6-8.6,3.9-8.6,8.6-8.6,8.6,3.9,8.6,8.6"/>
    <rect class="st4" x="318.9" y="198.4" width="10.6" height="7.4"/>
    <rect class="st8" x="318.9" y="198.4" width="10.6" height="7.4"/>
    <polyline class="st8" points="317.9 198.4 324.2 202.1 330.4 198.4"/>
    <line class="st8" x1="324.2" y1="217.6" x2="324.2" y2="234.3"/>
    <polygon class="st16" points="321.7 218.3 324.2 214 326.7 218.3 321.7 218.3"/>
  </g>
  <g>
    <path class="st16" d="M25.1,307.1v-8.7h2.9c.6,0,1.1,0,1.6.2s.9.4,1.1.8c.3.4.4.9.4,1.5s-.1,1.1-.4,1.5c-.3.4-.7.7-1.1.9s-1,.3-1.6.3h-1.4v3.4h-1.5ZM26.6,302.5h1.2c.6,0,1.1-.1,1.4-.4.3-.2.5-.6.5-1.1s-.2-.8-.5-1-.8-.3-1.4-.3h-1.2v2.8ZM27.7,303.3l1.1-.9,2.7,4.7h-1.7l-2.1-3.8Z"/>
    <path class="st16" d="M35,307.3c-.8,0-1.3-.2-1.7-.7-.3-.5-.5-1.1-.5-1.9v-4h1.5v3.8c0,.5,0,.9.3,1.2.2.2.5.4.9.4s.6,0,.8-.2c.3-.1.5-.4.8-.7v-4.4h1.5v6.5h-1.2v-1h-.2c-.3.4-.6.6-1,.9s-.8.3-1.3.3Z"/>
    <path class="st16" d="M41,307.1v-6.5h1.3v1h.2c.3-.3.7-.6,1-.8.4-.2.8-.3,1.3-.3.8,0,1.3.2,1.7.7.4.5.5,1.1.5,1.9v4h-1.5v-3.8c0-.5,0-.9-.3-1.2-.2-.2-.5-.4-.9-.4s-.6,0-.8.2c-.2.2-.5.4-.8.7v4.4h-1.5Z"/>
    <path class="st16" d="M53,307.3c-.7,0-1.2-.1-1.6-.4-.4-.2-.7-.6-.8-1-.2-.4-.3-.9-.3-1.4v-2.7h-1.7v-1.1h1.8c0,0,.2-2.1.2-2.1h1.2v2h3v1.2h-3v2.7c0,.4,0,.6.1.9,0,.2.3.4.5.5s.5.2.9.2.5,0,.8,0c.2,0,.4-.1.7-.2l.3,1.1c-.3,0-.6.2-.9.3-.3,0-.7.1-1.1.1Z"/>
    <path class="st16" d="M59.7,307.1v-5.3h-2.8v-1.2h4.3v6.5h-1.5ZM60.4,299.4c-.3,0-.6,0-.8-.3s-.3-.4-.3-.7.1-.6.3-.7c.2-.2.5-.3.8-.3s.6,0,.8.3c.2.2.3.4.3.7s-.1.6-.3.7c-.2.2-.5.3-.8.3Z"/>
    <path class="st16" d="M64.3,307.1v-6.5h1.2v.8h.1c.2-.3.3-.5.6-.7s.5-.3.9-.3.6,0,.8.3c.2.2.3.5.4.8.2-.3.3-.6.6-.8.2-.2.5-.3.9-.3s.8.2,1.1.5c.3.4.4.9.4,1.5v4.6h-1.5v-4.5c0-.6-.2-.9-.5-.9s-.3,0-.4.2-.2.3-.4.6v4.5h-1.3v-4.5c0-.3,0-.5-.1-.6,0-.1-.2-.2-.4-.2s-.3,0-.4.2-.2.3-.4.6v4.5h-1.5Z"/>
    <path class="st16" d="M76.1,307.3c-.7,0-1.3-.1-1.8-.4s-1-.7-1.3-1.2-.5-1.1-.5-1.8.2-1.3.5-1.8c.3-.5.7-.9,1.2-1.2.5-.3,1.1-.4,1.6-.4s1.2.1,1.6.4c.4.3.8.6,1,1.1.2.5.4,1,.4,1.6s0,.3,0,.4,0,.3,0,.3h-5.2v-1.1h4.2l-.3.3c0-.6-.1-1.1-.4-1.5s-.7-.5-1.2-.5-.7,0-1,.3c-.3.2-.5.4-.7.8-.2.3-.3.7-.3,1.2s0,.9.3,1.3.5.6.8.7c.3.2.7.2,1.2.2s.7,0,1-.1c.3,0,.6-.2.9-.4l.5,1c-.3.2-.7.4-1.2.6-.4.1-.9.2-1.4.2Z"/>
  </g>
  <g>
    <path class="st16" d="M31,174.8v-8.7h2.3c.8,0,1.6.2,2.2.5.6.3,1.1.8,1.4,1.4s.5,1.4.5,2.4-.2,1.8-.5,2.4c-.3.6-.8,1.1-1.4,1.5-.6.3-1.3.5-2.1.5h-2.4ZM32.6,173.6h.6c.6,0,1-.1,1.4-.3.4-.2.7-.6.9-1,.2-.5.3-1,.3-1.8s-.1-1.3-.3-1.7c-.2-.5-.5-.8-.9-1-.4-.2-.9-.3-1.4-.3h-.6v6.2Z"/>
    <path class="st16" d="M42.3,175c-.7,0-1.3-.1-1.8-.4-.5-.3-1-.7-1.3-1.2-.3-.5-.5-1.1-.5-1.8s.2-1.3.5-1.8c.3-.5.7-.9,1.2-1.2s1.1-.4,1.6-.4,1.2.1,1.6.4.8.6,1,1.1c.2.5.4,1,.4,1.6s0,.3,0,.4c0,.1,0,.3,0,.3h-5.2v-1.1h4.2l-.3.3c0-.6-.1-1.1-.4-1.5-.3-.3-.7-.5-1.2-.5s-.7,0-1,.3c-.3.2-.5.4-.7.8s-.3.7-.3,1.2,0,.9.3,1.3c.2.3.5.6.8.7.3.2.7.2,1.2.2s.7,0,1-.1c.3,0,.6-.2.9-.4l.5,1c-.3.2-.7.4-1.2.6-.4.1-.9.2-1.4.2Z"/>
    <path class="st16" d="M50.3,175c-.3,0-.6,0-1-.2-.3-.1-.6-.4-.9-.6h0v.7h-1.3v-9.4h1.5v3.6c0,0,0,0,0,0,.3-.3.6-.5.9-.6.3-.2.7-.2,1.1-.2.6,0,1,.1,1.4.4.4.3.7.7.9,1.1.2.5.3,1.1.3,1.7s-.1,1.4-.4,1.9-.6.9-1.1,1.2c-.4.3-.9.4-1.4.4ZM50,173.7c.3,0,.6,0,.8-.3.2-.2.4-.4.6-.7.1-.3.2-.7.2-1.2s0-.8-.2-1.1c-.1-.3-.3-.5-.5-.7-.2-.2-.5-.2-.9-.2s-.5,0-.8.2c-.3.1-.5.3-.8.6v2.9c.2.2.5.4.7.5s.5.1.7.1Z"/>
    <path class="st16" d="M57,175c-.8,0-1.3-.2-1.7-.7s-.5-1.1-.5-1.9v-4h1.5v3.8c0,.5,0,.9.3,1.2.2.2.5.4.9.4s.6,0,.8-.2c.3-.1.5-.4.8-.7v-4.4h1.5v6.5h-1.2v-1h-.2c-.3.4-.6.6-1,.9-.4.2-.8.3-1.3.3Z"/>
    <path class="st16" d="M65.6,177.7c-.6,0-1.1,0-1.6-.2s-.8-.3-1-.6-.4-.6-.4-1,0-.5.3-.7c.2-.2.4-.4.8-.6h0c-.2-.2-.3-.3-.5-.5-.1-.2-.2-.4-.2-.7s0-.4.2-.6c.1-.2.3-.4.6-.6h0c-.2-.2-.4-.5-.6-.7-.2-.3-.2-.6-.2-1s.1-.9.4-1.3c.2-.3.6-.6,1-.8.4-.2.9-.3,1.3-.3s.7,0,1,.2h2.7v1.2h-1.5c.1.1.2.3.3.5s.1.4.1.6c0,.5-.1.9-.3,1.2-.2.3-.5.6-.9.7-.4.2-.8.3-1.3.3s-.3,0-.5,0c-.2,0-.3,0-.5-.1-.1,0-.2.2-.3.3,0,0,0,.2,0,.3,0,.2.1.4.3.5.2.1.5.2.9.2h1.3c.8,0,1.5.1,1.9.4.4.2.6.6.6,1.2s-.2.8-.5,1.2c-.3.3-.7.6-1.3.8-.6.2-1.2.3-2,.3ZM65.8,176.7c.4,0,.8,0,1.1-.1.3,0,.6-.2.7-.4.2-.2.3-.3.3-.5,0-.3-.1-.4-.3-.5-.2,0-.5-.1-1-.1h-1c-.2,0-.4,0-.6,0-.2,0-.3,0-.4,0-.2.1-.4.3-.5.4,0,.1-.1.3-.1.4,0,.3.2.5.5.7.3.2.8.2,1.4.2ZM65.6,171.8c.2,0,.4,0,.6-.2.2-.1.3-.3.4-.5.1-.2.2-.4.2-.7s0-.5-.2-.7c-.1-.2-.3-.3-.4-.5-.2-.1-.4-.2-.6-.2s-.4,0-.6.2c-.2.1-.3.3-.5.5-.1.2-.2.4-.2.7s0,.5.2.7c.1.2.3.3.5.5.2.1.4.2.6.2Z"/>
    <path class="st16" d="M33.2,190.7l-2.6-6.5h1.5l1.3,3.4c.1.3.2.6.3,1,.1.3.2.7.3,1h0c.1-.3.2-.7.3-1,.1-.3.2-.6.3-1l1.3-3.4h1.5l-2.5,6.5h-1.7Z"/>
    <path class="st16" d="M41.9,190.7v-5.3h-2.8v-1.2h4.3v6.5h-1.5ZM42.6,183c-.3,0-.6,0-.8-.3-.2-.2-.3-.4-.3-.7s.1-.6.3-.7c.2-.2.5-.3.8-.3s.6,0,.8.3c.2.2.3.4.3.7s-.1.6-.3.7c-.2.2-.5.3-.8.3Z"/>
    <path class="st16" d="M50.3,190.9c-.7,0-1.3-.1-1.8-.4-.5-.3-1-.7-1.3-1.2-.3-.5-.5-1.1-.5-1.8s.2-1.3.5-1.8c.3-.5.7-.9,1.2-1.2s1.1-.4,1.6-.4,1.2.1,1.6.4.8.6,1,1.1c.2.5.4,1,.4,1.6s0,.3,0,.4c0,.1,0,.3,0,.3h-5.2v-1.1h4.2l-.3.3c0-.6-.1-1.1-.4-1.5-.3-.3-.7-.5-1.2-.5s-.7,0-1,.3c-.3.2-.5.4-.7.8s-.3.7-.3,1.2,0,.9.3,1.3c.2.3.5.6.8.7.3.2.7.2,1.2.2s.7,0,1-.1c.3,0,.6-.2.9-.4l.5,1c-.3.2-.7.4-1.2.6-.4.1-.9.2-1.4.2Z"/>
    <path class="st16" d="M55.2,190.7l-1.2-6.5h1.5l.6,3.4c0,.3,0,.6.1.9,0,.3,0,.6.1.9h0c0-.3,0-.6.2-.9,0-.3.1-.6.2-.9l.6-2.8h1.2l.6,2.8c0,.3.1.6.2.9,0,.3.1.6.2.9h0c0-.3,0-.6.1-.9,0-.3,0-.6.1-.9l.6-3.4h1.4l-1.2,6.5h-1.9l-.5-2.6c0-.3,0-.6-.1-.9,0-.3,0-.7-.1-1.1h0c0,.3,0,.7-.1,1,0,.3,0,.6-.2,1l-.5,2.6h-1.8Z"/>
    <path class="st16" d="M65.8,190.9c-.6,0-1.2,0-1.8-.3-.6-.2-1-.4-1.4-.7l.7-1c.4.3.8.5,1.3.6.5.1.9.2,1.5.2s.8,0,1-.2c.2-.2.3-.3.3-.5s0-.2,0-.3c0,0-.1-.2-.3-.2-.1,0-.3-.1-.5-.2s-.5-.1-.9-.2c-.9-.2-1.5-.4-1.9-.8-.4-.3-.6-.7-.6-1.2s.2-1,.7-1.4c.5-.4,1.2-.5,2.1-.5s1,0,1.5.3c.5.2.9.4,1.2.6l-.7.9c-.3-.2-.6-.4-1-.5-.4-.1-.7-.2-1.1-.2s-.5,0-.7,0c-.2,0-.3.1-.4.3,0,.1-.1.2-.1.4,0,.2.1.4.4.5s.7.2,1.3.4c.7.2,1.2.3,1.6.5.4.2.6.4.8.6.1.2.2.5.2.9s-.1.7-.4,1c-.2.3-.6.5-1,.7-.5.2-1,.3-1.7.3Z"/>
  </g>
</svg>