<?xml version="1.0" encoding="UTF-8"?>
<!-- Created with Inkscape (http://www.inkscape.org/) -->
<svg width="517.72" height="261.38" version="1.1" viewBox="0 0 517.72 261.38" xml:space="preserve" xmlns="http://www.w3.org/2000/svg"><defs><clipPath id="clipPath128"><path d="m0-141.74h165.63v426.32h-165.63"/></clipPath><clipPath id="clipPath140"><path d="m-141.76 0v142.85h449.15v-142.85"/></clipPath><clipPath id="clipPath152"><path d="m189.29-141.73h165.63v426.32h-165.63"/></clipPath><clipPath id="clipPath164"><path d="m47.524-0.00143v142.85h449.15v-142.85"/></clipPath><clipPath id="clipPath178"><path d="m0-141.74h165.63v426.32h-165.63"/></clipPath><clipPath id="clipPath190"><path d="m-141.76 0v142.85h449.15v-142.85"/></clipPath><clipPath id="clipPath202"><path d="m189.29-141.73h165.63v426.32h-165.63"/></clipPath><clipPath id="clipPath214"><path d="m47.524-0.00143v142.85h449.15v-142.85"/></clipPath><clipPath id="clipPath236"><path d="m0 0h165.63v142.85h-165.63z"/></clipPath><clipPath id="clipPath248"><path d="m0 0h165.63v142.85h-165.63z"/></clipPath><clipPath id="clipPath260"><path d="m0 0h165.63v142.85h-165.63z"/></clipPath><clipPath id="clipPath272"><path d="m0 0h165.63v142.85h-165.63z"/></clipPath><clipPath id="clipPath284"><path d="m0 0h165.63v142.85h-165.63z"/></clipPath><clipPath id="clipPath296"><path d="m189.29-0.00143h165.63v142.85h-165.63z"/></clipPath><clipPath id="clipPath308"><path d="m189.29-0.00143h165.63v142.85h-165.63z"/></clipPath><clipPath id="clipPath320"><path d="m189.29-0.00143h165.63v142.85h-165.63z"/></clipPath><clipPath id="clipPath332"><path d="m189.29-0.00143h165.63v142.85h-165.63z"/></clipPath><clipPath id="clipPath344"><path d="m189.29-0.00143h165.63v142.85h-165.63z"/></clipPath><clipPath id="clipPath548"><path d="m0 0h165.63v142.85h-165.63z"/></clipPath><clipPath id="clipPath882"><path d="m189.29-0.00143h165.63v142.85h-165.63z"/></clipPath></defs><g transform="matrix(1.3333 0 0 -1.3333 -64.862 842.29)"><g transform="translate(74.45 457.76)"><g clip-path="url(#clipPath128)"><path d="m0 0v142.85m41.406-142.85v142.85m41.406-142.85v142.85m41.406-142.85v142.85m41.406-142.85v142.85" fill="none" stroke="#bfbfbf" stroke-miterlimit="10" stroke-width=".3985"/></g><g clip-path="url(#clipPath140)"><path d="m0 0h165.63m-165.63 30.474h165.63m-165.63 30.474h165.63m-165.63 30.474h165.63m-165.63 30.474h165.63" fill="none" stroke="#bfbfbf" stroke-miterlimit="10" stroke-width=".3985"/></g><g clip-path="url(#clipPath152)"><path d="m189.29-0.00143v142.85m41.406-142.85v142.85m41.406-142.85v142.85m41.406-142.85v142.85m41.406-142.85v142.85" fill="none" stroke="#bfbfbf" stroke-miterlimit="10" stroke-width=".3985"/></g><g clip-path="url(#clipPath164)"><path d="m189.29-0.00143h165.63m-165.63 36.276h165.63m-165.63 36.276h165.63m-165.63 36.276h165.63" fill="none" stroke="#bfbfbf" stroke-miterlimit="10" stroke-width=".3985"/></g><g clip-path="url(#clipPath178)"><path d="m0 0v4.2519m41.406-4.2519v4.2519m41.406-4.2519v4.2519m41.406-4.2519v4.2519m41.406-4.2519v4.2519m-165.63 138.6v-4.2519m41.406 4.2519v-4.2519m41.406 4.2519v-4.2519m41.406 4.2519v-4.2519m41.406 4.2519v-4.2519" fill="none" stroke="#808080" stroke-miterlimit="10" stroke-width=".19925"/></g><g clip-path="url(#clipPath190)"><path d="m0 0h4.2526m-4.2526 30.474h4.2526m-4.2526 30.474h4.2526m-4.2526 30.474h4.2526m-4.2526 30.474h4.2526m161.37-121.9h-4.2526m4.2526 30.474h-4.2526m4.2526 30.474h-4.2526m4.2526 30.474h-4.2526m4.2526 30.474h-4.2526" fill="none" stroke="#808080" stroke-miterlimit="10" stroke-width=".19925"/></g><g clip-path="url(#clipPath202)"><path d="m189.29-0.00143v4.2518m41.406-4.2518v4.2518m41.406-4.2518v4.2518m41.406-4.2518v4.2518m41.406-4.2518v4.2518m-165.63 138.6v-4.2518m41.406 4.2518v-4.2518m41.406 4.2518v-4.2518m41.406 4.2518v-4.2518m41.406 4.2518v-4.2518" fill="none" stroke="#808080" stroke-miterlimit="10" stroke-width=".19925"/></g><g clip-path="url(#clipPath214)"><path d="m189.29-0.00143h4.2526m-4.2526 36.276h4.2526m-4.2526 36.276h4.2526m-4.2526 36.276h4.2526m161.37-108.83h-4.2526m4.2526 36.276h-4.2526m4.2526 36.276h-4.2526m4.2526 36.276h-4.2526" fill="none" stroke="#808080" stroke-miterlimit="10" stroke-width=".19925"/></g><g fill="none" stroke="#000" stroke-miterlimit="10" stroke-width=".3985"><path d="m0 0v142.85h165.63v-142.85z"/><path d="m189.29-0.00143v142.85h165.63v-142.85z"/></g><g clip-path="url(#clipPath236)"><path d="m0 1.5237h41.406 41.406 41.406 41.406v-1.5237h-165.63z" fill="#f2305a" fill-opacity=".6"/></g><g clip-path="url(#clipPath248)"><path d="m0 26.924s29.916 18.436 41.406 25.537 29.916 18.513 41.406 25.644c11.49 7.1308 29.916 18.569 41.406 25.75s41.406 26.009 41.406 26.009v-102.59s-29.916-3.7955-41.406-5.2415-29.916-3.7472-41.406-5.1806c-11.49-1.4334-29.916-3.7294-41.406-5.1501-11.49-1.4207-41.406-5.0892-41.406-5.0892z" fill="#001e82" fill-opacity=".6"/></g><g clip-path="url(#clipPath260)"><path d="m0 6.6128s29.916 3.6685 41.406 5.0892c11.49 1.4207 29.916 3.7167 41.406 5.1501 11.49 1.4334 29.916 3.7345 41.406 5.1806s41.406 5.2415 41.406 5.2415v-12.83s-29.916-1.9066-41.406-2.636c-11.49-0.72936-29.916-1.9041-41.406-2.6208-11.49-0.71666-29.916-1.8321-41.406-2.5446-11.49-0.71243-41.406-2.5903-41.406-2.5903z" fill="#0064d2" fill-opacity=".6"/></g><g clip-path="url(#clipPath272)"><path d="m0 4.053s29.916 1.8778 41.406 2.5903c11.49 0.71245 29.916 1.8279 41.406 2.5446 11.49 0.71668 29.916 1.8914 41.406 2.6208 11.49 0.72937 41.406 2.636 41.406 2.636v-10.285s-29.916-0.39421-41.406-0.54852c-11.49-0.15432-29.916-0.41791-41.406-0.56377-11.49-0.14586-29.916-0.34595-41.406-0.48758-11.49-0.14165-41.406-0.53331-41.406-0.53331z" fill="#0099f8" fill-opacity=".4"/></g><g clip-path="url(#clipPath284)"><path d="m0 2.0265s29.916 0.39166 41.406 0.53331c11.49 0.14163 29.916 0.34172 41.406 0.48758 11.49 0.14586 29.916 0.40945 41.406 0.56377 11.49 0.15431 41.406 0.54852 41.406 0.54852v-1.2342s-29.916-0.20028-41.406-0.27427-29.916-0.17446-41.406-0.25901c-11.49-0.08457-29.916-0.27436-41.406-0.35047-11.49-0.07609-41.406-0.19807-41.406-0.19807z" fill="#25bbff" fill-opacity=".4"/></g><g clip-path="url(#clipPath296)"><path d="m189.29 7.2537h41.406 41.406 41.406 41.406v-7.2551h-165.63z" fill="#f2305a" fill-opacity=".6"/></g><g clip-path="url(#clipPath308)"><path d="m189.29 31.486s29.916 17.468 41.406 24.232c11.49 6.7646 29.916 17.697 41.406 24.522 11.49 6.825 29.916 17.782 41.406 24.667 11.49 6.8854 41.406 24.958 41.406 24.958v-61.088s-29.916-9.0785-41.406-12.551c-11.49-3.4729-29.916-9.0663-41.406-12.479-11.49-3.4125-29.916-8.7237-41.406-12.116-11.49-3.3924-41.406-12.334-41.406-12.334z" fill="#0064d2" fill-opacity=".6"/></g><g clip-path="url(#clipPath320)"><path d="m189.29 19.297s29.916 8.9414 41.406 12.334c11.49 3.3924 29.916 8.7036 41.406 12.116 11.49 3.4125 29.916 9.006 41.406 12.479 11.49 3.4729 41.406 12.551 41.406 12.551v-48.972s-29.916-1.877-41.406-2.6118c-11.49-0.73484-29.916-1.9898-41.406-2.6844-11.49-0.69458-29.916-1.6472-41.406-2.3216-11.49-0.67444-41.406-2.5393-41.406-2.5393z" fill="#0099f8" fill-opacity=".6"/></g><g clip-path="url(#clipPath332)"><path d="m189.29 9.6479s29.916 1.8649 41.406 2.5393c11.49 0.67443 29.916 1.627 41.406 2.3216 11.49 0.69458 29.916 1.9496 41.406 2.6844 11.49 0.73483 41.406 2.6118 41.406 2.6118v-5.8767s-29.916-0.95359-41.406-1.3059c-11.49-0.35232-29.916-0.8307-41.406-1.2334-11.49-0.40264-29.916-1.3063-41.406-1.6687-11.49-0.36238-41.406-0.94316-41.406-0.94316z" fill="#25bbff" fill-opacity=".4"/></g><g clip-path="url(#clipPath344)"><path d="m189.29 8.7773s29.916 0.58078 41.406 0.94316c11.49 0.36238 29.916 1.266 41.406 1.6687 11.49 0.40267 29.916 0.88105 41.406 1.2334 11.49 0.35233 41.406 1.3059 41.406 1.3059v-6.6747h-41.406-41.406-41.406-41.406z" fill="#69d6ff" fill-opacity=".4"/></g><g transform="translate(-5.073,-7.997)"><g transform="translate(-69.659 -450.05)"><text transform="matrix(1 0 0 -1 69.659 450.05)" fill="#000000" font-family="'STIX Two Text'" font-size="7.2727px"><tspan x="0 3.3818054 6.7636108" y="0">250</tspan></text></g></g><g transform="translate(36.333,-7.997)"><g transform="translate(-111.06 -450.05)"><text transform="matrix(1 0 0 -1 111.06 450.05)" fill="#000000" font-family="'STIX Two Text'" font-size="7.2727px"><tspan x="0 3.3818054 6.7636108" y="0">500</tspan></text></g></g><g transform="translate(77.739,-7.997)"><g transform="translate(-152.47 -450.05)"><text transform="matrix(1 0 0 -1 152.47 450.05)" fill="#000000" font-family="'STIX Two Text'" font-size="7.2727px"><tspan x="0 3.3818054 6.7636108" y="0">750</tspan></text></g></g><g transform="translate(116.66 -7.997)"><g transform="translate(-191.39 -450.05)" fill="#000000" font-family="'STIX Two Text'" font-size="7.2727px"><text transform="matrix(1 0 0 -1 191.39 450.05)"><tspan x="0" y="0">1</tspan></text><text transform="matrix(1 0 0 -1 194.56 450.05)"><tspan x="0" y="0">,</tspan></text><text transform="matrix(1 0 0 -1 196.36 450.05)"><tspan x="0 3.3818054 6.7636108" y="0">000</tspan></text></g></g><g transform="translate(158.06 -7.997)"><g transform="translate(-232.8 -450.05)" fill="#000000" font-family="'STIX Two Text'" font-size="7.2727px"><text transform="matrix(1 0 0 -1 232.8 450.05)"><tspan x="0" y="0">1</tspan></text><text transform="matrix(1 0 0 -1 235.96 450.05)"><tspan x="0" y="0">,</tspan></text><text transform="matrix(1 0 0 -1 237.77 450.05)"><tspan x="0 3.3818054 6.7636108" y="0">250</tspan></text></g></g><g transform="translate(-6.902,-2.197)"><g transform="translate(-67.83 -455.85)"><text transform="matrix(1 0 0 -1 67.83 455.85)" fill="#000000" font-family="'STIX Two Text'" font-size="7.2727px"><tspan x="0" y="0">0</tspan></text></g></g><g transform="translate(-10.283,28.277)"><g transform="translate(-64.449,-486.32)"><text transform="matrix(1,0,0,-1,64.449,486.32)" fill="#000000" font-family="'STIX Two Text'" font-size="7.2727px"><tspan x="0 3.3818054" y="0">20</tspan></text></g></g><g transform="translate(-10.283,58.75)"><g transform="translate(-64.449 -516.79)"><text transform="matrix(1 0 0 -1 64.449 516.79)" fill="#000000" font-family="'STIX Two Text'" font-size="7.2727px"><tspan x="0 3.3818054" y="0">40</tspan></text></g></g><g transform="translate(-10.283,89.224)"><g transform="translate(-64.449 -547.27)"><text transform="matrix(1 0 0 -1 64.449 547.27)" fill="#000000" font-family="'STIX Two Text'" font-size="7.2727px"><tspan x="0 3.3818054" y="0">60</tspan></text></g></g><g transform="translate(-10.283 119.7)"><g transform="translate(-64.449,-577.74)"><text transform="matrix(1,0,0,-1,64.449,577.74)" fill="#000000" font-family="'STIX Two Text'" font-size="7.2727px"><tspan x="0 3.3818054" y="0">80</tspan></text></g></g><g clip-path="url(#clipPath548)"><path d="m0 1.5237h41.406 41.406 41.406 41.406" fill="none" stroke="#f2305a" stroke-miterlimit="10" stroke-width=".3985"/><path d="m0 26.924s29.916 18.436 41.406 25.537 29.916 18.513 41.406 25.644c11.49 7.1308 29.916 18.569 41.406 25.75s41.406 26.009 41.406 26.009" fill="none" stroke="#001e82" stroke-miterlimit="10" stroke-width=".3985"/><path d="m0 6.6128s29.916 3.6685 41.406 5.0892c11.49 1.4207 29.916 3.7167 41.406 5.1501 11.49 1.4334 29.916 3.7345 41.406 5.1806s41.406 5.2415 41.406 5.2415" fill="none" stroke="#0064d2" stroke-miterlimit="10" stroke-width=".3985"/><path d="m0 4.053s29.916 1.8778 41.406 2.5903c11.49 0.71245 29.916 1.8279 41.406 2.5446 11.49 0.71668 29.916 1.8914 41.406 2.6208 11.49 0.72937 41.406 2.636 41.406 2.636" fill="none" stroke="#0099f8" stroke-miterlimit="10" stroke-width=".3985"/><path d="m0 2.0265s29.916 0.39166 41.406 0.53331c11.49 0.14163 29.916 0.34172 41.406 0.48758 11.49 0.14586 29.916 0.40945 41.406 0.56377 11.49 0.15431 41.406 0.54852 41.406 0.54852" fill="none" stroke="#25bbff" stroke-miterlimit="10" stroke-width=".3985"/><path d="m0 1.8437s29.916 0.12198 41.406 0.19807c11.49 0.07611 29.916 0.2659 41.406 0.35047 11.49 0.08455 29.916 0.18502 41.406 0.25901s41.406 0.27427 41.406 0.27427" fill="none" stroke="#69d6ff" stroke-miterlimit="10" stroke-width=".3985"/></g><g fill="#f2305a" stroke="#f2305a" stroke-miterlimit="10" stroke-width=".3985"><path d="m1.3948 1.5237c0 0.77032-0.62447 1.3948-1.3948 1.3948s-1.3948-0.62447-1.3948-1.3948c0-0.77031 0.62447-1.3948 1.3948-1.3948s1.3948 0.62447 1.3948 1.3948z"/><path d="m42.801 1.5237c0 0.77032-0.62446 1.3948-1.3948 1.3948-0.77033 0-1.3948-0.62447-1.3948-1.3948 0-0.77031 0.62446-1.3948 1.3948-1.3948 0.77031 0 1.3948 0.62447 1.3948 1.3948z"/><path d="m84.208 1.5237c0 0.77032-0.62447 1.3948-1.3948 1.3948-0.77032 0-1.3948-0.62447-1.3948-1.3948 0-0.77031 0.62447-1.3948 1.3948-1.3948 0.77031 0 1.3948 0.62447 1.3948 1.3948z"/><path d="m125.61 1.5237c0 0.77032-0.62447 1.3948-1.3948 1.3948-0.77032 0-1.3948-0.62447-1.3948-1.3948 0-0.77031 0.62447-1.3948 1.3948-1.3948 0.77031 0 1.3948 0.62447 1.3948 1.3948z"/><path d="m167.02 1.5237c0 0.77032-0.62446 1.3948-1.3948 1.3948-0.77033 0-1.3948-0.62447-1.3948-1.3948 0-0.77031 0.62446-1.3948 1.3948-1.3948 0.77031 0 1.3948 0.62447 1.3948 1.3948z"/></g><g fill="#001e82" stroke="#001e82" stroke-miterlimit="10" stroke-width=".3985"><path d="m1.3948 26.924c0 0.7703-0.62447 1.3948-1.3948 1.3948s-1.3948-0.62447-1.3948-1.3948c0-0.77033 0.62447-1.3948 1.3948-1.3948s1.3948 0.62447 1.3948 1.3948z"/><path d="m42.801 52.461c0 0.77033-0.62446 1.3948-1.3948 1.3948-0.77033 0-1.3948-0.62446-1.3948-1.3948 0-0.77031 0.62446-1.3948 1.3948-1.3948 0.77031 0 1.3948 0.62446 1.3948 1.3948z"/><path d="m84.208 78.105c0 0.77031-0.62447 1.3948-1.3948 1.3948-0.77032 0-1.3948-0.62447-1.3948-1.3948 0-0.77032 0.62447-1.3948 1.3948-1.3948 0.77031 0 1.3948 0.62447 1.3948 1.3948z"/><path d="m125.61 103.85c0 0.77032-0.62447 1.3948-1.3948 1.3948-0.77032 0-1.3948-0.62447-1.3948-1.3948 0-0.77031 0.62447-1.3948 1.3948-1.3948 0.77031 0 1.3948 0.62447 1.3948 1.3948z"/><path d="m167.02 129.86c0 0.77031-0.62446 1.3948-1.3948 1.3948-0.77033 0-1.3948-0.62448-1.3948-1.3948s0.62446-1.3948 1.3948-1.3948c0.77031 0 1.3948 0.62446 1.3948 1.3948z"/></g><g fill="#0064d2" stroke="#0064d2" stroke-miterlimit="10" stroke-width=".3985"><path d="m1.3948 6.6128c0 0.77031-0.62447 1.3948-1.3948 1.3948s-1.3948-0.62447-1.3948-1.3948 0.62447-1.3948 1.3948-1.3948 1.3948 0.62446 1.3948 1.3948z"/><path d="m42.801 11.702c0 0.7703-0.62446 1.3948-1.3948 1.3948-0.77033 0-1.3948-0.62447-1.3948-1.3948 0-0.77033 0.62446-1.3948 1.3948-1.3948 0.77031 0 1.3948 0.62447 1.3948 1.3948z"/><path d="m84.208 16.852c0 0.77032-0.62447 1.3948-1.3948 1.3948-0.77032 0-1.3948-0.62447-1.3948-1.3948 0-0.77031 0.62447-1.3948 1.3948-1.3948 0.77031 0 1.3948 0.62447 1.3948 1.3948z"/><path d="m125.61 22.033c0 0.77032-0.62447 1.3948-1.3948 1.3948-0.77032 0-1.3948-0.62446-1.3948-1.3948s0.62447-1.3948 1.3948-1.3948c0.77031 0 1.3948 0.62446 1.3948 1.3948z"/><path d="m167.02 27.274c0 0.77031-0.62446 1.3948-1.3948 1.3948-0.77033 0-1.3948-0.62447-1.3948-1.3948 0-0.77032 0.62446-1.3948 1.3948-1.3948 0.77031 0 1.3948 0.62447 1.3948 1.3948z"/></g><g fill="#0099f8" stroke="#0099f8" stroke-miterlimit="10" stroke-width=".3985"><path d="m1.3948 4.053c0 0.77031-0.62447 1.3948-1.3948 1.3948s-1.3948-0.62446-1.3948-1.3948 0.62447-1.3948 1.3948-1.3948 1.3948 0.62448 1.3948 1.3948z"/><path d="m42.801 6.6433c0 0.77032-0.62446 1.3948-1.3948 1.3948-0.77033 0-1.3948-0.62447-1.3948-1.3948 0-0.77031 0.62446-1.3948 1.3948-1.3948 0.77031 0 1.3948 0.62447 1.3948 1.3948z"/><path d="m84.208 9.1878c0 0.77033-0.62447 1.3948-1.3948 1.3948-0.77032 0-1.3948-0.62446-1.3948-1.3948 0-0.77031 0.62447-1.3948 1.3948-1.3948 0.77031 0 1.3948 0.62446 1.3948 1.3948z"/><path d="m125.61 11.809c0 0.77032-0.62447 1.3948-1.3948 1.3948-0.77032 0-1.3948-0.62447-1.3948-1.3948 0-0.77031 0.62447-1.3948 1.3948-1.3948 0.77031 0 1.3948 0.62447 1.3948 1.3948z"/><path d="m167.02 14.445c0 0.77031-0.62446 1.3948-1.3948 1.3948-0.77033 0-1.3948-0.62447-1.3948-1.3948s0.62446-1.3948 1.3948-1.3948c0.77031 0 1.3948 0.62448 1.3948 1.3948z"/></g><g fill="#25bbff" stroke="#25bbff" stroke-miterlimit="10" stroke-width=".3985"><path d="m1.3948 2.0265c0 0.77032-0.62447 1.3948-1.3948 1.3948s-1.3948-0.62447-1.3948-1.3948c0-0.77031 0.62447-1.3948 1.3948-1.3948s1.3948 0.62447 1.3948 1.3948z"/><path d="m42.801 2.5598c0 0.77031-0.62446 1.3948-1.3948 1.3948-0.77033 0-1.3948-0.62446-1.3948-1.3948 0-0.77033 0.62446-1.3948 1.3948-1.3948 0.77031 0 1.3948 0.62446 1.3948 1.3948z"/><path d="m84.208 3.0474c0 0.77031-0.62447 1.3948-1.3948 1.3948-0.77032 0-1.3948-0.62448-1.3948-1.3948s0.62447-1.3948 1.3948-1.3948c0.77031 0 1.3948 0.62447 1.3948 1.3948z"/><path d="m125.61 3.6112c0 0.7703-0.62447 1.3948-1.3948 1.3948-0.77032 0-1.3948-0.62447-1.3948-1.3948 0-0.77031 0.62447-1.3948 1.3948-1.3948 0.77031 0 1.3948 0.62447 1.3948 1.3948z"/><path d="m167.02 4.1597c0 0.77031-0.62446 1.3948-1.3948 1.3948-0.77033 0-1.3948-0.62446-1.3948-1.3948 0-0.77033 0.62446-1.3948 1.3948-1.3948 0.77031 0 1.3948 0.62446 1.3948 1.3948z"/></g><g fill="#69d6ff" stroke="#69d6ff" stroke-miterlimit="10" stroke-width=".3985"><path d="m1.3948 1.8437c0 0.77031-0.62447 1.3948-1.3948 1.3948s-1.3948-0.62446-1.3948-1.3948 0.62447-1.3948 1.3948-1.3948 1.3948 0.62447 1.3948 1.3948z"/><path d="m42.801 2.0417c0 0.77033-0.62446 1.3948-1.3948 1.3948-0.77033 0-1.3948-0.62446-1.3948-1.3948 0-0.77031 0.62446-1.3948 1.3948-1.3948 0.77031 0 1.3948 0.62446 1.3948 1.3948z"/><path d="m84.208 2.3922c0 0.7703-0.62447 1.3948-1.3948 1.3948-0.77032 0-1.3948-0.62447-1.3948-1.3948 0-0.77033 0.62447-1.3948 1.3948-1.3948 0.77031 0 1.3948 0.62447 1.3948 1.3948z"/><path d="m125.61 2.6512c0 0.77033-0.62447 1.3948-1.3948 1.3948-0.77032 0-1.3948-0.62446-1.3948-1.3948 0-0.77031 0.62447-1.3948 1.3948-1.3948 0.77031 0 1.3948 0.62446 1.3948 1.3948z"/><path d="m167.02 2.9255c0 0.77031-0.62446 1.3948-1.3948 1.3948-0.77033 0-1.3948-0.62446-1.3948-1.3948s0.62446-1.3948 1.3948-1.3948c0.77031 0 1.3948 0.62447 1.3948 1.3948z"/></g><g transform="translate(43.503,-21.979)"><g transform="translate(-118.24 -436.06)"><text transform="matrix(1 0 0 -1 118.24 436.06)" fill="#000000" font-family="'STIX Two Text'" font-size="8.9664px"><tspan x="0 2.6630208 7.5228095 11.019706 13.853088 17.188589 21.949747 25.787367 28.620749 31.050644 35.56971 40.429497 46.167995 50.113209 54.506744 58.577492 62.415112 67.17627 70.009651 74.080399" y="0">Instructionsexecuted</tspan></text></g></g><g transform="rotate(90,-16.955,-2.303)"><g transform="translate(-55.474 -472.7)" fill="#000000" font-family="'STIX Two Text'" font-size="8.9664px"><text transform="matrix(1 0 0 -1 55.474 472.7)"><tspan x="0 6.3840766 10.768646 14.776628 18.112127 22.93605 26.944033 31.041677 37.820274 40.492264 43.756031 47.764011 50.131142" y="0">Overhead(rel.</tspan></text><text transform="matrix(1 0 0 -1 109.82 472.7)"><tspan x="0 4.6445951 10.894176 14.059315 18.703911 23.061581 27.44615 30.61129 35.264851 39.272831 42.025517 44.778202 47.25293 51.897522" y="0">nosnapshotting</tspan></text><text transform="matrix(1 0 0 -1 166.35 472.7)"><tspan x="0" y="0">)</tspan></text></g></g><g transform="translate(-28.904,-25.402)"/><g transform="translate(147.88 -.002)"/><g transform="translate(184.21,-7.998)"><g transform="translate(-258.94 -450.04)"><text transform="matrix(1 0 0 -1 258.94 450.04)" fill="#000000" font-family="'STIX Two Text'" font-size="7.2727px"><tspan x="0 3.3818054 6.7636108" y="0">250</tspan></text></g></g><g transform="translate(225.62 -7.998)"><g transform="translate(-300.35 -450.04)"><text transform="matrix(1 0 0 -1 300.35 450.04)" fill="#000000" font-family="'STIX Two Text'" font-size="7.2727px"><tspan x="0 3.3818054 6.7636108" y="0">500</tspan></text></g></g><g transform="translate(267.02 -7.998)"><g transform="translate(-341.75 -450.04)"><text transform="matrix(1 0 0 -1 341.75 450.04)" fill="#000000" font-family="'STIX Two Text'" font-size="7.2727px"><tspan x="0 3.3818054 6.7636108" y="0">750</tspan></text></g></g><g transform="translate(305.94 -7.998)"><g transform="translate(-380.67 -450.04)" fill="#000000" font-family="'STIX Two Text'" font-size="7.2727px"><text transform="matrix(1 0 0 -1 380.67 450.04)"><tspan x="0" y="0">1</tspan></text><text transform="matrix(1 0 0 -1 383.84 450.04)"><tspan x="0" y="0">,</tspan></text><text transform="matrix(1 0 0 -1 385.64 450.04)"><tspan x="0 3.3818054 6.7636108" y="0">000</tspan></text></g></g><g transform="translate(347.35 -7.998)"><g transform="translate(-422.08 -450.04)" fill="#000000" font-family="'STIX Two Text'" font-size="7.2727px"><text transform="matrix(1 0 0 -1 422.08 450.04)"><tspan x="0" y="0">1</tspan></text><text transform="matrix(1 0 0 -1 425.24 450.04)"><tspan x="0" y="0">,</tspan></text><text transform="matrix(1 0 0 -1 427.05 450.04)"><tspan x="0 3.3818054 6.7636108" y="0">250</tspan></text></g></g><g transform="translate(182.38 -2.198)"><g transform="translate(-257.11 -455.84)"><text transform="matrix(1 0 0 -1 257.11 455.84)" fill="#000000" font-family="'STIX Two Text'" font-size="7.2727px"><tspan x="0" y="0">0</tspan></text></g></g><g transform="translate(182.38 34.077)"><g transform="translate(-257.11 -492.12)"><text transform="matrix(1 0 0 -1 257.11 492.12)" fill="#000000" font-family="'STIX Two Text'" font-size="7.2727px"><tspan x="0" y="0">5</tspan></text></g></g><g transform="translate(179,70.352)"><g transform="translate(-253.73 -528.4)"><text transform="matrix(1 0 0 -1 253.73 528.4)" fill="#000000" font-family="'STIX Two Text'" font-size="7.2727px"><tspan x="0 3.3818054" y="0">10</tspan></text></g></g><g transform="translate(179 106.63)"><g transform="translate(-253.73 -564.67)"><text transform="matrix(1 0 0 -1 253.73 564.67)" fill="#000000" font-family="'STIX Two Text'" font-size="7.2727px"><tspan x="0 3.3818054" y="0">15</tspan></text></g></g><g clip-path="url(#clipPath882)"><path d="m189.29 7.2537h41.406 41.406 41.406 41.406" fill="none" stroke="#f2305a" stroke-miterlimit="10" stroke-width=".3985"/><path d="m147.88-0.00143" fill="none" stroke="#001e82" stroke-miterlimit="10" stroke-width=".3985"/><path d="m189.29 31.486s29.916 17.468 41.406 24.232c11.49 6.7646 29.916 17.697 41.406 24.522 11.49 6.825 29.916 17.782 41.406 24.667 11.49 6.8854 41.406 24.958 41.406 24.958" fill="none" stroke="#0064d2" stroke-miterlimit="10" stroke-width=".3985"/><path d="m189.29 19.297s29.916 8.9414 41.406 12.334c11.49 3.3924 29.916 8.7036 41.406 12.116 11.49 3.4125 29.916 9.006 41.406 12.479 11.49 3.4729 41.406 12.551 41.406 12.551" fill="none" stroke="#0099f8" stroke-miterlimit="10" stroke-width=".3985"/><path d="m189.29 9.6479s29.916 1.8649 41.406 2.5393c11.49 0.67443 29.916 1.627 41.406 2.3216 11.49 0.69458 29.916 1.9496 41.406 2.6844 11.49 0.73483 41.406 2.6118 41.406 2.6118" fill="none" stroke="#25bbff" stroke-miterlimit="10" stroke-width=".3985"/><path d="m189.29 8.7773s29.916 0.58078 41.406 0.94316c11.49 0.36238 29.916 1.266 41.406 1.6687 11.49 0.40267 29.916 0.88105 41.406 1.2334 11.49 0.35233 41.406 1.3059 41.406 1.3059" fill="none" stroke="#69d6ff" stroke-miterlimit="10" stroke-width=".3985"/></g><g fill="#f2305a" stroke="#f2305a" stroke-miterlimit="10" stroke-width=".3985"><path d="m190.68 7.2537c0 0.7703-0.62447 1.3948-1.3948 1.3948-0.7703 0-1.3948-0.62447-1.3948-1.3948 0-0.77032 0.62447-1.3948 1.3948-1.3948 0.77033 0 1.3948 0.62446 1.3948 1.3948z"/><path d="m232.09 7.2537c0 0.7703-0.62447 1.3948-1.3948 1.3948-0.77031 0-1.3948-0.62447-1.3948-1.3948 0-0.77032 0.62447-1.3948 1.3948-1.3948 0.77032 0 1.3948 0.62446 1.3948 1.3948z"/><path d="m273.49 7.2537c0 0.7703-0.62447 1.3948-1.3948 1.3948-0.77031 0-1.3948-0.62447-1.3948-1.3948 0-0.77032 0.62447-1.3948 1.3948-1.3948 0.77032 0 1.3948 0.62446 1.3948 1.3948z"/><path d="m314.9 7.2537c0 0.7703-0.62446 1.3948-1.3948 1.3948-0.77031 0-1.3948-0.62447-1.3948-1.3948 0-0.77032 0.62446-1.3948 1.3948-1.3948 0.77033 0 1.3948 0.62446 1.3948 1.3948z"/><path d="m356.31 7.2537c0 0.7703-0.62447 1.3948-1.3948 1.3948-0.77032 0-1.3948-0.62447-1.3948-1.3948 0-0.77032 0.62447-1.3948 1.3948-1.3948 0.77031 0 1.3948 0.62446 1.3948 1.3948z"/></g><g fill="#0064d2" stroke="#0064d2" stroke-miterlimit="10" stroke-width=".3985"><path d="m190.68 31.486c0 0.77032-0.62447 1.3948-1.3948 1.3948-0.7703 0-1.3948-0.62447-1.3948-1.3948 0-0.77031 0.62447-1.3948 1.3948-1.3948 0.77033 0 1.3948 0.62447 1.3948 1.3948z"/><path d="m232.09 55.718c0 0.77032-0.62447 1.3948-1.3948 1.3948-0.77031 0-1.3948-0.62447-1.3948-1.3948 0-0.77031 0.62447-1.3948 1.3948-1.3948 0.77032 0 1.3948 0.62447 1.3948 1.3948z"/><path d="m273.49 80.24c0 0.77031-0.62447 1.3948-1.3948 1.3948-0.77031 0-1.3948-0.62446-1.3948-1.3948 0-0.77033 0.62447-1.3948 1.3948-1.3948 0.77032 0 1.3948 0.62446 1.3948 1.3948z"/><path d="m314.9 104.91c0 0.77032-0.62446 1.3948-1.3948 1.3948-0.77031 0-1.3948-0.62447-1.3948-1.3948 0-0.77031 0.62446-1.3948 1.3948-1.3948 0.77033 0 1.3948 0.62447 1.3948 1.3948z"/><path d="m356.31 129.87c0 0.77031-0.62447 1.3948-1.3948 1.3948-0.77032 0-1.3948-0.62446-1.3948-1.3948s0.62447-1.3948 1.3948-1.3948c0.77031 0 1.3948 0.62448 1.3948 1.3948z"/></g><g fill="#0099f8" stroke="#0099f8" stroke-miterlimit="10" stroke-width=".3985"><path d="m190.68 19.297c0 0.77032-0.62447 1.3948-1.3948 1.3948-0.7703 0-1.3948-0.62447-1.3948-1.3948 0-0.77031 0.62447-1.3948 1.3948-1.3948 0.77033 0 1.3948 0.62447 1.3948 1.3948z"/><path d="m232.09 31.631c0 0.77031-0.62447 1.3948-1.3948 1.3948-0.77031 0-1.3948-0.62447-1.3948-1.3948 0-0.77032 0.62447-1.3948 1.3948-1.3948 0.77032 0 1.3948 0.62447 1.3948 1.3948z"/><path d="m273.49 43.747c0 0.77032-0.62447 1.3948-1.3948 1.3948-0.77031 0-1.3948-0.62447-1.3948-1.3948 0-0.77031 0.62447-1.3948 1.3948-1.3948 0.77032 0 1.3948 0.62447 1.3948 1.3948z"/><path d="m314.9 56.226c0 0.77032-0.62446 1.3948-1.3948 1.3948-0.77031 0-1.3948-0.62448-1.3948-1.3948 0-0.7703 0.62446-1.3948 1.3948-1.3948 0.77033 0 1.3948 0.62447 1.3948 1.3948z"/><path d="m356.31 68.777c0 0.77031-0.62447 1.3948-1.3948 1.3948-0.77032 0-1.3948-0.62448-1.3948-1.3948s0.62447-1.3948 1.3948-1.3948c0.77031 0 1.3948 0.62446 1.3948 1.3948z"/></g><g fill="#25bbff" stroke="#25bbff" stroke-miterlimit="10" stroke-width=".3985"><path d="m190.68 9.6479c0 0.77031-0.62447 1.3948-1.3948 1.3948-0.7703 0-1.3948-0.62446-1.3948-1.3948 0-0.77033 0.62447-1.3948 1.3948-1.3948 0.77033 0 1.3948 0.62446 1.3948 1.3948z"/><path d="m232.09 12.187c0 0.7703-0.62447 1.3948-1.3948 1.3948-0.77031 0-1.3948-0.62447-1.3948-1.3948 0-0.77033 0.62447-1.3948 1.3948-1.3948 0.77032 0 1.3948 0.62447 1.3948 1.3948z"/><path d="m273.49 14.509c0 0.77031-0.62447 1.3948-1.3948 1.3948-0.77031 0-1.3948-0.62449-1.3948-1.3948 0-0.7703 0.62447-1.3948 1.3948-1.3948 0.77032 0 1.3948 0.62447 1.3948 1.3948z"/><path d="m314.9 17.193c0 0.77031-0.62446 1.3948-1.3948 1.3948-0.77031 0-1.3948-0.62446-1.3948-1.3948 0-0.77033 0.62446-1.3948 1.3948-1.3948 0.77033 0 1.3948 0.62446 1.3948 1.3948z"/><path d="m356.31 19.805c0 0.77032-0.62447 1.3948-1.3948 1.3948-0.77032 0-1.3948-0.62446-1.3948-1.3948 0-0.77031 0.62447-1.3948 1.3948-1.3948 0.77031 0 1.3948 0.62446 1.3948 1.3948z"/></g><g fill="#69d6ff" stroke="#69d6ff" stroke-miterlimit="10" stroke-width=".3985"><path d="m190.68 8.7773c0 0.77031-0.62447 1.3948-1.3948 1.3948-0.7703 0-1.3948-0.62446-1.3948-1.3948s0.62447-1.3948 1.3948-1.3948c0.77033 0 1.3948 0.62448 1.3948 1.3948z"/><path d="m232.09 9.7204c0 0.77031-0.62447 1.3948-1.3948 1.3948-0.77031 0-1.3948-0.62446-1.3948-1.3948s0.62447-1.3948 1.3948-1.3948c0.77032 0 1.3948 0.62448 1.3948 1.3948z"/><path d="m273.49 11.389c0 0.77033-0.62447 1.3948-1.3948 1.3948-0.77031 0-1.3948-0.62446-1.3948-1.3948 0-0.77031 0.62447-1.3948 1.3948-1.3948 0.77032 0 1.3948 0.62446 1.3948 1.3948z"/><path d="m314.9 12.622c0 0.77031-0.62446 1.3948-1.3948 1.3948-0.77031 0-1.3948-0.62448-1.3948-1.3948s0.62446-1.3948 1.3948-1.3948c0.77033 0 1.3948 0.62447 1.3948 1.3948z"/><path d="m356.31 13.928c0 0.77033-0.62447 1.3948-1.3948 1.3948-0.77032 0-1.3948-0.62447-1.3948-1.3948 0-0.7703 0.62447-1.3948 1.3948-1.3948 0.77031 0 1.3948 0.62447 1.3948 1.3948z"/></g><g transform="translate(232.79 -21.98)"><g transform="translate(-307.52 -436.06)"><text transform="matrix(1 0 0 -1 307.52 436.06)" fill="#000000" font-family="'STIX Two Text'" font-size="8.9664px"><tspan x="0 2.6630208 7.5228095 11.019706 13.853088 17.188589 21.949747 25.787367 28.620749 31.050644 35.56971 40.429497 46.167995 50.113209 54.506744 58.577492 62.415112 67.17627 70.009651 74.080399" y="0">Instructionsexecuted</tspan></text></g></g><g transform="translate(175.68 -25.404)"/><g transform="translate(43.008,146.57)"><g transform="translate(223.08 -.395)"><path d="m-222.89 0.59448h250.47v26.986h-250.47z" fill="#fff" stroke="#000" stroke-miterlimit="10" stroke-width=".3985"/><g transform="translate(-219.9 8.267)"><g transform="translate(.2 11.501)"><path d="m0 0h8.5041 8.5041" fill="none" stroke="#f2305a" stroke-miterlimit="10" stroke-width=".3985"/><path d="m9.8989 0c0 0.77031-0.62447 1.3948-1.3948 1.3948-0.77032 0-1.3948-0.62447-1.3948-1.3948s0.62447-1.3948 1.3948-1.3948c0.77031 0 1.3948 0.62447 1.3948 1.3948z" fill="#f2305a" stroke="#f2305a" stroke-miterlimit="10" stroke-width=".3985"/><g transform="translate(48.703)"><g transform="translate(-29.503,-2.333)"><g transform="translate(-140.33 -621.65)"><text transform="matrix(1 0 0 -1 140.33 621.65)" fill="#000000" font-family="'STIX Two Text'" font-size="8.9664px"><tspan x="0 4.8597889 11.620455 15.117351 19.977139 24.074783 28.728346 32.225243 37.049164 41.56823 44.401611 47.234997 49.66489 54.524677" y="0">nosnapshotting</tspan></text></g></g><g transform="translate(31.696)"><path d="m0 0h8.5041 8.5041" fill="none" stroke="#001e82" stroke-miterlimit="10" stroke-width=".3985"/><path d="m9.8989 0c0 0.77031-0.62447 1.3948-1.3948 1.3948-0.77032 0-1.3948-0.62447-1.3948-1.3948s0.62447-1.3948 1.3948-1.3948c0.77031 0 1.3948 0.62447 1.3948 1.3948z" fill="#001e82" stroke="#001e82" stroke-miterlimit="10" stroke-width=".3985"/><g transform="translate(50.631)"><g transform="translate(-31.431,-2.194)"><g transform="translate(-220.73 -621.79)"><text transform="matrix(1 0 0 -1 220.73 621.79)" fill="#000000" font-family="'STIX Two Text'" font-size="8.9664px"><tspan x="0 3.9452159 8.3297853 12.337767 15.807763 22.667059 25.096954 29.956743 33.45364 36.287022 39.62252 44.383678 48.221298 51.05468 53.484577 58.003643" y="0">everyinstruction</tspan></text></g></g><g transform="translate(33.624)"><path d="m0 0h8.5041 8.5041" fill="none" stroke="#0064d2" stroke-miterlimit="10" stroke-width=".3985"/><path d="m9.8989 0c0 0.77031-0.62447 1.3948-1.3948 1.3948-0.77032 0-1.3948-0.62447-1.3948-1.3948s0.62447-1.3948 1.3948-1.3948c0.77031 0 1.3948 0.62447 1.3948 1.3948z" fill="#0064d2" stroke="#0064d2" stroke-miterlimit="10" stroke-width=".3985"/><g transform="translate(48.421)"><g transform="translate(-25.052,-2.194)"><g transform="translate(-309.15 -621.79)"><text transform="matrix(1 0 0 -1 309.15 621.79)" fill="#000000" font-family="'STIX Two Text'" font-size="8.9664px"><tspan x="0 6.4109759 8.8408709 13.700659 17.197556 20.030937 23.366438 28.127596 31.965216 34.798599 37.228493 41.747559 46.607346" y="0">5instructions</tspan></text></g></g><g transform="translate(-213.08 -11.501)"><path d="m0 0h8.5041 8.5041" fill="none" stroke="#0099f8" stroke-miterlimit="10" stroke-width=".3985"/><path d="m9.8989 0c0 0.77031-0.62447 1.3948-1.3948 1.3948-0.77032 0-1.3948-0.62447-1.3948-1.3948s0.62447-1.3948 1.3948-1.3948c0.77031 0 1.3948 0.62447 1.3948 1.3948z" fill="#0099f8" stroke="#0099f8" stroke-miterlimit="10" stroke-width=".3985"/><g transform="translate(48.703)"><g transform="translate(-27.136,-2.193)"><g transform="translate(-142.7 -610.29)"><text transform="matrix(1 0 0 -1 142.7 610.29)" fill="#000000" font-family="'STIX Two Text'" font-size="8.9664px"><tspan x="0 4.1693759 10.580352 13.010246 17.870035 21.366932 24.200314 27.535814 32.296974 36.13459 38.967976 41.397869 45.916935 50.776722" y="0">10instructions</tspan></text></g></g><g transform="translate(31.696)"><path d="m0 0h8.5041 8.5041" fill="none" stroke="#25bbff" stroke-miterlimit="10" stroke-width=".3985"/><path d="m9.8989 0c0 0.77031-0.62447 1.3948-1.3948 1.3948-0.77032 0-1.3948-0.62447-1.3948-1.3948s0.62447-1.3948 1.3948-1.3948c0.77031 0 1.3948 0.62447 1.3948 1.3948z" fill="#25bbff" stroke="#25bbff" stroke-miterlimit="10" stroke-width=".3985"/><g transform="translate(50.631)"><g transform="translate(-27.136,-2.193)"><g transform="translate(-225.02 -610.29)"><text transform="matrix(1 0 0 -1 225.02 610.29)" fill="#000000" font-family="'STIX Two Text'" font-size="8.9664px"><tspan x="0 4.1693759 10.580352 13.010246 17.870035 21.366932 24.200314 27.535814 32.296974 36.13459 38.967976 41.397869 45.916935 50.776722" y="0">50instructions</tspan></text></g></g><g transform="translate(33.624)"><path d="m0 0h8.5041 8.5041" fill="none" stroke="#69d6ff" stroke-miterlimit="10" stroke-width=".3985"/><path d="m9.8989 0c0 0.77031-0.62447 1.3948-1.3948 1.3948-0.77032 0-1.3948-0.62447-1.3948-1.3948s0.62447-1.3948 1.3948-1.3948c0.77031 0 1.3948 0.62447 1.3948 1.3948z" fill="#69d6ff" stroke="#69d6ff" stroke-miterlimit="10" stroke-width=".3985"/><g transform="translate(48.421)"><g transform="translate(-29.221,-2.193)"><g transform="translate(-304.98 -610.29)"><text transform="matrix(1 0 0 -1 304.98 610.29)" fill="#000000" font-family="'STIX Two Text'" font-size="8.9664px"><tspan x="0 4.1693759 8.3387518 14.749728 17.179623 22.039412 25.536306 28.36969 31.705191 36.466351 40.303967 43.137352 45.567245 50.086311 54.946098" y="0">100instructions</tspan></text></g></g></g></g></g></g></g></g></g></g></g></g></g></g></g></g></g></g></g></svg>
