<?xml version="1.0" encoding="UTF-8"?><svg id="b" xmlns="http://www.w3.org/2000/svg" viewBox="0 0 366.64 105.12"><defs><style>.d{stroke-dasharray:2.99 2.99;}.d,.e{fill:none;stroke:#000;stroke-miterlimit:10;stroke-width:.4px;}</style></defs><g id="c"><path d="M1.49,51.66c-.23,0-.41-.06-.53-.17s-.18-.28-.18-.48.06-.38.18-.51c.12-.13.3-.19.53-.19s.41.07.53.2.18.31.18.52c0,.21-.07.37-.18.48-.12.11-.29.17-.52.17Z"/><path d="M6.35,51.66c-.23,0-.41-.06-.53-.17s-.18-.28-.18-.48.06-.38.18-.51c.12-.13.3-.19.53-.19s.41.07.53.2.18.31.18.52c0,.21-.07.37-.18.48-.12.11-.29.17-.52.17Z"/><path d="M11.2,51.66c-.23,0-.41-.06-.53-.17s-.18-.28-.18-.48.06-.38.18-.51c.12-.13.3-.19.53-.19s.41.07.53.2.18.31.18.52c0,.21-.07.37-.18.48-.12.11-.29.17-.52.17Z"/><path d="M36.18,52.14c0-.78-.63-1.41-1.41-1.41s-1.41.63-1.41,1.41.63,1.41,1.41,1.41,1.41-.63,1.41-1.41Z"/><path class="e" d="M36.18,52.14c0-.78-.63-1.41-1.41-1.41s-1.41.63-1.41,1.41.63,1.41,1.41,1.41,1.41-.63,1.41-1.41Z"/><path d="M121.22,52.14c0-.78-.63-1.41-1.41-1.41s-1.41.63-1.41,1.41.63,1.41,1.41,1.41,1.41-.63,1.41-1.41Z"/><path class="e" d="M121.22,52.14c0-.78-.63-1.41-1.41-1.41s-1.41.63-1.41,1.41.63,1.41,1.41,1.41,1.41-.63,1.41-1.41Z"/><path d="M171.57,52.66c-.23,0-.41-.06-.53-.17s-.18-.28-.18-.48.06-.38.18-.51c.12-.13.3-.19.53-.19s.41.07.53.2.18.31.18.52c0,.21-.07.37-.18.48-.12.11-.29.17-.52.17Z"/><path d="M176.42,52.66c-.23,0-.41-.06-.53-.17s-.18-.28-.18-.48.06-.38.18-.51c.12-.13.3-.19.53-.19s.41.07.53.2.18.31.18.52c0,.21-.07.37-.18.48-.12.11-.29.17-.52.17Z"/><path d="M181.28,52.66c-.23,0-.41-.06-.53-.17s-.18-.28-.18-.48.06-.38.18-.51c.12-.13.3-.19.53-.19s.41.07.53.2c.12.13.18.31.18.52,0,.21-.07.37-.19.48-.12.11-.29.17-.52.17Z"/><path d="M234.61,52.14c0-.78-.63-1.41-1.41-1.41s-1.41.63-1.41,1.41.63,1.41,1.41,1.41,1.41-.63,1.41-1.41Z"/><path class="e" d="M234.61,52.14c0-.78-.63-1.41-1.41-1.41s-1.41.63-1.41,1.41.63,1.41,1.41,1.41,1.41-.63,1.41-1.41Z"/><path d="M319.65,52.14c0-.78-.63-1.41-1.41-1.41s-1.41.63-1.41,1.41.63,1.41,1.41,1.41,1.41-.63,1.41-1.41Z"/><path class="e" d="M319.65,52.14c0-.78-.63-1.41-1.41-1.41s-1.41.63-1.41,1.41.63,1.41,1.41,1.41,1.41-.63,1.41-1.41Z"/><circle class="e" cx="119.81" cy="73.4" r="1.41"/><path class="e" d="M121.22,94.66c0-.78-.63-1.41-1.41-1.41s-1.41.63-1.41,1.41.63,1.41,1.41,1.41,1.41-.63,1.41-1.41Z"/><path class="e" d="M319.65,73.4c0-.78-.63-1.41-1.41-1.41s-1.41.63-1.41,1.41.63,1.41,1.41,1.41,1.41-.63,1.41-1.41Z"/><path d="M171.57,95.18c-.23,0-.41-.06-.53-.17s-.18-.28-.18-.48.06-.38.18-.51c.12-.13.3-.19.53-.19s.41.07.53.2.18.31.18.52c0,.21-.07.37-.18.48-.12.11-.29.17-.52.17Z"/><path d="M176.43,95.18c-.23,0-.41-.06-.53-.17s-.18-.28-.18-.48.06-.38.18-.51c.12-.13.3-.19.53-.19s.41.07.53.2.18.31.18.52c0,.21-.07.37-.18.48-.12.11-.29.17-.52.17Z"/><path d="M181.28,95.18c-.23,0-.41-.06-.53-.17s-.18-.28-.18-.48.06-.38.18-.51c.12-.13.3-.19.53-.19s.41.07.53.2c.12.13.18.31.18.52,0,.21-.07.37-.18.48-.12.11-.29.17-.52.17Z"/><path d="M234.61,94.66c0-.78-.63-1.41-1.41-1.41s-1.41.63-1.41,1.41.63,1.41,1.41,1.41,1.41-.63,1.41-1.41Z"/><path class="e" d="M234.61,94.66c0-.78-.63-1.41-1.41-1.41s-1.41.63-1.41,1.41.63,1.41,1.41,1.41,1.41-.63,1.41-1.41Z"/><line class="e" x1="16.47" y1="52.14" x2="31.17" y2="52.14"/><polyline points="33.16 52.14 29.97 50.54 31.17 52.14 29.97 53.73"/><line class="e" x1="36.38" y1="52.14" x2="116.21" y2="52.14"/><polyline points="118.2 52.14 115.01 50.54 116.21 52.14 115.01 53.73"/><path d="M49.76,56.78c-.09.05-.18.05-.27.02-.15-.64-.59-.97-1.08-.97-.52,0-.8.28-.8.71s.47.67.97.91c.48.23,1.38.68,1.38,1.45,0,.86-.57,1.4-1.45,1.4-.77,0-1.06-.17-1.25-.17-.12,0-.22.02-.33.06-.07-.32-.09-.71-.11-1.4.1-.04.19-.05.32-.02.18.89.63,1.21,1.19,1.21.59,0,.86-.28.86-.86s-.43-.8-1.08-1.1c-.41-.19-1.19-.58-1.19-1.31,0-.82.78-1.22,1.47-1.22.81,0,1.07.22,1.32.22.06.38.06.77.04,1.06ZM54.19,59.88c.06.06.06.27,0,.33-.37-.01-.76-.02-1.11-.02s-.75,0-1.12.02c-.06-.06-.06-.27,0-.33.61-.05.72-.08.72-.91v-2.52c0-.39-.12-.51-.43-.51h-.24c-.65,0-.76.2-.96.92-.09,0-.18,0-.27-.03.06-.47.07-.86.07-1.33.27.05.85.1,1.82.1h.79c.84,0,1.47-.06,1.82-.1.02.47.03.84.08,1.33-.08.05-.17.05-.27.03-.2-.72-.33-.92-.96-.92h-.26c-.32,0-.42.15-.42.52v2.51c0,.83.11.87.72.91ZM57.62,57.94v1.49c0,.33.1.44.52.44h.43c.83,0,1.12-.5,1.28-1.09.11-.03.19,0,.28.04-.07.42-.18.97-.3,1.38,0,0-.66-.02-1.06-.02h-1.53c-.32,0-.76,0-1.12.02-.06-.06-.06-.27,0-.33.61-.05.72-.08.72-.91v-2.15c0-.83-.11-.87-.72-.91-.06-.06-.06-.27,0-.33.36,0,.82.02,1.11.02h2.06c.17,0,.27,0,.41-.04.02,0,.03,0,.03.03.02.07.14.85.18,1.19-.08.04-.17.06-.27.05-.18-.57-.31-.9-1.13-.9h-.57c-.19,0-.32.11-.32.28v1.41h.57c.65,0,.67-.11.69-.56.05-.05.23-.05.28,0,0,.25-.02.57-.02.71,0,.16,0,.5.02.73-.05.05-.23.05-.28,0-.02-.37-.03-.56-.69-.56h-.57ZM63.07,59.88c.06.06.06.27,0,.33-.33-.01-.68-.02-1.11-.02s-.79,0-1.12.02c-.06-.06-.06-.27,0-.33.61-.05.72-.08.72-.91v-2.15c0-.83-.11-.87-.72-.91-.06-.06-.06-.27,0-.33.4,0,.82.02,1.11.02.27,0,.69-.02,1.06-.02,1.41,0,1.71.7,1.71,1.22,0,.6-.41,1.55-1.74,1.55-.25,0-.45-.04-.63-.12v.74c0,.83.11.87.72.91ZM62.35,57.91c.2.08.45.11.65.11.6,0,.86-.39.86-1.11s-.32-1.01-.91-1.01c-.48,0-.6.13-.6.45v1.55ZM65.81,58.15c-.09,0-.15-.09-.15-.19,0-.18.13-.41.25-.41h2.18c.1,0,.14.1.14.2,0,.12-.14.4-.27.4h-2.15ZM71.23,59.88c.06.06.06.27,0,.33-.33-.01-.68-.02-1.11-.02s-.79,0-1.12.02c-.06-.06-.06-.27,0-.33.61-.05.72-.08.72-.91v-2.15c0-.83-.11-.87-.72-.91-.06-.06-.06-.27,0-.33.4,0,.82.02,1.11.02.27,0,.69-.02,1.06-.02,1.41,0,1.71.7,1.71,1.22,0,.6-.41,1.55-1.74,1.55-.25,0-.45-.04-.63-.12v.74c0,.83.11.87.72.91ZM70.51,57.91c.2.08.45.11.65.11.6,0,.86-.39.86-1.11s-.32-1.01-.91-1.01c-.48,0-.6.13-.6.45v1.55ZM75.69,59.88c.06.06.06.27,0,.33-.32-.01-.65-.02-.96-.02-.33,0-.74,0-1.12.02-.06-.06-.06-.27,0-.33.61-.05.72-.08.72-.91v-2.15c0-.83-.11-.87-.72-.91-.06-.06-.06-.27,0-.33.4,0,.82.02,1.11.02s.87-.04,1.12-.04c1.19,0,1.7.35,1.7,1.18,0,.69-.51,1.1-.85,1.22v.02c.13.13.25.3.37.61l.29.75c.2.52.39.58.75.58.07.08.09.18.06.28-.17.04-.48.07-.63.07-.43,0-.77-.24-1-.86l-.22-.6c-.13-.37-.27-.7-.65-.7h-.55v.87c0,.83.1.88.57.91ZM75.78,55.89c-.56,0-.66.1-.66.63v1.3h.44c.89,0,1.12-.29,1.12-1.08,0-.6-.2-.85-.9-.85ZM80.26,58.97c0,.83.11.87.72.91.06.06.06.27,0,.33-.35-.01-.79-.02-1.11-.02-.34,0-.75,0-1.12.02-.06-.06-.06-.27,0-.33.61-.05.72-.08.72-.91v-2.15c0-.83-.11-.87-.72-.91-.06-.06-.06-.27,0-.33.39,0,.81.02,1.11.02s.74,0,1.12-.02c.06.06.06.27,0,.33-.61.05-.72.08-.72.91v2.15ZM84.59,60.22s-.07.08-.11.08c-.05,0-.1-.03-.12-.08l-1.41-3.78h-.02l-.29,2.53c-.09.74-.09.86.48.9.06.06.06.27,0,.33-.2-.01-.57-.02-.77-.02-.16,0-.46,0-.66.02-.06-.06-.06-.27,0-.33.38-.03.51-.07.6-.9l.32-2.8c.02-.19-.07-.24-.56-.27-.06-.06-.06-.27,0-.33l1.39.02,1.28,3.57,1.49-3.57,1.35-.02c.06.06.06.27,0,.33-.5.04-.59.08-.56.48l.2,2.57c.06.81.07.87.58.92.06.06.06.27,0,.33-.27-.01-.56-.02-.86-.02-.28,0-.65,0-1,.02-.06-.06-.06-.27,0-.33.54-.05.55-.09.51-.92l-.13-2.58h-.07l-1.63,3.85ZM88.6,58.15c-.09,0-.15-.09-.15-.19,0-.18.13-.41.25-.41h2.18c.1,0,.14.1.14.2,0,.12-.14.4-.27.4h-2.15ZM94.36,60.28c-1.35,0-2.37-.96-2.37-2.31,0-1.46,1.07-2.47,2.45-2.47,1.3,0,2.43.93,2.43,2.34,0,1.3-.88,2.44-2.51,2.44ZM92.86,57.85c0,1.23.69,2.1,1.65,2.1.89,0,1.49-.75,1.49-1.97,0-1.34-.77-2.15-1.65-2.15-.75,0-1.49.68-1.49,2.02ZM100.85,55.91c-.06-.06-.06-.27,0-.33.3,0,.65.02.95.02s.66,0,.96-.02c.06.06.06.27,0,.33-.61.05-.72.08-.72.91v1.14c0,1.45-.41,2.33-1.95,2.33-1.09,0-1.81-.41-1.81-1.9v-1.56c0-.83-.11-.87-.72-.91-.06-.06-.06-.27,0-.33.36,0,.75.02,1.11.02.33,0,.73,0,1.12-.02.06.06.06.27,0,.33-.61.05-.72.08-.72.91v1.36c0,.93.21,1.7,1.2,1.7,1.32,0,1.32-.94,1.32-1.79v-1.27c0-.83-.11-.87-.72-.91ZM106.72,59.88c.06.06.06.27,0,.33-.37-.01-.76-.02-1.11-.02s-.75,0-1.12.02c-.06-.06-.06-.27,0-.33.61-.05.72-.08.72-.91v-2.52c0-.39-.12-.51-.43-.51h-.24c-.65,0-.76.2-.96.92-.09,0-.18,0-.27-.03.06-.47.07-.86.07-1.33.27.05.85.1,1.82.1h.79c.84,0,1.47-.06,1.82-.1.02.47.03.84.08,1.33-.08.05-.17.05-.27.03-.2-.72-.33-.92-.96-.92h-.26c-.32,0-.42.15-.42.52v2.51c0,.83.11.87.72.91Z"/><line class="e" x1="121.42" y1="52.14" x2="166.46" y2="52.14"/><line class="e" x1="186.55" y1="52.14" x2="229.6" y2="52.14"/><polyline points="231.59 52.14 228.4 50.54 229.6 52.14 228.4 53.73"/><line class="e" x1="234.81" y1="52.14" x2="314.64" y2="52.14"/><polyline points="316.63 52.14 313.44 50.54 314.64 52.14 313.44 53.73"/><path d="M248.19,56.78c-.09.05-.18.05-.27.02-.15-.64-.59-.97-1.08-.97-.52,0-.8.28-.8.71s.47.67.97.91c.48.23,1.39.68,1.39,1.45,0,.86-.57,1.4-1.45,1.4-.77,0-1.06-.17-1.25-.17-.12,0-.22.02-.33.06-.07-.32-.09-.71-.11-1.4.1-.04.19-.05.32-.02.18.89.63,1.21,1.19,1.21.59,0,.86-.28.86-.86s-.43-.8-1.08-1.1c-.41-.19-1.19-.58-1.19-1.31,0-.82.78-1.22,1.47-1.22.81,0,1.07.22,1.32.22.06.38.06.77.04,1.06ZM252.62,59.88c.06.06.06.27,0,.33-.37-.01-.76-.02-1.11-.02s-.75,0-1.12.02c-.06-.06-.06-.27,0-.33.61-.05.72-.08.72-.91v-2.52c0-.39-.12-.51-.43-.51h-.24c-.65,0-.76.2-.96.92-.09,0-.18,0-.27-.03.06-.47.07-.86.07-1.33.27.05.85.1,1.82.1h.79c.84,0,1.47-.06,1.82-.1.02.47.03.84.08,1.33-.08.05-.17.05-.27.03-.2-.72-.33-.92-.96-.92h-.26c-.32,0-.42.15-.42.52v2.51c0,.83.11.87.72.91ZM256.05,57.94v1.49c0,.33.1.44.52.44h.43c.83,0,1.12-.5,1.28-1.09.11-.03.19,0,.28.04-.07.42-.18.97-.3,1.38,0,0-.66-.02-1.06-.02h-1.53c-.32,0-.76,0-1.12.02-.06-.06-.06-.27,0-.33.61-.05.72-.08.72-.91v-2.15c0-.83-.11-.87-.72-.91-.06-.06-.06-.27,0-.33.36,0,.82.02,1.11.02h2.06c.17,0,.27,0,.41-.04.02,0,.03,0,.03.03.02.07.14.85.18,1.19-.08.04-.17.06-.27.05-.18-.57-.31-.9-1.13-.9h-.57c-.19,0-.32.11-.32.28v1.41h.57c.65,0,.67-.11.69-.56.05-.05.23-.05.28,0,0,.25-.02.57-.02.71,0,.16,0,.5.02.73-.05.05-.23.05-.28,0-.02-.37-.03-.56-.69-.56h-.57ZM261.5,59.88c.06.06.06.27,0,.33-.33-.01-.68-.02-1.11-.02s-.79,0-1.12.02c-.06-.06-.06-.27,0-.33.61-.05.72-.08.72-.91v-2.15c0-.83-.11-.87-.72-.91-.06-.06-.06-.27,0-.33.4,0,.82.02,1.11.02.27,0,.69-.02,1.06-.02,1.41,0,1.71.7,1.71,1.22,0,.6-.41,1.55-1.74,1.55-.25,0-.45-.04-.63-.12v.74c0,.83.11.87.72.91ZM260.78,57.91c.2.08.45.11.65.11.6,0,.86-.39.86-1.11s-.32-1.01-.91-1.01c-.48,0-.6.13-.6.45v1.55ZM264.23,58.15c-.09,0-.15-.09-.15-.19,0-.18.13-.41.25-.41h2.18c.1,0,.14.1.14.2,0,.12-.14.4-.27.4h-2.15ZM269.65,59.88c.06.06.06.27,0,.33-.33-.01-.68-.02-1.11-.02s-.79,0-1.12.02c-.06-.06-.06-.27,0-.33.61-.05.72-.08.72-.91v-2.15c0-.83-.11-.87-.72-.91-.06-.06-.06-.27,0-.33.4,0,.82.02,1.11.02.27,0,.69-.02,1.06-.02,1.41,0,1.71.7,1.71,1.22,0,.6-.41,1.55-1.74,1.55-.25,0-.45-.04-.63-.12v.74c0,.83.11.87.72.91ZM268.94,57.91c.2.08.45.11.65.11.6,0,.86-.39.86-1.11s-.32-1.01-.91-1.01c-.48,0-.6.13-.6.45v1.55ZM274.12,59.88c.06.06.06.27,0,.33-.32-.01-.65-.02-.96-.02-.33,0-.74,0-1.12.02-.06-.06-.06-.27,0-.33.61-.05.72-.08.72-.91v-2.15c0-.83-.11-.87-.72-.91-.06-.06-.06-.27,0-.33.4,0,.82.02,1.11.02s.87-.04,1.12-.04c1.19,0,1.7.35,1.7,1.18,0,.69-.51,1.1-.85,1.22v.02c.13.13.25.3.37.61l.29.75c.2.52.39.58.75.58.07.08.09.18.06.28-.17.04-.48.07-.63.07-.43,0-.77-.24-1-.86l-.22-.6c-.13-.37-.27-.7-.65-.7h-.55v.87c0,.83.1.88.57.91ZM274.21,55.89c-.56,0-.66.1-.66.63v1.3h.44c.89,0,1.12-.29,1.12-1.08,0-.6-.2-.85-.9-.85ZM278.68,58.97c0,.83.11.87.72.91.06.06.06.27,0,.33-.35-.01-.79-.02-1.11-.02-.34,0-.75,0-1.12.02-.06-.06-.06-.27,0-.33.61-.05.72-.08.72-.91v-2.15c0-.83-.11-.87-.72-.91-.06-.06-.06-.27,0-.33.39,0,.81.02,1.11.02s.74,0,1.12-.02c.06.06.06.27,0,.33-.61.05-.72.08-.72.91v2.15ZM283.01,60.22s-.07.08-.11.08c-.05,0-.1-.03-.12-.08l-1.41-3.78h-.02l-.29,2.53c-.09.74-.09.86.48.9.06.06.06.27,0,.33-.2-.01-.57-.02-.77-.02-.16,0-.46,0-.66.02-.06-.06-.06-.27,0-.33.38-.03.51-.07.6-.9l.32-2.8c.02-.19-.07-.24-.56-.27-.06-.06-.06-.27,0-.33l1.38.02,1.28,3.57,1.49-3.57,1.35-.02c.06.06.06.27,0,.33-.5.04-.59.08-.56.48l.2,2.57c.06.81.07.87.58.92.06.06.06.27,0,.33-.27-.01-.56-.02-.86-.02-.28,0-.65,0-1,.02-.06-.06-.06-.27,0-.33.54-.05.55-.09.51-.92l-.13-2.58h-.07l-1.63,3.85ZM287.03,58.15c-.09,0-.15-.09-.15-.19,0-.18.13-.41.25-.41h2.18c.1,0,.14.1.14.2,0,.12-.14.4-.27.4h-2.15ZM292.79,60.28c-1.35,0-2.37-.96-2.37-2.31,0-1.46,1.07-2.47,2.45-2.47,1.3,0,2.43.93,2.43,2.34,0,1.3-.88,2.44-2.51,2.44ZM291.28,57.85c0,1.23.69,2.1,1.65,2.1.89,0,1.49-.75,1.49-1.97,0-1.34-.77-2.15-1.65-2.15-.75,0-1.49.68-1.49,2.02ZM299.27,55.91c-.06-.06-.06-.27,0-.33.3,0,.65.02.95.02s.66,0,.96-.02c.06.06.06.27,0,.33-.61.05-.72.08-.72.91v1.14c0,1.45-.41,2.33-1.95,2.33-1.09,0-1.81-.41-1.81-1.9v-1.56c0-.83-.11-.87-.72-.91-.06-.06-.06-.27,0-.33.36,0,.75.02,1.11.02.33,0,.73,0,1.12-.02.06.06.06.27,0,.33-.61.05-.72.08-.72.91v1.36c0,.93.21,1.7,1.2,1.7,1.32,0,1.32-.94,1.32-1.79v-1.27c0-.83-.11-.87-.72-.91ZM305.14,59.88c.06.06.06.27,0,.33-.37-.01-.76-.02-1.11-.02s-.75,0-1.12.02c-.06-.06-.06-.27,0-.33.61-.05.72-.08.72-.91v-2.52c0-.39-.12-.51-.43-.51h-.24c-.65,0-.76.2-.96.92-.09,0-.18,0-.27-.03.06-.47.07-.86.07-1.33.27.05.85.1,1.82.1h.79c.84,0,1.47-.06,1.82-.1.02.47.03.84.08,1.33-.08.05-.17.05-.27.03-.2-.72-.33-.92-.96-.92h-.26c-.32,0-.42.15-.42.52v2.51c0,.83.11.87.72.91Z"/><line class="d" x1="123.41" y1="73.4" x2="316.63" y2="73.4"/><polyline points="121.42 73.4 124.61 74.99 123.41 73.4 124.61 71.8"/><line class="e" x1="121.42" y1="94.66" x2="166.46" y2="94.66"/><line class="e" x1="186.55" y1="94.66" x2="229.6" y2="94.66"/><polyline points="231.59 94.66 228.4 93.06 229.6 94.66 228.4 96.25"/><rect class="e" x="270.04" y="1.79" width="96.41" height="15.65"/><path d="M286.11,10.19c-.23,0-.41-.06-.53-.17-.12-.12-.18-.28-.18-.48s.06-.38.18-.51c.12-.13.29-.19.53-.19s.41.07.53.2.18.31.18.52c0,.21-.07.37-.18.48-.12.11-.29.17-.52.17Z"/><path d="M293.23,13.63v.39c-.38,0-.73-.05-1.05-.15-.32-.1-.57-.27-.77-.49-.19-.23-.29-.51-.29-.87,0-.22.02-.46.07-.72.05-.26.1-.51.15-.76.05-.25.08-.46.08-.64s-.04-.3-.12-.38c-.08-.08-.19-.14-.32-.17-.13-.03-.27-.05-.42-.05v-.57c.15,0,.29-.03.42-.06.13-.04.24-.1.32-.19.08-.09.12-.23.12-.4,0-.19-.03-.42-.08-.67-.05-.25-.1-.51-.15-.77-.05-.26-.07-.49-.07-.71,0-.37.1-.66.29-.88.19-.22.45-.39.77-.49.32-.11.67-.16,1.05-.16v.39c-.18,0-.35.03-.5.1-.16.07-.28.18-.38.33-.1.16-.14.37-.14.64s.04.54.11.82c.07.28.11.6.11.98,0,.23-.05.44-.14.61-.09.18-.21.32-.36.43-.15.11-.3.2-.47.26v.06c.29.07.51.21.68.4.17.19.25.47.25.84,0,.27-.02.49-.05.68-.03.19-.06.37-.09.55-.03.18-.04.39-.04.63,0,.33.1.58.31.77.21.19.44.28.72.28Z"/><path d="M316.55,14.02v-.39c.27,0,.51-.09.72-.28s.31-.44.31-.77c0-.24-.02-.45-.05-.63-.03-.18-.06-.36-.09-.55-.03-.19-.04-.41-.04-.68,0-.37.08-.64.25-.84.17-.19.4-.33.69-.4v-.06c-.16-.06-.31-.15-.46-.26s-.27-.26-.36-.43c-.09-.18-.14-.38-.14-.61,0-.37.04-.7.11-.98s.11-.55.11-.82-.05-.49-.14-.64c-.1-.16-.22-.27-.37-.33-.15-.07-.32-.1-.51-.1v-.39c.38,0,.73.05,1.05.16.32.11.58.27.77.49.19.22.29.52.29.88,0,.21-.03.45-.08.71-.05.26-.1.52-.15.77s-.07.47-.07.67c0,.17.04.31.12.4.08.09.19.16.32.19.13.04.27.06.42.06v.57c-.15,0-.29.02-.42.05s-.24.09-.32.17c-.08.08-.12.21-.12.38s.02.39.07.64.1.5.15.76c.05.26.08.5.08.72,0,.35-.1.64-.29.87-.19.23-.45.39-.77.49-.32.1-.67.15-1.05.15Z"/><path d="M323.66,10.19c-.23,0-.41-.06-.53-.17-.12-.12-.18-.28-.18-.48s.06-.38.18-.51c.12-.13.29-.19.53-.19s.41.07.53.2.18.31.18.52c0,.21-.07.37-.18.48-.12.11-.29.17-.52.17Z"/><path d="M330.79,13.63v.39c-.38,0-.73-.05-1.05-.15-.32-.1-.57-.27-.77-.49-.19-.23-.29-.51-.29-.87,0-.22.02-.46.07-.72.05-.26.1-.51.15-.76.05-.25.08-.46.08-.64s-.04-.3-.12-.38c-.08-.08-.19-.14-.32-.17-.13-.03-.27-.05-.42-.05v-.57c.15,0,.29-.03.42-.06.13-.04.24-.1.32-.19.08-.09.12-.23.12-.4,0-.19-.03-.42-.08-.67-.05-.25-.1-.51-.15-.77-.05-.26-.07-.49-.07-.71,0-.37.1-.66.29-.88.19-.22.45-.39.77-.49.32-.11.67-.16,1.05-.16v.39c-.18,0-.35.03-.5.1-.16.07-.28.18-.38.33-.1.16-.14.37-.14.64s.04.54.11.82c.07.28.11.6.11.98,0,.23-.05.44-.14.61-.09.18-.21.32-.36.43-.15.11-.3.2-.47.26v.06c.29.07.51.21.68.4.17.19.25.47.25.84,0,.27-.02.49-.05.68-.03.19-.06.37-.09.55-.03.18-.04.39-.04.63,0,.33.1.58.31.77.21.19.44.28.72.28Z"/><path d="M359.23,14.02v-.39c.27,0,.51-.09.72-.28s.31-.44.31-.77c0-.24-.02-.45-.05-.63-.03-.18-.06-.36-.09-.55-.03-.19-.04-.41-.04-.68,0-.37.08-.64.25-.84.17-.19.4-.33.69-.4v-.06c-.16-.06-.31-.15-.46-.26s-.27-.26-.36-.43c-.09-.18-.14-.38-.14-.61,0-.37.04-.7.11-.98s.11-.55.11-.82-.05-.49-.14-.64c-.1-.16-.22-.27-.37-.33-.15-.07-.32-.1-.51-.1v-.39c.38,0,.73.05,1.05.16.32.11.58.27.77.49.19.22.29.52.29.88,0,.21-.03.45-.08.71-.05.26-.1.52-.15.77s-.07.47-.07.67c0,.17.04.31.12.4.08.09.19.16.32.19.13.04.27.06.42.06v.57c-.15,0-.29.02-.42.05s-.24.09-.32.17c-.08.08-.12.21-.12.38s.02.39.07.64.1.5.15.76c.05.26.08.5.08.72,0,.35-.1.64-.29.87-.19.23-.45.39-.77.49-.32.1-.67.15-1.05.15Z"/><rect class="e" x="291.38" y="86.83" width="53.72" height="15.65"/><path d="M307.45,95.23c-.23,0-.41-.06-.53-.17-.12-.12-.18-.28-.18-.48s.06-.38.18-.51c.12-.13.29-.19.53-.19s.41.07.53.2.18.31.18.52c0,.21-.07.37-.18.48-.12.11-.29.17-.52.17Z"/><path d="M314.58,98.67v.39c-.38,0-.73-.05-1.05-.15-.32-.1-.57-.27-.77-.49-.19-.23-.29-.51-.29-.87,0-.22.02-.46.07-.72.05-.26.1-.51.15-.76.05-.25.08-.46.08-.64s-.04-.3-.12-.38c-.08-.08-.19-.14-.32-.17-.13-.03-.27-.05-.42-.05v-.57c.15,0,.29-.03.42-.06.13-.04.24-.1.32-.19.08-.09.12-.23.12-.4,0-.19-.03-.42-.08-.67-.05-.25-.1-.51-.15-.77-.05-.26-.07-.49-.07-.71,0-.37.1-.66.29-.88.19-.22.45-.39.77-.49.32-.11.67-.16,1.05-.16v.39c-.18,0-.35.03-.5.1-.16.07-.28.18-.38.33-.1.16-.14.37-.14.64s.04.54.11.82c.07.28.11.6.11.98,0,.23-.05.44-.14.61-.09.18-.21.32-.36.43-.15.11-.3.2-.47.26v.06c.29.07.51.21.68.4.17.19.25.47.25.84,0,.27-.02.49-.05.68-.03.19-.06.37-.09.55-.03.18-.04.39-.04.63,0,.33.1.58.31.77.21.19.44.28.72.28Z"/><path d="M337.89,99.05v-.39c.27,0,.51-.09.72-.28s.31-.44.31-.77c0-.24-.02-.45-.05-.63-.03-.18-.06-.36-.09-.55-.03-.19-.04-.41-.04-.68,0-.37.08-.64.25-.84.17-.19.4-.33.69-.4v-.06c-.16-.06-.31-.15-.46-.26s-.27-.26-.36-.43c-.09-.18-.14-.38-.14-.61,0-.37.04-.7.11-.98s.11-.55.11-.82-.05-.49-.14-.64c-.1-.16-.22-.27-.37-.33-.15-.07-.32-.1-.51-.1v-.39c.38,0,.73.05,1.05.16.32.11.58.27.77.49.19.22.29.52.29.88,0,.21-.03.45-.08.71-.05.26-.1.52-.15.77s-.07.47-.07.67c0,.17.04.31.12.4.08.09.19.16.32.19.13.04.27.06.42.06v.57c-.15,0-.29.02-.42.05s-.24.09-.32.17c-.08.08-.12.21-.12.38s.02.39.07.64.1.5.15.76c.05.26.08.5.08.72,0,.35-.1.64-.29.87-.19.23-.45.39-.77.49-.32.1-.67.15-1.05.15Z"/><path d="M209.81,84.06h-1.25l.89-4.12c.02-.12.05-.25.07-.38.02-.14.04-.26.04-.36,0-.11-.02-.2-.07-.26-.05-.06-.16-.1-.32-.1-.06,0-.19,0-.37.02v-.38l1.75-.13h.37l-.56,2.46h.17l-.71,3.25ZM209.93,83.01l.49-2.06c.07-.15.16-.34.25-.56s.2-.45.32-.69c.12-.24.26-.47.41-.68.15-.21.32-.38.5-.51.18-.13.39-.19.61-.19.21,0,.38.06.52.19.14.12.2.31.2.57,0,.27-.07.47-.22.61-.14.13-.3.2-.48.2-.14,0-.25-.04-.33-.11s-.13-.15-.16-.23c-.03-.08-.06-.12-.07-.12-.13,0-.27.1-.43.29-.16.19-.32.44-.49.74-.16.3-.32.62-.47.95s-.28.64-.4.94c-.12.29-.21.52-.27.68Z"/><path d="M214.26,78.54l-.14-.29c.22-.1.46-.25.7-.43.24-.18.42-.47.53-.86l-.31-.52.73.31c-.08.06-.17.1-.28.14-.11.04-.21.06-.29.06-.16,0-.31-.05-.46-.15-.14-.1-.22-.26-.22-.49,0-.21.07-.39.22-.53.14-.15.34-.22.6-.22s.45.08.61.24c.16.16.23.39.23.7s-.07.57-.22.8c-.14.23-.32.43-.53.6-.21.17-.42.3-.63.41-.21.1-.39.18-.53.23Z"/><path d="M218.91,85.95l-.24.3c-.46-.26-.87-.61-1.23-1.03-.36-.42-.63-.91-.83-1.46-.2-.55-.29-1.14-.29-1.77,0-.8.11-1.54.34-2.23.23-.68.55-1.31.97-1.87.42-.56.91-1.06,1.48-1.49.56-.43,1.17-.8,1.83-1.09l.18.32c-.58.35-1.09.74-1.55,1.16s-.85.89-1.17,1.41c-.32.52-.57,1.1-.74,1.75-.17.65-.26,1.38-.26,2.2,0,.58.06,1.11.17,1.58.12.47.28.89.5,1.25.22.36.5.68.83.95Z"/><path d="M219.46,86.26l-.18-.32c.58-.36,1.1-.75,1.56-1.18s.85-.89,1.17-1.41.57-1.1.74-1.75c.17-.65.25-1.38.25-2.2,0-.58-.06-1.11-.17-1.58-.11-.47-.28-.89-.5-1.25-.22-.36-.5-.68-.83-.95l.23-.3c.47.26.89.61,1.24,1.03.36.42.63.91.82,1.46.19.55.29,1.14.29,1.78,0,.79-.11,1.53-.34,2.21-.23.68-.55,1.31-.97,1.87-.42.56-.9,1.06-1.46,1.49-.56.44-1.18.8-1.85,1.1Z"/><path d="M310.46,43.77h-2.93l.07-.34c.28,0,.49-.03.62-.08s.24-.15.3-.29c.06-.14.12-.36.19-.65l.8-3.86c.05-.26.08-.46.08-.62,0-.15-.06-.25-.18-.31-.12-.06-.32-.09-.61-.09l.07-.34h2.97l-.06.34c-.31,0-.54.03-.7.09-.15.06-.26.17-.32.31-.06.15-.12.36-.17.62l-.79,3.85c-.05.29-.08.5-.07.65,0,.14.07.24.2.29.12.05.33.08.61.08l-.07.34ZM310.47,40.7h-.4l.06-.31h.12l1.94-1.57c.2-.17.37-.31.5-.42.13-.12.23-.22.3-.32.07-.1.1-.2.1-.3,0-.16-.12-.24-.35-.24h-.17l.08-.34h2.44l-.06.34c-.19.01-.35.04-.48.08-.13.04-.27.11-.41.19-.14.09-.31.21-.51.38l-3.16,2.5ZM314.26,43.77h-3.02l.06-.34h.14c.14,0,.25-.02.33-.06.08-.04.12-.12.12-.23,0-.1-.03-.21-.09-.34-.06-.13-.17-.29-.31-.5-.15-.21-.36-.48-.62-.8l-.73-.91.88-.53,2.29,2.95c.13.16.27.27.42.33.15.06.35.1.58.1l-.06.34Z"/><path d="M315.31,47.1h-.59l.47-2.19c.02-.09.02-.15.02-.19,0-.05-.01-.09-.04-.12s-.08-.04-.15-.04c-.04,0-.1,0-.19.01v-.19l.88-.06h.16l-.27,1.17h.09l-.37,1.61ZM316.89,47.1h-.59c.05-.19.1-.37.14-.53.04-.16.08-.31.12-.46.04-.14.07-.29.1-.43.03-.14.07-.3.1-.46,0,0,.01-.03.02-.09,0-.05.01-.11.01-.16,0-.06-.01-.11-.03-.16-.02-.04-.06-.06-.12-.06-.09,0-.19.05-.3.16-.11.1-.22.24-.33.41-.11.17-.21.35-.31.53-.1.19-.17.37-.24.53l.15-.84c.06-.1.13-.23.22-.37.08-.14.19-.28.3-.41.12-.13.24-.25.39-.34.14-.09.3-.14.47-.14s.27.04.32.13c.05.09.08.18.08.29,0,.08,0,.17-.02.25s-.03.13-.03.15l-.1.38h.08l-.27.91-.15.69ZM318.36,47.17c-.17,0-.28-.04-.34-.11-.06-.07-.09-.15-.09-.24,0-.05,0-.09.01-.14,0-.04.01-.07.02-.09l.3-1.1c.02-.07.04-.16.06-.26s.03-.18.03-.24c0-.06-.01-.11-.03-.16-.02-.04-.06-.06-.12-.06-.07,0-.15.04-.24.12-.09.08-.18.18-.27.31-.09.13-.19.26-.27.41-.09.15-.16.29-.23.43s-.12.26-.15.37l.2-.86c.07-.13.15-.27.24-.41.09-.14.19-.28.3-.41.11-.13.24-.23.37-.31s.27-.12.43-.12.26.04.31.13.08.18.08.29c0,.07,0,.16-.02.24s-.03.15-.04.19l-.33,1.33c-.01.06-.02.1-.02.14,0,.07.04.11.11.11.1,0,.18-.04.25-.1s.13-.13.17-.19l.14.1s-.07.1-.12.17-.11.14-.17.2c-.07.07-.15.13-.25.17-.09.05-.21.07-.33.07Z"/><path d="M319.31,45.1l-.12-.25c.19-.09.38-.22.59-.39.21-.16.36-.42.46-.75l-.26-.43.64.25c-.17.12-.34.18-.51.18-.13,0-.26-.04-.38-.13-.12-.09-.19-.23-.19-.42,0-.18.06-.33.18-.47.12-.13.29-.19.51-.19s.38.07.51.21c.13.14.19.35.19.6s-.06.5-.18.71c-.12.2-.27.38-.45.52-.18.14-.36.26-.54.35-.18.09-.33.16-.45.2Z"/><path d="M323.4,43.77h-1.04l.74-3.43c.02-.1.04-.21.06-.32.02-.11.03-.21.03-.3,0-.09-.02-.17-.06-.22-.04-.05-.13-.08-.27-.08-.05,0-.16,0-.31.02v-.32l1.46-.11h.31l-.47,2.05h.14l-.59,2.71ZM323.5,42.89l.41-1.72c.06-.13.13-.28.21-.46.08-.18.17-.38.27-.58.1-.2.21-.39.34-.56.13-.18.27-.32.42-.42s.32-.16.51-.16c.17,0,.32.05.43.16.11.1.17.26.17.47,0,.23-.06.4-.18.51-.12.11-.25.16-.4.16-.12,0-.21-.03-.28-.09s-.11-.13-.13-.19c-.03-.07-.05-.1-.06-.1-.11,0-.23.08-.36.24-.13.16-.27.37-.41.62s-.27.52-.39.79c-.12.28-.23.54-.33.78-.1.24-.17.43-.23.56Z"/><path d="M327.11,39.17l-.12-.24c.19-.09.38-.21.58-.36.2-.15.35-.39.44-.72l-.26-.43.61.26c-.07.05-.14.09-.23.12-.09.03-.17.05-.25.05-.13,0-.26-.04-.38-.12-.12-.08-.18-.22-.18-.41,0-.17.06-.32.18-.44.12-.12.29-.19.5-.19s.38.07.5.2.19.33.19.58-.06.48-.18.67-.27.36-.44.5c-.17.14-.35.25-.52.34-.18.09-.33.15-.45.19Z"/><path d="M336.78,12.71h-3.22l.08-.37c.31,0,.54-.03.69-.08s.26-.16.33-.32c.07-.16.14-.39.2-.71l.88-4.25c.06-.29.09-.51.08-.68,0-.16-.07-.28-.2-.35s-.35-.1-.68-.1l.08-.37h3.27l-.07.37c-.34,0-.6.03-.76.1s-.28.18-.35.35c-.07.17-.13.39-.19.69l-.87,4.24c-.06.32-.08.55-.08.71,0,.16.08.26.21.32.13.06.36.08.68.08l-.08.37ZM336.79,9.33h-.44l.07-.34h.13l2.13-1.73c.22-.18.4-.34.55-.47.15-.13.26-.25.33-.35.07-.11.11-.21.11-.32,0-.18-.13-.26-.38-.26h-.19l.09-.37h2.68l-.07.37c-.21.01-.38.05-.53.09-.15.05-.29.12-.45.21s-.34.23-.57.42l-3.48,2.75ZM340.96,12.71h-3.32l.07-.37h.15c.15,0,.28-.02.37-.07.09-.05.14-.13.14-.25,0-.11-.03-.23-.1-.37s-.18-.32-.35-.56-.39-.53-.68-.89l-.8-1,.97-.58,2.52,3.24c.14.18.29.3.46.37s.38.1.64.1l-.07.37Z"/><path d="M342.12,16.37h-.65l.51-2.4c.02-.09.03-.16.03-.21,0-.06-.02-.1-.04-.13-.03-.03-.09-.04-.17-.04-.04,0-.11,0-.21.01v-.21l.96-.07h.17l-.3,1.28h.1l-.4,1.77ZM343.85,16.37h-.65c.05-.21.11-.4.15-.58.05-.18.09-.35.13-.5.04-.16.08-.32.11-.47.04-.16.07-.32.11-.5,0,0,.01-.04.02-.1.01-.06.02-.12.02-.17,0-.07-.01-.13-.04-.17s-.07-.07-.14-.07c-.1,0-.21.06-.33.17-.12.12-.24.27-.36.45-.12.18-.23.38-.34.59-.1.21-.19.4-.26.59l.17-.92c.06-.12.14-.25.24-.4s.2-.3.33-.45c.13-.15.27-.27.43-.37.16-.1.33-.15.51-.15s.29.05.35.14c.06.09.09.2.09.31,0,.09,0,.18-.03.28-.02.09-.03.15-.03.16l-.11.42h.09l-.3,1-.16.76ZM345.48,16.44c-.18,0-.31-.04-.37-.12s-.1-.17-.1-.26c0-.05,0-.1.01-.15,0-.05.01-.08.02-.1l.33-1.21c.02-.08.04-.18.07-.28s.04-.2.04-.27c0-.07-.01-.13-.04-.17s-.07-.07-.14-.07c-.08,0-.16.04-.26.13s-.2.2-.3.34c-.1.14-.21.29-.3.46-.1.16-.18.32-.25.48-.07.15-.13.29-.17.41l.22-.94c.08-.15.17-.3.26-.46.1-.16.21-.31.33-.45.12-.14.26-.25.4-.34.15-.09.3-.13.47-.13s.29.05.34.14c.06.09.09.2.09.32,0,.08,0,.17-.03.27-.02.1-.03.17-.04.21l-.36,1.47c-.01.06-.02.12-.02.15,0,.08.04.12.12.12.11,0,.2-.04.28-.12.08-.08.14-.15.19-.21l.15.12s-.08.11-.13.18-.12.15-.19.22c-.07.08-.16.14-.27.19-.1.05-.23.08-.37.08Z"/><path d="M346.52,14.17l-.13-.27c.21-.1.42-.24.65-.42.23-.18.4-.46.5-.83l-.29-.47.7.27c-.18.13-.37.2-.56.2-.15,0-.29-.05-.42-.14s-.2-.25-.2-.46c0-.2.07-.37.2-.51s.32-.21.56-.21.42.08.56.24c.14.16.21.38.21.67s-.07.55-.2.78c-.13.22-.3.41-.49.57-.2.16-.39.29-.59.39-.19.1-.36.18-.5.22Z"/><path d="M351.02,12.71h-1.14l.81-3.77c.02-.11.04-.23.07-.35.02-.12.03-.23.03-.33,0-.1-.02-.18-.07-.24-.04-.06-.14-.09-.3-.09-.06,0-.17,0-.34.02v-.35l1.61-.12h.34l-.52,2.25h.15l-.65,2.98ZM351.13,11.74l.45-1.89c.07-.14.14-.31.23-.51.09-.2.19-.41.3-.63.11-.22.23-.43.37-.62.14-.19.29-.35.46-.47.17-.12.36-.18.56-.18.19,0,.35.06.47.17.12.11.19.29.19.52,0,.25-.07.43-.2.56-.13.12-.28.18-.44.18-.13,0-.23-.03-.3-.1s-.12-.14-.15-.21c-.03-.07-.05-.11-.07-.11-.12,0-.25.09-.4.26-.15.18-.29.4-.45.68-.15.28-.29.57-.43.87-.14.3-.26.59-.36.86-.11.27-.19.47-.25.62Z"/><path d="M355.1,7.65l-.13-.26c.21-.1.42-.23.64-.4.22-.17.38-.43.48-.79l-.29-.47.67.29c-.07.05-.16.1-.26.13s-.19.05-.27.05c-.15,0-.29-.05-.42-.14s-.2-.24-.2-.45c0-.19.07-.35.2-.49s.32-.2.55-.2.41.07.56.22c.14.15.21.36.21.64s-.07.52-.2.74-.29.4-.48.55c-.19.15-.38.28-.58.37s-.36.17-.49.21Z"/><path d="M274.07,12.93h-.37l.44-2.38h.38c.03.5.09.88.19,1.14.1.26.25.45.46.55s.48.15.82.15c.3,0,.57-.04.81-.13.24-.09.43-.23.58-.41.15-.19.22-.42.22-.71s-.07-.54-.2-.75c-.14-.21-.31-.39-.53-.55-.22-.16-.45-.32-.7-.46-.25-.15-.48-.3-.69-.46-.21-.16-.38-.35-.5-.58-.12-.22-.19-.5-.19-.84,0-.45.12-.83.35-1.14.23-.3.54-.54.92-.69.39-.16.8-.24,1.26-.24.3,0,.54.02.72.07.18.05.32.1.43.15.11.05.2.08.28.08.09,0,.17-.02.24-.07.07-.04.13-.12.18-.23h.31l-.4,2.19h-.37c-.02-.63-.13-1.08-.33-1.35-.2-.27-.55-.41-1.07-.41-.46,0-.81.1-1.06.31-.25.21-.37.5-.37.88,0,.22.06.42.19.59s.29.34.5.48.42.28.66.42c.27.17.53.34.76.52.24.18.43.38.59.62.15.24.23.54.23.9,0,.49-.12.91-.37,1.25-.25.34-.58.6-1,.79s-.88.28-1.39.28c-.37,0-.66-.03-.87-.08-.21-.05-.36-.11-.47-.17-.11-.05-.21-.08-.29-.08s-.16.03-.23.1c-.07.07-.12.15-.14.25Z"/><path d="M280.78,7.11c-.06,0-.1-.02-.15-.05-.04-.04-.06-.09-.06-.15,0-.07.02-.15.07-.24s.09-.19.14-.29c.05-.1.09-.21.1-.3h0c-.1.05-.2.12-.3.21-.1.09-.2.17-.29.24-.09.07-.17.11-.24.11-.06,0-.11-.02-.15-.07-.04-.05-.06-.1-.06-.15,0-.09.03-.16.1-.21.07-.05.15-.09.25-.12s.21-.06.32-.09.22-.07.32-.11v-.02c-.05-.03-.11-.06-.18-.08s-.13-.04-.2-.06c-.11-.03-.2-.06-.28-.1-.08-.03-.11-.09-.11-.17,0-.07.03-.14.09-.21.06-.07.13-.1.21-.1.07,0,.13.03.2.1.06.06.13.14.19.23.07.09.13.16.2.23h.02c.01-.06.02-.11.03-.14s0-.07,0-.1c0-.06,0-.13,0-.21s0-.15,0-.2c0-.15.04-.25.11-.31s.14-.08.22-.08c.06,0,.11.02.15.05.04.03.06.08.06.14,0,.07-.02.15-.07.24s-.09.19-.14.29c-.05.1-.09.21-.11.31h0c.1-.06.21-.14.31-.23.1-.09.2-.16.29-.23.09-.07.17-.1.24-.1s.11.02.14.06c.04.04.05.1.05.17,0,.09-.03.16-.1.21-.06.04-.15.08-.25.1-.1.03-.21.05-.32.07s-.22.06-.32.11v.02c.07.04.15.08.24.11s.17.06.26.08.15.06.2.1.08.09.08.15c0,.08-.03.15-.09.21-.06.06-.13.09-.21.09-.07,0-.14-.03-.21-.1s-.13-.15-.19-.24-.13-.16-.21-.22h-.01s-.02.09-.02.14,0,.1,0,.15c0,.06,0,.12,0,.18,0,.06,0,.13,0,.19,0,.14-.03.24-.1.3s-.14.09-.22.09Z"/><path d="M112.13,45.4h-2.93l.07-.34c.28,0,.49-.03.62-.08s.24-.15.3-.29c.06-.14.12-.36.19-.65l.8-3.86c.05-.26.08-.46.08-.62,0-.15-.06-.25-.18-.31-.12-.06-.32-.09-.61-.09l.07-.34h2.97l-.06.34c-.31,0-.54.03-.7.09-.15.06-.26.17-.32.31-.06.15-.12.36-.17.62l-.79,3.85c-.05.29-.08.5-.07.65,0,.14.07.24.2.29.12.05.33.08.61.08l-.07.34ZM112.14,42.33h-.4l.06-.31h.12l1.94-1.57c.2-.17.37-.31.5-.42.13-.12.23-.22.3-.32.07-.1.1-.2.1-.3,0-.16-.12-.24-.35-.24h-.17l.08-.34h2.44l-.06.34c-.19.01-.35.04-.48.08-.13.04-.27.11-.41.19-.14.09-.31.21-.51.38l-3.16,2.5ZM115.93,45.4h-3.02l.06-.34h.14c.14,0,.25-.02.33-.06.08-.04.12-.12.12-.23,0-.1-.03-.21-.09-.34-.06-.13-.17-.29-.31-.5-.15-.21-.36-.48-.62-.8l-.73-.91.88-.53,2.29,2.95c.13.16.27.27.42.33.15.06.35.1.58.1l-.06.34Z"/><path d="M117,48.73h-.59l.47-2.19c.02-.09.02-.15.02-.19,0-.05-.02-.09-.05-.12s-.08-.04-.15-.04c-.04,0-.1,0-.19.01v-.19l.86-.06h.17l-.29,1.21h.1l-.36,1.56ZM118.51,48.79c-.16,0-.27-.04-.33-.11-.06-.07-.09-.16-.09-.25,0-.05,0-.09.01-.13,0-.04.02-.07.02-.09l.34-1.31c.03-.13.04-.22.04-.29,0-.07-.01-.12-.03-.16-.02-.04-.06-.06-.12-.06-.08,0-.17.04-.26.12-.1.08-.19.18-.29.31-.09.12-.18.26-.27.4-.08.14-.16.27-.22.4-.06.13-.11.23-.14.31l.12-.69c.05-.1.12-.22.2-.36.08-.14.19-.29.3-.43.12-.14.25-.26.4-.36.15-.1.32-.15.5-.15.16,0,.27.04.33.13.06.09.08.19.08.3,0,.09,0,.17-.02.24s-.03.13-.04.18l-.33,1.33c-.01.06-.02.1-.02.14,0,.07.04.11.12.11.1,0,.18-.04.25-.1.07-.07.13-.13.17-.19l.14.1s-.07.1-.12.17-.11.14-.17.2c-.07.07-.15.13-.25.17-.1.05-.21.07-.33.07Z"/><path d="M119.46,46.73l-.12-.25c.19-.09.38-.22.59-.39.21-.16.36-.42.46-.75l-.26-.43.64.25c-.17.12-.34.18-.51.18-.13,0-.26-.04-.38-.13-.12-.09-.19-.23-.19-.42,0-.18.06-.33.18-.47.12-.13.29-.19.51-.19s.38.07.51.21c.13.14.19.35.19.6s-.06.5-.18.71c-.12.2-.27.38-.45.52-.18.14-.36.26-.54.35-.18.09-.33.16-.45.2Z"/><path d="M123.55,45.4h-1.04l.74-3.43c.02-.1.04-.21.06-.32.02-.11.03-.21.03-.3,0-.09-.02-.17-.06-.22-.04-.05-.13-.08-.27-.08-.05,0-.16,0-.31.02v-.32l1.46-.11h.31l-.47,2.05h.14l-.59,2.71ZM123.65,44.52l.41-1.72c.06-.13.13-.28.21-.46.08-.18.17-.38.27-.58.1-.2.21-.39.34-.56.13-.18.27-.32.42-.42s.32-.16.51-.16c.17,0,.32.05.43.16.11.1.17.26.17.47,0,.23-.06.4-.18.51-.12.11-.25.16-.4.16-.12,0-.21-.03-.28-.09s-.11-.13-.13-.19c-.03-.07-.05-.1-.06-.1-.11,0-.23.08-.36.24-.13.16-.27.37-.41.62s-.27.52-.39.79c-.12.28-.23.54-.33.78-.1.24-.17.43-.23.56Z"/><path d="M298.99,12.93h-3.22l.08-.37c.31,0,.54-.03.69-.08s.26-.16.33-.32c.07-.16.14-.39.2-.71l.88-4.25c.06-.29.09-.51.08-.68,0-.16-.07-.28-.2-.35s-.35-.1-.68-.1l.08-.37h3.27l-.07.37c-.34,0-.6.03-.76.1s-.28.18-.35.35c-.07.17-.13.39-.19.69l-.87,4.24c-.06.32-.08.55-.08.71,0,.16.08.26.21.32.13.06.36.08.68.08l-.08.37ZM299,9.55h-.44l.07-.34h.13l2.13-1.73c.22-.18.4-.34.55-.47.15-.13.26-.25.33-.35.07-.11.11-.21.11-.32,0-.18-.13-.26-.38-.26h-.19l.09-.37h2.68l-.07.37c-.21.01-.38.05-.53.09-.15.05-.29.12-.45.21s-.34.23-.57.42l-3.48,2.75ZM303.17,12.93h-3.32l.07-.37h.15c.15,0,.28-.02.37-.07.09-.05.14-.13.14-.25,0-.11-.03-.23-.1-.37s-.18-.32-.35-.56-.39-.53-.68-.89l-.8-1,.97-.58,2.52,3.24c.14.18.29.3.46.37s.38.1.64.1l-.07.37Z"/><path d="M304.34,16.59h-.65l.51-2.4c.02-.09.03-.16.03-.21,0-.06-.02-.1-.05-.13s-.09-.04-.16-.04c-.04,0-.11,0-.21.01v-.21l.94-.07h.19l-.32,1.33h.11l-.4,1.72ZM306,16.66c-.18,0-.3-.04-.37-.12-.07-.08-.1-.17-.1-.28,0-.05,0-.1.02-.14s.02-.08.02-.1l.38-1.44c.03-.14.04-.25.04-.31,0-.07-.01-.13-.04-.18s-.07-.07-.14-.07c-.09,0-.18.04-.29.13-.11.09-.21.2-.31.34s-.2.28-.29.44-.17.3-.24.44-.12.25-.16.34l.13-.76c.06-.11.13-.24.22-.4s.21-.31.33-.47c.13-.16.27-.29.44-.39.17-.11.35-.16.55-.16.18,0,.3.05.36.14.06.1.09.21.09.33,0,.1,0,.19-.02.27-.02.08-.03.14-.04.2l-.37,1.47c-.01.06-.02.12-.02.15,0,.08.04.12.13.12.11,0,.2-.04.28-.12.08-.08.14-.15.19-.21l.15.12s-.08.11-.13.18c-.05.07-.12.15-.19.22-.08.08-.17.14-.27.19-.1.05-.23.08-.37.08Z"/><path d="M307.05,14.39l-.13-.27c.21-.1.42-.24.65-.42.23-.18.4-.46.5-.83l-.29-.47.7.27c-.18.13-.37.2-.56.2-.15,0-.29-.05-.42-.14s-.2-.25-.2-.46c0-.2.07-.37.2-.51s.32-.21.56-.21.42.08.56.24c.14.16.21.38.21.67s-.07.55-.2.78c-.13.22-.3.41-.49.57-.2.16-.39.29-.59.39-.19.1-.36.18-.5.22Z"/><path d="M311.55,12.93h-1.14l.81-3.77c.02-.11.04-.23.07-.35.02-.12.03-.23.03-.33,0-.1-.02-.18-.07-.24-.04-.06-.14-.09-.3-.09-.06,0-.17,0-.34.02v-.35l1.61-.12h.34l-.52,2.25h.15l-.65,2.98ZM311.66,11.96l.45-1.89c.07-.14.14-.31.23-.51.09-.2.19-.41.3-.63.11-.22.23-.43.37-.62.14-.19.29-.35.46-.47.17-.12.36-.18.56-.18.19,0,.35.06.47.17.12.11.19.29.19.52,0,.25-.07.43-.2.56-.13.12-.28.18-.44.18-.13,0-.23-.03-.3-.1s-.12-.14-.15-.21c-.03-.07-.05-.11-.07-.11-.12,0-.25.09-.4.26-.15.18-.29.4-.45.68-.15.28-.29.57-.43.87-.14.3-.26.59-.36.86-.11.27-.19.47-.25.62Z"/><path d="M295.93,97.25h-.37l.44-2.38h.38c.03.5.09.88.19,1.14.1.26.25.45.46.55s.48.15.82.15c.3,0,.57-.04.81-.13.24-.09.43-.23.58-.41.15-.19.22-.42.22-.71s-.07-.54-.2-.75c-.14-.21-.31-.39-.53-.55-.22-.16-.45-.32-.7-.46-.25-.15-.48-.3-.69-.46-.21-.16-.38-.35-.5-.58-.12-.22-.19-.5-.19-.84,0-.45.12-.83.35-1.14.23-.3.54-.54.92-.69.39-.16.8-.24,1.26-.24.3,0,.54.02.72.07.18.05.32.1.43.15.11.05.2.08.28.08.09,0,.17-.02.24-.07.07-.04.13-.12.18-.23h.31l-.4,2.19h-.37c-.02-.63-.13-1.08-.33-1.35-.2-.27-.55-.41-1.07-.41-.46,0-.81.1-1.06.31-.25.21-.37.5-.37.88,0,.22.06.42.19.59s.29.34.5.48.42.28.66.42c.27.17.53.34.76.52.24.18.43.38.59.62.15.24.23.54.23.9,0,.49-.12.91-.37,1.25-.25.34-.58.6-1,.79s-.88.28-1.39.28c-.37,0-.66-.03-.87-.08-.21-.05-.36-.11-.47-.17-.11-.05-.21-.08-.29-.08s-.16.03-.23.1c-.07.07-.12.15-.14.25Z"/><path d="M302.64,91.43c-.06,0-.1-.02-.15-.05-.04-.04-.06-.09-.06-.15,0-.07.02-.15.07-.24s.09-.19.14-.29c.05-.1.09-.21.1-.3h0c-.1.05-.2.12-.3.21-.1.09-.2.17-.29.24-.09.07-.17.11-.24.11-.06,0-.11-.02-.15-.07-.04-.05-.06-.1-.06-.15,0-.09.03-.16.1-.21.07-.05.15-.09.25-.12s.21-.06.32-.09.22-.07.32-.11v-.02c-.05-.03-.11-.06-.18-.08s-.13-.04-.2-.06c-.11-.03-.2-.06-.28-.1-.08-.03-.11-.09-.11-.17,0-.07.03-.14.09-.21.06-.07.13-.1.21-.1.07,0,.13.03.2.1.06.06.13.14.19.23.07.09.13.16.2.23h.02c.01-.06.02-.11.03-.14s0-.07,0-.1c0-.06,0-.13,0-.21s0-.15,0-.2c0-.15.04-.25.11-.31s.14-.08.22-.08c.06,0,.11.02.15.05.04.03.06.08.06.14,0,.07-.02.15-.07.24s-.09.19-.14.29c-.05.1-.09.21-.11.31h0c.1-.06.21-.14.31-.23.1-.09.2-.16.29-.23.09-.07.17-.1.24-.1s.11.02.14.06c.04.04.05.1.05.17,0,.09-.03.16-.1.21-.06.04-.15.08-.25.1-.1.03-.21.05-.32.07s-.22.06-.32.11v.02c.07.04.15.08.24.11s.17.06.26.08.15.06.2.1.08.09.08.15c0,.08-.03.15-.09.21-.06.06-.13.09-.21.09-.07,0-.14-.03-.21-.1s-.13-.15-.19-.24-.13-.16-.21-.22h-.01s-.02.09-.02.14,0,.1,0,.15c0,.06,0,.12,0,.18,0,.06,0,.13,0,.19,0,.14-.03.24-.1.3s-.14.09-.22.09Z"/><path d="M320.61,97.25h-3.22l.08-.37c.31,0,.54-.03.69-.08s.26-.16.33-.32c.07-.16.14-.39.2-.71l.88-4.25c.06-.29.09-.51.08-.68,0-.16-.07-.28-.2-.35s-.35-.1-.68-.1l.08-.37h3.27l-.07.37c-.34,0-.6.03-.76.1s-.28.18-.35.35c-.07.17-.13.39-.19.69l-.87,4.24c-.06.32-.08.55-.08.71,0,.16.08.26.21.32.13.06.36.08.68.08l-.08.37ZM320.62,93.87h-.44l.07-.34h.13l2.13-1.73c.22-.18.4-.34.55-.47.15-.13.26-.25.33-.35.07-.11.11-.21.11-.32,0-.18-.13-.26-.38-.26h-.19l.09-.37h2.68l-.07.37c-.21.01-.38.05-.53.09-.15.05-.29.12-.45.21s-.34.23-.57.42l-3.48,2.75ZM324.79,97.25h-3.32l.07-.37h.15c.15,0,.28-.02.37-.07.09-.05.14-.13.14-.25,0-.11-.03-.23-.1-.37s-.18-.32-.35-.56-.39-.53-.68-.89l-.8-1,.97-.58,2.52,3.24c.14.18.29.3.46.37s.38.1.64.1l-.07.37Z"/><path d="M325.96,100.91h-.65l.51-2.4c.02-.09.03-.16.03-.21,0-.06-.02-.1-.05-.13s-.09-.04-.16-.04c-.04,0-.11,0-.21.01v-.21l.94-.07h.19l-.32,1.33h.11l-.4,1.72ZM327.62,100.98c-.18,0-.3-.04-.37-.12-.07-.08-.1-.17-.1-.28,0-.05,0-.1.02-.14s.02-.08.02-.1l.38-1.44c.03-.14.04-.25.04-.31,0-.07-.01-.13-.04-.18s-.07-.07-.14-.07c-.09,0-.18.04-.29.13-.11.09-.21.2-.31.34s-.2.28-.29.44-.17.3-.24.44-.12.25-.16.34l.13-.76c.06-.11.13-.24.22-.4s.21-.31.33-.47c.13-.16.27-.29.44-.39.17-.11.35-.16.55-.16.18,0,.3.05.36.14.06.1.09.21.09.33,0,.1,0,.19-.02.27-.02.08-.03.14-.04.2l-.37,1.47c-.01.06-.02.12-.02.15,0,.08.04.12.13.12.11,0,.2-.04.28-.12.08-.08.14-.15.19-.21l.15.12s-.08.11-.13.18c-.05.07-.12.15-.19.22-.08.08-.17.14-.27.19-.1.05-.23.08-.37.08Z"/><path d="M328.67,98.71l-.13-.27c.21-.1.42-.24.65-.42.23-.18.4-.46.5-.83l-.29-.47.7.27c-.18.13-.37.2-.56.2-.15,0-.29-.05-.42-.14s-.2-.25-.2-.46c0-.2.07-.37.2-.51s.32-.21.56-.21.42.08.56.24c.14.16.21.38.21.67s-.07.55-.2.78c-.13.22-.3.41-.49.57-.2.16-.39.29-.59.39-.19.1-.36.18-.5.22Z"/><path d="M333.17,97.25h-1.14l.81-3.77c.02-.11.04-.23.07-.35.02-.12.03-.23.03-.33,0-.1-.02-.18-.07-.24-.04-.06-.14-.09-.3-.09-.06,0-.17,0-.34.02v-.35l1.61-.12h.34l-.52,2.25h.15l-.65,2.98ZM333.28,96.28l.45-1.89c.07-.14.14-.31.23-.51.09-.2.19-.41.3-.63.11-.22.23-.43.37-.62.14-.19.29-.35.46-.47.17-.12.36-.18.56-.18.19,0,.35.06.47.17.12.11.19.29.19.52,0,.25-.07.43-.2.56-.13.12-.28.18-.44.18-.13,0-.23-.03-.3-.1s-.12-.14-.15-.21c-.03-.07-.05-.11-.07-.11-.12,0-.25.09-.4.26-.15.18-.29.4-.45.68-.15.28-.29.57-.43.87-.14.3-.26.59-.36.86-.11.27-.19.47-.25.62Z"/></g></svg>