<?xml version="1.0" encoding="UTF-8"?>
<!-- Created with Inkscape (http://www.inkscape.org/) -->
<svg width="421.16" height="240.35" version="1.1" viewBox="0 0 421.16 240.35" xml:space="preserve" xmlns="http://www.w3.org/2000/svg"><defs><clipPath id="clipPath128"><path d="m0-141.76h270.64v437.11h-270.64"/></clipPath><clipPath id="clipPath140"><path d="m-141.73 0v153.6h554.11v-153.6"/></clipPath><clipPath id="clipPath154"><path d="m0-141.76h270.64v437.11h-270.64"/></clipPath><clipPath id="clipPath166"><path d="m-141.73 0v153.6h554.11v-153.6"/></clipPath><clipPath id="clipPath186"><path d="m0 0h270.64v153.6h-270.64z"/></clipPath><clipPath id="clipPath534"><path d="m0 0h270.64v153.6h-270.64z"/></clipPath></defs><g transform="matrix(1.3333 0 0 -1.3333 -113.24 847.09)"><g transform="translate(125.5 481.52)"><g clip-path="url(#clipPath128)"><path d="m0 0v153.6m45.107-153.6v153.6m45.107-153.6v153.6m45.107-153.6v153.6m45.107-153.6v153.6m45.107-153.6v153.6m45.107-153.6v153.6" fill="none" stroke="#bfbfbf" stroke-miterlimit="10" stroke-width=".3985"/></g><g clip-path="url(#clipPath140)"><path d="m0 0h270.64m-270.64 12.8h270.64m-270.64 12.8h270.64m-270.64 12.8h270.64m-270.64 12.8h270.64m-270.64 12.8h270.64m-270.64 12.8h270.64m-270.64 12.8h270.64m-270.64 12.8h270.64m-270.64 12.8h270.64m-270.64 12.8h270.64" fill="none" stroke="#bfbfbf" stroke-miterlimit="10" stroke-width=".3985"/></g><g clip-path="url(#clipPath154)"><path d="m0 0v4.2525m45.107-4.2525v4.2525m45.107-4.2525v4.2525m45.107-4.2525v4.2525m45.107-4.2525v4.2525m45.107-4.2525v4.2525m45.107-4.2525v4.2525" fill="none" stroke="#808080" stroke-miterlimit="10" stroke-width=".19925"/></g><g clip-path="url(#clipPath166)"><path d="m0 0h4.2518m-4.2518 12.8h4.2518m-4.2518 12.8h4.2518m-4.2518 12.8h4.2518m-4.2518 12.8h4.2518m-4.2518 12.8h4.2518m-4.2518 12.8h4.2518m-4.2518 12.8h4.2518m-4.2518 12.8h4.2518m-4.2518 12.8h4.2518m-4.2518 12.8h4.2518" fill="none" stroke="#808080" stroke-miterlimit="10" stroke-width=".19925"/></g><path d="m0 0v153.6h270.64v-153.6z" fill="none" stroke="#000" stroke-miterlimit="10" stroke-width=".3985"/><g clip-path="url(#clipPath186)"><path d="m0 59.902 9.0124 29.964 9.0124 2.24 9.0124-0.07683 9.0124 3.1103 9.0124-0.30721 9.0124 2.7903 9.0124 0.38398 9.0124 1.4336 9.0124 1.7408 9.0124 1.7279 9.0124 1.0624 9.0124 1.5232 9.0124 2.0607 9.0124 0.76799 9.0124 3.0079 9.0124-0.16638 9.0124 2.0735 9.0124 0.84479 9.0124 2.4703 9.0124 0.11521 9.0124 2.6239 9.0124 0.448 9.0124 1.3824 9.0124 2.0607 9.0124 0.17921 9.0124 2.1503 9.0124 0.88318 9.0124 2.3935 9.0124-0.29439 9.0124 2.9183 9.0124 1.0496-8.7418-132.46h-270.64z" fill="#0064d2" fill-opacity=".4"/></g><g transform="translate(-2.316,-9.652)"><g transform="translate(-123.18 -471.87)"><text transform="matrix(1 0 0 -1 123.18 471.87)" fill="#000000" font-family="'STIX Two Math'" font-size="9.9626px"><tspan x="0" y="0">0</tspan></text></g></g><g transform="translate(42.79,-9.652)"><g transform="translate(-168.28 -471.87)"><text transform="matrix(1 0 0 -1 168.28 471.87)" fill="#000000" font-family="'STIX Two Math'" font-size="9.9626px"><tspan x="0" y="0">5</tspan></text></g></g><g transform="translate(85.581,-9.652)"><g transform="translate(-211.08 -471.87)"><text transform="matrix(1 0 0 -1 211.08 471.87)" fill="#000000" font-family="'STIX Two Math'" font-size="9.9626px"><tspan x="0 4.6326089" y="0">10</tspan></text></g></g><g transform="translate(130.69 -9.652)"><g transform="translate(-256.18 -471.87)"><text transform="matrix(1 0 0 -1 256.18 471.87)" fill="#000000" font-family="'STIX Two Math'" font-size="9.9626px"><tspan x="0 4.6326089" y="0">15</tspan></text></g></g><g transform="translate(175.79 -9.652)"><g transform="translate(-301.29 -471.87)"><text transform="matrix(1 0 0 -1 301.29 471.87)" fill="#000000" font-family="'STIX Two Math'" font-size="9.9626px"><tspan x="0 4.6326089" y="0">20</tspan></text></g></g><g transform="translate(220.9 -9.652)"><g transform="translate(-346.4 -471.87)"><text transform="matrix(1 0 0 -1 346.4 471.87)" fill="#000000" font-family="'STIX Two Math'" font-size="9.9626px"><tspan x="0 4.6326089" y="0">25</tspan></text></g></g><g transform="translate(266.01 -9.652)"><g transform="translate(-391.5 -471.87)"><text transform="matrix(1 0 0 -1 391.5 471.87)" fill="#000000" font-family="'STIX Two Math'" font-size="9.9626px"><tspan x="0 4.6326089" y="0">30</tspan></text></g></g><g transform="translate(235.66 -26.36)"><g transform="translate(-361.15 -455.16)" fill="#000000" font-family="'STIX Two Math'"><text transform="matrix(1 0 0 -1 361.25 455.16)" font-size="9.9626px"><tspan x="0" y="0">·</tspan></text><text transform="matrix(1 0 0 -1 363.84 455.16)" font-size="9.9626px"><tspan x="0 4.6326089" y="0">10</tspan></text><text transform="matrix(1 0 0 -1 373.11 458.78)" font-size="7.2727px"><tspan x="0" y="0">3</tspan></text></g></g><g transform="translate(-8.152,-3.009)"><g transform="translate(-117.34 -478.52)"><text transform="matrix(1 0 0 -1 117.34 478.52)" fill="#000000" font-family="'STIX Two Math'" font-size="9.9626px"><tspan x="0" y="0">0</tspan></text></g></g><g transform="translate(-17.418,9.791)"><g transform="translate(-108.08 -491.32)"><text transform="matrix(1 0 0 -1 108.08 491.32)" fill="#000000" font-family="'STIX Two Math'" font-size="9.9626px"><tspan x="0 4.6326089 9.2652178" y="0">100</tspan></text></g></g><g transform="translate(-17.418,22.59)"><g transform="translate(-108.08 -504.12)"><text transform="matrix(1 0 0 -1 108.08 504.12)" fill="#000000" font-family="'STIX Two Math'" font-size="9.9626px"><tspan x="0 4.6326089 9.2652178" y="0">200</tspan></text></g></g><g transform="translate(-17.418,35.39)"><g transform="translate(-108.08 -516.92)"><text transform="matrix(1 0 0 -1 108.08 516.92)" fill="#000000" font-family="'STIX Two Math'" font-size="9.9626px"><tspan x="0 4.6326089 9.2652178" y="0">300</tspan></text></g></g><g transform="translate(-17.418,48.189)"><g transform="translate(-108.08 -529.71)"><text transform="matrix(1 0 0 -1 108.08 529.71)" fill="#000000" font-family="'STIX Two Math'" font-size="9.9626px"><tspan x="0 4.6326089 9.2652178" y="0">400</tspan></text></g></g><g transform="translate(-17.418,60.988)"><g transform="translate(-108.08 -542.51)"><text transform="matrix(1 0 0 -1 108.08 542.51)" fill="#000000" font-family="'STIX Two Math'" font-size="9.9626px"><tspan x="0 4.6326089 9.2652178" y="0">500</tspan></text></g></g><g transform="translate(-17.418,73.788)"><g transform="translate(-108.08 -555.31)"><text transform="matrix(1 0 0 -1 108.08 555.31)" fill="#000000" font-family="'STIX Two Math'" font-size="9.9626px"><tspan x="0 4.6326089 9.2652178" y="0">600</tspan></text></g></g><g transform="translate(-17.418,86.587)"><g transform="translate(-108.08 -568.11)"><text transform="matrix(1 0 0 -1 108.08 568.11)" fill="#000000" font-family="'STIX Two Math'" font-size="9.9626px"><tspan x="0 4.6326089 9.2652178" y="0">700</tspan></text></g></g><g transform="translate(-17.418,99.387)"><g transform="translate(-108.08 -580.91)"><text transform="matrix(1 0 0 -1 108.08 580.91)" fill="#000000" font-family="'STIX Two Math'" font-size="9.9626px"><tspan x="0 4.6326089 9.2652178" y="0">800</tspan></text></g></g><g transform="translate(-17.418 112.19)"><g transform="translate(-108.08 -593.71)"><text transform="matrix(1 0 0 -1 108.08 593.71)" fill="#000000" font-family="'STIX Two Math'" font-size="9.9626px"><tspan x="0 4.6326089 9.2652178" y="0">900</tspan></text></g></g><g transform="translate(-24.043 125.59)"><g transform="translate(-101.45 -607.12)" fill="#000000" font-family="'STIX Two Math'" font-size="9.9626px"><text transform="matrix(1 0 0 -1 101.45 607.12)"><tspan x="0" y="0">1</tspan></text><text transform="matrix(1 0 0 -1 105.79 607.12)"><tspan x="0" y="0">,</tspan></text><text transform="matrix(1 0 0 -1 108.08 607.12)"><tspan x="0 4.6326089 9.2652178" y="0">000</tspan></text></g></g><g clip-path="url(#clipPath534)"><path d="m0 59.902 9.0124 29.964 9.0124 2.24 9.0124-0.07683 9.0124 3.1103 9.0124-0.30721 9.0124 2.7903 9.0124 0.38398 9.0124 1.4336 9.0124 1.7408 9.0124 1.7279 9.0124 1.0624 9.0124 1.5232 9.0124 2.0607 9.0124 0.76799 9.0124 3.0079 9.0124-0.16638 9.0124 2.0735 9.0124 0.84479 9.0124 2.4703 9.0124 0.11521 9.0124 2.6239 9.0124 0.448 9.0124 1.3824 9.0124 2.0607 9.0124 0.17921 9.0124 2.1503 9.0124 0.88318 9.0124 2.3935 9.0124-0.29439 9.0124 2.9183 9.0124 1.0496" fill="none" stroke="#0064d2" stroke-miterlimit="10" stroke-width=".3985"/><path d="m0 59.902h270.64" fill="none" stroke="#0064d2" stroke-dasharray="2.98883, 2.98883" stroke-miterlimit="10" stroke-width=".3985"/><g transform="translate(247.26 63.501)"><g transform="translate(-372.75 -545.03)"><text transform="matrix(1 0 0 -1 372.75 545.03)" fill="#000000" font-family="'STIX Two Math'" font-size="6.9738px"><tspan x="0 3.2428169 6.4856339 11.471901 16.981203" y="0">468ms</tspan></text></g></g></g><g fill="#0064d2" stroke="#0064d2" stroke-miterlimit="10" stroke-width=".3985"><path d="m1.3948 59.902c0 0.77031-0.62447 1.3948-1.3948 1.3948s-1.3948-0.62447-1.3948-1.3948c0-0.77032 0.62447-1.3948 1.3948-1.3948s1.3948 0.62447 1.3948 1.3948z"/><path d="m10.407 89.866c0 0.77033-0.62446 1.3948-1.3948 1.3948-0.77031 0-1.3948-0.62446-1.3948-1.3948 0-0.77031 0.62446-1.3948 1.3948-1.3948 0.77033 0 1.3948 0.62446 1.3948 1.3948z"/><path d="m19.42 92.106c0 0.77031-0.62446 1.3948-1.3948 1.3948s-1.3948-0.62446-1.3948-1.3948c0-0.77033 0.62447-1.3948 1.3948-1.3948s1.3948 0.62446 1.3948 1.3948z"/><path d="m28.432 92.029c0 0.77032-0.62446 1.3948-1.3948 1.3948-0.77033 0-1.3948-0.62447-1.3948-1.3948 0-0.77031 0.62446-1.3948 1.3948-1.3948 0.77031 0 1.3948 0.62447 1.3948 1.3948z"/><path d="m37.445 95.14c0 0.7703-0.62446 1.3948-1.3948 1.3948-0.77031 0-1.3948-0.62447-1.3948-1.3948 0-0.77033 0.62446-1.3948 1.3948-1.3948 0.77033 0 1.3948 0.62447 1.3948 1.3948z"/><path d="m46.457 94.832c0 0.77031-0.62447 1.3948-1.3948 1.3948-0.77031 0-1.3948-0.62447-1.3948-1.3948s0.62447-1.3948 1.3948-1.3948c0.77032 0 1.3948 0.62446 1.3948 1.3948z"/><path d="m55.469 97.623c0 0.77031-0.62446 1.3948-1.3948 1.3948s-1.3948-0.62447-1.3948-1.3948c0-0.77032 0.62446-1.3948 1.3948-1.3948s1.3948 0.62447 1.3948 1.3948z"/><path d="m64.482 98.007c0 0.77032-0.62446 1.3948-1.3948 1.3948-0.77033 0-1.3948-0.62446-1.3948-1.3948s0.62446-1.3948 1.3948-1.3948c0.77031 0 1.3948 0.62446 1.3948 1.3948z"/><path d="m73.494 99.44c0 0.77032-0.62447 1.3948-1.3948 1.3948-0.7703 0-1.3948-0.62447-1.3948-1.3948 0-0.77031 0.62447-1.3948 1.3948-1.3948 0.77033 0 1.3948 0.62447 1.3948 1.3948z"/><path d="m82.507 101.18c0 0.77031-0.62446 1.3948-1.3948 1.3948-0.77031 0-1.3948-0.62446-1.3948-1.3948s0.62446-1.3948 1.3948-1.3948c0.77033 0 1.3948 0.62447 1.3948 1.3948z"/><path d="m91.519 102.91c0 0.77031-0.62447 1.3948-1.3948 1.3948s-1.3948-0.62447-1.3948-1.3948 0.62447-1.3948 1.3948-1.3948 1.3948 0.62446 1.3948 1.3948z"/><path d="m100.53 103.97c0 0.77032-0.62447 1.3948-1.3948 1.3948-0.77032 0-1.3948-0.62446-1.3948-1.3948s0.62447-1.3948 1.3948-1.3948c0.77031 0 1.3948 0.62446 1.3948 1.3948z"/><path d="m109.54 105.49c0 0.77031-0.62447 1.3948-1.3948 1.3948-0.77031 0-1.3948-0.62446-1.3948-1.3948 0-0.77033 0.62447-1.3948 1.3948-1.3948 0.77032 0 1.3948 0.62446 1.3948 1.3948z"/><path d="m118.56 107.56c0 0.77031-0.62447 1.3948-1.3948 1.3948-0.77031 0-1.3948-0.62446-1.3948-1.3948s0.62447-1.3948 1.3948-1.3948c0.77032 0 1.3948 0.62447 1.3948 1.3948z"/><path d="m127.57 108.32c0 0.77031-0.62446 1.3948-1.3948 1.3948s-1.3948-0.62446-1.3948-1.3948 0.62447-1.3948 1.3948-1.3948 1.3948 0.62448 1.3948 1.3948z"/><path d="m136.58 111.33c0 0.77032-0.62447 1.3948-1.3948 1.3948-0.77032 0-1.3948-0.62447-1.3948-1.3948 0-0.77031 0.62447-1.3948 1.3948-1.3948 0.77031 0 1.3948 0.62447 1.3948 1.3948z"/><path d="m145.59 111.16c0 0.7703-0.62446 1.3948-1.3948 1.3948-0.77031 0-1.3948-0.62447-1.3948-1.3948 0-0.77031 0.62447-1.3948 1.3948-1.3948 0.77033 0 1.3948 0.62447 1.3948 1.3948z"/><path d="m154.61 113.24c0 0.77031-0.62446 1.3948-1.3948 1.3948-0.77031 0-1.3948-0.62448-1.3948-1.3948s0.62446-1.3948 1.3948-1.3948c0.77033 0 1.3948 0.62447 1.3948 1.3948z"/><path d="m163.62 114.08c0 0.77032-0.62447 1.3948-1.3948 1.3948s-1.3948-0.62446-1.3948-1.3948 0.62446-1.3948 1.3948-1.3948 1.3948 0.62446 1.3948 1.3948z"/><path d="m172.63 116.55c0 0.77033-0.62446 1.3948-1.3948 1.3948-0.77033 0-1.3948-0.62446-1.3948-1.3948 0-0.77031 0.62446-1.3948 1.3948-1.3948 0.77031 0 1.3948 0.62446 1.3948 1.3948z"/><path d="m181.64 116.67c0 0.77031-0.62447 1.3948-1.3948 1.3948-0.77031 0-1.3948-0.62446-1.3948-1.3948s0.62447-1.3948 1.3948-1.3948c0.77032 0 1.3948 0.62447 1.3948 1.3948z"/><path d="m190.66 119.29c0 0.77033-0.62446 1.3948-1.3948 1.3948-0.77031 0-1.3948-0.62446-1.3948-1.3948 0-0.77031 0.62446-1.3948 1.3948-1.3948 0.77033 0 1.3948 0.62446 1.3948 1.3948z"/><path d="m199.67 119.74c0 0.77031-0.62447 1.3948-1.3948 1.3948s-1.3948-0.62447-1.3948-1.3948c0-0.77032 0.62447-1.3948 1.3948-1.3948s1.3948 0.62447 1.3948 1.3948z"/><path d="m208.68 121.12c0 0.7703-0.62447 1.3948-1.3948 1.3948-0.77032 0-1.3948-0.62449-1.3948-1.3948 0-0.77031 0.62447-1.3948 1.3948-1.3948 0.77031 0 1.3948 0.62447 1.3948 1.3948z"/><path d="m217.69 123.18c0 0.77032-0.62446 1.3948-1.3948 1.3948-0.77031 0-1.3948-0.62447-1.3948-1.3948 0-0.77031 0.62446-1.3948 1.3948-1.3948 0.77033 0 1.3948 0.62447 1.3948 1.3948z"/><path d="m226.71 123.36c0 0.77031-0.62447 1.3948-1.3948 1.3948-0.7703 0-1.3948-0.62447-1.3948-1.3948 0-0.77032 0.62447-1.3948 1.3948-1.3948 0.77033 0 1.3948 0.62447 1.3948 1.3948z"/><path d="m235.72 125.51c0 0.77031-0.62447 1.3948-1.3948 1.3948s-1.3948-0.62447-1.3948-1.3948c0-0.7703 0.62446-1.3948 1.3948-1.3948s1.3948 0.62449 1.3948 1.3948z"/><path d="m244.73 126.4c0 0.77031-0.62446 1.3948-1.3948 1.3948-0.77033 0-1.3948-0.62447-1.3948-1.3948 0-0.77032 0.62446-1.3948 1.3948-1.3948 0.77031 0 1.3948 0.62447 1.3948 1.3948z"/><path d="m253.74 128.79c0 0.77033-0.62446 1.3948-1.3948 1.3948-0.77031 0-1.3948-0.62446-1.3948-1.3948 0-0.77031 0.62446-1.3948 1.3948-1.3948 0.77033 0 1.3948 0.62446 1.3948 1.3948z"/><path d="m262.76 128.5c0 0.77033-0.62448 1.3948-1.3948 1.3948s-1.3948-0.62447-1.3948-1.3948c0-0.7703 0.62446-1.3948 1.3948-1.3948s1.3948 0.62447 1.3948 1.3948z"/><path d="m271.77 131.41c0 0.77031-0.62446 1.3948-1.3948 1.3948s-1.3948-0.62447-1.3948-1.3948c0-0.77032 0.62448-1.3948 1.3948-1.3948s1.3948 0.62447 1.3948 1.3948z"/></g><g transform="translate(62.678,-23.451)"><g transform="translate(-188.17 -458.07)"><text transform="matrix(1 0 0 -1 188.17 458.07)" fill="#000000" font-family="'STIX Two Math'" font-size="9.9626px"><tspan x="0 6.9240069 14.794461 19.815611 25.105753 30.505482 36.144314 41.165462 46.744518 50.370907 54.824188 58.191547 62.575092 67.456764 71.979782 76.243774 81.53392 84.682098 89.205124 96.736847 99.436714 104.83644 108.72186 111.87003 115.57613 120.86626 125.13026 128.27844 130.9783 135.99945 141.39919" y="0">Amountofre-executedinstructions</tspan></text></g></g><g transform="rotate(90,-23.698,-9.536)"><g transform="translate(-92.261 -495.69)"><text transform="matrix(1 0 0 -1 92.261 495.69)" fill="#000000" font-family="'STIX Two Math'" font-size="9.9626px"><tspan x="0 6.2764382 11.148149 15.601432 19.307518 23.860428 28.841726 35.78566 38.933842 41.633705 49.504158 56.448093 59.596272 67.10807 70.993484 74.14167 78.594948 86.256187 91.167755 95.720657 99.984657 107.57616 110.54501 118.41547 122.30088" y="0">Averagetimetostepback(ms)</tspan></text></g></g><g transform="translate(-43.583,-26.886)"/></g></g></svg>
