<?xml version="1.0" encoding="UTF-8"?><svg id="b" xmlns="http://www.w3.org/2000/svg" viewBox="0 0 358.09 129.2"><defs><style>.d{fill:#0064d2;}.e,.f,.g,.h{fill:none;stroke-miterlimit:10;}.e,.f,.h{stroke-width:.4px;}.e,.g{stroke:#0064d2;}.i{fill:#fff;}.f{stroke:#f2305a;stroke-dasharray:2.99 2.99;}.j{fill:#f2305a;}.g{stroke-width:.56px;}.h{stroke:#000;}</style></defs><g id="c"><path d="M85.34,28.85c0,.83.11.87.72.91.06.06.06.27,0,.33-.35,0-.79-.02-1.11-.02-.34,0-.75,0-1.12.02-.06-.06-.06-.27,0-.33.61-.05.72-.08.72-.91v-2.15c0-.83-.11-.87-.72-.91-.06-.06-.06-.27,0-.33.39.01.81.02,1.11.02s.74,0,1.12-.02c.06.06.06.27,0,.33-.61.05-.72.08-.72.91v2.15ZM88.76,29.76c.06.06.06.27,0,.33-.3,0-.66-.02-.96-.02s-.65,0-.95.02c-.06-.06-.06-.27,0-.33.61-.04.72-.08.72-.91v-2.73c-.1-.18-.21-.3-.59-.33-.03,0-.09-.02-.09-.06v-.24l.02-.03,1.41.02,2.28,3.1c.31.42.34.25.34-.02v-1.86c0-.83-.11-.87-.72-.91-.06-.06-.06-.27,0-.33.3.01.65.02.95.02s.66,0,.96-.02c.06.06.06.27,0,.33-.61.05-.72.08-.72.91v3.22c0,.2-.1.27-.22.27-.15,0-.31-.06-.46-.22l-2.34-3.12c-.23-.29-.36-.38-.36.11v1.89c0,.83.11.86.72.91ZM95.09,29.76c.06.06.06.27,0,.33-.33,0-.68-.02-1.11-.02s-.79,0-1.12.02c-.06-.06-.06-.27,0-.33.61-.05.72-.08.72-.91v-2.15c0-.83-.11-.87-.72-.91-.06-.06-.06-.27,0-.33.4.01.82.02,1.11.02.27,0,.69-.02,1.06-.02,1.41,0,1.71.7,1.71,1.22,0,.6-.41,1.55-1.74,1.55-.25,0-.45-.04-.63-.12v.74c0,.83.11.87.72.91ZM94.38,27.8c.2.08.45.11.65.11.6,0,.86-.39.86-1.11s-.32-1.01-.91-1.01c-.48,0-.6.13-.6.45v1.55ZM100.7,25.79c-.06-.06-.06-.27,0-.33.3.01.65.02.95.02s.66,0,.96-.02c.06.06.06.27,0,.33-.61.05-.72.08-.72.91v1.14c0,1.45-.41,2.33-1.95,2.33-1.09,0-1.81-.41-1.81-1.9v-1.56c0-.83-.11-.87-.72-.91-.06-.06-.06-.27,0-.33.36.01.75.02,1.11.02.33,0,.73,0,1.12-.02.06.06.06.27,0,.33-.61.05-.72.08-.72.91v1.36c0,.93.21,1.7,1.2,1.7,1.32,0,1.32-.94,1.32-1.79v-1.27c0-.83-.11-.87-.72-.91ZM106.57,29.76c.06.06.06.27,0,.33-.37,0-.76-.02-1.11-.02s-.75,0-1.12.02c-.06-.06-.06-.27,0-.33.61-.05.72-.08.72-.91v-2.52c0-.39-.12-.51-.43-.51h-.24c-.65,0-.76.2-.96.92-.09.01-.18,0-.27-.03.06-.47.07-.86.07-1.33.27.05.85.1,1.82.1h.79c.84,0,1.47-.06,1.82-.1.02.47.03.84.08,1.33-.08.05-.17.05-.27.03-.2-.72-.33-.92-.96-.92h-.26c-.32,0-.42.15-.42.52v2.51c0,.83.11.87.72.91Z"/><path d="M142.03,28.85c0,.83.11.87.72.91.06.06.06.27,0,.33-.35,0-.79-.02-1.11-.02-.34,0-.75,0-1.12.02-.06-.06-.06-.27,0-.33.61-.05.72-.08.72-.91v-2.15c0-.83-.11-.87-.72-.91-.06-.06-.06-.27,0-.33.39.01.81.02,1.11.02s.74,0,1.12-.02c.06.06.06.27,0,.33-.61.05-.72.08-.72.91v2.15ZM145.45,29.76c.06.06.06.27,0,.33-.3,0-.66-.02-.96-.02s-.65,0-.95.02c-.06-.06-.06-.27,0-.33.61-.04.72-.08.72-.91v-2.73c-.1-.18-.21-.3-.59-.33-.03,0-.09-.02-.09-.06v-.24l.02-.03,1.41.02,2.28,3.1c.31.42.34.25.34-.02v-1.86c0-.83-.11-.87-.72-.91-.06-.06-.06-.27,0-.33.3.01.65.02.95.02s.66,0,.96-.02c.06.06.06.27,0,.33-.61.05-.72.08-.72.91v3.22c0,.2-.1.27-.22.27-.15,0-.31-.06-.46-.22l-2.34-3.12c-.23-.29-.36-.38-.36.11v1.89c0,.83.11.86.72.91ZM151.79,29.76c.06.06.06.27,0,.33-.33,0-.68-.02-1.11-.02s-.79,0-1.12.02c-.06-.06-.06-.27,0-.33.61-.05.72-.08.72-.91v-2.15c0-.83-.11-.87-.72-.91-.06-.06-.06-.27,0-.33.4.01.82.02,1.11.02.27,0,.69-.02,1.06-.02,1.41,0,1.71.7,1.71,1.22,0,.6-.41,1.55-1.74,1.55-.25,0-.45-.04-.63-.12v.74c0,.83.11.87.72.91ZM151.07,27.8c.2.08.45.11.65.11.6,0,.86-.39.86-1.11s-.32-1.01-.91-1.01c-.48,0-.6.13-.6.45v1.55ZM157.4,25.79c-.06-.06-.06-.27,0-.33.3.01.65.02.95.02s.66,0,.96-.02c.06.06.06.27,0,.33-.61.05-.72.08-.72.91v1.14c0,1.45-.41,2.33-1.95,2.33-1.09,0-1.81-.41-1.81-1.9v-1.56c0-.83-.11-.87-.72-.91-.06-.06-.06-.27,0-.33.36.01.75.02,1.11.02.33,0,.73,0,1.12-.02.06.06.06.27,0,.33-.61.05-.72.08-.72.91v1.36c0,.93.21,1.7,1.2,1.7,1.32,0,1.32-.94,1.32-1.79v-1.27c0-.83-.11-.87-.72-.91ZM163.26,29.76c.06.06.06.27,0,.33-.37,0-.76-.02-1.11-.02s-.75,0-1.12.02c-.06-.06-.06-.27,0-.33.61-.05.72-.08.72-.91v-2.52c0-.39-.12-.51-.43-.51h-.24c-.65,0-.76.2-.96.92-.09.01-.18,0-.27-.03.06-.47.07-.86.07-1.33.27.05.85.1,1.82.1h.79c.84,0,1.47-.06,1.82-.1.02.47.03.84.08,1.33-.08.05-.17.05-.27.03-.2-.72-.33-.92-.96-.92h-.26c-.32,0-.42.15-.42.52v2.51c0,.83.11.87.72.91Z"/><path d="M195.76,30.19c-1.35,0-2.37-.96-2.37-2.31,0-1.46,1.07-2.47,2.45-2.47,1.3,0,2.43.93,2.43,2.34,0,1.3-.88,2.44-2.51,2.44ZM194.26,27.75c0,1.23.69,2.1,1.65,2.1.89,0,1.49-.75,1.49-1.97,0-1.34-.77-2.15-1.65-2.15-.75,0-1.49.68-1.49,2.02ZM202.25,25.81c-.06-.06-.06-.27,0-.33.3,0,.65.02.95.02s.66,0,.96-.02c.06.06.06.27,0,.33-.61.05-.72.08-.72.91v1.14c0,1.45-.41,2.33-1.95,2.33-1.09,0-1.81-.41-1.81-1.9v-1.56c0-.83-.11-.87-.72-.91-.06-.06-.06-.27,0-.33.36,0,.75.02,1.11.02.33,0,.73,0,1.12-.02.06.06.06.27,0,.33-.61.05-.72.08-.72.91v1.36c0,.93.21,1.7,1.2,1.7,1.32,0,1.32-.94,1.32-1.79v-1.27c0-.83-.11-.87-.72-.91ZM208.12,29.78c.06.06.06.27,0,.33-.37-.01-.76-.02-1.11-.02s-.75,0-1.12.02c-.06-.06-.06-.27,0-.33.61-.05.72-.08.72-.91v-2.52c0-.39-.12-.51-.43-.51h-.24c-.65,0-.76.2-.96.92-.09,0-.18,0-.27-.03.06-.47.07-.86.07-1.33.27.05.85.1,1.82.1h.79c.84,0,1.47-.06,1.82-.1.02.47.03.84.08,1.33-.08.05-.17.05-.27.03-.2-.72-.33-.92-.96-.92h-.26c-.32,0-.42.15-.42.52v2.51c0,.83.11.87.72.91ZM212.24,29.78c.06.06.06.27,0,.33-.33-.01-.68-.02-1.11-.02s-.79,0-1.12.02c-.06-.06-.06-.27,0-.33.61-.05.72-.08.72-.91v-2.15c0-.83-.11-.87-.72-.91-.06-.06-.06-.27,0-.33.4,0,.82.02,1.11.02.27,0,.69-.02,1.06-.02,1.41,0,1.71.7,1.71,1.22,0,.6-.41,1.55-1.74,1.55-.25,0-.45-.04-.63-.12v.74c0,.83.11.87.72.91ZM211.52,27.81c.2.08.45.11.65.11.6,0,.86-.39.86-1.11s-.32-1.01-.91-1.01c-.48,0-.6.13-.6.45v1.55ZM217.85,25.81c-.06-.06-.06-.27,0-.33.3,0,.65.02.95.02s.66,0,.96-.02c.06.06.06.27,0,.33-.61.05-.72.08-.72.91v1.14c0,1.45-.41,2.33-1.95,2.33-1.09,0-1.81-.41-1.81-1.9v-1.56c0-.83-.11-.87-.72-.91-.06-.06-.06-.27,0-.33.36,0,.75.02,1.11.02.33,0,.73,0,1.12-.02.06.06.06.27,0,.33-.61.05-.72.08-.72.91v1.36c0,.93.21,1.7,1.2,1.7,1.32,0,1.32-.94,1.32-1.79v-1.27c0-.83-.11-.87-.72-.91ZM223.72,29.78c.06.06.06.27,0,.33-.37-.01-.76-.02-1.11-.02s-.75,0-1.12.02c-.06-.06-.06-.27,0-.33.61-.05.72-.08.72-.91v-2.52c0-.39-.12-.51-.43-.51h-.24c-.65,0-.76.2-.96.92-.09,0-.18,0-.27-.03.06-.47.07-.86.07-1.33.27.05.85.1,1.82.1h.79c.84,0,1.47-.06,1.82-.1.02.47.03.84.08,1.33-.08.05-.17.05-.27.03-.2-.72-.33-.92-.96-.92h-.26c-.32,0-.42.15-.42.52v2.51c0,.83.11.87.72.91Z"/><path d="M12.11,64.72c0-.78-.63-1.41-1.41-1.41s-1.41.63-1.41,1.41.63,1.41,1.41,1.41,1.41-.63,1.41-1.41Z"/><path class="h" d="M12.11,64.72c0-.78-.63-1.41-1.41-1.41s-1.41.63-1.41,1.41.63,1.41,1.41,1.41,1.41-.63,1.41-1.41Z"/><rect class="i" y="69.36" width="21.41" height="10.11"/><path d="M2.48,70.77l-.34-.03s0-.25.03-.29c.44,0,.89.02,1.27.02s.75-.01,1.2-.02c.04.09.02.25-.02.29l-.31.03c-.41.04-.56.18-.62.46l-.44,2.21c.37-.02.61-.17.85-.39l1.95-1.75c.18-.17.29-.31.29-.4,0-.07-.07-.12-.23-.14l-.19-.02s-.07-.03-.06-.08l.03-.19.03-.02c.45,0,.72.02,1.11.02s.49-.01.94-.02l.03.02-.04.19s-.07.08-.12.08c-.4.05-.78.11-1.32.6l-1.63,1.5c-.38.35-.43.42-.45.49,0,.08,0,.15.07.25l1.59,2.59c.18.31.39.41.66.45h.06s.08.04.07.09l-.03.19-.04.02c-.45,0-.62-.02-.99-.02-.29,0-.48,0-.68.02v-.02s0-.06,0-.06c.02-.08.04-.18.04-.29,0-.12-.03-.25-.1-.38l-1.18-1.97c-.15-.27-.4-.38-.74-.38l.02-.13-.48,2.45c-.06.3.05.43.44.46l.34.03s0,.25-.03.29c-.44,0-.89-.02-1.27-.02s-.75,0-1.2.02c-.04-.09-.02-.25.02-.29l.31-.03c.41-.04.56-.18.62-.46l.97-4.91c.06-.3-.05-.43-.44-.46Z"/><path d="M8.65,78.47c-.29,0-.52-.07-.7-.21-.18-.14-.32-.33-.4-.57-.09-.24-.13-.52-.13-.82,0-.44.05-.84.14-1.22.09-.38.23-.71.41-1,.18-.29.4-.52.66-.68.26-.16.55-.24.88-.24.38,0,.69.14.91.41s.33.67.33,1.2c0,.29-.03.58-.08.87-.05.29-.13.58-.23.85-.1.27-.24.51-.4.73s-.36.38-.59.51c-.23.13-.49.19-.8.19ZM8.71,78.15c.16,0,.3-.06.42-.19.12-.13.23-.3.32-.52s.17-.46.23-.74.11-.56.13-.86c.03-.3.04-.6.04-.89,0-.62-.14-.93-.43-.93-.16,0-.29.06-.42.19s-.23.3-.32.52c-.09.22-.17.47-.23.75s-.11.56-.13.86c-.03.3-.04.59-.04.86,0,.32.04.55.11.71.07.16.18.23.31.23Z"/><path d="M12.47,76.94c0,.7-.58,1.18-1.18,1.29-.07-.07-.09-.14-.09-.24.52-.13.88-.59.88-.8,0-.23-.17-.29-.36-.31-.18-.03-.44-.12-.44-.44,0-.28.22-.49.53-.49.4,0,.66.39.66.99ZM20.06,71.9l-.28.05c-.08-.69-.18-1.09-.9-1.09h-1c-.23,0-.37.1-.42.34l-.4,2.09h1.22c.33,0,.47-.14.56-.42l.07-.25s.05-.08.09-.08h.21l.03.04c-.11.4-.18.7-.21.9-.04.2-.09.47-.13.87l-.05.03h-.21s-.06-.05-.05-.08l.02-.25v-.08c0-.23-.11-.3-.41-.3h-1.22l-.49,2.5s0,.07,0,.1c0,.19.12.23.3.23h1.3c.73,0,1.22-.59,1.54-1.31l.29.05c-.22.52-.47,1.15-.68,1.66,0,0-.76-.02-1.22-.02h-2.05c-.37,0-.77,0-1.22.02l-.02-.02.04-.2s.03-.07.09-.07l.29-.02c.38-.03.52-.15.58-.43l.97-4.97s.02-.1.02-.14c0-.21-.13-.29-.43-.31l-.28-.02c-.07,0-.07-.04-.06-.07l.04-.2.02-.02c.45,0,.84.02,1.21.02h2.42c.23,0,.29-.01.46-.04.03,0,.04,0,.04.03,0,.08-.04,1.04-.08,1.44Z"/><path class="d" d="M68.81,64.72c0-.78-.63-1.41-1.41-1.41s-1.41.63-1.41,1.41.63,1.41,1.41,1.41,1.41-.63,1.41-1.41Z"/><path class="e" d="M68.81,64.72c0-.78-.63-1.41-1.41-1.41s-1.41.63-1.41,1.41.63,1.41,1.41,1.41,1.41-.63,1.41-1.41Z"/><rect class="i" x="56.69" y="69.36" width="21.41" height="12.84"/><path class="d" d="M59.17,70.77l-.34-.03s0-.25.03-.29c.44,0,.89.02,1.27.02s.75-.01,1.2-.02c.04.09.02.25-.02.29l-.31.03c-.41.04-.56.18-.62.46l-.44,2.21c.37-.02.61-.17.85-.39l1.95-1.75c.18-.17.29-.31.29-.4,0-.07-.07-.12-.23-.14l-.19-.02s-.07-.03-.06-.08l.03-.19.03-.02c.45,0,.72.02,1.11.02s.49-.01.94-.02l.03.02-.04.19s-.07.08-.12.08c-.4.05-.78.11-1.32.6l-1.63,1.5c-.38.35-.43.42-.45.49,0,.08,0,.15.07.25l1.59,2.59c.18.31.39.41.66.45h.06s.08.04.07.09l-.03.19-.04.02c-.45,0-.62-.02-.99-.02-.29,0-.48,0-.68.02v-.02s0-.06,0-.06c.02-.08.04-.18.04-.29,0-.12-.03-.25-.1-.38l-1.18-1.97c-.15-.27-.4-.38-.74-.38l.02-.13-.48,2.45c-.06.3.05.43.44.46l.34.03s0,.25-.03.29c-.44,0-.89-.02-1.27-.02s-.75,0-1.2.02c-.04-.09-.02-.25.02-.29l.31-.03c.41-.04.56-.18.62-.46l.97-4.91c.06-.3-.05-.43-.44-.46Z"/><path class="d" d="M66.77,78.39h-2.77l.06-.27c.23,0,.41-.02.55-.05.14-.03.25-.08.32-.15s.12-.17.15-.29l.62-2.92s.02-.07.02-.1c0-.03,0-.06,0-.08,0-.12-.06-.17-.19-.17-.05,0-.12,0-.2.01-.08,0-.18.02-.27.03-.1.01-.19.03-.27.05l.07-.31,1.59-.4h.39l-.84,3.89s0,.04-.01.06c0,.02,0,.04,0,.06,0,.13.07.23.2.28s.35.09.65.09l-.06.27Z"/><path class="d" d="M69.16,76.94c0,.7-.58,1.18-1.18,1.29-.07-.07-.09-.14-.09-.24.52-.13.88-.59.88-.8,0-.23-.17-.29-.36-.31-.18-.03-.44-.12-.44-.44,0-.28.22-.49.53-.49.4,0,.66.39.66.99ZM76.75,71.9l-.28.05c-.08-.69-.18-1.09-.9-1.09h-1c-.23,0-.37.1-.42.34l-.4,2.09h1.22c.33,0,.47-.14.56-.42l.07-.25s.05-.08.09-.08h.21l.03.04c-.11.4-.18.7-.21.9-.04.2-.09.47-.13.87l-.05.03h-.21s-.06-.05-.05-.08l.02-.25v-.08c0-.23-.11-.3-.41-.3h-1.22l-.49,2.5s0,.07,0,.1c0,.19.12.23.3.23h1.3c.73,0,1.22-.59,1.54-1.31l.29.05c-.22.52-.47,1.15-.68,1.66,0,0-.76-.02-1.22-.02h-2.05c-.37,0-.77,0-1.22.02l-.02-.02.04-.2s.03-.07.09-.07l.29-.02c.38-.03.52-.15.58-.43l.97-4.97s.02-.1.02-.14c0-.21-.13-.29-.43-.31l-.28-.02c-.07,0-.07-.04-.06-.07l.04-.2.02-.02c.45,0,.84.02,1.21.02h2.42c.23,0,.29-.01.46-.04.03,0,.04,0,.04.03,0,.08-.04,1.04-.08,1.44Z"/><line class="g" x1="57.69" y1="80.36" x2="77.11" y2="80.36"/><path d="M125.5,36.37c0-.78-.63-1.41-1.41-1.41s-1.41.63-1.41,1.41.63,1.41,1.41,1.41,1.41-.63,1.41-1.41Z"/><path class="h" d="M125.5,36.37c0-.78-.63-1.41-1.41-1.41s-1.41.63-1.41,1.41.63,1.41,1.41,1.41,1.41-.63,1.41-1.41Z"/><rect class="i" x="113.36" y="41.01" width="21.47" height="12.03"/><path d="M115.84,42.81l-.34-.03s0-.25.03-.29c.44.01.89.02,1.27.02s.75,0,1.2-.02c.04.09.02.25-.02.29l-.31.03c-.41.04-.56.18-.62.46l-.44,2.21c.37-.02.61-.17.85-.39l1.95-1.75c.18-.17.29-.31.29-.4,0-.07-.07-.12-.23-.14l-.19-.02s-.07-.03-.06-.08l.03-.19.03-.02c.45.01.72.02,1.11.02s.49,0,.94-.02l.03.02-.04.19s-.07.08-.12.08c-.4.05-.78.11-1.32.6l-1.63,1.5c-.38.35-.43.42-.45.49,0,.08,0,.15.07.25l1.59,2.59c.18.31.39.41.66.45h.06s.08.04.07.09l-.03.19-.04.02c-.45-.01-.62-.02-.99-.02-.29,0-.48,0-.68.02v-.02s0-.06,0-.06c.02-.08.04-.18.04-.29,0-.12-.03-.25-.1-.38l-1.18-1.97c-.15-.27-.4-.38-.74-.38l.02-.13-.48,2.45c-.06.3.05.43.44.46l.34.03s0,.25-.03.29c-.44-.01-.89-.02-1.27-.02s-.75,0-1.2.02c-.04-.09-.02-.25.02-.29l.31-.03c.41-.04.56-.18.62-.46l.97-4.91c.06-.3-.05-.43-.44-.46Z"/><path d="M123.28,52.03h-2.91l.08-.4,1.23-.98c.28-.23.51-.44.7-.62.19-.18.34-.35.46-.52.11-.16.2-.32.24-.49.05-.16.07-.34.07-.53s-.05-.35-.16-.47c-.11-.12-.26-.18-.47-.18s-.42.05-.6.15c-.18.1-.37.28-.56.54l-.22-.11c.2-.35.46-.63.76-.82.3-.19.65-.29,1.03-.29.36,0,.64.09.84.28.2.18.31.43.31.74,0,.25-.06.49-.17.7-.12.22-.3.44-.55.66-.25.23-.57.49-.96.78l-1.05.78v.05s.49-.04.49-.04h.93c.13,0,.24-.02.32-.06.08-.04.16-.1.23-.19s.15-.2.23-.35h.25l-.52,1.35Z"/><path d="M125.88,48.97c0,.7-.58,1.18-1.18,1.29-.07-.07-.09-.14-.09-.24.52-.13.88-.59.88-.8,0-.23-.17-.29-.36-.31-.18-.03-.44-.12-.44-.44,0-.28.22-.49.53-.49.4,0,.66.39.66.99ZM133.48,43.94l-.28.05c-.08-.69-.18-1.09-.9-1.09h-1c-.23,0-.37.1-.42.34l-.4,2.09h1.22c.33,0,.47-.14.56-.42l.07-.25s.05-.08.09-.08h.21l.03.04c-.11.4-.18.7-.21.9-.04.2-.09.47-.13.87l-.05.03h-.21s-.06-.05-.05-.08l.02-.25v-.08c0-.23-.11-.3-.41-.3h-1.22l-.49,2.5s0,.07,0,.1c0,.19.12.23.3.23h1.3c.73,0,1.22-.59,1.54-1.31l.29.05c-.22.52-.47,1.15-.68,1.66,0,0-.76-.02-1.22-.02h-2.05c-.37,0-.77,0-1.22.02l-.02-.02.04-.2s.03-.07.09-.07l.29-.02c.38-.03.52-.15.58-.43l.97-4.97s.02-.1.02-.14c0-.21-.13-.29-.43-.31l-.28-.02c-.07,0-.07-.04-.06-.07l.04-.2.02-.02c.45.01.84.02,1.21.02h2.42c.23,0,.29,0,.46-.04.03,0,.04,0,.04.03,0,.08-.04,1.04-.08,1.44Z"/><path d="M182.2,36.37c0-.78-.63-1.41-1.41-1.41s-1.41.63-1.41,1.41.63,1.41,1.41,1.41,1.41-.63,1.41-1.41Z"/><path class="h" d="M182.2,36.37c0-.78-.63-1.41-1.41-1.41s-1.41.63-1.41,1.41.63,1.41,1.41,1.41,1.41-.63,1.41-1.41Z"/><rect class="i" x="170.05" y="41.01" width="21.47" height="12.09"/><path d="M172.53,42.81l-.34-.03s0-.25.03-.29c.44.01.89.02,1.27.02s.75,0,1.2-.02c.04.09.02.25-.02.29l-.31.03c-.41.04-.56.18-.62.46l-.44,2.21c.37-.02.61-.17.85-.39l1.95-1.75c.18-.17.29-.31.29-.4,0-.07-.07-.12-.23-.14l-.19-.02s-.07-.03-.06-.08l.03-.19.03-.02c.45.01.72.02,1.11.02s.49,0,.94-.02l.03.02-.04.19s-.07.08-.12.08c-.4.05-.78.11-1.32.6l-1.63,1.5c-.38.35-.43.42-.45.49,0,.08,0,.15.07.25l1.59,2.59c.18.31.39.41.66.45h.06s.08.04.07.09l-.03.19-.04.02c-.45-.01-.62-.02-.99-.02-.29,0-.48,0-.68.02v-.02s0-.06,0-.06c.02-.08.04-.18.04-.29,0-.12-.03-.25-.1-.38l-1.18-1.97c-.15-.27-.4-.38-.74-.38l.02-.13-.48,2.45c-.06.3.05.43.44.46l.34.03s0,.25-.03.29c-.44-.01-.89-.02-1.27-.02s-.75,0-1.2.02c-.04-.09-.02-.25.02-.29l.31-.03c.41-.04.56-.18.62-.46l.97-4.91c.06-.3-.05-.43-.44-.46Z"/><path d="M178.06,52.13c-.2,0-.36-.02-.48-.05-.12-.03-.2-.08-.24-.15-.05-.07-.07-.14-.07-.22,0-.1.03-.2.1-.29.07-.09.17-.13.31-.13.09,0,.17.02.24.07s.14.1.21.16.15.11.23.16c.08.05.18.07.29.07.17,0,.33-.04.48-.12s.27-.21.36-.37c.09-.17.13-.37.13-.61,0-.19-.04-.35-.12-.48-.08-.13-.2-.22-.36-.29s-.34-.1-.56-.1h-.14l.09-.38h.14c.18,0,.36-.04.54-.13.18-.09.33-.21.45-.37.12-.16.18-.33.18-.53,0-.17-.05-.3-.16-.39-.1-.08-.25-.13-.43-.13-.22,0-.4.05-.56.15-.16.1-.31.23-.47.41l-.19-.12c.22-.31.46-.56.72-.73.26-.17.56-.25.9-.25s.61.08.8.24c.18.16.27.36.27.6,0,.21-.04.39-.13.53s-.21.27-.38.37c-.16.1-.36.21-.59.31v.04c.28.1.5.23.65.41.15.17.23.39.23.63,0,.28-.07.52-.2.73-.13.21-.32.39-.55.53s-.49.25-.78.32c-.29.07-.6.11-.92.11Z"/><path d="M182.58,48.97c0,.7-.58,1.18-1.18,1.29-.07-.07-.09-.14-.09-.24.52-.13.88-.59.88-.8,0-.23-.17-.29-.36-.31-.18-.03-.44-.12-.44-.44,0-.28.22-.49.53-.49.4,0,.66.39.66.99ZM190.17,43.94l-.28.05c-.08-.69-.18-1.09-.9-1.09h-1c-.23,0-.37.1-.42.34l-.4,2.09h1.22c.33,0,.47-.14.56-.42l.07-.25s.05-.08.09-.08h.21l.03.04c-.11.4-.18.7-.21.9-.04.2-.09.47-.13.87l-.05.03h-.21s-.06-.05-.05-.08l.02-.25v-.08c0-.23-.11-.3-.41-.3h-1.22l-.49,2.5s0,.07,0,.1c0,.19.12.23.3.23h1.3c.73,0,1.22-.59,1.54-1.31l.29.05c-.22.52-.47,1.15-.68,1.66,0,0-.76-.02-1.22-.02h-2.05c-.37,0-.77,0-1.22.02l-.02-.02.04-.2s.03-.07.09-.07l.29-.02c.38-.03.52-.15.58-.43l.97-4.97s.02-.1.02-.14c0-.21-.13-.29-.43-.31l-.28-.02c-.07,0-.07-.04-.06-.07l.04-.2.02-.02c.45.01.84.02,1.21.02h2.42c.23,0,.29,0,.46-.04.03,0,.04,0,.04.03,0,.08-.04,1.04-.08,1.44Z"/><path d="M238.89,36.37c0-.78-.63-1.41-1.41-1.41s-1.41.63-1.41,1.41.63,1.41,1.41,1.41,1.41-.63,1.41-1.41Z"/><path class="h" d="M238.89,36.37c0-.78-.63-1.41-1.41-1.41s-1.41.63-1.41,1.41.63,1.41,1.41,1.41,1.41-.63,1.41-1.41Z"/><rect class="i" x="225.92" y="41.01" width="23.13" height="12.03"/><path d="M228.39,42.81l-.34-.03s0-.25.03-.29c.44.01.89.02,1.27.02s.75,0,1.2-.02c.04.09.02.25-.02.29l-.31.03c-.41.04-.56.18-.62.46l-.44,2.21c.37-.02.61-.17.85-.39l1.95-1.75c.18-.17.29-.31.29-.4,0-.07-.07-.12-.23-.14l-.19-.02s-.07-.03-.06-.08l.03-.19.03-.02c.45.01.72.02,1.11.02s.49,0,.94-.02l.03.02-.04.19s-.07.08-.12.08c-.4.05-.78.11-1.32.6l-1.63,1.5c-.38.35-.43.42-.45.49,0,.08,0,.15.07.25l1.59,2.59c.18.31.39.41.66.45h.06s.08.04.07.09l-.03.19-.04.02c-.45-.01-.62-.02-.99-.02-.29,0-.48,0-.68.02v-.02s0-.06,0-.06c.02-.08.04-.18.04-.29,0-.12-.03-.25-.1-.38l-1.18-1.97c-.15-.27-.4-.38-.74-.38l.02-.13-.48,2.45c-.06.3.05.43.44.46l.34.03s0,.25-.03.29c-.44-.01-.89-.02-1.27-.02s-.75,0-1.2.02c-.04-.09-.02-.25.02-.29l.31-.03c.41-.04.56-.18.62-.46l.97-4.91c.06-.3-.05-.43-.44-.46Z"/><path d="M235.59,52.03h-.88l.79-3.68h-.02l-1.67,1.94v.03s2.8,0,2.8,0l-.15.71h-3.32l.13-.65,2.64-3.03h.68l-1,4.69Z"/><path d="M238.44,48.97c0,.7-.58,1.18-1.18,1.29-.07-.07-.09-.14-.09-.24.52-.13.88-.59.88-.8,0-.23-.17-.29-.36-.31-.18-.03-.44-.12-.44-.44,0-.28.22-.49.53-.49.4,0,.66.39.66.99ZM242.55,46.1c.44-.93,1.02-1.54,1.51-1.54.37,0,.52.26.52.47,0,.27-.18.56-.45.56-.14,0-.27-.13-.34-.21-.06-.07-.11-.12-.21-.12-.23,0-.79.93-1.27,1.79l-.29,1.17c-.1.39-.11.82-.46.82-.29,0-.38-.1-.38-.27,0-.16.08-.33.13-.55l.55-2.48c.07-.28.07-.42.07-.51,0-.1-.06-.19-.18-.2l-.4-.03c-.06-.09-.08-.2,0-.28.47-.06.88-.13,1.2-.13.13,0,.21.1.21.25,0,.17-.08.52-.17.91l-.08.35h.04Z"/><path d="M295.58,36.37c0-.78-.63-1.41-1.41-1.41s-1.41.63-1.41,1.41.63,1.41,1.41,1.41,1.41-.63,1.41-1.41Z"/><path class="h" d="M295.58,36.37c0-.78-.63-1.41-1.41-1.41s-1.41.63-1.41,1.41.63,1.41,1.41,1.41,1.41-.63,1.41-1.41Z"/><path d="M125.5,64.72c0-.78-.63-1.41-1.41-1.41s-1.41.63-1.41,1.41.63,1.41,1.41,1.41,1.41-.63,1.41-1.41Z"/><path class="h" d="M125.5,64.72c0-.78-.63-1.41-1.41-1.41s-1.41.63-1.41,1.41.63,1.41,1.41,1.41,1.41-.63,1.41-1.41Z"/><rect class="i" x="113.39" y="69.36" width="21.41" height="10.05"/><path d="M115.87,70.77l-.34-.03s0-.25.03-.29c.44,0,.89.02,1.27.02s.75-.01,1.2-.02c.04.09.02.25-.02.29l-.31.03c-.41.04-.56.18-.62.46l-.44,2.21c.37-.02.61-.17.85-.39l1.95-1.75c.18-.17.29-.31.29-.4,0-.07-.07-.12-.23-.14l-.19-.02s-.07-.03-.06-.08l.03-.19.03-.02c.45,0,.72.02,1.11.02s.49-.01.94-.02l.03.02-.04.19s-.07.08-.12.08c-.4.05-.78.11-1.32.6l-1.63,1.5c-.38.35-.43.42-.45.49,0,.08,0,.15.07.25l1.59,2.59c.18.31.39.41.66.45h.06s.08.04.07.09l-.03.19-.04.02c-.45,0-.62-.02-.99-.02-.29,0-.48,0-.68.02v-.02s0-.06,0-.06c.02-.08.04-.18.04-.29,0-.12-.03-.25-.1-.38l-1.18-1.97c-.15-.27-.4-.38-.74-.38l.02-.13-.48,2.45c-.06.3.05.43.44.46l.34.03s0,.25-.03.29c-.44,0-.89-.02-1.27-.02s-.75,0-1.2.02c-.04-.09-.02-.25.02-.29l.31-.03c.41-.04.56-.18.62-.46l.97-4.91c.06-.3-.05-.43-.44-.46Z"/><path d="M123.31,78.39h-2.91l.08-.4,1.23-.98c.28-.23.51-.44.7-.62.19-.18.34-.35.46-.52.11-.16.2-.32.24-.49.05-.16.07-.34.07-.53s-.05-.35-.16-.47c-.11-.12-.26-.18-.47-.18s-.42.05-.6.15c-.18.1-.37.28-.56.54l-.22-.11c.2-.35.46-.63.76-.82.3-.19.65-.29,1.03-.29.36,0,.64.09.84.28.2.18.31.43.31.74,0,.25-.06.49-.17.7-.12.22-.3.44-.55.66-.25.23-.57.49-.96.78l-1.05.78v.05s.49-.04.49-.04h.93c.13,0,.24-.02.32-.06.08-.04.16-.1.23-.19s.15-.2.23-.35h.25l-.52,1.35Z"/><path d="M125.85,76.94c0,.7-.58,1.18-1.18,1.29-.07-.07-.09-.14-.09-.24.52-.13.88-.59.88-.8,0-.23-.17-.29-.36-.31-.18-.03-.44-.12-.44-.44,0-.28.22-.49.53-.49.4,0,.66.39.66.99ZM133.45,71.9l-.28.05c-.08-.69-.18-1.09-.9-1.09h-1c-.23,0-.37.1-.42.34l-.4,2.09h1.22c.33,0,.47-.14.56-.42l.07-.25s.05-.08.09-.08h.21l.03.04c-.11.4-.18.7-.21.9-.04.2-.09.47-.13.87l-.05.03h-.21s-.06-.05-.05-.08l.02-.25v-.08c0-.23-.11-.3-.41-.3h-1.22l-.49,2.5s0,.07,0,.1c0,.19.12.23.3.23h1.3c.73,0,1.22-.59,1.54-1.31l.29.05c-.22.52-.47,1.15-.68,1.66,0,0-.76-.02-1.22-.02h-2.05c-.37,0-.77,0-1.22.02l-.02-.02.04-.2s.03-.07.09-.07l.29-.02c.38-.03.52-.15.58-.43l.97-4.97s.02-.1.02-.14c0-.21-.13-.29-.43-.31l-.28-.02c-.07,0-.07-.04-.06-.07l.04-.2.02-.02c.45,0,.84.02,1.21.02h2.42c.23,0,.29-.01.46-.04.03,0,.04,0,.04.03,0,.08-.04,1.04-.08,1.44Z"/><path d="M182.2,64.72c0-.78-.63-1.41-1.41-1.41s-1.41.63-1.41,1.41.63,1.41,1.41,1.41,1.41-.63,1.41-1.41Z"/><path class="h" d="M182.2,64.72c0-.78-.63-1.41-1.41-1.41s-1.41.63-1.41,1.41.63,1.41,1.41,1.41,1.41-.63,1.41-1.41Z"/><rect class="i" x="168.75" y="69.36" width="24.07" height="12.09"/><path d="M171.23,71.15l-.34-.03s0-.25.03-.29c.44.01.89.02,1.27.02s.75,0,1.2-.02c.04.09.02.25-.02.29l-.31.03c-.41.04-.56.18-.62.46l-.44,2.21c.37-.02.61-.17.85-.39l1.95-1.75c.18-.17.29-.31.29-.4,0-.07-.07-.12-.23-.14l-.19-.02s-.07-.03-.06-.08l.03-.19.03-.02c.45.01.72.02,1.11.02s.49,0,.94-.02l.03.02-.04.19s-.07.08-.12.08c-.4.05-.78.11-1.32.6l-1.63,1.5c-.38.35-.43.42-.45.49,0,.08,0,.15.07.25l1.59,2.59c.18.31.39.41.66.45h.06s.08.04.07.09l-.03.19-.04.02c-.45-.01-.62-.02-.99-.02-.29,0-.48,0-.68.02v-.02s0-.06,0-.06c.02-.08.04-.18.04-.29,0-.12-.03-.25-.1-.38l-1.18-1.97c-.15-.27-.4-.38-.74-.38l.02-.13-.48,2.45c-.06.3.05.43.44.46l.34.03s0,.25-.03.29c-.44-.01-.89-.02-1.27-.02s-.75,0-1.2.02c-.04-.09-.02-.25.02-.29l.31-.03c.41-.04.56-.18.62-.46l.97-4.91c.06-.3-.05-.43-.44-.46Z"/><path d="M176.76,80.47c-.2,0-.36-.02-.48-.05-.12-.03-.2-.08-.24-.15-.05-.07-.07-.14-.07-.22,0-.1.03-.2.1-.29.07-.09.17-.13.31-.13.09,0,.17.02.24.07s.14.1.21.16.15.11.23.16c.08.05.18.07.29.07.17,0,.33-.04.48-.12s.27-.21.36-.37c.09-.17.13-.37.13-.61,0-.19-.04-.35-.12-.48-.08-.13-.2-.22-.36-.29-.15-.07-.34-.1-.56-.1h-.14l.09-.38h.14c.18,0,.36-.04.54-.13.18-.09.33-.21.45-.37.12-.16.18-.33.18-.53,0-.17-.05-.3-.16-.39-.11-.08-.25-.13-.43-.13-.22,0-.4.05-.56.15-.15.1-.31.23-.47.41l-.19-.12c.22-.31.46-.56.72-.73.26-.17.56-.25.9-.25s.61.08.8.24c.18.16.27.36.27.6,0,.21-.04.39-.13.53s-.21.27-.38.37c-.16.1-.36.21-.59.31v.04c.28.1.5.23.65.41.15.17.23.39.23.63,0,.28-.07.52-.2.73s-.31.39-.54.53-.49.25-.78.32c-.29.07-.6.11-.92.11Z"/><path d="M183.88,77.32c0,.7-.58,1.18-1.18,1.29-.07-.07-.09-.14-.09-.24.52-.13.88-.59.88-.8,0-.23-.17-.29-.36-.31-.18-.03-.44-.12-.44-.44,0-.28.22-.49.53-.49.4,0,.66.39.66.99ZM191.47,72.29l-.28.05c-.08-.69-.18-1.09-.9-1.09h-1c-.23,0-.37.1-.42.34l-.4,2.09h1.22c.33,0,.47-.14.56-.42l.07-.25s.05-.08.09-.08h.21l.03.04c-.11.4-.18.7-.21.9-.04.2-.09.47-.13.87l-.05.03h-.21s-.06-.05-.05-.08l.02-.25v-.08c0-.23-.11-.3-.41-.3h-1.22l-.49,2.5s0,.07,0,.1c0,.19.12.23.3.23h1.3c.73,0,1.22-.59,1.54-1.31l.29.05c-.22.52-.47,1.15-.68,1.66,0,0-.76-.02-1.22-.02h-2.05c-.37,0-.77,0-1.22.02l-.02-.02.04-.2s.03-.07.09-.07l.29-.02c.38-.03.52-.15.58-.43l.97-4.97s.02-.1.02-.14c0-.21-.13-.29-.43-.31l-.28-.02c-.07,0-.07-.04-.06-.07l.04-.2.02-.02c.45.01.84.02,1.21.02h2.42c.23,0,.29,0,.46-.04.03,0,.04,0,.04.03,0,.08-.04,1.04-.08,1.44Z"/><path d="M182.2,93.06c0-.78-.63-1.41-1.41-1.41s-1.41.63-1.41,1.41.63,1.41,1.41,1.41,1.41-.63,1.41-1.41Z"/><path class="h" d="M182.2,93.06c0-.78-.63-1.41-1.41-1.41s-1.41.63-1.41,1.41.63,1.41,1.41,1.41,1.41-.63,1.41-1.41Z"/><rect class="i" x="170.08" y="97.71" width="21.41" height="10.11"/><path d="M172.56,99.11l-.34-.03s0-.25.03-.29c.44.01.89.02,1.27.02s.75,0,1.2-.02c.04.09.02.25-.02.29l-.31.03c-.41.04-.56.18-.62.46l-.44,2.21c.37-.02.61-.17.85-.39l1.95-1.75c.18-.17.29-.31.29-.4,0-.07-.07-.12-.23-.14l-.19-.02s-.07-.03-.06-.08l.03-.19.03-.02c.45.01.72.02,1.11.02s.49,0,.94-.02l.03.02-.04.19s-.07.08-.12.08c-.4.05-.78.11-1.32.6l-1.63,1.5c-.38.35-.43.42-.45.49,0,.08,0,.15.07.25l1.59,2.59c.18.31.39.41.66.45h.06s.08.04.07.09l-.03.19-.04.02c-.45-.01-.62-.02-.99-.02-.29,0-.48,0-.68.02v-.02s0-.06,0-.06c.02-.08.04-.18.04-.29,0-.12-.03-.25-.1-.38l-1.18-1.97c-.15-.27-.4-.38-.74-.38l.02-.13-.48,2.45c-.06.3.05.43.44.46l.34.03s0,.25-.03.29c-.44-.01-.89-.02-1.27-.02s-.75,0-1.2.02c-.04-.09-.02-.25.02-.29l.31-.03c.41-.04.56-.18.62-.46l.97-4.91c.06-.3-.05-.43-.44-.46Z"/><path d="M178.09,106.84c-.2,0-.36-.02-.48-.05-.12-.03-.2-.08-.24-.15-.05-.07-.07-.14-.07-.22,0-.1.03-.2.1-.29.07-.09.17-.13.31-.13.09,0,.17.02.24.07s.14.1.21.16.15.11.23.16c.08.05.18.07.29.07.17,0,.33-.04.48-.12s.27-.21.36-.37c.09-.17.13-.37.13-.61,0-.19-.04-.35-.12-.48s-.2-.22-.36-.29c-.16-.07-.34-.1-.56-.1h-.14l.09-.38h.14c.18,0,.36-.04.54-.13s.33-.21.45-.37.18-.33.18-.53c0-.17-.05-.3-.16-.39-.1-.08-.25-.13-.43-.13-.22,0-.4.05-.56.15-.16.1-.31.23-.47.41l-.19-.12c.22-.31.46-.56.72-.73.27-.17.56-.25.9-.25s.62.08.8.24.27.36.27.6c0,.21-.04.39-.13.53s-.21.27-.38.37c-.16.1-.36.21-.59.31v.04c.28.1.5.23.65.41.15.17.23.39.23.63,0,.28-.07.52-.2.73-.13.21-.32.39-.55.53s-.49.25-.78.32c-.29.07-.6.11-.92.11Z"/><path d="M182.55,105.28c0,.7-.58,1.18-1.18,1.29-.07-.07-.09-.14-.09-.24.52-.13.88-.59.88-.8,0-.23-.17-.29-.36-.31-.18-.03-.44-.12-.44-.44,0-.28.22-.49.53-.49.4,0,.66.39.66.99ZM190.14,100.25l-.28.05c-.08-.69-.18-1.09-.9-1.09h-1c-.23,0-.37.1-.42.34l-.4,2.09h1.22c.33,0,.47-.14.56-.42l.07-.25s.05-.08.09-.08h.21l.03.04c-.11.4-.18.7-.21.9-.04.2-.09.47-.13.87l-.05.03h-.21s-.06-.05-.05-.08l.02-.25v-.08c0-.23-.11-.3-.41-.3h-1.22l-.49,2.5s0,.07,0,.1c0,.19.12.23.3.23h1.3c.73,0,1.22-.59,1.54-1.31l.29.05c-.22.52-.47,1.15-.68,1.66,0,0-.76-.02-1.22-.02h-2.05c-.37,0-.77,0-1.22.02l-.02-.02.04-.2s.03-.07.09-.07l.29-.02c.38-.03.52-.15.58-.43l.97-4.97s.02-.1.02-.14c0-.21-.13-.29-.43-.31l-.28-.02c-.07,0-.07-.04-.06-.07l.04-.2.02-.02c.45.01.84.02,1.21.02h2.42c.23,0,.29,0,.46-.04.03,0,.04,0,.04.03,0,.08-.04,1.04-.08,1.44Z"/><path d="M238.89,93.06c0-.78-.63-1.41-1.41-1.41s-1.41.63-1.41,1.41.63,1.41,1.41,1.41,1.41-.63,1.41-1.41Z"/><path class="h" d="M238.89,93.06c0-.78-.63-1.41-1.41-1.41s-1.41.63-1.41,1.41.63,1.41,1.41,1.41,1.41-.63,1.41-1.41Z"/><rect class="i" x="227.49" y="97.71" width="19.97" height="10.05"/><path d="M229.97,99.11l-.34-.03s0-.25.03-.29c.44.01.89.02,1.27.02s.75,0,1.2-.02c.04.09.02.25-.02.29l-.31.03c-.41.04-.56.18-.62.46l-.44,2.21c.37-.02.61-.17.85-.39l1.95-1.75c.18-.17.29-.31.29-.4,0-.07-.07-.12-.23-.14l-.19-.02s-.07-.03-.06-.08l.03-.19.03-.02c.45.01.72.02,1.11.02s.49,0,.94-.02l.03.02-.04.19s-.07.08-.12.08c-.4.05-.78.11-1.32.6l-1.63,1.5c-.38.35-.43.42-.45.49,0,.08,0,.15.07.25l1.59,2.59c.18.31.39.41.66.45h.06s.08.04.07.09l-.03.19-.04.02c-.45-.01-.62-.02-.99-.02-.29,0-.48,0-.68.02v-.02s0-.06,0-.06c.02-.08.04-.18.04-.29,0-.12-.03-.25-.1-.38l-1.18-1.97c-.15-.27-.4-.38-.74-.38l.02-.13-.48,2.45c-.06.3.05.43.44.46l.34.03s0,.25-.03.29c-.44-.01-.89-.02-1.27-.02s-.75,0-1.2.02c-.04-.09-.02-.25.02-.29l.31-.03c.41-.04.56-.18.62-.46l.97-4.91c.06-.3-.05-.43-.44-.46Z"/><path d="M237.17,106.74h-.88l.79-3.68h-.02l-1.67,1.94v.03s2.8,0,2.8,0l-.15.71h-3.32l.13-.65,2.64-3.03h.68l-1,4.69Z"/><path d="M239.96,105.28c0,.7-.58,1.18-1.18,1.29-.07-.07-.09-.14-.09-.24.52-.13.88-.59.88-.8,0-.23-.17-.29-.36-.31-.18-.03-.44-.12-.44-.44,0-.28.22-.49.53-.49.4,0,.66.39.66.99ZM244.06,102.41c.44-.93,1.02-1.54,1.51-1.54.37,0,.52.26.52.47,0,.27-.18.56-.45.56-.14,0-.27-.13-.34-.21-.06-.07-.11-.12-.21-.12-.23,0-.79.93-1.27,1.79l-.29,1.17c-.1.39-.11.82-.46.82-.29,0-.38-.1-.38-.27,0-.16.08-.33.13-.55l.55-2.48c.07-.28.07-.42.07-.51,0-.1-.06-.19-.18-.2l-.4-.03c-.06-.09-.08-.2,0-.28.47-.06.88-.13,1.2-.13.13,0,.21.1.21.25,0,.17-.08.52-.17.91l-.08.35h.04Z"/><path d="M295.58,93.06c0-.78-.63-1.41-1.41-1.41s-1.41.63-1.41,1.41.63,1.41,1.41,1.41,1.41-.63,1.41-1.41Z"/><path class="h" d="M295.58,93.06c0-.78-.63-1.41-1.41-1.41s-1.41.63-1.41,1.41.63,1.41,1.41,1.41,1.41-.63,1.41-1.41Z"/><rect class="i" x="283.47" y="97.71" width="21.41" height="10.11"/><path d="M285.95,99.11l-.34-.03s0-.25.03-.29c.44.01.89.02,1.27.02s.75,0,1.2-.02c.04.09.02.25-.02.29l-.31.03c-.41.04-.56.18-.62.46l-.44,2.21c.37-.02.61-.17.85-.39l1.95-1.75c.18-.17.29-.31.29-.4,0-.07-.07-.12-.23-.14l-.19-.02s-.07-.03-.06-.08l.03-.19.03-.02c.45.01.72.02,1.11.02s.49,0,.94-.02l.03.02-.04.19s-.07.08-.12.08c-.4.05-.78.11-1.32.6l-1.63,1.5c-.38.35-.43.42-.45.49,0,.08,0,.15.07.25l1.59,2.59c.18.31.39.41.66.45h.06s.08.04.07.09l-.03.19-.04.02c-.45-.01-.62-.02-.99-.02-.29,0-.48,0-.68.02v-.02s0-.06,0-.06c.02-.08.04-.18.04-.29,0-.12-.03-.25-.1-.38l-1.18-1.97c-.15-.27-.4-.38-.74-.38l.02-.13-.48,2.45c-.06.3.05.43.44.46l.34.03s0,.25-.03.29c-.44-.01-.89-.02-1.27-.02s-.75,0-1.2.02c-.04-.09-.02-.25.02-.29l.31-.03c.41-.04.56-.18.62-.46l.97-4.91c.06-.3-.05-.43-.44-.46Z"/><path d="M291.45,106.85c-.29,0-.49-.04-.61-.12-.11-.08-.17-.18-.17-.3,0-.11.04-.21.11-.3s.18-.13.32-.13c.09,0,.17.02.23.07.07.05.13.1.2.16.07.06.14.11.22.16s.18.07.29.07c.24,0,.44-.04.6-.13.16-.09.29-.21.38-.38s.13-.37.13-.61-.05-.43-.16-.56c-.11-.13-.26-.22-.47-.28-.2-.06-.45-.09-.73-.11-.09,0-.16,0-.2,0h-.12l-.07-.15.7-2.09h2.28l-.21.71h-1.91l-.25.79c.2,0,.42.02.65.05.23.03.45.1.65.19.2.09.37.22.5.4.13.17.19.4.19.68,0,.32-.07.6-.2.83-.14.24-.32.43-.56.59s-.51.27-.81.35-.63.12-.96.12Z"/><path d="M295.93,105.28c0,.7-.58,1.18-1.18,1.29-.07-.07-.09-.14-.09-.24.52-.13.88-.59.88-.8,0-.23-.17-.29-.36-.31-.18-.03-.44-.12-.44-.44,0-.28.22-.49.53-.49.4,0,.66.39.66.99ZM303.52,100.25l-.28.05c-.08-.69-.18-1.09-.9-1.09h-1c-.23,0-.37.1-.42.34l-.4,2.09h1.22c.33,0,.47-.14.56-.42l.07-.25s.05-.08.09-.08h.21l.03.04c-.11.4-.18.7-.21.9-.04.2-.09.47-.13.87l-.05.03h-.21s-.06-.05-.05-.08l.02-.25v-.08c0-.23-.11-.3-.41-.3h-1.22l-.49,2.5s0,.07,0,.1c0,.19.12.23.3.23h1.3c.73,0,1.22-.59,1.54-1.31l.29.05c-.22.52-.47,1.15-.68,1.66,0,0-.76-.02-1.22-.02h-2.05c-.37,0-.77,0-1.22.02l-.02-.02.04-.2s.03-.07.09-.07l.29-.02c.38-.03.52-.15.58-.43l.97-4.97s.02-.1.02-.14c0-.21-.13-.29-.43-.31l-.28-.02c-.07,0-.07-.04-.06-.07l.04-.2.02-.02c.45.01.84.02,1.21.02h2.42c.23,0,.29,0,.46-.04.03,0,.04,0,.04.03,0,.08-.04,1.04-.08,1.44Z"/><rect class="h" x="187.15" y=".2" width="157.36" height="15.65"/><path d="M195,5.62l-.31-.02c-.06-.66-.19-1.25-1.11-1.25-.63,0-1.15.41-1.27,1.02,0,.07-.02.14-.02.2,0,.69.73,1.11,1.06,1.26.67.31,1.36.76,1.36,1.63,0,.12,0,.25-.04.38-.2,1.02-1.26,1.83-2.36,1.83-.81,0-1.06-.15-1.63-.15.08-.51.1-.84.13-1.59l.3-.03c0,1,.51,1.41,1.36,1.41.73,0,1.22-.32,1.38-1.13.03-.14.04-.26.04-.37,0-.6-.37-.92-.83-1.15-.7-.35-1.46-.82-1.46-1.7,0-.1,0-.21.03-.33.21-1.06,1.3-1.62,2.13-1.62.89,0,.83.24,1.34.32-.03.54-.08.81-.08,1.29Z"/><path d="M195.88,12.17c-.29,0-.49-.04-.61-.12-.11-.08-.17-.18-.17-.3,0-.11.04-.21.11-.3s.18-.13.32-.13c.09,0,.17.02.23.07.07.05.13.1.2.16.07.06.14.11.22.16s.18.07.29.07c.24,0,.44-.04.6-.13.16-.09.29-.21.38-.38s.13-.37.13-.61-.05-.43-.16-.56c-.11-.13-.26-.22-.47-.28-.2-.06-.45-.09-.73-.11-.09,0-.16,0-.2,0h-.12l-.07-.15.7-2.09h2.28l-.21.71h-1.91l-.25.79c.2,0,.42.02.65.05.23.03.45.1.65.19.2.09.37.22.5.4.13.17.19.4.19.68,0,.32-.07.6-.2.83-.14.24-.32.43-.56.59s-.51.27-.81.35-.63.12-.96.12Z"/><path d="M202.76,10.66c-.22,0-.39-.06-.51-.19s-.18-.29-.18-.49c0-.21.06-.38.18-.51.12-.13.3-.19.52-.19s.4.07.52.2c.12.13.18.3.18.5s-.06.36-.18.49c-.12.13-.3.19-.53.19ZM203.5,7.18c-.22,0-.39-.06-.51-.19-.12-.13-.18-.29-.18-.49,0-.21.06-.38.18-.51.12-.13.3-.19.52-.19s.4.07.52.2c.12.13.18.3.18.5s-.06.36-.18.49c-.12.13-.3.19-.53.19Z"/><path d="M209.38,12.03l-.09.39c-.35,0-.66-.04-.93-.13-.27-.09-.48-.23-.64-.41-.16-.19-.23-.42-.23-.71,0-.19.04-.4.11-.63s.17-.46.27-.69c.1-.23.19-.45.27-.66.08-.21.11-.38.11-.53,0-.2-.07-.33-.22-.39-.15-.06-.32-.09-.52-.1l.12-.57c.17,0,.33-.04.48-.09.15-.05.28-.16.39-.31s.17-.39.18-.71c.01-.11.02-.23.02-.38,0-.15,0-.3.01-.45,0-.15.01-.29.03-.4.02-.37.1-.68.23-.94s.32-.45.54-.61c.23-.15.48-.26.76-.33s.58-.1.88-.1l-.1.4c-.16,0-.32.03-.48.09-.16.06-.31.17-.43.33-.13.16-.22.37-.28.64-.03.18-.05.36-.05.54,0,.18,0,.37-.01.57,0,.2-.04.43-.09.68-.05.23-.14.44-.27.61-.13.18-.28.32-.45.44-.17.12-.34.2-.52.26v.06c.21.06.38.16.51.31s.19.35.19.62c0,.15-.03.32-.09.51s-.13.4-.21.61c-.08.21-.15.42-.21.63-.06.21-.09.41-.09.59,0,.26.07.46.22.62s.35.23.59.23Z"/><path d="M212.93,4.44l-.34-.03s0-.25.03-.29c.44,0,.89.02,1.27.02s.75-.01,1.2-.02c.04.09.02.25-.02.29l-.31.03c-.41.04-.56.18-.62.46l-.44,2.21c.37-.02.61-.17.85-.39l1.95-1.75c.18-.17.29-.31.29-.4,0-.07-.07-.12-.23-.14l-.19-.02s-.07-.03-.06-.08l.03-.19.03-.02c.45,0,.72.02,1.11.02s.49-.01.94-.02l.03.02-.04.19s-.07.08-.12.08c-.4.05-.78.11-1.32.6l-1.63,1.5c-.38.35-.43.42-.45.49,0,.08,0,.15.07.25l1.59,2.59c.18.31.39.41.66.45h.06s.08.04.07.09l-.03.19-.04.02c-.45,0-.62-.02-.99-.02-.29,0-.48,0-.68.02v-.02s0-.06,0-.06c.02-.08.04-.18.04-.29,0-.12-.03-.25-.1-.38l-1.18-1.97c-.15-.27-.4-.38-.74-.38l.02-.13-.48,2.45c-.06.3.05.43.44.46l.34.03s0,.25-.03.29c-.44,0-.89-.02-1.27-.02s-.75,0-1.2.02c-.04-.09-.02-.25.02-.29l.31-.03c.41-.04.56-.18.62-.46l.97-4.91c.06-.3-.05-.43-.44-.46Z"/><path d="M219.1,12.14c-.29,0-.52-.07-.7-.21s-.32-.33-.4-.57c-.09-.24-.13-.52-.13-.82,0-.44.05-.84.14-1.22.09-.38.23-.71.41-1,.18-.29.4-.52.66-.68.26-.16.55-.24.88-.24.38,0,.68.14.91.41s.33.67.33,1.2c0,.29-.03.58-.08.87-.05.29-.13.58-.23.85-.1.27-.24.51-.4.73s-.36.38-.58.51c-.23.13-.5.19-.8.19ZM219.16,11.82c.16,0,.3-.06.42-.19.12-.13.23-.3.32-.52s.17-.46.23-.74.11-.56.13-.86c.03-.3.04-.6.04-.89,0-.62-.14-.93-.43-.93-.16,0-.29.06-.42.19-.12.13-.23.3-.32.52-.09.22-.17.47-.23.75s-.11.56-.13.86-.04.59-.04.86c0,.32.04.55.11.71.07.16.18.23.31.23Z"/><path d="M222.92,10.61c0,.7-.58,1.18-1.18,1.29-.07-.07-.09-.14-.09-.24.52-.13.88-.59.88-.8,0-.23-.17-.29-.36-.31-.18-.03-.44-.12-.44-.44,0-.28.22-.49.53-.49.4,0,.66.39.66.99ZM230.51,5.58l-.28.05c-.08-.69-.18-1.09-.9-1.09h-1c-.23,0-.37.1-.42.34l-.4,2.09h1.22c.33,0,.47-.14.56-.42l.07-.25s.05-.08.09-.08h.21l.03.04c-.11.4-.18.7-.21.9-.04.2-.09.47-.13.87l-.05.03h-.21s-.06-.05-.05-.08l.02-.25v-.08c0-.23-.11-.3-.41-.3h-1.22l-.49,2.5s0,.07,0,.1c0,.19.12.23.3.23h1.3c.73,0,1.22-.59,1.54-1.31l.29.05c-.22.52-.47,1.15-.68,1.66,0,0-.76-.02-1.22-.02h-2.05c-.37,0-.77,0-1.22.02l-.02-.02.04-.2s.03-.07.09-.07l.29-.02c.38-.03.52-.15.58-.43l.97-4.97s.02-.1.02-.14c0-.21-.13-.29-.43-.31l-.28-.02c-.07,0-.07-.04-.06-.07l.04-.2.02-.02c.45,0,.84.02,1.21.02h2.42c.23,0,.29-.01.46-.04.03,0,.04,0,.04.03,0,.08-.04,1.04-.08,1.44Z"/><path d="M230.69,12.42l.1-.4c.17,0,.33-.03.49-.09.16-.06.31-.17.43-.33.13-.16.22-.37.27-.64.04-.18.06-.36.06-.54,0-.18,0-.37.01-.58,0-.21.04-.43.09-.68.05-.24.14-.44.27-.62.13-.17.28-.32.45-.44.18-.12.35-.21.52-.26v-.06c-.22-.06-.39-.16-.52-.31-.13-.15-.19-.35-.19-.62,0-.15.03-.33.09-.52.06-.19.13-.4.21-.61.08-.21.15-.42.21-.64.06-.21.09-.41.09-.59,0-.27-.07-.47-.22-.62-.15-.15-.35-.22-.6-.22l.09-.39c.35,0,.66.04.94.13.27.09.49.23.64.41s.23.42.23.71c0,.19-.04.4-.12.63-.08.23-.17.46-.27.69-.1.23-.19.45-.27.66-.08.21-.12.38-.12.53,0,.2.08.33.22.39.15.06.32.09.52.1l-.12.57c-.17,0-.33.04-.48.09-.15.05-.28.16-.38.31-.1.15-.16.39-.17.72-.02.11-.03.23-.03.38s0,.3,0,.45-.02.29-.03.4c-.03.37-.11.68-.24.94-.14.25-.32.45-.54.61-.22.15-.48.26-.76.33s-.58.1-.89.1Z"/><path d="M238.66,8.6c-.23,0-.41-.06-.52-.17-.12-.11-.17-.27-.17-.48s.06-.37.18-.5c.12-.13.29-.19.53-.19s.4.06.52.19c.12.13.18.3.17.51,0,.2-.07.36-.18.47-.11.11-.29.17-.52.17Z"/><path d="M244.95,12.03l-.09.39c-.35,0-.66-.04-.93-.13-.27-.09-.48-.23-.64-.41-.16-.19-.23-.42-.23-.71,0-.19.04-.4.11-.63s.17-.46.27-.69c.1-.23.19-.45.27-.66.08-.21.11-.38.11-.53,0-.2-.07-.33-.22-.39-.15-.06-.32-.09-.52-.1l.12-.57c.17,0,.33-.04.48-.09.15-.05.28-.16.39-.31s.17-.39.18-.71c.01-.11.02-.23.02-.38,0-.15,0-.3.01-.45,0-.15.01-.29.03-.4.02-.37.1-.68.23-.94s.32-.45.54-.61c.23-.15.48-.26.76-.33s.58-.1.88-.1l-.1.4c-.16,0-.32.03-.48.09-.16.06-.31.17-.43.33-.13.16-.22.37-.28.64-.03.18-.05.36-.05.54,0,.18,0,.37-.01.57,0,.2-.04.43-.09.68-.05.23-.14.44-.27.61-.13.18-.28.32-.45.44-.17.12-.34.2-.52.26v.06c.21.06.38.16.51.31s.19.35.19.62c0,.15-.03.32-.09.51s-.13.4-.21.61c-.08.21-.15.42-.21.63-.06.21-.09.41-.09.59,0,.26.07.46.22.62s.35.23.59.23Z"/><path d="M248.65,4.44l-.34-.03s0-.25.03-.29c.44,0,.89.02,1.27.02s.75-.01,1.2-.02c.04.09.02.25-.02.29l-.31.03c-.41.04-.56.18-.62.46l-.44,2.21c.37-.02.61-.17.85-.39l1.95-1.75c.18-.17.29-.31.29-.4,0-.07-.07-.12-.23-.14l-.19-.02s-.07-.03-.06-.08l.03-.19.03-.02c.45,0,.72.02,1.11.02s.49-.01.94-.02l.03.02-.04.19s-.07.08-.12.08c-.4.05-.78.11-1.32.6l-1.63,1.5c-.38.35-.43.42-.45.49,0,.08,0,.15.07.25l1.59,2.59c.18.31.39.41.66.45h.06s.08.04.07.09l-.03.19-.04.02c-.45,0-.62-.02-.99-.02-.29,0-.48,0-.68.02v-.02s0-.06,0-.06c.02-.08.04-.18.04-.29,0-.12-.03-.25-.1-.38l-1.18-1.97c-.15-.27-.4-.38-.74-.38l.02-.13-.48,2.45c-.06.3.05.43.44.46l.34.03s0,.25-.03.29c-.44,0-.89-.02-1.27-.02s-.75,0-1.2.02c-.04-.09-.02-.25.02-.29l.31-.03c.41-.04.56-.18.62-.46l.97-4.91c.06-.3-.05-.43-.44-.46Z"/><path d="M256.09,12.06h-2.91l.08-.4,1.23-.98c.28-.23.51-.44.7-.62.19-.18.34-.35.46-.52s.2-.32.24-.49c.05-.16.07-.34.07-.53s-.05-.35-.16-.47c-.11-.12-.26-.18-.47-.18s-.42.05-.6.15c-.18.1-.37.28-.56.54l-.22-.11c.2-.35.46-.63.76-.82.3-.19.64-.29,1.03-.29.36,0,.64.09.84.28.2.18.3.43.3.74,0,.25-.06.49-.17.7-.12.22-.3.44-.55.66-.25.23-.57.49-.96.78l-1.05.78v.05s.49-.04.49-.04h.93c.13,0,.24-.02.32-.06.08-.04.16-.1.23-.19.07-.08.15-.2.23-.35h.25l-.52,1.35Z"/><path d="M258.64,10.61c0,.7-.58,1.18-1.18,1.29-.07-.07-.09-.14-.09-.24.52-.13.88-.59.88-.8,0-.23-.17-.29-.36-.31-.18-.03-.44-.12-.44-.44,0-.28.22-.49.53-.49.4,0,.66.39.66.99ZM266.23,5.58l-.28.05c-.08-.69-.18-1.09-.9-1.09h-1c-.23,0-.37.1-.42.34l-.4,2.09h1.22c.33,0,.47-.14.56-.42l.07-.25s.05-.08.09-.08h.21l.03.04c-.11.4-.18.7-.21.9-.04.2-.09.47-.13.87l-.05.03h-.21s-.06-.05-.05-.08l.02-.25v-.08c0-.23-.11-.3-.41-.3h-1.22l-.49,2.5s0,.07,0,.1c0,.19.12.23.3.23h1.3c.73,0,1.22-.59,1.54-1.31l.29.05c-.22.52-.47,1.15-.68,1.66,0,0-.76-.02-1.22-.02h-2.05c-.37,0-.77,0-1.22.02l-.02-.02.04-.2s.03-.07.09-.07l.29-.02c.38-.03.52-.15.58-.43l.97-4.97s.02-.1.02-.14c0-.21-.13-.29-.43-.31l-.28-.02c-.07,0-.07-.04-.06-.07l.04-.2.02-.02c.45,0,.84.02,1.21.02h2.42c.23,0,.29-.01.46-.04.03,0,.04,0,.04.03,0,.08-.04,1.04-.08,1.44Z"/><path d="M266.41,12.42l.1-.4c.17,0,.33-.03.49-.09.16-.06.31-.17.43-.33.13-.16.22-.37.27-.64.04-.18.06-.36.06-.54,0-.18,0-.37.01-.58,0-.21.04-.43.09-.68.05-.24.14-.44.27-.62.13-.17.28-.32.45-.44.18-.12.35-.21.52-.26v-.06c-.22-.06-.39-.16-.52-.31-.13-.15-.19-.35-.19-.62,0-.15.03-.33.09-.52.06-.19.13-.4.21-.61.08-.21.15-.42.21-.64.06-.21.09-.41.09-.59,0-.27-.07-.47-.22-.62-.15-.15-.35-.22-.6-.22l.09-.39c.35,0,.66.04.94.13.27.09.49.23.64.41s.23.42.23.71c0,.19-.04.4-.12.63-.08.23-.17.46-.27.69-.1.23-.19.45-.27.66-.08.21-.12.38-.12.53,0,.2.08.33.22.39.15.06.32.09.52.1l-.12.57c-.17,0-.33.04-.48.09-.15.05-.28.16-.38.31-.1.15-.16.39-.17.72-.02.11-.03.23-.03.38s0,.3,0,.45-.02.29-.03.4c-.03.37-.11.68-.24.94-.14.25-.32.45-.54.61-.22.15-.48.26-.76.33s-.58.1-.89.1Z"/><path d="M274.38,8.6c-.23,0-.41-.06-.52-.17-.12-.11-.17-.27-.17-.48s.06-.37.18-.5c.12-.13.29-.19.53-.19s.4.06.52.19c.12.13.18.3.17.51,0,.2-.07.36-.18.47-.11.11-.29.17-.52.17Z"/><path d="M280.66,12.03l-.09.39c-.35,0-.66-.04-.93-.13-.27-.09-.48-.23-.64-.41-.16-.19-.23-.42-.23-.71,0-.19.04-.4.11-.63s.17-.46.27-.69c.1-.23.19-.45.27-.66.08-.21.11-.38.11-.53,0-.2-.07-.33-.22-.39-.15-.06-.32-.09-.52-.1l.12-.57c.17,0,.33-.04.48-.09.15-.05.28-.16.39-.31s.17-.39.18-.71c.01-.11.02-.23.02-.38,0-.15,0-.3.01-.45,0-.15.01-.29.03-.4.02-.37.1-.68.23-.94s.32-.45.54-.61c.23-.15.48-.26.76-.33s.58-.1.88-.1l-.1.4c-.16,0-.32.03-.48.09-.16.06-.31.17-.43.33-.13.16-.22.37-.28.64-.03.18-.05.36-.05.54,0,.18,0,.37-.01.57,0,.2-.04.43-.09.68-.05.23-.14.44-.27.61-.13.18-.28.32-.45.44-.17.12-.34.2-.52.26v.06c.21.06.38.16.51.31s.19.35.19.62c0,.15-.03.32-.09.51s-.13.4-.21.61c-.08.21-.15.42-.21.63-.06.21-.09.41-.09.59,0,.26.07.46.22.62s.35.23.59.23Z"/><path d="M284.37,4.44l-.34-.03s0-.25.03-.29c.44,0,.89.02,1.27.02s.75-.01,1.2-.02c.04.09.02.25-.02.29l-.31.03c-.41.04-.56.18-.62.46l-.44,2.21c.37-.02.61-.17.85-.39l1.95-1.75c.18-.17.29-.31.29-.4,0-.07-.07-.12-.23-.14l-.19-.02s-.07-.03-.06-.08l.03-.19.03-.02c.45,0,.72.02,1.11.02s.49-.01.94-.02l.03.02-.04.19s-.07.08-.12.08c-.4.05-.78.11-1.32.6l-1.63,1.5c-.38.35-.43.42-.45.49,0,.08,0,.15.07.25l1.59,2.59c.18.31.39.41.66.45h.06s.08.04.07.09l-.03.19-.04.02c-.45,0-.62-.02-.99-.02-.29,0-.48,0-.68.02v-.02s0-.06,0-.06c.02-.08.04-.18.04-.29,0-.12-.03-.25-.1-.38l-1.18-1.97c-.15-.27-.4-.38-.74-.38l.02-.13-.48,2.45c-.06.3.05.43.44.46l.34.03s0,.25-.03.29c-.44,0-.89-.02-1.27-.02s-.75,0-1.2.02c-.04-.09-.02-.25.02-.29l.31-.03c.41-.04.56-.18.62-.46l.97-4.91c.06-.3-.05-.43-.44-.46Z"/><path d="M289.9,12.17c-.2,0-.36-.02-.48-.05-.12-.03-.2-.08-.24-.15-.05-.07-.07-.14-.07-.22,0-.1.03-.2.1-.29.07-.09.17-.13.3-.13.09,0,.17.02.24.07s.14.1.21.16.15.11.23.16c.08.05.18.07.29.07.17,0,.33-.04.48-.12s.27-.21.36-.37c.09-.17.13-.37.13-.61,0-.19-.04-.35-.12-.48-.08-.13-.2-.22-.36-.29s-.34-.1-.56-.1h-.14l.09-.38h.14c.18,0,.36-.04.54-.13.18-.09.33-.21.45-.37.12-.16.18-.33.18-.53,0-.17-.05-.3-.16-.39-.1-.08-.25-.13-.43-.13-.22,0-.4.05-.56.15-.16.1-.31.23-.47.41l-.19-.12c.22-.31.46-.56.72-.73.26-.17.56-.25.9-.25s.61.08.8.24c.18.16.27.36.27.6,0,.21-.04.39-.13.53s-.21.27-.38.37c-.16.1-.36.21-.59.31v.04c.28.1.5.23.65.41.15.17.23.39.23.63,0,.28-.07.52-.2.73-.13.21-.32.39-.55.53s-.49.25-.78.32c-.29.07-.6.11-.92.11Z"/><path d="M294.36,10.61c0,.7-.58,1.18-1.18,1.29-.07-.07-.09-.14-.09-.24.52-.13.88-.59.88-.8,0-.23-.17-.29-.36-.31-.18-.03-.44-.12-.44-.44,0-.28.22-.49.53-.49.4,0,.66.39.66.99ZM301.95,5.58l-.28.05c-.08-.69-.18-1.09-.9-1.09h-1c-.23,0-.37.1-.42.34l-.4,2.09h1.22c.33,0,.47-.14.56-.42l.07-.25s.05-.08.09-.08h.21l.03.04c-.11.4-.18.7-.21.9-.04.2-.09.47-.13.87l-.05.03h-.21s-.06-.05-.05-.08l.02-.25v-.08c0-.23-.11-.3-.41-.3h-1.22l-.49,2.5s0,.07,0,.1c0,.19.12.23.3.23h1.3c.73,0,1.22-.59,1.54-1.31l.29.05c-.22.52-.47,1.15-.68,1.66,0,0-.76-.02-1.22-.02h-2.05c-.37,0-.77,0-1.22.02l-.02-.02.04-.2s.03-.07.09-.07l.29-.02c.38-.03.52-.15.58-.43l.97-4.97s.02-.1.02-.14c0-.21-.13-.29-.43-.31l-.28-.02c-.07,0-.07-.04-.06-.07l.04-.2.02-.02c.45,0,.84.02,1.21.02h2.42c.23,0,.29-.01.46-.04.03,0,.04,0,.04.03,0,.08-.04,1.04-.08,1.44Z"/><path d="M302.13,12.42l.1-.4c.17,0,.33-.03.49-.09.16-.06.31-.17.43-.33.13-.16.22-.37.27-.64.04-.18.06-.36.06-.54,0-.18,0-.37.01-.58,0-.21.04-.43.09-.68.05-.24.14-.44.27-.62.13-.17.28-.32.45-.44.18-.12.35-.21.52-.26v-.06c-.22-.06-.39-.16-.52-.31-.13-.15-.19-.35-.19-.62,0-.15.03-.33.09-.52.06-.19.13-.4.21-.61.08-.21.15-.42.21-.64.06-.21.09-.41.09-.59,0-.27-.07-.47-.22-.62-.15-.15-.35-.22-.6-.22l.09-.39c.35,0,.66.04.94.13.27.09.49.23.64.41s.23.42.23.71c0,.19-.04.4-.12.63-.08.23-.17.46-.27.69-.1.23-.19.45-.27.66-.08.21-.12.38-.12.53,0,.2.08.33.22.39.15.06.32.09.52.1l-.12.57c-.17,0-.33.04-.48.09-.15.05-.28.16-.38.31-.1.15-.16.39-.17.72-.02.11-.03.23-.03.38s0,.3,0,.45-.02.29-.03.4c-.03.37-.11.68-.24.94-.14.25-.32.45-.54.61-.22.15-.48.26-.76.33s-.58.1-.89.1Z"/><path d="M310.1,8.6c-.23,0-.41-.06-.52-.17-.12-.11-.17-.27-.17-.48s.06-.37.18-.5c.12-.13.29-.19.53-.19s.4.06.52.19c.12.13.18.3.17.51,0,.2-.07.36-.18.47-.11.11-.29.17-.52.17Z"/><path d="M316.38,12.03l-.09.39c-.35,0-.66-.04-.93-.13-.27-.09-.48-.23-.64-.41-.16-.19-.23-.42-.23-.71,0-.19.04-.4.11-.63s.17-.46.27-.69c.1-.23.19-.45.27-.66.08-.21.11-.38.11-.53,0-.2-.07-.33-.22-.39-.15-.06-.32-.09-.52-.1l.12-.57c.17,0,.33-.04.48-.09.15-.05.28-.16.39-.31s.17-.39.18-.71c.01-.11.02-.23.02-.38,0-.15,0-.3.01-.45,0-.15.01-.29.03-.4.02-.37.1-.68.23-.94s.32-.45.54-.61c.23-.15.48-.26.76-.33s.58-.1.88-.1l-.1.4c-.16,0-.32.03-.48.09-.16.06-.31.17-.43.33-.13.16-.22.37-.28.64-.03.18-.05.36-.05.54,0,.18,0,.37-.01.57,0,.2-.04.43-.09.68-.05.23-.14.44-.27.61-.13.18-.28.32-.45.44-.17.12-.34.2-.52.26v.06c.21.06.38.16.51.31s.19.35.19.62c0,.15-.03.32-.09.51s-.13.4-.21.61c-.08.21-.15.42-.21.63-.06.21-.09.41-.09.59,0,.26.07.46.22.62s.35.23.59.23Z"/><path d="M320.1,4.44l-.34-.03s0-.25.03-.29c.44,0,.89.02,1.27.02s.75-.01,1.2-.02c.04.09.02.25-.02.29l-.31.03c-.41.04-.56.18-.62.46l-.44,2.21c.37-.02.61-.17.85-.39l1.95-1.75c.18-.17.29-.31.29-.4,0-.07-.07-.12-.23-.14l-.19-.02s-.07-.03-.06-.08l.03-.19.03-.02c.45,0,.72.02,1.11.02s.49-.01.94-.02l.03.02-.04.19s-.07.08-.12.08c-.4.05-.78.11-1.32.6l-1.63,1.5c-.38.35-.43.42-.45.49,0,.08,0,.15.07.25l1.59,2.59c.18.31.39.41.66.45h.06s.08.04.07.09l-.03.19-.04.02c-.45,0-.62-.02-.99-.02-.29,0-.48,0-.68.02v-.02s0-.06,0-.06c.02-.08.04-.18.04-.29,0-.12-.03-.25-.1-.38l-1.18-1.97c-.15-.27-.4-.38-.74-.38l.02-.13-.48,2.45c-.06.3.05.43.44.46l.34.03s0,.25-.03.29c-.44,0-.89-.02-1.27-.02s-.75,0-1.2.02c-.04-.09-.02-.25.02-.29l.31-.03c.41-.04.56-.18.62-.46l.97-4.91c.06-.3-.05-.43-.44-.46Z"/><path d="M327.29,12.06h-.88l.79-3.68h-.02l-1.67,1.94v.03s2.8,0,2.8,0l-.15.71h-3.32l.13-.65,2.64-3.03h.68l-1,4.69Z"/><path d="M330.08,10.61c0,.7-.58,1.18-1.18,1.29-.07-.07-.09-.14-.09-.24.52-.13.88-.59.88-.8,0-.23-.17-.29-.36-.31-.18-.03-.44-.12-.44-.44,0-.28.22-.49.53-.49.4,0,.66.39.66.99ZM334.19,7.74c.44-.93,1.02-1.54,1.51-1.54.37,0,.52.26.52.47,0,.27-.18.56-.45.56-.14,0-.27-.13-.34-.21-.06-.07-.11-.12-.21-.12-.23,0-.79.93-1.27,1.79l-.29,1.17c-.1.39-.11.82-.46.82-.29,0-.38-.1-.38-.27,0-.16.08-.33.13-.55l.55-2.48c.07-.28.07-.42.07-.51,0-.1-.06-.19-.18-.2l-.4-.03c-.06-.09-.08-.2,0-.28.47-.06.88-.13,1.2-.13.13,0,.21.1.21.25,0,.17-.08.52-.17.91l-.08.35h.04Z"/><path d="M336.41,12.42l.1-.4c.17,0,.33-.03.49-.09.16-.06.31-.17.43-.33.13-.16.22-.37.27-.64.04-.18.06-.36.06-.54,0-.18,0-.37.01-.58,0-.21.04-.43.09-.68.05-.24.14-.44.27-.62.13-.17.28-.32.45-.44.18-.12.35-.21.52-.26v-.06c-.22-.06-.39-.16-.52-.31-.13-.15-.19-.35-.19-.62,0-.15.03-.33.09-.52.06-.19.13-.4.21-.61.08-.21.15-.42.21-.64.06-.21.09-.41.09-.59,0-.27-.07-.47-.22-.62-.15-.15-.35-.22-.6-.22l.09-.39c.35,0,.66.04.94.13.27.09.49.23.64.41s.23.42.23.71c0,.19-.04.4-.12.63-.08.23-.17.46-.27.69-.1.23-.19.45-.27.66-.08.21-.12.38-.12.53,0,.2.08.33.22.39.15.06.32.09.52.1l-.12.57c-.17,0-.33.04-.48.09-.15.05-.28.16-.38.31-.1.15-.16.39-.17.72-.02.11-.03.23-.03.38s0,.3,0,.45-.02.29-.03.4c-.03.37-.11.68-.24.94-.14.25-.32.45-.54.61-.22.15-.48.26-.76.33s-.58.1-.89.1Z"/><line class="h" x1="12.31" y1="64.72" x2="63.8" y2="64.72"/><polyline points="65.79 64.72 62.6 63.12 63.8 64.72 62.6 66.31"/><line class="e" x1="71" y1="64.72" x2="122.48" y2="64.72"/><polyline class="d" points="69.01 64.72 72.2 66.31 71 64.72 72.2 63.12"/><path class="e" d="M69.01,64.72c23.61,0,29.87-28.35,51.48-28.35"/><polyline class="d" points="122.48 36.37 119.3 34.78 120.49 36.37 119.3 37.96"/><line class="e" x1="125.7" y1="36.37" x2="177.19" y2="36.37"/><polyline class="d" points="179.18 36.37 175.99 34.78 177.19 36.37 175.99 37.96"/><line class="e" x1="182.39" y1="36.37" x2="233.88" y2="36.37"/><polyline class="d" points="235.87 36.37 232.68 34.78 233.88 36.37 232.68 37.96"/><line class="h" x1="239.09" y1="36.37" x2="290.57" y2="36.37"/><polyline points="292.57 36.37 289.38 34.78 290.57 36.37 289.38 37.96"/><line class="h" x1="125.7" y1="64.72" x2="177.19" y2="64.72"/><polyline points="179.18 64.72 175.99 63.12 177.19 64.72 175.99 66.31"/><path class="e" d="M127.69,64.72c21.62,0,27.87,28.35,51.48,28.35"/><polyline class="d" points="125.7 64.72 128.89 66.31 127.69 64.72 128.89 63.12"/><line class="e" x1="184.39" y1="93.06" x2="235.87" y2="93.06"/><polyline class="d" points="182.39 93.06 185.58 94.66 184.39 93.06 185.58 91.47"/><line class="e" x1="241.08" y1="93.06" x2="292.57" y2="93.06"/><polyline class="d" points="239.09 93.06 242.28 94.66 241.08 93.06 242.28 91.47"/><path class="f" d="M294.03,91.46c-2.66-30.39-24.44-55.09-52.95-55.09"/><polyline class="j" points="239.09 36.37 242.28 37.96 241.08 36.37 242.28 34.78"/><path d="M293.81,64.28c-.25,0-.47-.06-.68-.17s-.38-.3-.5-.56c-.13-.26-.19-.6-.19-1.04,0-.46.07-.88.22-1.27.15-.39.34-.72.58-1,.24-.28.52-.5.83-.66s.63-.23.97-.23c.29,0,.51.06.66.16s.27.23.38.37h.06l.38-.47h.7l-.72,3.45c-.03.17-.05.29-.05.36,0,.07.01.12.04.17s.09.07.18.07c.1,0,.19-.03.26-.08s.15-.11.21-.18.12-.14.17-.2l.28.22c-.1.15-.22.3-.35.46-.13.16-.3.29-.5.4s-.45.16-.75.16c-.23,0-.4-.04-.51-.12s-.17-.23-.17-.43c0-.05,0-.1.01-.15,0-.05.01-.11.02-.16h-.07c-.22.29-.44.51-.67.66-.23.16-.49.23-.79.23ZM294.29,63.52c.19,0,.35-.05.49-.14.14-.1.26-.24.37-.42s.2-.4.26-.65c.04-.14.08-.3.12-.49.04-.19.07-.38.1-.58s.04-.37.04-.52c0-.25-.05-.47-.15-.65-.1-.18-.27-.27-.5-.27-.21,0-.4.08-.57.23s-.31.35-.43.61c-.12.25-.21.54-.27.85s-.09.64-.09.96c0,.42.06.71.17.86.11.15.27.22.46.22Z"/><path d="M299.44,64.14h-1.23l.74-3.38c.02-.1.04-.21.06-.32.02-.11.03-.21.03-.3,0-.09-.02-.17-.07-.22-.04-.05-.13-.08-.26-.08-.05,0-.16,0-.31.02v-.36l1.51-.11h.41l-.44,1.93h.15l-.6,2.81ZM299.52,63.29l.43-1.84c.07-.13.13-.28.2-.46.07-.18.15-.36.24-.55s.2-.36.31-.52.25-.29.41-.39.34-.15.54-.15c.19,0,.34.05.46.16.12.11.18.28.18.5,0,.24-.07.42-.2.54s-.28.18-.43.18c-.13,0-.22-.03-.29-.1-.07-.07-.12-.14-.14-.2-.02-.07-.04-.1-.05-.1-.12,0-.25.08-.38.23-.13.16-.26.36-.39.6-.13.24-.25.5-.37.77-.12.27-.23.53-.32.77-.09.24-.17.42-.22.56Z"/><path d="M304,64.27c-.61,0-1.18-.12-1.71-.37l1.14-5.71s.01-.07.02-.14c0-.08.01-.14.01-.2,0-.11-.03-.19-.1-.22-.07-.04-.15-.05-.25-.05-.05,0-.16,0-.31,0v-.36l1.52-.1h.45l-.59,2.93h.06c.16-.16.31-.29.44-.39.14-.1.28-.18.42-.22.14-.05.3-.07.47-.07.4,0,.73.14,1.01.43.27.29.41.73.41,1.32,0,.46-.07.88-.2,1.26-.13.38-.33.72-.58,1-.25.29-.56.51-.94.66-.37.16-.8.23-1.28.23ZM304.29,63.73c.32,0,.59-.11.8-.34.22-.23.38-.54.48-.94s.16-.84.16-1.33c0-.44-.06-.74-.18-.89-.12-.16-.27-.23-.44-.23s-.33.05-.48.16c-.15.11-.27.24-.38.39-.11.16-.19.31-.24.45l-.47,2.41c.07.06.17.13.3.2.14.08.28.11.44.11Z"/><path d="M308.52,64.25c-.25,0-.44-.05-.56-.16-.12-.11-.18-.25-.18-.42,0-.09,0-.19.03-.31.02-.12.06-.33.13-.62l.49-2.27c.02-.13.03-.24.03-.32,0-.07-.02-.13-.06-.19-.04-.06-.13-.09-.26-.09-.09,0-.2,0-.33.02v-.37l1.59-.11h.41l-.74,3.51c-.04.21-.06.35-.06.42,0,.13.06.19.19.19.17,0,.32-.06.43-.18.12-.12.21-.22.29-.31l.27.2c-.11.16-.24.32-.37.48-.13.16-.3.29-.51.39s-.47.15-.8.16ZM309.35,58.69c-.21,0-.38-.06-.51-.19-.13-.13-.19-.29-.19-.5s.06-.38.19-.51c.13-.13.3-.19.52-.19.23,0,.41.06.52.19.12.13.17.29.17.5s-.06.38-.18.51c-.12.13-.3.19-.52.19Z"/><path d="M311.65,64.26c-.25,0-.44-.05-.57-.16-.14-.11-.21-.28-.21-.53,0-.09,0-.18.03-.29.02-.11.04-.21.05-.29l.65-3.03h-.59l.06-.35c.24-.11.44-.22.6-.32.16-.1.32-.23.46-.4.14-.17.31-.38.49-.66h.5l-.96,4.57c-.05.25-.07.41-.07.5,0,.06.01.11.04.15.02.04.08.06.15.06.12,0,.24-.04.35-.11s.25-.21.4-.4l.27.2c-.09.13-.21.28-.36.45-.15.17-.32.31-.53.43-.21.12-.46.18-.76.18ZM313.74,59.96h-1.09l.08-.48h1.11l-.1.48Z"/><path d="M315.28,64.14h-1.23l.74-3.38c.02-.1.04-.21.06-.32.02-.11.03-.21.03-.3,0-.09-.02-.17-.07-.22-.04-.05-.13-.08-.26-.08-.05,0-.16,0-.31.02v-.36l1.51-.11h.41l-.44,1.93h.15l-.6,2.81ZM315.36,63.29l.43-1.84c.07-.13.13-.28.2-.46.07-.18.15-.36.24-.55s.2-.36.31-.52.25-.29.41-.39.34-.15.54-.15c.19,0,.34.05.46.16.12.11.18.28.18.5,0,.24-.07.42-.2.54s-.28.18-.43.18c-.13,0-.22-.03-.29-.1-.07-.07-.12-.14-.14-.2-.02-.07-.04-.1-.05-.1-.12,0-.25.08-.38.23-.13.16-.26.36-.39.6-.13.24-.25.5-.37.77-.12.27-.23.53-.32.77-.09.24-.17.42-.22.56Z"/><path d="M319.47,64.28c-.25,0-.47-.06-.68-.17s-.38-.3-.5-.56c-.13-.26-.19-.6-.19-1.04,0-.46.07-.88.22-1.27.15-.39.34-.72.58-1,.24-.28.52-.5.83-.66s.63-.23.97-.23c.29,0,.51.06.66.16s.27.23.38.37h.06l.38-.47h.7l-.72,3.45c-.03.17-.05.29-.05.36,0,.07.01.12.04.17s.09.07.18.07c.1,0,.19-.03.26-.08s.15-.11.21-.18.12-.14.17-.2l.28.22c-.1.15-.22.3-.35.46-.13.16-.3.29-.5.4s-.45.16-.75.16c-.23,0-.4-.04-.51-.12s-.17-.23-.17-.43c0-.05,0-.1.01-.15,0-.05.01-.11.02-.16h-.07c-.22.29-.44.51-.67.66-.23.16-.49.23-.79.23ZM319.96,63.52c.19,0,.35-.05.49-.14.14-.1.26-.24.37-.42s.2-.4.26-.65c.04-.14.08-.3.12-.49.04-.19.07-.38.1-.58s.04-.37.04-.52c0-.25-.05-.47-.15-.65-.1-.18-.27-.27-.5-.27-.21,0-.4.08-.57.23s-.31.35-.43.61c-.12.25-.21.54-.27.85s-.09.64-.09.96c0,.42.06.71.17.86.11.15.27.22.46.22Z"/><path d="M325.1,64.14h-1.23l.74-3.38c.02-.1.04-.21.06-.32.02-.11.03-.21.03-.3,0-.09-.02-.17-.07-.22-.04-.05-.13-.08-.26-.08-.05,0-.16,0-.31.02v-.36l1.51-.11h.41l-.44,1.93h.15l-.6,2.81ZM325.19,63.29l.43-1.84c.07-.13.13-.28.2-.46.07-.18.15-.36.24-.55s.2-.36.31-.52.25-.29.41-.39.34-.15.54-.15c.19,0,.34.05.46.16.12.11.18.28.18.5,0,.24-.07.42-.2.54s-.28.18-.43.18c-.13,0-.22-.03-.29-.1-.07-.07-.12-.14-.14-.2-.02-.07-.04-.1-.05-.1-.12,0-.25.08-.38.23-.13.16-.26.36-.39.6-.13.24-.25.5-.37.77-.12.27-.23.53-.32.77-.09.24-.17.42-.22.56Z"/><path d="M327.85,66.33c-.13,0-.28-.02-.44-.07s-.3-.12-.41-.23c-.11-.11-.17-.26-.17-.44,0-.17.05-.29.15-.38s.22-.13.36-.13.24.03.33.1c.09.07.16.14.21.23s.11.17.16.23c.05.07.1.1.16.1.07,0,.16-.05.27-.16s.24-.24.38-.41c.14-.17.27-.34.39-.51s.23-.33.31-.46l.66-1.04h.24l1.06-1.59c.09-.14.17-.28.23-.42.06-.14.09-.26.09-.37,0-.13-.04-.25-.12-.34-.08-.09-.16-.19-.23-.29s-.11-.22-.11-.36.05-.26.14-.35c.09-.09.23-.13.4-.13.23,0,.4.07.52.22.12.15.18.35.18.59,0,.18-.04.39-.11.63-.07.24-.2.5-.37.78-.13.2-.26.4-.39.6s-.27.39-.4.58-.26.37-.39.55c-.13.18-.25.35-.37.51-.42.57-.77,1.04-1.07,1.42-.29.38-.56.66-.82.84-.25.19-.52.28-.82.28ZM330.38,63.33l-.88,1.17-.71-3.65c-.03-.17-.06-.33-.1-.47-.04-.14-.11-.26-.2-.35-.09-.09-.24-.14-.44-.14-.06,0-.12,0-.19.01-.07,0-.11,0-.13,0v-.38l1.51-.11h.37c.08.13.14.25.19.37.05.12.09.27.13.45.04.18.08.4.13.66l.23,1.26.08,1.18Z"/><path d="M334.68,66.41c-.37,0-.67-.07-.89-.21-.22-.14-.33-.35-.33-.62,0-.15.04-.28.13-.4.09-.12.22-.18.39-.18s.29.05.37.15.12.21.15.34c.03.13.06.24.09.33s.1.14.2.14c.09,0,.18-.05.26-.14.08-.09.15-.22.22-.37.07-.16.13-.33.18-.52.05-.19.1-.38.14-.58.04-.2.08-.38.11-.55l.64-3.36c.02-.13.03-.23.03-.32,0-.07-.02-.13-.06-.19-.04-.06-.13-.09-.26-.09-.09,0-.2,0-.34.02v-.36l1.58-.11h.41l-.73,4c-.05.24-.1.5-.17.77s-.16.55-.27.81c-.11.27-.25.51-.41.72s-.36.39-.6.52c-.24.13-.52.19-.84.19ZM337.23,58.68c-.22,0-.39-.06-.52-.18-.13-.12-.19-.29-.19-.49s.06-.38.19-.51.3-.19.52-.19.4.06.52.19.18.29.18.5-.06.38-.18.5c-.12.12-.3.18-.52.18Z"/><path d="M339.36,64.25c-.28,0-.48-.08-.59-.23-.11-.15-.17-.35-.17-.59,0-.12.01-.25.04-.38s.05-.25.08-.36l.5-2.13c.02-.1.03-.18.04-.25,0-.07.01-.13.01-.17,0-.08-.03-.15-.08-.2-.05-.05-.14-.08-.26-.08-.08,0-.15,0-.21,0-.06,0-.1,0-.12,0v-.37l1.6-.11h.44l-.71,3.09s-.03.11-.04.2c-.01.09-.02.17-.02.24,0,.13.02.23.07.31.04.08.11.12.2.12.13,0,.26-.05.4-.15.14-.1.28-.24.41-.41.13-.17.26-.37.38-.58.12-.21.23-.43.32-.65s.15-.43.19-.63l.33-1.5h1.2l-.72,3.49c-.04.21-.06.36-.06.43,0,.04.01.08.04.11.03.04.08.06.16.06.11,0,.22-.04.32-.11.1-.07.19-.15.26-.23.07-.08.11-.13.12-.15l.27.2c-.12.19-.25.37-.4.52-.15.16-.32.28-.51.37-.2.09-.44.13-.72.13-.27,0-.46-.05-.59-.14s-.19-.24-.19-.44c0-.15.02-.29.05-.44.04-.15.08-.32.12-.52h-.11c-.07.12-.17.27-.29.44-.12.18-.27.35-.43.52-.17.17-.36.31-.58.42-.22.11-.47.17-.75.17Z"/><path d="M345.56,64.14h-1.2l.8-3.7c.03-.15.04-.25.04-.32,0-.09-.02-.16-.07-.21-.05-.05-.14-.07-.27-.07-.05,0-.16,0-.31.02v-.36l1.61-.11h.31l-.45,1.83h.19l-.66,2.91ZM348.26,64.14h-1.21c.11-.39.2-.73.27-1.01.08-.28.14-.53.2-.75s.11-.44.16-.66.1-.46.16-.73c0,0,0-.06.03-.15.02-.1.02-.19.02-.27,0-.1-.02-.18-.05-.25s-.1-.1-.19-.1c-.15,0-.31.09-.48.26-.17.17-.35.4-.52.68-.18.28-.34.58-.48.9-.15.32-.27.62-.37.9l.27-1.6c.09-.16.21-.35.35-.57.14-.22.3-.44.49-.66.19-.22.4-.4.64-.54.24-.14.51-.21.81-.21s.49.07.58.22c.1.15.14.31.14.48,0,.13-.01.27-.04.4-.03.13-.04.21-.05.23l-.16.56h.14l-.48,1.79-.24,1.11ZM350.69,64.25c-.32,0-.53-.06-.64-.19s-.16-.27-.16-.42c0-.07,0-.15.02-.22s.02-.13.03-.15l.52-1.84c.03-.11.07-.26.1-.43.04-.17.05-.32.05-.43,0-.09-.02-.18-.05-.25-.03-.07-.1-.11-.19-.11-.11,0-.24.06-.38.19-.14.13-.28.3-.43.52-.15.22-.29.45-.43.7s-.26.5-.37.75c-.11.25-.19.47-.25.67l.37-1.66c.13-.25.27-.5.42-.74.16-.24.33-.46.52-.65.19-.19.39-.35.61-.46.22-.11.45-.17.7-.17.29,0,.48.07.57.21.1.14.14.31.14.49,0,.14-.01.29-.04.44s-.05.26-.06.31l-.58,2.27c-.02.1-.03.18-.03.23,0,.13.07.2.2.2.17,0,.31-.06.42-.17s.21-.22.29-.31l.27.2c-.05.06-.11.15-.18.26-.08.11-.18.23-.3.35-.13.12-.28.22-.47.3-.19.08-.41.12-.67.12Z"/><path d="M354.87,66.33h-2.36l1.26-5.97s.01-.06.02-.09c0-.03,0-.06,0-.09,0-.1-.03-.17-.08-.22s-.15-.07-.29-.07c-.07,0-.17,0-.3.02v-.34l1.58-.15h.33l-.15.76h.1l-1,4.88s-.02.11-.03.19-.01.15-.01.2c0,.13.07.25.2.36.14.11.4.16.8.16l-.08.36ZM355.15,64.25c-.23,0-.44-.04-.62-.11s-.32-.14-.4-.19l.11-.6c.1.1.22.19.36.27s.31.12.5.12c.29,0,.54-.11.75-.32s.38-.52.5-.9c.12-.39.18-.83.18-1.35,0-.33-.03-.58-.1-.75s-.15-.28-.24-.34c-.1-.06-.19-.08-.28-.08-.19,0-.36.06-.51.17-.15.12-.27.26-.38.44-.11.18-.2.36-.27.56l.05-.86c.19-.2.36-.37.51-.52.16-.15.32-.26.48-.33.17-.08.36-.11.57-.11.27,0,.51.06.72.19.22.13.39.32.51.58.13.26.19.6.19,1.02,0,.62-.12,1.16-.36,1.62-.24.46-.56.83-.95,1.09-.4.26-.83.39-1.32.39Z"/><path class="d" d="M68.32,117.52l-.31-.03s0-.22.03-.26c.39,0,.8.02,1.14.02s.67,0,1.08-.02c.04.08.02.22-.02.26l-.28.03c-.37.04-.5.16-.56.41l-.39,1.99c.33-.02.55-.15.76-.35l1.76-1.58c.16-.15.26-.28.26-.36,0-.06-.06-.11-.21-.13l-.17-.02s-.06-.03-.05-.07l.03-.17.03-.02c.4,0,.65.02,1,.02s.44,0,.84-.02l.03.02-.04.17s-.06.07-.11.07c-.36.04-.7.1-1.18.54l-1.47,1.35c-.34.31-.39.38-.4.44,0,.07,0,.13.06.22l1.44,2.33c.16.28.35.37.59.4h.05s.07.04.06.08l-.03.17-.04.02c-.4,0-.56-.02-.89-.02-.26,0-.43,0-.61.02v-.02s0-.05,0-.05c.02-.07.04-.16.04-.26,0-.11-.03-.22-.09-.34l-1.06-1.78c-.13-.24-.36-.34-.66-.34l.02-.12-.43,2.21c-.05.27.04.39.39.41l.31.03s0,.22-.03.26c-.39,0-.8-.02-1.14-.02s-.67,0-1.08.02c-.04-.08-.02-.22.02-.26l.28-.03c.37-.04.5-.16.56-.41l.87-4.42c.05-.27-.04-.39-.39-.41Z"/><path class="d" d="M73.35,124.49c-.29,0-.49-.04-.61-.12-.11-.08-.17-.18-.17-.3,0-.11.04-.21.11-.3s.18-.13.32-.13c.09,0,.16.02.23.07s.13.1.2.16c.07.06.14.11.22.16s.18.07.29.07c.24,0,.44-.04.6-.13.17-.09.29-.21.38-.38s.13-.37.13-.61-.05-.43-.16-.56c-.11-.13-.27-.22-.47-.28s-.45-.09-.73-.11c-.09,0-.16,0-.2,0h-.12l-.07-.15.7-2.09h2.28l-.21.71h-1.91l-.25.79c.2,0,.42.02.65.05.23.03.45.1.65.19.2.09.37.22.5.4.13.17.19.4.19.68,0,.32-.07.6-.2.83-.14.24-.32.43-.56.59-.24.16-.51.27-.81.35-.31.08-.63.12-.96.12Z"/><path class="d" d="M97.42,117.52l-.31-.03s0-.22.03-.26c.39,0,.8.02,1.14.02s.67,0,1.08-.02c.04.08.02.22-.02.26l-.28.03c-.37.04-.5.16-.56.41l-.39,1.99c.33-.02.55-.15.76-.35l1.76-1.58c.16-.15.26-.28.26-.36,0-.06-.06-.11-.21-.13l-.17-.02s-.06-.03-.05-.07l.03-.17.03-.02c.4,0,.65.02,1,.02s.44,0,.84-.02l.03.02-.04.17s-.06.07-.11.07c-.36.04-.7.1-1.18.54l-1.47,1.35c-.34.31-.39.38-.4.44,0,.07,0,.13.06.22l1.44,2.33c.16.28.35.37.59.4h.05s.07.04.06.08l-.03.17-.04.02c-.4,0-.56-.02-.89-.02-.26,0-.43,0-.61.02v-.02s0-.05,0-.05c.02-.07.04-.16.04-.26,0-.11-.03-.22-.09-.34l-1.06-1.78c-.13-.24-.36-.34-.66-.34l.02-.12-.43,2.21c-.05.27.04.39.39.41l.31.03s0,.22-.03.26c-.39,0-.8-.02-1.14-.02s-.67,0-1.08.02c-.04-.08-.02-.22.02-.26l.28-.03c.37-.04.5-.16.56-.41l.87-4.42c.05-.27-.04-.39-.39-.41Z"/><path class="d" d="M104.15,124.38h-.88l.79-3.68h-.02l-1.67,1.94v.03s2.8,0,2.8,0l-.15.71h-3.32l.13-.65,2.64-3.03h.68l-1,4.69Z"/><path class="d" d="M126.53,117.52l-.31-.03s0-.22.03-.26c.39,0,.8.02,1.14.02s.67,0,1.08-.02c.04.08.02.22-.02.26l-.28.03c-.37.04-.5.16-.56.41l-.39,1.99c.33-.02.55-.15.76-.35l1.76-1.58c.16-.15.26-.28.26-.36,0-.06-.06-.11-.21-.13l-.17-.02s-.06-.03-.05-.07l.03-.17.03-.02c.4,0,.65.02,1,.02s.44,0,.84-.02l.03.02-.04.17s-.06.07-.11.07c-.36.04-.7.1-1.18.54l-1.47,1.35c-.34.31-.39.38-.4.44,0,.07,0,.13.06.22l1.44,2.33c.16.28.35.37.59.4h.05s.07.04.06.08l-.03.17-.04.02c-.4,0-.56-.02-.89-.02-.26,0-.43,0-.61.02v-.02s0-.05,0-.05c.02-.07.04-.16.04-.26,0-.11-.03-.22-.09-.34l-1.06-1.78c-.13-.24-.36-.34-.66-.34l.02-.12-.43,2.21c-.05.27.04.39.39.41l.31.03s0,.22-.03.26c-.39,0-.8-.02-1.14-.02s-.67,0-1.08.02c-.04-.08-.02-.22.02-.26l.28-.03c.37-.04.5-.16.56-.41l.87-4.42c.05-.27-.04-.39-.39-.41Z"/><path class="d" d="M131.58,124.48c-.2,0-.36-.02-.48-.05-.12-.03-.2-.08-.24-.15-.05-.07-.07-.14-.07-.22,0-.1.03-.2.1-.29.07-.09.17-.13.31-.13.09,0,.17.02.24.07s.14.1.21.16.15.11.23.16c.08.05.18.07.29.07.17,0,.33-.04.48-.12.15-.08.27-.21.36-.37.09-.17.13-.37.13-.61,0-.19-.04-.35-.12-.48s-.2-.22-.36-.29c-.15-.07-.34-.1-.56-.1h-.14l.09-.38h.14c.18,0,.36-.04.54-.13.18-.09.33-.21.45-.37.12-.16.18-.33.18-.53,0-.17-.05-.3-.16-.39-.1-.08-.25-.13-.43-.13-.22,0-.4.05-.56.15-.16.1-.31.23-.47.41l-.19-.12c.22-.31.46-.56.72-.73.26-.17.56-.25.9-.25s.61.08.8.24.27.36.27.6c0,.21-.04.39-.13.53s-.21.27-.37.37c-.16.1-.36.21-.59.31v.04c.28.1.5.23.65.41.15.17.23.39.23.63,0,.28-.07.52-.2.73s-.31.39-.55.53-.49.25-.78.32c-.29.07-.6.11-.92.11Z"/><path class="d" d="M155.63,117.52l-.31-.03s0-.22.03-.26c.39,0,.8.02,1.14.02s.67,0,1.08-.02c.04.08.02.22-.02.26l-.28.03c-.37.04-.5.16-.56.41l-.39,1.99c.33-.02.55-.15.76-.35l1.76-1.58c.16-.15.26-.28.26-.36,0-.06-.06-.11-.21-.13l-.17-.02s-.06-.03-.05-.07l.03-.17.03-.02c.4,0,.65.02,1,.02s.44,0,.84-.02l.03.02-.04.17s-.06.07-.11.07c-.36.04-.7.1-1.18.54l-1.47,1.35c-.34.31-.39.38-.4.44,0,.07,0,.13.06.22l1.44,2.33c.16.28.35.37.59.4h.05s.07.04.06.08l-.03.17-.04.02c-.4,0-.56-.02-.89-.02-.26,0-.43,0-.61.02v-.02s0-.05,0-.05c.02-.07.04-.16.04-.26,0-.11-.03-.22-.09-.34l-1.06-1.78c-.13-.24-.36-.34-.66-.34l.02-.12-.43,2.21c-.05.27.04.39.39.41l.31.03s0,.22-.03.26c-.39,0-.8-.02-1.14-.02s-.67,0-1.08.02c-.04-.08-.02-.22.02-.26l.28-.03c.37-.04.5-.16.56-.41l.87-4.42c.05-.27-.04-.39-.39-.41Z"/><path class="d" d="M162.6,124.38h-2.91l.08-.4,1.23-.98c.28-.23.51-.44.7-.62.19-.18.34-.35.46-.52.11-.16.2-.32.24-.49.05-.16.07-.34.07-.53s-.05-.35-.16-.47c-.11-.12-.26-.18-.47-.18s-.42.05-.6.15c-.18.1-.37.28-.56.54l-.22-.11c.2-.35.46-.63.76-.82.3-.19.65-.29,1.03-.29.36,0,.64.09.84.28.2.18.31.43.31.74,0,.25-.06.49-.17.7-.12.22-.3.44-.55.66-.25.23-.57.49-.96.78l-1.05.78v.05s.49-.04.49-.04h.93c.13,0,.24-.02.32-.06.08-.04.16-.1.23-.19s.15-.2.23-.35h.25l-.52,1.35Z"/><path class="d" d="M184.73,117.52l-.31-.03s0-.22.03-.26c.39,0,.8.02,1.14.02s.67,0,1.08-.02c.04.08.02.22-.02.26l-.28.03c-.37.04-.5.16-.56.41l-.39,1.99c.33-.02.55-.15.76-.35l1.76-1.58c.16-.15.26-.28.26-.36,0-.06-.06-.11-.21-.13l-.17-.02s-.06-.03-.05-.07l.03-.17.03-.02c.4,0,.65.02,1,.02s.44,0,.84-.02l.03.02-.04.17s-.06.07-.11.07c-.36.04-.7.1-1.18.54l-1.47,1.35c-.34.31-.39.38-.4.44,0,.07,0,.13.06.22l1.44,2.33c.16.28.35.37.59.4h.05s.07.04.06.08l-.03.17-.04.02c-.4,0-.56-.02-.89-.02-.26,0-.43,0-.61.02v-.02s0-.05,0-.05c.02-.07.04-.16.04-.26,0-.11-.03-.22-.09-.34l-1.06-1.78c-.13-.24-.36-.34-.66-.34l.02-.12-.43,2.21c-.05.27.04.39.39.41l.31.03s0,.22-.03.26c-.39,0-.8-.02-1.14-.02s-.67,0-1.08.02c-.04-.08-.02-.22.02-.26l.28-.03c.37-.04.5-.16.56-.41l.87-4.42c.05-.27-.04-.39-.39-.41Z"/><path class="d" d="M191.86,124.38h-2.77l.06-.27c.23,0,.41-.02.55-.05.14-.03.25-.08.32-.15s.12-.17.15-.29l.62-2.92s.02-.07.02-.1c0-.03,0-.06,0-.08,0-.12-.06-.17-.19-.17-.05,0-.12,0-.2.01s-.18.02-.27.03c-.1.01-.19.03-.27.05l.07-.31,1.58-.4h.39l-.84,3.89s0,.04-.01.06c0,.02,0,.04,0,.06,0,.13.07.23.2.28s.35.09.65.09l-.06.27Z"/><path class="d" d="M208.51,124.14c-.49.64-.86.93-1.27.93-.71,0-.82-.65-.82-1.05,0-1.14,1.11-2.22,1.98-2.22.31,0,.55.18.65.4h0l.28-1.29c.03-.16.06-.28.06-.36,0-.16-.07-.2-.17-.2h-.25s-.04-.03-.04-.05l.03-.19c.32-.02.89-.12,1.1-.19.07,0,.09.02.09.07,0,0-.08.29-.2.76l-.83,3.37c-.03.14-.07.34-.07.41,0,.09.07.1.09.1.08,0,.22-.12.43-.39.1,0,.15.05.18.12-.21.41-.54.71-1.04.71-.28,0-.33-.19-.33-.33,0-.09.04-.23.09-.4l.05-.19h-.02ZM208.87,122.7c0-.25-.14-.63-.44-.63-.74,0-1.34,1.07-1.34,1.84,0,.41.06.83.31.83.31,0,.76-.49,1.16-1.15.23-.39.31-.72.31-.89ZM211.41,125.03c0,.51-.46.87-.94.95-.05-.05-.07-.12-.07-.19.41-.09.68-.41.68-.57,0-.17-.13-.21-.28-.23-.14-.02-.34-.09-.34-.32,0-.2.17-.37.41-.37.32,0,.53.28.53.72ZM213.18,124.1c-.04.19-.09.35-.09.41,0,.09.02.12.08.12.08,0,.31-.15.52-.36.12,0,.17.06.2.12-.39.43-.75.68-1.15.68-.25,0-.34-.1-.34-.24s.09-.44.14-.67l.39-1.5c.05-.2.07-.31.07-.37,0-.07-.04-.14-.14-.15l-.31-.02c-.04-.07-.07-.15,0-.2.39-.04.74-.09,1-.09.1,0,.17.05.17.15,0,.12-.09.41-.17.69l-.38,1.43ZM213.58,120.5c.22,0,.41.16.41.35s-.19.35-.41.35-.41-.16-.41-.35.19-.35.41-.35Z"/><path class="d" d="M218.64,117.52l-.31-.03s0-.22.03-.26c.39,0,.8.02,1.14.02s.67,0,1.08-.02c.04.08.02.22-.02.26l-.28.03c-.37.04-.5.16-.56.41l-.39,1.99c.33-.02.55-.15.76-.35l1.76-1.58c.16-.15.26-.28.26-.36,0-.06-.06-.11-.21-.13l-.17-.02s-.06-.03-.05-.07l.03-.17.03-.02c.4,0,.65.02,1,.02s.44,0,.84-.02l.03.02-.04.17s-.06.07-.11.07c-.36.04-.7.1-1.18.54l-1.47,1.35c-.34.31-.39.38-.4.44,0,.07,0,.13.06.22l1.44,2.33c.16.28.35.37.59.4h.05s.07.04.06.08l-.03.17-.04.02c-.4,0-.56-.02-.89-.02-.26,0-.43,0-.61.02v-.02s0-.05,0-.05c.02-.07.04-.16.04-.26,0-.11-.03-.22-.09-.34l-1.06-1.78c-.13-.24-.36-.34-.66-.34l.02-.12-.43,2.21c-.05.27.04.39.39.41l.31.03s0,.22-.03.26c-.39,0-.8-.02-1.14-.02s-.67,0-1.08.02c-.04-.08-.02-.22.02-.26l.28-.03c.37-.04.5-.16.56-.41l.87-4.42c.05-.27-.04-.39-.39-.41Z"/><path class="d" d="M225.61,126.26h-2.91l.08-.4,1.23-.98c.28-.23.51-.44.7-.62.19-.18.34-.35.46-.52s.2-.32.24-.49c.05-.16.07-.34.07-.53s-.05-.35-.16-.47c-.11-.12-.26-.18-.47-.18s-.42.05-.6.15c-.18.1-.37.28-.56.54l-.22-.11c.2-.35.46-.63.76-.82.3-.19.64-.29,1.03-.29.36,0,.64.09.84.28.2.18.3.43.3.74,0,.25-.06.49-.17.7-.12.22-.3.44-.55.66-.25.23-.57.49-.96.78l-1.05.78v.05s.49-.04.49-.04h.93c.13,0,.24-.02.32-.06.08-.04.16-.1.23-.19.07-.08.15-.2.23-.35h.25l-.52,1.35Z"/><path class="d" d="M242.42,124.14c-.49.64-.86.93-1.27.93-.71,0-.82-.65-.82-1.05,0-1.14,1.11-2.22,1.98-2.22.31,0,.55.18.65.4h0l.28-1.29c.03-.16.06-.28.06-.36,0-.16-.07-.2-.17-.2h-.25s-.04-.03-.04-.05l.03-.19c.32-.02.89-.12,1.1-.19.07,0,.09.02.09.07,0,0-.08.29-.2.76l-.83,3.37c-.03.14-.07.34-.07.41,0,.09.07.1.09.1.08,0,.22-.12.43-.39.1,0,.15.05.18.12-.21.41-.54.71-1.04.71-.28,0-.33-.19-.33-.33,0-.09.04-.23.09-.4l.05-.19h-.02ZM242.78,122.7c0-.25-.14-.63-.44-.63-.74,0-1.34,1.07-1.34,1.84,0,.41.06.83.31.83.31,0,.76-.49,1.16-1.15.23-.39.31-.72.31-.89ZM245.32,125.03c0,.51-.46.87-.94.95-.05-.05-.07-.12-.07-.19.41-.09.68-.41.68-.57,0-.17-.13-.21-.28-.23-.14-.02-.34-.09-.34-.32,0-.2.17-.37.41-.37.32,0,.53.28.53.72ZM247.09,124.1c-.04.19-.09.35-.09.41,0,.09.02.12.08.12.08,0,.31-.15.52-.36.12,0,.17.06.2.12-.39.43-.75.68-1.15.68-.25,0-.34-.1-.34-.24s.09-.44.14-.67l.39-1.5c.05-.2.07-.31.07-.37,0-.07-.04-.14-.14-.15l-.31-.02c-.04-.07-.07-.15,0-.2.39-.04.74-.09,1-.09.1,0,.17.05.17.15,0,.12-.09.41-.17.69l-.38,1.43ZM247.49,120.5c.22,0,.41.16.41.35s-.19.35-.41.35-.41-.16-.41-.35.19-.35.41-.35Z"/><path class="d" d="M252.56,117.52l-.31-.03s0-.22.03-.26c.39,0,.8.02,1.14.02s.67,0,1.08-.02c.04.08.02.22-.02.26l-.28.03c-.37.04-.5.16-.56.41l-.39,1.99c.33-.02.55-.15.76-.35l1.76-1.58c.16-.15.26-.28.26-.36,0-.06-.06-.11-.21-.13l-.17-.02s-.06-.03-.05-.07l.03-.17.03-.02c.4,0,.65.02,1,.02s.44,0,.84-.02l.03.02-.04.17s-.06.07-.11.07c-.36.04-.7.1-1.18.54l-1.47,1.35c-.34.31-.39.38-.4.44,0,.07,0,.13.06.22l1.44,2.33c.16.28.35.37.59.4h.05s.07.04.06.08l-.03.17-.04.02c-.4,0-.56-.02-.89-.02-.26,0-.43,0-.61.02v-.02s0-.05,0-.05c.02-.07.04-.16.04-.26,0-.11-.03-.22-.09-.34l-1.06-1.78c-.13-.24-.36-.34-.66-.34l.02-.12-.43,2.21c-.05.27.04.39.39.41l.31.03s0,.22-.03.26c-.39,0-.8-.02-1.14-.02s-.67,0-1.08.02c-.04-.08-.02-.22.02-.26l.28-.03c.37-.04.5-.16.56-.41l.87-4.42c.05-.27-.04-.39-.39-.41Z"/><path class="d" d="M257.61,126.37c-.2,0-.36-.02-.48-.05-.12-.03-.2-.08-.24-.15-.05-.07-.07-.14-.07-.22,0-.1.03-.2.1-.29.07-.09.17-.13.3-.13.09,0,.17.02.24.07s.14.1.21.16.15.11.23.16c.08.05.18.07.29.07.17,0,.33-.04.48-.12s.27-.21.36-.37c.09-.17.13-.37.13-.61,0-.19-.04-.35-.12-.48-.08-.13-.2-.22-.36-.29s-.34-.1-.56-.1h-.14l.09-.38h.14c.18,0,.36-.04.54-.13.18-.09.33-.21.45-.37.12-.16.18-.33.18-.53,0-.17-.05-.3-.16-.39-.1-.08-.25-.13-.43-.13-.22,0-.4.05-.56.15-.16.1-.31.23-.47.41l-.19-.12c.22-.31.46-.56.72-.73.26-.17.56-.25.9-.25s.61.08.8.24c.18.16.27.36.27.6,0,.21-.04.39-.13.53s-.21.27-.38.37c-.16.1-.36.21-.59.31v.04c.28.1.5.23.65.41.15.17.23.39.23.63,0,.28-.07.52-.2.73-.13.21-.32.39-.55.53s-.49.25-.78.32c-.29.07-.6.11-.92.11Z"/><path class="d" d="M276.33,124.14c-.49.64-.86.93-1.27.93-.71,0-.82-.65-.82-1.05,0-1.14,1.11-2.22,1.98-2.22.31,0,.55.18.65.4h0l.28-1.29c.03-.16.06-.28.06-.36,0-.16-.07-.2-.17-.2h-.25s-.04-.03-.04-.05l.03-.19c.32-.02.89-.12,1.1-.19.07,0,.09.02.09.07,0,0-.08.29-.2.76l-.83,3.37c-.03.14-.07.34-.07.41,0,.09.07.1.09.1.08,0,.22-.12.43-.39.1,0,.15.05.18.12-.21.41-.54.71-1.04.71-.28,0-.33-.19-.33-.33,0-.09.04-.23.09-.4l.05-.19h-.02ZM276.69,122.7c0-.25-.14-.63-.44-.63-.74,0-1.34,1.07-1.34,1.84,0,.41.06.83.31.83.31,0,.76-.49,1.16-1.15.23-.39.31-.72.31-.89ZM279.23,125.03c0,.51-.46.87-.94.95-.05-.05-.07-.12-.07-.19.41-.09.68-.41.68-.57,0-.17-.13-.21-.28-.23-.14-.02-.34-.09-.34-.32,0-.2.17-.37.41-.37.32,0,.53.28.53.72ZM281,124.1c-.04.19-.09.35-.09.41,0,.09.02.12.08.12.08,0,.31-.15.52-.36.12,0,.17.06.2.12-.39.43-.75.68-1.15.68-.25,0-.34-.1-.34-.24s.09-.44.14-.67l.39-1.5c.05-.2.07-.31.07-.37,0-.07-.04-.14-.14-.15l-.31-.02c-.04-.07-.07-.15,0-.2.39-.04.74-.09,1-.09.1,0,.17.05.17.15,0,.12-.09.41-.17.69l-.38,1.43ZM281.4,120.5c.22,0,.41.16.41.35s-.19.35-.41.35-.41-.16-.41-.35.19-.35.41-.35Z"/><path class="d" d="M286.47,117.52l-.31-.03s0-.22.03-.26c.39,0,.8.02,1.14.02s.67,0,1.08-.02c.04.08.02.22-.02.26l-.28.03c-.37.04-.5.16-.56.41l-.39,1.99c.33-.02.55-.15.76-.35l1.76-1.58c.16-.15.26-.28.26-.36,0-.06-.06-.11-.21-.13l-.17-.02s-.06-.03-.05-.07l.03-.17.03-.02c.4,0,.65.02,1,.02s.44,0,.84-.02l.03.02-.04.17s-.06.07-.11.07c-.36.04-.7.1-1.18.54l-1.47,1.35c-.34.31-.39.38-.4.44,0,.07,0,.13.06.22l1.44,2.33c.16.28.35.37.59.4h.05s.07.04.06.08l-.03.17-.04.02c-.4,0-.56-.02-.89-.02-.26,0-.43,0-.61.02v-.02s0-.05,0-.05c.02-.07.04-.16.04-.26,0-.11-.03-.22-.09-.34l-1.06-1.78c-.13-.24-.36-.34-.66-.34l.02-.12-.43,2.21c-.05.27.04.39.39.41l.31.03s0,.22-.03.26c-.39,0-.8-.02-1.14-.02s-.67,0-1.08.02c-.04-.08-.02-.22.02-.26l.28-.03c.37-.04.5-.16.56-.41l.87-4.42c.05-.27-.04-.39-.39-.41Z"/><path class="d" d="M293.19,126.26h-.88l.79-3.68h-.02l-1.67,1.94v.03s2.8,0,2.8,0l-.15.71h-3.32l.13-.65,2.64-3.03h.68l-1,4.69Z"/><path class="d" d="M90.07,121.31v.12c-.58.25-1.12.58-1.6,1.01-.48.42-.92.87-1.32,1.34l-.25-.24c.14-.2.3-.4.47-.59.17-.2.35-.39.53-.58.11-.11.17-.23.17-.35,0-.06-.02-.11-.07-.16-.04-.05-.11-.08-.2-.08h-5.23c-.32,0-.65-.07-.98-.22s-.62-.37-.85-.67c-.23-.3-.34-.68-.34-1.15,0-.44.1-.81.29-1.12.2-.3.44-.54.74-.7.3-.16.61-.24.92-.24h1.21v.82h-1.18c-.36,0-.65.11-.86.34s-.32.53-.32.91c0,.4.14.7.43.91.28.2.61.31.98.31h5.17c.1,0,.17-.03.22-.09s.07-.12.07-.17c0-.1-.06-.2-.17-.31-.38-.36-.72-.75-1.01-1.18l.25-.24c.4.46.84.91,1.31,1.33.48.42,1.01.76,1.59,1.01Z"/><path class="d" d="M90.37,126h-.73l.52-2.4c.01-.07.03-.14.04-.22.01-.08.02-.15.02-.21,0-.06-.01-.12-.04-.15-.03-.04-.09-.06-.19-.06-.04,0-.11,0-.22.01v-.22l1.02-.08h.22l-.33,1.43h.1l-.41,1.9ZM90.44,125.39l.29-1.2c.04-.09.09-.2.15-.33.06-.13.12-.26.19-.4.07-.14.15-.27.24-.4.09-.12.19-.22.29-.3.11-.07.23-.11.36-.11.12,0,.22.04.3.11.08.07.12.18.12.33,0,.16-.04.28-.13.35-.08.08-.18.12-.28.12-.08,0-.15-.02-.19-.07-.04-.04-.08-.09-.09-.14-.02-.05-.03-.07-.04-.07-.07,0-.16.06-.25.17-.09.11-.19.26-.28.43-.1.18-.19.36-.27.56-.09.19-.16.38-.23.55-.07.17-.12.3-.16.4Z"/><path class="d" d="M119.87,121.31v.12c-.58.25-1.12.58-1.6,1.01-.48.42-.92.87-1.32,1.34l-.25-.24c.14-.2.3-.4.47-.59.17-.2.35-.39.53-.58.11-.11.17-.23.17-.35,0-.06-.02-.11-.07-.16-.04-.05-.11-.08-.2-.08h-5.23c-.32,0-.65-.07-.98-.22s-.62-.37-.85-.67c-.23-.3-.34-.68-.34-1.15,0-.44.1-.81.29-1.12.2-.3.44-.54.74-.7.3-.16.61-.24.92-.24h1.21v.82h-1.18c-.36,0-.65.11-.86.34s-.32.53-.32.91c0,.4.14.7.43.91.28.2.61.31.98.31h5.17c.1,0,.17-.03.22-.09s.07-.12.07-.17c0-.1-.06-.2-.17-.31-.38-.36-.72-.75-1.01-1.18l.25-.24c.4.46.84.91,1.31,1.33.48.42,1.01.76,1.59,1.01Z"/><path class="d" d="M120.17,126h-.73l.52-2.4c.01-.07.03-.14.04-.22.01-.08.02-.15.02-.21,0-.06-.01-.12-.04-.15-.03-.04-.09-.06-.19-.06-.04,0-.11,0-.22.01v-.22l1.02-.08h.22l-.33,1.43h.1l-.41,1.9ZM120.24,125.39l.29-1.2c.04-.09.09-.2.15-.33.06-.13.12-.26.19-.4.07-.14.15-.27.24-.4.09-.12.19-.22.29-.3.11-.07.23-.11.36-.11.12,0,.22.04.3.11.08.07.12.18.12.33,0,.16-.04.28-.13.35-.08.08-.18.12-.28.12-.08,0-.15-.02-.19-.07-.04-.04-.08-.09-.09-.14-.02-.05-.03-.07-.04-.07-.07,0-.16.06-.25.17-.09.11-.19.26-.28.43-.1.18-.19.36-.27.56-.09.19-.16.38-.23.55-.07.17-.12.3-.16.4Z"/><path class="d" d="M148.77,121.31v.12c-.58.25-1.12.58-1.6,1.01-.48.42-.92.87-1.32,1.34l-.25-.24c.14-.2.3-.4.47-.59.17-.2.35-.39.53-.58.11-.11.17-.23.17-.35,0-.06-.02-.11-.07-.16-.04-.05-.11-.08-.2-.08h-5.23c-.32,0-.65-.07-.98-.22s-.62-.37-.85-.67c-.23-.3-.34-.68-.34-1.15,0-.44.1-.81.29-1.12.2-.3.44-.54.74-.7.3-.16.61-.24.92-.24h1.21v.82h-1.18c-.36,0-.65.11-.86.34s-.32.53-.32.91c0,.4.14.7.43.91.28.2.61.31.98.31h5.17c.1,0,.17-.03.22-.09s.07-.12.07-.17c0-.1-.06-.2-.17-.31-.38-.36-.72-.75-1.01-1.18l.25-.24c.4.46.84.91,1.31,1.33.48.42,1.01.76,1.59,1.01Z"/><path class="d" d="M149.07,126h-.73l.52-2.4c.01-.07.03-.14.04-.22.01-.08.02-.15.02-.21,0-.06-.01-.12-.04-.15-.03-.04-.09-.06-.19-.06-.04,0-.11,0-.22.01v-.22l1.02-.08h.22l-.33,1.43h.1l-.41,1.9ZM149.14,125.39l.29-1.2c.04-.09.09-.2.15-.33.06-.13.12-.26.19-.4.07-.14.15-.27.24-.4.09-.12.19-.22.29-.3.11-.07.23-.11.36-.11.12,0,.22.04.3.11.08.07.12.18.12.33,0,.16-.04.28-.13.35-.08.08-.18.12-.28.12-.08,0-.15-.02-.19-.07-.04-.04-.08-.09-.09-.14-.02-.05-.03-.07-.04-.07-.07,0-.16.06-.25.17-.09.11-.19.26-.28.43-.1.18-.19.36-.27.56-.09.19-.16.38-.23.55-.07.17-.12.3-.16.4Z"/><path class="d" d="M178.21,121.31v.12c-.58.25-1.12.58-1.6,1.01-.48.42-.92.87-1.32,1.34l-.25-.24c.14-.2.3-.4.47-.59.17-.2.35-.39.53-.58.11-.11.17-.23.17-.35,0-.06-.02-.11-.07-.16-.04-.05-.11-.08-.2-.08h-5.23c-.32,0-.65-.07-.98-.22s-.62-.37-.85-.67c-.23-.3-.34-.68-.34-1.15,0-.44.1-.81.29-1.12.2-.3.44-.54.74-.7.3-.16.61-.24.92-.24h1.21v.82h-1.18c-.36,0-.65.11-.86.34s-.32.53-.32.91c0,.4.14.7.43.91.28.2.61.31.98.31h5.17c.1,0,.17-.03.22-.09s.07-.12.07-.17c0-.1-.06-.2-.17-.31-.38-.36-.72-.75-1.01-1.18l.25-.24c.4.46.84.91,1.31,1.33.48.42,1.01.76,1.59,1.01Z"/><path class="d" d="M178.51,126h-.73l.52-2.4c.01-.07.03-.14.04-.22.01-.08.02-.15.02-.21,0-.06-.01-.12-.04-.15-.03-.04-.09-.06-.19-.06-.04,0-.11,0-.22.01v-.22l1.02-.08h.22l-.33,1.43h.1l-.41,1.9ZM178.58,125.39l.29-1.2c.04-.09.09-.2.15-.33.06-.13.12-.26.19-.4.07-.14.15-.27.24-.4.09-.12.19-.22.29-.3.11-.07.23-.11.36-.11.12,0,.22.04.3.11.08.07.12.18.12.33,0,.16-.04.28-.13.35-.08.08-.18.12-.28.12-.08,0-.15-.02-.19-.07-.04-.04-.08-.09-.09-.14-.02-.05-.03-.07-.04-.07-.07,0-.16.06-.25.17-.09.11-.19.26-.28.43-.1.18-.19.36-.27.56-.09.19-.16.38-.23.55-.07.17-.12.3-.16.4Z"/><path class="d" d="M206.4,121.31v.12c-.58.25-1.12.58-1.6,1.01-.48.42-.92.87-1.32,1.34l-.25-.24c.14-.2.3-.4.47-.59.17-.2.35-.39.53-.58.11-.11.17-.23.17-.35,0-.06-.02-.11-.07-.16-.04-.05-.11-.08-.2-.08h-5.23c-.32,0-.65-.07-.98-.22s-.62-.37-.85-.67c-.23-.3-.34-.68-.34-1.15,0-.44.1-.81.29-1.12.2-.3.44-.54.74-.7.3-.16.61-.24.92-.24h1.21v.82h-1.18c-.36,0-.65.11-.86.34s-.32.53-.32.91c0,.4.14.7.43.91.28.2.61.31.98.31h5.17c.1,0,.17-.03.22-.09s.07-.12.07-.17c0-.1-.06-.2-.17-.31-.38-.36-.72-.75-1.01-1.18l.25-.24c.4.46.84.91,1.31,1.33.48.42,1.01.76,1.59,1.01Z"/><path class="d" d="M240.4,121.31v.12c-.58.25-1.12.58-1.6,1.01-.48.42-.92.87-1.32,1.34l-.25-.24c.14-.2.3-.4.47-.59.17-.2.35-.39.53-.58.11-.11.17-.23.17-.35,0-.06-.02-.11-.07-.16-.04-.05-.11-.08-.2-.08h-5.23c-.32,0-.65-.07-.98-.22s-.62-.37-.85-.67c-.23-.3-.34-.68-.34-1.15,0-.44.1-.81.29-1.12.2-.3.44-.54.74-.7.3-.16.61-.24.92-.24h1.21v.82h-1.18c-.36,0-.65.11-.86.34s-.32.53-.32.91c0,.4.14.7.43.91.28.2.61.31.98.31h5.17c.1,0,.17-.03.22-.09s.07-.12.07-.17c0-.1-.06-.2-.17-.31-.38-.36-.72-.75-1.01-1.18l.25-.24c.4.46.84.91,1.31,1.33.48.42,1.01.76,1.59,1.01Z"/><path class="d" d="M274.4,121.31v.12c-.58.25-1.12.58-1.6,1.01-.48.42-.92.87-1.32,1.34l-.25-.24c.14-.2.3-.4.47-.59.17-.2.35-.39.53-.58.11-.11.17-.23.17-.35,0-.06-.02-.11-.07-.16-.04-.05-.11-.08-.2-.08h-5.23c-.32,0-.65-.07-.98-.22s-.62-.37-.85-.67c-.23-.3-.34-.68-.34-1.15,0-.44.1-.81.29-1.12.2-.3.44-.54.74-.7.3-.16.61-.24.92-.24h1.21v.82h-1.18c-.36,0-.65.11-.86.34s-.32.53-.32.91c0,.4.14.7.43.91.28.2.61.31.98.31h5.17c.1,0,.17-.03.22-.09s.07-.12.07-.17c0-.1-.06-.2-.17-.31-.38-.36-.72-.75-1.01-1.18l.25-.24c.4.46.84.91,1.31,1.33.48.42,1.01.76,1.59,1.01Z"/><path class="d" d="M224.01,117.68l-.1-.21c.16-.08.33-.18.51-.31s.3-.34.38-.63l-.23-.38.53.23c-.06.04-.13.08-.21.1s-.15.04-.21.04c-.12,0-.23-.04-.33-.11-.1-.07-.16-.19-.16-.35,0-.15.05-.28.16-.39.11-.11.25-.16.44-.16s.33.06.44.17c.11.12.17.29.17.51s-.05.42-.16.59c-.11.17-.23.31-.38.44-.15.12-.3.22-.46.3-.16.08-.28.13-.39.17Z"/><path class="d" d="M257.88,117.68l-.1-.21c.16-.08.33-.18.51-.31s.3-.34.38-.63l-.23-.38.53.23c-.06.04-.13.08-.21.1s-.15.04-.21.04c-.12,0-.23-.04-.33-.11-.1-.07-.16-.19-.16-.35,0-.15.05-.28.16-.39.11-.11.25-.16.44-.16s.33.06.44.17c.11.12.17.29.17.51s-.05.42-.16.59c-.11.17-.23.31-.38.44-.15.12-.3.22-.46.3-.16.08-.28.13-.39.17Z"/><path class="d" d="M292.01,117.68l-.1-.21c.16-.08.33-.18.51-.31s.3-.34.38-.63l-.23-.38.53.23c-.06.04-.13.08-.21.1s-.15.04-.21.04c-.12,0-.23-.04-.33-.11-.1-.07-.16-.19-.16-.35,0-.15.05-.28.16-.39.11-.11.25-.16.44-.16s.33.06.44.17c.11.12.17.29.17.51s-.05.42-.16.59c-.11.17-.23.31-.38.44-.15.12-.3.22-.46.3-.16.08-.28.13-.39.17Z"/><path d="M121.84,43.55l-.1-.21c.16-.08.33-.18.51-.31s.3-.34.38-.63l-.23-.38.53.23c-.06.04-.13.08-.21.1s-.15.04-.21.04c-.12,0-.23-.04-.33-.11-.1-.07-.16-.19-.16-.35,0-.15.05-.28.16-.39.11-.11.25-.16.44-.16s.33.06.44.17c.11.12.17.29.17.51s-.05.42-.16.59c-.11.17-.23.31-.38.44-.15.12-.3.22-.46.3-.16.08-.28.13-.39.17Z"/><path d="M178.84,43.55l-.1-.21c.16-.08.33-.18.51-.31s.3-.34.38-.63l-.23-.38.53.23c-.06.04-.13.08-.21.1s-.15.04-.21.04c-.12,0-.23-.04-.33-.11-.1-.07-.16-.19-.16-.35,0-.15.05-.28.16-.39.11-.11.25-.16.44-.16s.33.06.44.17c.11.12.17.29.17.51s-.05.42-.16.59c-.11.17-.23.31-.38.44-.15.12-.3.22-.46.3-.16.08-.28.13-.39.17Z"/><path d="M234.84,43.55l-.1-.21c.16-.08.33-.18.51-.31s.3-.34.38-.63l-.23-.38.53.23c-.06.04-.13.08-.21.1s-.15.04-.21.04c-.12,0-.23-.04-.33-.11-.1-.07-.16-.19-.16-.35,0-.15.05-.28.16-.39.11-.11.25-.16.44-.16s.33.06.44.17c.11.12.17.29.17.51s-.05.42-.16.59c-.11.17-.23.31-.38.44-.15.12-.3.22-.46.3-.16.08-.28.13-.39.17Z"/><path d="M245.84,43.55l-.1-.21c.16-.08.33-.18.51-.31s.3-.34.38-.63l-.23-.38.53.23c-.06.04-.13.08-.21.1s-.15.04-.21.04c-.12,0-.23-.04-.33-.11-.1-.07-.16-.19-.16-.35,0-.15.05-.28.16-.39.11-.11.25-.16.44-.16s.33.06.44.17c.11.12.17.29.17.51s-.05.42-.16.59c-.11.17-.23.31-.38.44-.15.12-.3.22-.46.3-.16.08-.28.13-.39.17Z"/><path d="M177.43,71.51l-.1-.21c.16-.08.33-.18.51-.31s.3-.34.38-.63l-.23-.38.53.23c-.06.04-.13.08-.21.1s-.15.04-.21.04c-.12,0-.23-.04-.33-.11-.1-.07-.16-.19-.16-.35,0-.15.05-.28.16-.39.11-.11.25-.16.44-.16s.33.06.44.17c.11.12.17.29.17.51s-.05.42-.16.59c-.11.17-.23.31-.38.44-.15.12-.3.22-.46.3-.16.08-.28.13-.39.17Z"/><path d="M179.43,71.51l-.1-.21c.16-.08.33-.18.51-.31s.3-.34.38-.63l-.23-.38.53.23c-.06.04-.13.08-.21.1s-.15.04-.21.04c-.12,0-.23-.04-.33-.11-.1-.07-.16-.19-.16-.35,0-.15.05-.28.16-.39.11-.11.25-.16.44-.16s.33.06.44.17c.11.12.17.29.17.51s-.05.42-.16.59c-.11.17-.23.31-.38.44-.15.12-.3.22-.46.3-.16.08-.28.13-.39.17Z"/></g></svg>