<?xml version="1.0" encoding="UTF-8"?><svg id="b" xmlns="http://www.w3.org/2000/svg" xmlns:xlink="http://www.w3.org/1999/xlink" viewBox="0 0 437.91 248.1"><defs><style>.e{fill:#b2b2ff;}.f{stroke:red;}.f,.g,.h,.i,.j{fill:none;}.f,.h,.i,.j{stroke-miterlimit:10;}.f,.h,.j{stroke-width:.4px;}.k{letter-spacing:.43em;}.l{letter-spacing:0em;}.m{letter-spacing:0em;}.n{letter-spacing:.04em;}.o{letter-spacing:-.04em;}.h{stroke:blue;}.i{stroke:gray;stroke-width:.2px;}.p{fill:blue;}.p,.q{font-size:4.98px;}.p,.q,.r,.s{font-family:"STIX Two Text";}.t{letter-spacing:.04em;}.q{fill:red;}.u{letter-spacing:.41em;}.v{letter-spacing:-.03em;}.w{fill:#ffb2b2;}.x{clip-path:url(#d);}.r{font-size:6.97px;}.y{letter-spacing:0em;}.s{font-size:7.97px;}.j{stroke:#000;}.z{letter-spacing:.43em;}.aa{letter-spacing:.44em;}.ab{letter-spacing:.43em;}.ac{letter-spacing:-.03em;}.ad{letter-spacing:-.03em;}</style><clipPath id="d"><rect class="g" x="68.11" y=".2" width="369.6" height="225.16"/></clipPath></defs><g id="c"><path class="i" d="M429.26.2v4.25M389.13.2v4.25M349,.2v4.25M308.88.2v4.25M268.75.2v4.25M228.62.2v4.25M188.49.2v4.25M148.37.2v4.25M108.24.2v4.25M68.11.2v4.25M429.26,225.36v-4.25M389.13,225.36v-4.25M349,225.36v-4.25M308.88,225.36v-4.25M268.75,225.36v-4.25M228.62,225.36v-4.25M188.49,225.36v-4.25M148.37,225.36v-4.25M108.24,225.36v-4.25M68.11,225.36v-4.25"/><rect class="j" x="68.11" y=".2" width="369.6" height="225.16"/><text class="r" transform="translate(66.13 233.37)"><tspan x="0" y="0">0</tspan></text><text class="r" transform="translate(106.25 233.37)"><tspan x="0" y="0">5</tspan></text><text class="r" transform="translate(144.4 233.37)"><tspan x="0" y="0">10</tspan></text><text class="r" transform="translate(184.52 233.37)"><tspan x="0" y="0">15</tspan></text><text class="r" transform="translate(224.65 233.37)"><tspan x="0" y="0">20</tspan></text><text class="r" transform="translate(264.78 233.37)"><tspan x="0" y="0">25</tspan></text><text class="r" transform="translate(304.9 233.37)"><tspan x="0" y="0">30</tspan></text><text class="r" transform="translate(345.03 233.37)"><tspan x="0" y="0">35</tspan></text><text class="r" transform="translate(385.16 233.37)"><tspan x="0" y="0">40</tspan></text><text class="r" transform="translate(425.28 233.37)"><tspan x="0" y="0">45</tspan></text><text class="r" transform="translate(15.49 216.87)"><tspan x="0" y="0">f3</tspan><tspan class="k" x="5.5" y="0">2</tspan><tspan x="11.99" y="0">bi</tspan><tspan class="ad" x="17.57" y="0">t</tspan><tspan x="19.69" y="0">wis</tspan><tspan class="k" x="29.34" y="0">e</tspan><tspan x="35.82" y="0">(14)</tspan></text><text class="r" transform="translate(21.65 208.99)"><tspan x="0" y="0">l</tspan><tspan class="n" x="1.78" y="0">o</tspan><tspan x="5.81" y="0">ca</tspan><tspan class="k" x="12.5" y="0">l</tspan><tspan x="17.31" y="0">ge</tspan><tspan class="ab" x="24.28" y="0">t</tspan><tspan class="m" x="29.67" y="0">(15)</tspan></text><text class="r" transform="translate(20.87 201.12)"><tspan x="0" y="0">fun</tspan><tspan class="k" x="9.64" y="0">c</tspan><tspan x="15.85" y="0">ptr</tspan><tspan class="ab" x="24.5" y="0">s</tspan><tspan x="30.45" y="0">(16)</tspan></text><text class="r" transform="translate(30.73 193.25)"><tspan x="0" y="0">la</tspan><tspan class="t" x="5.29" y="0">b</tspan><tspan x="9.39" y="0">el</tspan><tspan class="k" x="14.63" y="0">s</tspan><tspan class="m" x="20.58" y="0">(25)</tspan></text><text class="r" transform="translate(29.55 185.38)"><tspan x="0" y="0">swit</tspan><tspan class="o" x="12.01" y="0">c</tspan><tspan class="ab" x="14.94" y="0">h</tspan><tspan class="m" x="21.76" y="0">(26)</tspan></text><text class="r" transform="translate(17.65 177.5)"><tspan x="0" y="0">i</tspan><tspan class="ac" x="1.72" y="0">n</tspan><tspan class="aa" x="5.29" y="0">t</tspan><tspan x="10.68" y="0">literal</tspan><tspan class="aa" x="27.7" y="0">s</tspan><tspan class="m" x="33.65" y="0">(</tspan><tspan class="l" x="35.77" y="0">2</tspan><tspan x="39.24" y="0">9)</tspan></text><text class="r" transform="translate(35.34 169.63)"><tspan x="0" y="0">loa</tspan><tspan class="k" x="9.07" y="0">d</tspan><tspan class="m" x="15.97" y="0">(29)</tspan></text><text class="r" transform="translate(26.51 161.76)"><tspan x="0" y="0">u</tspan><tspan class="ac" x="3.79" y="0">n</tspan><tspan x="7.36" y="0">win</tspan><tspan class="ab" x="17.91" y="0">d</tspan><tspan x="24.81" y="0">(38)</tspan></text><text class="r" transform="translate(33.95 153.89)"><tspan x="0" y="0">alig</tspan><tspan class="ab" x="10.52" y="0">n</tspan><tspan x="17.36" y="0">(38)</tspan></text><text class="r" transform="translate(21.7 146.01)"><tspan x="0" y="0">l</tspan><tspan class="n" x="1.78" y="0">o</tspan><tspan x="5.81" y="0">ca</tspan><tspan class="z" x="12.5" y="0">l</tspan><tspan class="m" x="17.32" y="0">te</tspan><tspan class="k" x="23.13" y="0">e</tspan><tspan class="m" x="29.62" y="0">(41)</tspan></text><text class="r" transform="translate(20.4 138.14)"><tspan x="0" y="0">debugge</tspan><tspan class="ab" x="25.47" y="0">r</tspan><tspan x="30.91" y="0">(42)</tspan></text><text class="r" transform="translate(14.98 130.27)"><tspan x="0" y="0">endiannes</tspan><tspan class="ab" x="30.38" y="0">s</tspan><tspan x="36.33" y="0">(46)</tspan></text><text class="r" transform="translate(30.02 122.4)"><tspan x="0" y="0">retur</tspan><tspan class="ab" x="14.45" y="0">n</tspan><tspan class="m" x="21.29" y="0">(48)</tspan></text><text class="r" transform="translate(14.87 114.52)"><tspan x="0" y="0">left-to-rig</tspan><tspan class="ac" x="27.5" y="0">h</tspan><tspan class="aa" x="31.05" y="0">t</tspan><tspan x="36.44" y="0">(51)</tspan></text><text class="r" transform="translate(36.82 106.65)"><tspan x="0" y="0">no</tspan><tspan class="k" x="7.59" y="0">p</tspan><tspan class="m" x="14.49" y="0">(70)</tspan></text><text class="r" transform="translate(39.32 98.78)"><tspan x="0" y="0">f3</tspan><tspan class="k" x="5.5" y="0">2</tspan><tspan class="m" x="11.99" y="0">(87)</tspan></text><text class="r" transform="translate(16.01 90.91)"><tspan x="0" y="0">ﬂoa</tspan><tspan class="k" x="11.11" y="0">t</tspan><tspan x="16.49" y="0">expr</tspan><tspan class="k" x="29.35" y="0">s</tspan><tspan class="m" x="35.3" y="0">(95)</tspan></text><text class="r" transform="translate(12.02 83.03)"><tspan x="0" y="0">f6</tspan><tspan class="k" x="5.5" y="0">4</tspan><tspan x="11.99" y="0">bi</tspan><tspan class="ad" x="17.57" y="0">t</tspan><tspan x="19.69" y="0">wis</tspan><tspan class="z" x="29.34" y="0">e</tspan><tspan class="m" x="35.83" y="0">(192)</tspan></text><text class="r" transform="translate(21.84 75.16)"><tspan x="0" y="0">addres</tspan><tspan class="ab" x="20.06" y="0">s</tspan><tspan x="26" y="0">(200)</tspan></text><text class="r" transform="translate(36.17 67.29)"><tspan x="0" y="0">i6</tspan><tspan class="ab" x="5.18" y="0">4</tspan><tspan class="m" x="11.67" y="0">(255)</tspan></text><text class="r" transform="translate(36.17 59.42)"><tspan x="0" y="0">i3</tspan><tspan class="ab" x="5.18" y="0">2</tspan><tspan class="m" x="11.67" y="0">(349)</tspan></text><text class="r" transform="translate(25.33 51.54)"><tspan x="0" y="0">name</tspan><tspan class="ab" x="16.57" y="0">s</tspan><tspan class="m" x="22.52" y="0">(384)</tspan></text><text class="r" transform="translate(35.85 43.67)"><tspan x="0" y="0">f6</tspan><tspan class="k" x="5.5" y="0">4</tspan><tspan class="m" x="11.99" y="0">(864)</tspan></text><text class="r" transform="translate(16.53 35.8)"><tspan x="0" y="0">f3</tspan><tspan class="k" x="5.5" y="0">2</tspan><tspan x="11.99" y="0">cm</tspan><tspan class="k" x="20.96" y="0">p</tspan><tspan x="27.85" y="0">(1292)</tspan></text><text class="r" transform="translate(16.53 27.93)"><tspan x="0" y="0">f6</tspan><tspan class="k" x="5.5" y="0">4</tspan><tspan x="11.99" y="0">cm</tspan><tspan class="k" x="20.96" y="0">p</tspan><tspan x="27.85" y="0">(1952)</tspan></text><text class="r" transform="translate(9.55 20.05)"><tspan x="0" y="0">computin</tspan><tspan class="k" x="28.29" y="0">g</tspan><tspan class="m" x="34.83" y="0">(3470)</tspan></text><text class="r" transform="translate(0 12.18)"><tspan x="0" y="0">memor</tspan><tspan class="ab" x="21.22" y="0">y</tspan><tspan class="y" x="27.5" y="0">co</tspan><tspan class="ad" x="34.46" y="0">p</tspan><tspan class="ab" x="38.1" y="0">y</tspan><tspan x="44.38" y="0">(4057)</tspan></text><g class="x"><path class="e" d="M68.11,13.42h2.82v-5.98h-2.82v5.98ZM68.11,21.3h16.02v-5.98h-16.02v5.98ZM68.11,29.17h4.75v-5.98h-4.75v5.98ZM68.11,37.04h5.7v-5.98h-5.7v5.98ZM68.11,44.91h8.55v-5.98h-8.55v5.98ZM68.11,52.79h15.27v-5.98h-15.27v5.98ZM68.11,60.66h16.36v-5.98h-16.36v5.98ZM68.11,68.53h21.7v-5.98h-21.7v5.98ZM68.11,76.4h26.21v-5.98h-26.21v5.98ZM68.11,84.28h29.47v-5.98h-29.47v5.98ZM68.11,92.15h50.33v-5.98h-50.33v5.98ZM68.11,100.02h59.21v-5.98h-59.21v5.98ZM68.11,107.89h73.36v-5.98h-73.36v5.98ZM68.11,115.77h99.11v-5.98h-99.11v5.98ZM68.11,123.64h105.08v-5.98h-105.08v5.98ZM68.11,131.51h108.79v-5.98h-108.79v5.98ZM68.11,139.39h56.45v-5.98h-56.45v5.98ZM68.11,147.26h125.81v-5.98h-125.81v5.98ZM68.11,155.13h125.14v-5.98h-125.14v5.98ZM68.11,163h130.92v-5.98H68.11v5.98ZM68.11,170.88h169.6v-5.98H68.11v5.98ZM68.11,178.75h171.34v-5.98H68.11v5.98ZM68.11,186.62h183.96v-5.98H68.11v5.98ZM68.11,194.49h195.65v-5.98H68.11v5.98ZM68.11,202.37h269.59v-5.98H68.11v5.98ZM68.11,210.24h309.52v-5.98H68.11v5.98ZM68.11,218.11h330.89v-5.98H68.11v5.98Z"/><path class="h" d="M68.11,13.42h2.82v-5.98h-2.82v5.98ZM68.11,21.3h16.02v-5.98h-16.02v5.98ZM68.11,29.17h4.75v-5.98h-4.75v5.98ZM68.11,37.04h5.7v-5.98h-5.7v5.98ZM68.11,44.91h8.55v-5.98h-8.55v5.98ZM68.11,52.79h15.27v-5.98h-15.27v5.98ZM68.11,60.66h16.36v-5.98h-16.36v5.98ZM68.11,68.53h21.7v-5.98h-21.7v5.98ZM68.11,76.4h26.21v-5.98h-26.21v5.98ZM68.11,84.28h29.47v-5.98h-29.47v5.98ZM68.11,92.15h50.33v-5.98h-50.33v5.98ZM68.11,100.02h59.21v-5.98h-59.21v5.98ZM68.11,107.89h73.36v-5.98h-73.36v5.98ZM68.11,115.77h99.11v-5.98h-99.11v5.98ZM68.11,123.64h105.08v-5.98h-105.08v5.98ZM68.11,131.51h108.79v-5.98h-108.79v5.98ZM68.11,139.39h56.45v-5.98h-56.45v5.98ZM68.11,147.26h125.81v-5.98h-125.81v5.98ZM68.11,155.13h125.14v-5.98h-125.14v5.98ZM68.11,163h130.92v-5.98H68.11v5.98ZM68.11,170.88h169.6v-5.98H68.11v5.98ZM68.11,178.75h171.34v-5.98H68.11v5.98ZM68.11,186.62h183.96v-5.98H68.11v5.98ZM68.11,194.49h195.65v-5.98H68.11v5.98ZM68.11,202.37h269.59v-5.98H68.11v5.98ZM68.11,210.24h309.52v-5.98H68.11v5.98ZM68.11,218.11h330.89v-5.98H68.11v5.98Z"/><line class="h" x1="399" y1="215.12" x2="404.11" y2="215.12"/><line class="h" x1="404.11" y1="213.13" x2="404.11" y2="217.12"/><line class="h" x1="399" y1="215.12" x2="388.07" y2="215.12"/><line class="h" x1="388.06" y1="217.12" x2="388.06" y2="213.13"/><line class="h" x1="377.63" y1="207.25" x2="380.4" y2="207.25"/><line class="h" x1="380.39" y1="205.26" x2="380.39" y2="209.24"/><line class="h" x1="377.63" y1="207.25" x2="364.29" y2="207.25"/><line class="h" x1="364.29" y1="209.24" x2="364.29" y2="205.26"/><line class="h" x1="337.7" y1="199.38" x2="338.03" y2="199.38"/><line class="h" x1="338.02" y1="197.39" x2="338.02" y2="201.37"/><line class="h" x1="337.7" y1="199.38" x2="322.01" y2="199.38"/><line class="h" x1="322" y1="201.37" x2="322" y2="197.39"/><line class="h" x1="263.77" y1="191.51" x2="267.52" y2="191.51"/><line class="h" x1="267.52" y1="189.51" x2="267.52" y2="193.5"/><line class="h" x1="263.77" y1="191.51" x2="243.95" y2="191.51"/><line class="h" x1="243.95" y1="193.5" x2="243.95" y2="189.51"/><line class="h" x1="252.08" y1="183.63" x2="257.35" y2="183.63"/><line class="h" x1="257.35" y1="181.64" x2="257.35" y2="185.63"/><line class="h" x1="252.08" y1="183.63" x2="241.34" y2="183.63"/><line class="h" x1="241.34" y1="185.62" x2="241.34" y2="181.64"/><line class="h" x1="239.45" y1="175.76" x2="244.05" y2="175.76"/><line class="h" x1="244.05" y1="173.77" x2="244.05" y2="177.75"/><line class="h" x1="239.45" y1="175.76" x2="227.99" y2="175.76"/><line class="h" x1="227.99" y1="177.75" x2="227.99" y2="173.77"/><line class="h" x1="237.71" y1="167.89" x2="242.64" y2="167.89"/><line class="h" x1="242.63" y1="165.9" x2="242.63" y2="169.88"/><line class="h" x1="237.71" y1="167.89" x2="226.62" y2="167.89"/><line class="h" x1="226.62" y1="169.88" x2="226.62" y2="165.89"/><line class="h" x1="199.04" y1="160.01" x2="204.71" y2="160.01"/><line class="h" x1="204.71" y1="158.02" x2="204.71" y2="162.01"/><line class="h" x1="199.04" y1="160.01" x2="188.71" y2="160.01"/><line class="h" x1="188.71" y1="162.01" x2="188.71" y2="158.02"/><line class="h" x1="193.25" y1="152.14" x2="199.51" y2="152.14"/><line class="h" x1="199.51" y1="150.15" x2="199.51" y2="154.14"/><line class="h" x1="193.25" y1="152.14" x2="183.51" y2="152.14"/><line class="h" x1="183.5" y1="154.13" x2="183.5" y2="150.15"/><line class="h" x1="193.93" y1="144.27" x2="198.49" y2="144.27"/><line class="h" x1="198.48" y1="142.28" x2="198.48" y2="146.26"/><line class="h" x1="193.93" y1="144.27" x2="182.39" y2="144.27"/><line class="h" x1="182.39" y1="146.26" x2="182.39" y2="142.28"/><line class="h" x1="124.57" y1="136.4" x2="125.43" y2="136.4"/><line class="h" x1="125.43" y1="134.41" x2="125.43" y2="138.39"/><line class="h" x1="124.57" y1="136.4" x2="109.44" y2="136.4"/><line class="h" x1="109.44" y1="138.39" x2="109.44" y2="134.4"/><line class="h" x1="176.9" y1="128.52" x2="182.96" y2="128.52"/><line class="h" x1="182.96" y1="126.53" x2="182.96" y2="130.52"/><line class="h" x1="176.9" y1="128.52" x2="166.84" y2="128.52"/><line class="h" x1="166.84" y1="130.52" x2="166.84" y2="126.53"/><line class="h" x1="173.19" y1="120.65" x2="178.67" y2="120.65"/><line class="h" x1="178.67" y1="118.66" x2="178.67" y2="122.65"/><line class="h" x1="173.19" y1="120.65" x2="162.66" y2="120.65"/><line class="h" x1="162.66" y1="122.65" x2="162.66" y2="118.66"/><line class="h" x1="167.22" y1="112.78" x2="174.43" y2="112.78"/><line class="h" x1="174.43" y1="110.79" x2="174.43" y2="114.77"/><line class="h" x1="167.22" y1="112.78" x2="158.37" y2="112.78"/><line class="h" x1="158.37" y1="114.77" x2="158.37" y2="110.79"/><line class="h" x1="141.47" y1="104.91" x2="148.95" y2="104.91"/><line class="h" x1="148.95" y1="102.91" x2="148.95" y2="106.9"/><line class="h" x1="141.47" y1="104.91" x2="132.91" y2="104.91"/><line class="h" x1="132.91" y1="106.9" x2="132.91" y2="102.92"/><line class="h" x1="127.32" y1="97.03" x2="134.53" y2="97.03"/><line class="h" x1="134.53" y1="95.04" x2="134.53" y2="99.03"/><line class="h" x1="127.32" y1="97.03" x2="118.45" y2="97.03"/><line class="h" x1="118.45" y1="99.03" x2="118.45" y2="95.04"/><line class="h" x1="118.45" y1="89.16" x2="125.54" y2="89.16"/><line class="h" x1="125.54" y1="87.17" x2="125.54" y2="91.15"/><line class="h" x1="118.45" y1="89.16" x2="109.51" y2="89.16"/><line class="h" x1="109.51" y1="91.16" x2="109.51" y2="87.17"/><line class="h" x1="97.58" y1="81.29" x2="104.13" y2="81.29"/><line class="h" x1="104.13" y1="79.3" x2="104.13" y2="83.28"/><line class="h" x1="97.58" y1="81.29" x2="88.11" y2="81.29"/><line class="h" x1="88.11" y1="83.28" x2="88.11" y2="79.3"/><line class="h" x1="94.32" y1="73.42" x2="102.18" y2="73.42"/><line class="h" x1="102.18" y1="71.42" x2="102.18" y2="75.41"/><line class="h" x1="94.32" y1="73.42" x2="86.06" y2="73.42"/><line class="h" x1="86.06" y1="75.41" x2="86.06" y2="71.43"/><line class="h" x1="89.81" y1="65.54" x2="96.96" y2="65.54"/><line class="h" x1="96.96" y1="63.55" x2="96.96" y2="67.54"/><line class="h" x1="89.81" y1="65.54" x2="80.96" y2="65.54"/><line class="h" x1="80.96" y1="67.54" x2="80.96" y2="63.55"/><line class="h" x1="84.48" y1="57.67" x2="91.83" y2="57.67"/><line class="h" x1="91.83" y1="55.68" x2="91.83" y2="59.66"/><line class="h" x1="84.48" y1="57.67" x2="75.77" y2="57.67"/><line class="h" x1="75.77" y1="59.67" x2="75.77" y2="55.68"/><line class="h" x1="83.39" y1="49.8" x2="91.23" y2="49.8"/><line class="h" x1="91.23" y1="47.81" x2="91.23" y2="51.79"/><line class="h" x1="83.39" y1="49.8" x2="75.23" y2="49.8"/><line class="h" x1="75.23" y1="51.79" x2="75.23" y2="47.81"/><line class="h" x1="76.67" y1="41.92" x2="84.47" y2="41.92"/><line class="h" x1="84.47" y1="39.93" x2="84.47" y2="43.92"/><line class="h" x1="76.67" y1="41.92" x2="68.35" y2="41.92"/><line class="h" x1="68.35" y1="43.92" x2="68.35" y2="39.93"/><line class="h" x1="73.81" y1="34.05" x2="77.11" y2="34.05"/><line class="h" x1="77.11" y1="32.06" x2="77.11" y2="36.05"/><line class="h" x1="73.81" y1="34.05" x2="70.38" y2="34.05"/><line class="h" x1="70.38" y1="36.05" x2="70.38" y2="32.06"/><line class="h" x1="72.86" y1="26.18" x2="74.18" y2="26.18"/><line class="h" x1="74.18" y1="24.19" x2="74.18" y2="28.17"/><line class="h" x1="72.86" y1="26.18" x2="71.26" y2="26.18"/><line class="h" x1="71.26" y1="28.17" x2="71.26" y2="24.19"/><line class="h" x1="84.14" y1="18.31" x2="92.17" y2="18.31"/><line class="h" x1="92.17" y1="16.32" x2="92.17" y2="20.3"/><line class="h" x1="84.14" y1="18.31" x2="76.06" y2="18.31"/><line class="h" x1="76.06" y1="20.3" x2="76.06" y2="16.32"/><line class="h" x1="70.93" y1="10.43" x2="73.36" y2="10.43"/><line class="h" x1="73.36" y1="8.44" x2="73.36" y2="12.43"/><line class="h" x1="70.93" y1="10.43" x2="68.57" y2="10.43"/><line class="h" x1="68.57" y1="12.43" x2="68.57" y2="8.44"/><rect class="w" x="68.11" y="15.32" width="16.02" height="5.98"/><rect class="f" x="68.11" y="15.32" width="16.02" height="5.98"/><line class="f" x1="84.14" y1="18.31" x2="92.17" y2="18.31"/><line class="f" x1="92.17" y1="16.32" x2="92.17" y2="20.3"/><line class="f" x1="84.14" y1="18.31" x2="76.06" y2="18.31"/><line class="f" x1="76.06" y1="20.3" x2="76.06" y2="16.32"/><rect class="w" x="68.11" y="133.41" width="56.45" height="5.98"/><rect class="f" x="68.11" y="133.41" width="56.45" height="5.98"/><line class="f" x1="124.57" y1="136.4" x2="125.43" y2="136.4"/><line class="f" x1="125.43" y1="134.41" x2="125.43" y2="138.39"/><line class="f" x1="124.57" y1="136.4" x2="109.44" y2="136.4"/><line class="f" x1="109.44" y1="138.39" x2="109.44" y2="134.41"/></g><text class="p" transform="translate(407.62 216.73)"><tspan x="0" y="0">41</tspan></text><text class="p" transform="translate(414.4 216.73)"><tspan x="0" y="0">.</tspan></text><text class="p" transform="translate(416.69 216.73)"><tspan x="0" y="0">23</tspan></text><text class="p" transform="translate(383.91 208.86)"><tspan x="0" y="0">38</tspan></text><text class="p" transform="translate(390.69 208.86)"><tspan x="0" y="0">.</tspan></text><text class="p" transform="translate(392.98 208.86)"><tspan x="0" y="0">57</tspan></text><text class="p" transform="translate(341.54 200.98)"><tspan x="0" y="0">33</tspan></text><text class="p" transform="translate(348.32 200.98)"><tspan x="0" y="0">.</tspan></text><text class="p" transform="translate(350.61 200.98)"><tspan x="0" y="0">59</tspan></text><text class="p" transform="translate(271.04 193.11)"><tspan x="0" y="0">24</tspan></text><text class="p" transform="translate(277.82 193.11)"><tspan x="0" y="0">.</tspan></text><text class="p" transform="translate(280.1 193.11)"><tspan x="0" y="0">38</tspan></text><text class="p" transform="translate(260.87 185.24)"><tspan x="0" y="0">22</tspan></text><text class="p" transform="translate(267.65 185.24)"><tspan x="0" y="0">.</tspan></text><text class="p" transform="translate(269.93 185.24)"><tspan x="0" y="0">92</tspan></text><text class="p" transform="translate(247.57 177.37)"><tspan x="0" y="0">21</tspan></text><text class="p" transform="translate(254.35 177.37)"><tspan x="0" y="0">.</tspan></text><text class="p" transform="translate(256.63 177.37)"><tspan x="0" y="0">35</tspan></text><text class="p" transform="translate(246.15 169.49)"><tspan x="0" y="0">21</tspan></text><text class="p" transform="translate(252.93 169.49)"><tspan x="0" y="0">.</tspan></text><text class="p" transform="translate(255.22 169.49)"><tspan x="0" y="0">13</tspan></text><text class="p" transform="translate(208.23 161.62)"><tspan x="0" y="0">16</tspan></text><text class="p" transform="translate(215 161.62)"><tspan x="0" y="0">.</tspan></text><text class="p" transform="translate(217.29 161.62)"><tspan x="0" y="0">31</tspan></text><text class="p" transform="translate(203.03 153.75)"><tspan x="0" y="0">15</tspan></text><text class="p" transform="translate(209.81 153.75)"><tspan x="0" y="0">.</tspan></text><text class="p" transform="translate(212.09 153.75)"><tspan x="0" y="0">59</tspan></text><text class="p" transform="translate(202 145.88)"><tspan x="0" y="0">15</tspan></text><text class="p" transform="translate(208.78 145.88)"><tspan x="0" y="0">.</tspan></text><text class="p" transform="translate(211.07 145.88)"><tspan x="0" y="0">68</tspan></text><text class="p" transform="translate(128.95 138)"><tspan x="0" y="0">7</tspan></text><text class="p" transform="translate(132.34 138)"><tspan x="0" y="0">.</tspan></text><text class="p" transform="translate(134.62 138)"><tspan x="0" y="0">03</tspan></text><text class="p" transform="translate(186.48 130.13)"><tspan x="0" y="0">13</tspan></text><text class="p" transform="translate(193.26 130.13)"><tspan x="0" y="0">.</tspan></text><text class="p" transform="translate(195.54 130.13)"><tspan x="0" y="0">56</tspan></text><text class="p" transform="translate(182.19 122.26)"><tspan x="0" y="0">13</tspan></text><text class="p" transform="translate(188.97 122.26)"><tspan x="0" y="0">.</tspan></text><text class="p" transform="translate(191.25 122.26)"><tspan x="0" y="0">09</tspan></text><text class="p" transform="translate(177.95 114.39)"><tspan x="0" y="0">12</tspan></text><text class="p" transform="translate(184.73 114.39)"><tspan x="0" y="0">.</tspan></text><text class="p" transform="translate(187.01 114.39)"><tspan x="0" y="0">35</tspan></text><text class="p" transform="translate(152.47 106.51)"><tspan x="0" y="0">9</tspan></text><text class="p" transform="translate(155.86 106.51)"><tspan x="0" y="0">.</tspan></text><text class="p" transform="translate(158.14 106.51)"><tspan x="0" y="0">14</tspan></text><text class="p" transform="translate(138.05 98.64)"><tspan x="0" y="0">7</tspan></text><text class="p" transform="translate(141.44 98.64)"><tspan x="0" y="0">.</tspan></text><text class="p" transform="translate(143.73 98.64)"><tspan x="0" y="0">38</tspan></text><text class="p" transform="translate(129.06 90.77)"><tspan x="0" y="0">6</tspan></text><text class="p" transform="translate(132.45 90.77)"><tspan x="0" y="0">.</tspan></text><text class="p" transform="translate(134.73 90.77)"><tspan x="0" y="0">27</tspan></text><text class="p" transform="translate(107.65 82.9)"><tspan x="0" y="0">3</tspan></text><text class="p" transform="translate(111.04 82.9)"><tspan x="0" y="0">.</tspan></text><text class="p" transform="translate(113.32 82.9)"><tspan x="0" y="0">67</tspan></text><text class="p" transform="translate(105.7 75.02)"><tspan x="0" y="0">3</tspan></text><text class="p" transform="translate(109.09 75.02)"><tspan x="0" y="0">.</tspan></text><text class="p" transform="translate(111.37 75.02)"><tspan x="0" y="0">27</tspan></text><text class="p" transform="translate(100.48 67.15)"><tspan x="0" y="0">2</tspan></text><text class="p" transform="translate(103.87 67.15)"><tspan x="0" y="0">.</tspan></text><text class="p" transform="translate(106.15 67.15)"><tspan x="0" y="0">7</tspan></text><text class="p" transform="translate(95.35 59.28)"><tspan x="0" y="0">2</tspan></text><text class="p" transform="translate(98.74 59.28)"><tspan x="0" y="0">.</tspan></text><text class="p" transform="translate(101.03 59.28)"><tspan x="0" y="0">04</tspan></text><text class="p" transform="translate(94.75 51.41)"><tspan x="0" y="0">1</tspan></text><text class="p" transform="translate(98.14 51.41)"><tspan x="0" y="0">.</tspan></text><text class="p" transform="translate(100.42 51.41)"><tspan x="0" y="0">9</tspan></text><text class="p" transform="translate(87.99 43.53)"><tspan x="0" y="0">1</tspan></text><text class="p" transform="translate(91.38 43.53)"><tspan x="0" y="0">.</tspan></text><text class="p" transform="translate(93.67 43.53)"><tspan x="0" y="0">07</tspan></text><text class="p" transform="translate(80.63 35.66)"><tspan x="0" y="0">0</tspan></text><text class="p" transform="translate(84.02 35.66)"><tspan x="0" y="0">.</tspan></text><text class="p" transform="translate(86.31 35.66)"><tspan x="0" y="0">71</tspan></text><text class="p" transform="translate(77.7 27.79)"><tspan x="0" y="0">0</tspan></text><text class="p" transform="translate(81.09 27.79)"><tspan x="0" y="0">.</tspan></text><text class="p" transform="translate(83.37 27.79)"><tspan x="0" y="0">59</tspan></text><text class="p" transform="translate(95.69 19.91)"><tspan x="0" y="0">2</tspan></text><text class="p" transform="translate(76.88 12.04)"><tspan x="0" y="0">0</tspan></text><text class="p" transform="translate(80.27 12.04)"><tspan x="0" y="0">.</tspan></text><text class="p" transform="translate(82.56 12.04)"><tspan x="0" y="0">35</tspan></text><text class="q" transform="translate(95.69 19.91)"><tspan x="0" y="0">2</tspan></text><text class="q" transform="translate(128.95 138)"><tspan x="0" y="0">7</tspan></text><text class="q" transform="translate(132.34 138)"><tspan x="0" y="0">.</tspan></text><text class="q" transform="translate(134.62 138)"><tspan x="0" y="0">03</tspan></text><text class="s" transform="translate(214.71 245.75)"><tspan x="0" y="0">Relati</tspan><tspan class="v" x="19.19" y="0">v</tspan><tspan class="u" x="22.65" y="0">e</tspan><tspan class="v" x="29.86" y="0">ov</tspan><tspan x="37.37" y="0">erhead</tspan></text></g></svg>
