<?xml version="1.0" encoding="UTF-8"?><svg id="b" xmlns="http://www.w3.org/2000/svg" viewBox="0 0 96.87 107.29"><defs><style>.e{fill:#fff;}</style></defs><g id="c"><g id="d"><path class="e" d="M.53,103.23c0-1.98.46-2.58,1.56-2.58s1.57.58,1.57,2.58-.46,2.58-1.57,2.58-1.56-.58-1.56-2.58ZM3.06,103.23c0-1.6-.22-2.06-.97-2.06s-.96.46-.96,2.06.22,2.06.96,2.06.97-.46.97-2.06Z"/><path class="e" d="M3.96,101.05h.78v-.68c0-.94.55-1.08,1.14-1.08h.41v.5h-.28c-.48,0-.69.09-.69.65v.61h.97v.51h-.97v4.13h-.59v-4.13h-.78v-.51Z"/><path class="e" d="M8.64,100.76h.43l.06.26c.27-.23.62-.38,1.01-.38,1.06,0,1.51.53,1.51,2.58s-.47,2.58-1.5,2.58c-.35,0-.67-.12-.92-.3v1.66h-.59v-6.41ZM9.23,101.43v3.6c.21.15.49.26.81.26.77,0,1-.43,1-2.06s-.23-2.06-1-2.06c-.32,0-.6.12-.81.27Z"/><path class="e" d="M12.63,100.76h.43l.08.38c.36-.27.8-.45,1.42-.45v.58c-.56,0-.98.08-1.34.27v4.15h-.59v-4.93Z"/><path class="e" d="M14.95,103.23c0-1.98.46-2.58,1.56-2.58s1.57.58,1.57,2.58-.46,2.58-1.57,2.58-1.56-.58-1.56-2.58ZM17.47,103.23c0-1.6-.22-2.06-.97-2.06s-.96.46-.96,2.06.22,2.06.96,2.06.97-.46.97-2.06Z"/><path class="e" d="M19.21,107.04v-.57c.17.12.63.29,1.05.29.64,0,1.03-.22,1.03-1v-.49c-.25.19-.55.31-.9.31-1.06,0-1.51-.52-1.51-2.46s.47-2.45,1.5-2.45c.38,0,.75.14,1.02.36l.06-.25h.42v5.12c0,1.14-.78,1.41-1.56,1.41-.5,0-.95-.13-1.11-.25ZM21.29,104.77v-3.34c-.21-.15-.49-.27-.8-.27-.77,0-1,.43-1,1.93s.23,1.94,1,1.94c.31,0,.59-.12.8-.27Z"/><path class="e" d="M23.05,100.76h.43l.08.38c.36-.27.8-.45,1.42-.45v.58c-.56,0-.98.08-1.34.27v4.15h-.59v-4.93Z"/><path class="e" d="M27.79,105.4c-.3.26-.66.41-1.09.41-.99,0-1.3-.6-1.3-1.57s.33-1.57,1.3-1.57c.38,0,.73.15,1.02.37v-.64c0-.81-.25-1.23-1.05-1.23-.47,0-.9.22-1.05.33v-.56c.18-.12.59-.29,1.12-.29,1.08,0,1.57.57,1.57,1.65v3.4h-.42l-.08-.3ZM27.71,104.98v-1.48c-.24-.18-.53-.33-.91-.33-.62,0-.81.35-.81,1.06s.19,1.07.81,1.07c.37,0,.67-.15.91-.33Z"/><path class="e" d="M29.41,100.76h.43l.06.28c.29-.26.67-.39,1.05-.39.52,0,.87.2,1.07.5.31-.33.78-.5,1.2-.5,1.08,0,1.4.76,1.4,1.63v3.42h-.59v-3.32c0-.68-.19-1.21-.89-1.21-.35,0-.7.17-.94.37.07.23.1.48.1.74v3.42h-.59v-3.32c0-.68-.19-1.21-.89-1.21-.34,0-.62.13-.84.29v4.25h-.59v-4.93Z"/><path class="e" d="M35.74,100.76h.43l.06.28c.29-.26.67-.39,1.05-.39.52,0,.87.2,1.07.5.31-.33.78-.5,1.2-.5,1.08,0,1.4.76,1.4,1.63v3.42h-.59v-3.32c0-.68-.19-1.21-.89-1.21-.35,0-.7.17-.94.37.07.23.1.48.1.74v3.42h-.59v-3.32c0-.68-.19-1.21-.89-1.21-.34,0-.62.13-.84.29v4.25h-.59v-4.93Z"/><path class="e" d="M41.96,99.75c0-.24.15-.38.4-.38s.4.15.4.38-.14.38-.4.38-.4-.15-.4-.38ZM42.07,100.76h.59v4.93h-.59v-4.93Z"/><path class="e" d="M43.81,100.76h.43l.06.28c.29-.26.67-.39,1.05-.39,1.04,0,1.36.76,1.36,1.63v3.42h-.59v-3.32c0-.68-.19-1.21-.89-1.21-.33,0-.62.13-.84.29v4.25h-.59v-4.93Z"/><path class="e" d="M47.98,107.04v-.57c.17.12.63.29,1.05.29.64,0,1.03-.22,1.03-1v-.49c-.25.19-.55.31-.9.31-1.06,0-1.51-.52-1.51-2.46s.47-2.45,1.5-2.45c.38,0,.75.14,1.02.36l.06-.25h.42v5.12c0,1.14-.78,1.41-1.56,1.41-.5,0-.95-.13-1.11-.25ZM50.06,104.77v-3.34c-.21-.15-.49-.27-.8-.27-.77,0-1,.43-1,1.93s.23,1.94,1,1.94c.31,0,.59-.12.8-.27Z"/><path class="e" d="M53.49,104.78v-5.5h.59v5.38c0,.39.09.56.55.56h.24v.5h-.37c-.55,0-1.01-.17-1.01-.95Z"/><path class="e" d="M57.68,105.4c-.3.26-.66.41-1.09.41-.99,0-1.3-.6-1.3-1.57s.33-1.57,1.3-1.57c.38,0,.73.15,1.02.37v-.64c0-.81-.25-1.23-1.05-1.23-.47,0-.9.22-1.06.33v-.56c.18-.12.59-.29,1.12-.29,1.08,0,1.57.57,1.57,1.65v3.4h-.42l-.08-.3ZM57.6,104.98v-1.48c-.24-.18-.53-.33-.91-.33-.62,0-.81.35-.81,1.06s.19,1.07.81,1.07c.37,0,.67-.15.91-.33Z"/><path class="e" d="M59.3,100.76h.43l.06.28c.29-.26.67-.39,1.05-.39,1.04,0,1.36.76,1.36,1.63v3.42h-.59v-3.32c0-.68-.19-1.21-.89-1.21-.33,0-.62.13-.84.29v4.25h-.59v-4.93Z"/><path class="e" d="M63.47,107.04v-.57c.17.12.63.29,1.05.29.64,0,1.03-.22,1.03-1v-.49c-.25.19-.55.31-.9.31-1.06,0-1.51-.52-1.51-2.46s.47-2.45,1.5-2.45c.38,0,.75.14,1.02.36l.06-.25h.42v5.12c0,1.14-.78,1.41-1.56,1.41-.5,0-.95-.13-1.11-.25ZM65.55,104.77v-3.34c-.21-.15-.49-.27-.8-.27-.77,0-1,.43-1,1.93s.23,1.94,1,1.94c.31,0,.59-.12.8-.27Z"/><path class="e" d="M69.63,105.44c-.29.25-.64.37-1.02.37-1.04,0-1.36-.76-1.36-1.63v-3.42h.59v3.32c0,.71.19,1.21.89,1.21.33,0,.58-.12.8-.27v-4.27h.58v4.93h-.42l-.06-.26Z"/><path class="e" d="M73.44,105.4c-.3.26-.66.41-1.09.41-.99,0-1.3-.6-1.3-1.57s.33-1.57,1.3-1.57c.38,0,.73.15,1.02.37v-.64c0-.81-.25-1.23-1.05-1.23-.47,0-.9.22-1.06.33v-.56c.18-.12.59-.29,1.12-.29,1.08,0,1.57.57,1.57,1.65v3.4h-.42l-.08-.3ZM73.37,104.98v-1.48c-.24-.18-.53-.33-.91-.33-.62,0-.81.35-.81,1.06s.19,1.07.81,1.07c.37,0,.67-.15.91-.33Z"/><path class="e" d="M75.22,107.04v-.57c.17.12.63.29,1.05.29.64,0,1.03-.22,1.03-1v-.49c-.25.19-.55.31-.9.31-1.06,0-1.51-.52-1.51-2.46s.47-2.45,1.5-2.45c.38,0,.75.14,1.02.36l.06-.25h.42v5.12c0,1.14-.78,1.41-1.56,1.41-.5,0-.95-.13-1.11-.25ZM77.3,104.77v-3.34c-.21-.15-.49-.27-.8-.27-.77,0-1,.43-1,1.93s.23,1.94,1,1.94c.31,0,.59-.12.8-.27Z"/><path class="e" d="M78.89,103.24c0-2.02.47-2.59,1.51-2.59s1.51.55,1.51,2.58v.14h-2.42c.02,1.56.33,1.91,1.15,1.91.43,0,.9-.18,1.05-.29v.56c-.17.11-.6.26-1.12.26-1.16,0-1.69-.57-1.69-2.57ZM79.49,102.86h1.81c-.03-1.27-.25-1.71-.91-1.71s-.88.43-.91,1.71Z"/><path class="e" d="M82.5,105.55v-.57c.17.12.56.3,1.02.3.65,0,.93-.3.93-.76,0-.43-.23-.7-.56-.91l-.6-.37c-.53-.33-.76-.76-.76-1.26,0-.84.55-1.33,1.47-1.33.42,0,.68.09.87.18v.56c-.13-.09-.45-.21-.81-.21-.63,0-.93.3-.93.76,0,.43.24.66.57.88l.61.39c.54.35.74.78.74,1.27,0,.83-.5,1.33-1.49,1.33-.46,0-.88-.13-1.05-.26Z"/><path class="e" d="M87.61,104.78v-5.5h.59v5.38c0,.39.09.56.55.56h.24v.5h-.37c-.55,0-1.01-.17-1.01-.95Z"/><path class="e" d="M91.8,105.4c-.3.26-.66.41-1.09.41-.99,0-1.3-.6-1.3-1.57s.33-1.57,1.3-1.57c.38,0,.73.15,1.02.37v-.64c0-.81-.25-1.23-1.05-1.23-.47,0-.9.22-1.06.33v-.56c.18-.12.59-.29,1.12-.29,1.08,0,1.57.57,1.57,1.65v3.4h-.42l-.08-.3ZM91.72,104.98v-1.48c-.24-.18-.53-.33-.91-.33-.62,0-.81.35-.81,1.06s.19,1.07.81,1.07c.37,0,.67-.15.91-.33Z"/><path class="e" d="M93.42,99.28h.59v1.68c.24-.19.55-.32.91-.32,1.06,0,1.51.53,1.51,2.58s-.47,2.58-1.5,2.58c-.39,0-.76-.13-1.03-.35l-.05.24h-.43v-6.41ZM94.01,101.43v3.6c.21.15.49.26.81.26.77,0,1-.43,1-2.06s-.23-2.06-1-2.06c-.32,0-.6.12-.81.27Z"/><path class="e" d="M4.34,4.77h10.92v2.58h-3.92v15.62h-3.08V7.35h-3.92v-2.58Z"/><path class="e" d="M28.07,14.91h-5.04v8.06h-3.08V4.77h3.08v7.56h5.04v-7.56h3.08v18.2h-3.08v-8.06Z"/><path class="e" d="M36.13,4.77h8.96v2.58h-5.88v4.98h4.76v2.58h-4.76v5.49h5.88v2.58h-8.96V4.77Z"/><path class="e" d="M50.47,13.87c0-7.67,1.99-9.44,5.8-9.44s5.8,1.68,5.8,9.44-1.99,9.44-5.8,9.44-5.8-1.65-5.8-9.44ZM58.87,13.87c0-5.38-.42-6.75-2.6-6.75s-2.6,1.37-2.6,6.75.42,6.75,2.6,6.75,2.6-1.37,2.6-6.75Z"/><path class="e" d="M65.91,4.77h4.62c3.33,0,5.8,1.32,5.8,5.52,0,2.63-1.2,4.23-2.94,4.96l3.78,7.73h-3.56l-3.19-7.17h-1.43v7.17h-3.08V4.77ZM68.99,7.35v5.88h1.26c1.74,0,2.91-.36,2.91-2.94s-1.18-2.94-2.91-2.94h-1.26Z"/><path class="e" d="M85.96,15.39l-4.9-10.61h3.33l2.02,4.76c.42,1.04.81,2.18,1.12,3.25.28-1.06.67-2.21,1.12-3.25l2.02-4.76h3.28l-4.9,10.61v7.59h-3.08v-7.59Z"/><path class="e" d="M3.34,51.48c0-2.27,1.01-3.56,2.46-4.26-1.15-.73-1.9-1.93-1.9-3.98,0-3.14,2.02-5.21,5.99-5.21,1.46,0,2.77.34,3.56.76v2.74c-.62-.39-1.93-.81-3.19-.81-2.35,0-3.25.76-3.25,2.8,0,2.46,1.54,2.6,3.47,2.6h5.8v2.44h-1.96v8.01h-4.76c-3.67,0-6.22-1.12-6.22-5.1ZM9.55,54.11h1.68v-5.54h-1.68c-1.71,0-3.14.31-3.14,2.77s1.4,2.77,3.14,2.77Z"/><path class="e" d="M34.81,47.47c0-7.67,1.99-9.44,5.8-9.44s5.8,1.68,5.8,9.44-1.99,9.44-5.8,9.44-5.8-1.65-5.8-9.44ZM43.21,47.47c0-5.38-.42-6.75-2.6-6.75s-2.6,1.37-2.6,6.75.42,6.75,2.6,6.75,2.6-1.37,2.6-6.75Z"/><path class="e" d="M51.1,38.37h4.87c3.44,0,5.46,1.6,5.46,5.94s-2.16,5.94-5.46,5.94h-1.79v6.33h-3.08v-18.2ZM54.18,40.95v6.72h1.51c1.71,0,2.58-.78,2.58-3.36s-.87-3.36-2.58-3.36h-1.51Z"/><path class="e" d="M67.06,38.37h8.96v2.58h-5.88v4.98h4.76v2.58h-4.76v5.49h5.88v2.58h-8.96v-18.2Z"/><path class="e" d="M81.87,38.37h4.62c3.33,0,5.8,1.32,5.8,5.52,0,2.63-1.2,4.23-2.94,4.96l3.78,7.73h-3.56l-3.19-7.17h-1.43v7.17h-3.08v-18.2ZM84.95,40.95v5.88h1.26c1.74,0,2.91-.36,2.91-2.94s-1.18-2.94-2.91-2.94h-1.26Z"/><path class="e" d="M8.21,71.97h3.19l4.79,18.2h-3.19l-.98-3.92h-4.54l-.95,3.92h-3.11l4.79-18.2ZM8.04,83.68h3.44l-.59-2.6c-.28-1.23-.76-3.47-1.06-5.57-.34,2.1-.84,4.34-1.15,5.57l-.64,2.6Z"/><path class="e" d="M20.09,71.97h10.92v2.58h-3.92v15.62h-3.08v-15.62h-3.92v-2.58Z"/><path class="e" d="M39.07,71.97h3.08v18.2h-3.08v-18.2Z"/><path class="e" d="M50.47,81.07c0-7.67,1.99-9.44,5.8-9.44s5.8,1.68,5.8,9.44-1.99,9.44-5.8,9.44-5.8-1.65-5.8-9.44ZM58.87,81.07c0-5.38-.42-6.75-2.6-6.75s-2.6,1.37-2.6,6.75.42,6.75,2.6,6.75,2.6-1.37,2.6-6.75Z"/><path class="e" d="M65.88,71.97h3.56l5.26,13.8c-.22-1.62-.45-3.44-.45-5.12v-8.68h2.94v18.2h-3.56l-5.29-13.78c.25,1.6.48,3.42.48,5.1v8.68h-2.94v-18.2Z"/><path class="e" d="M83.02,89.78v-2.8c.81.45,1.88.78,3.25.78,1.54,0,2.55-.59,2.55-2.07,0-1.37-.62-1.99-1.76-2.97l-1.48-1.26c-1.68-1.43-2.58-2.55-2.58-4.9,0-2.77,1.9-4.93,5.46-4.93,1.32,0,2.63.36,3.14.7v2.8c-.62-.36-1.68-.76-2.86-.76-1.54,0-2.55.59-2.55,2.07,0,1.37.62,1.99,1.76,2.97l1.48,1.26c1.68,1.43,2.58,2.55,2.58,4.9,0,2.77-1.9,4.93-5.46,4.93-1.68,0-2.91-.34-3.53-.73Z"/><path class="e" d="M94.87,2v92.87H2V2h92.87M96.87,0H0v96.87h96.87V0h0Z"/></g></g></svg>