<?xml version="1.0" encoding="UTF-8"?><svg id="b" xmlns="http://www.w3.org/2000/svg" viewBox="0 0 101.16 124.02"><defs><style>.e{fill:#fff;}</style></defs><g id="c"><g id="d"><path class="e" d="M11.7,11.55h9.19v2.17h-3.3v13.14h-2.59v-13.14h-3.3v-2.17Z"/><path class="e" d="M31.65,20.08h-4.24v6.78h-2.59v-15.31h2.59v6.36h4.24v-6.36h2.59v15.31h-2.59v-6.78Z"/><path class="e" d="M38.44,11.55h7.54v2.17h-4.95v4.19h4v2.17h-4v4.62h4.95v2.17h-7.54v-15.31Z"/><path class="e" d="M50.5,19.21c0-6.45,1.67-7.94,4.88-7.94s4.88,1.41,4.88,7.94-1.67,7.94-4.88,7.94-4.88-1.39-4.88-7.94ZM57.57,19.21c0-4.52-.35-5.68-2.19-5.68s-2.19,1.15-2.19,5.68.35,5.68,2.19,5.68,2.19-1.15,2.19-5.68Z"/><path class="e" d="M63.49,11.55h3.89c2.8,0,4.88,1.11,4.88,4.64,0,2.21-1.01,3.56-2.47,4.17l3.18,6.5h-2.99l-2.68-6.03h-1.2v6.03h-2.59v-15.31ZM66.08,13.72v4.95h1.06c1.46,0,2.45-.31,2.45-2.47s-.99-2.47-2.45-2.47h-1.06Z"/><path class="e" d="M80.35,20.48l-4.12-8.93h2.8l1.7,4c.35.87.68,1.84.94,2.73.23-.9.57-1.86.94-2.73l1.7-4h2.76l-4.12,8.93v6.38h-2.59v-6.38Z"/><path class="e" d="M10.85,50.84c0-1.91.85-2.99,2.07-3.58-.97-.61-1.6-1.63-1.6-3.34,0-2.64,1.7-4.38,5.04-4.38,1.22,0,2.33.28,2.99.64v2.31c-.52-.33-1.63-.68-2.69-.68-1.98,0-2.73.64-2.73,2.36,0,2.07,1.3,2.19,2.92,2.19h4.88v2.05h-1.65v6.74h-4c-3.09,0-5.23-.94-5.23-4.29ZM16.08,53.06h1.41v-4.66h-1.41c-1.44,0-2.64.26-2.64,2.33s1.18,2.33,2.64,2.33Z"/><path class="e" d="M37.33,47.47c0-6.45,1.67-7.94,4.88-7.94s4.88,1.41,4.88,7.94-1.67,7.94-4.88,7.94-4.88-1.39-4.88-7.94ZM44.4,47.47c0-4.52-.35-5.68-2.19-5.68s-2.19,1.15-2.19,5.68.35,5.68,2.19,5.68,2.19-1.15,2.19-5.68Z"/><path class="e" d="M51.03,39.82h4.1c2.9,0,4.59,1.34,4.59,4.99s-1.81,4.99-4.59,4.99h-1.51v5.32h-2.59v-15.31ZM53.62,41.99v5.65h1.27c1.44,0,2.17-.66,2.17-2.83s-.73-2.83-2.17-2.83h-1.27Z"/><path class="e" d="M64.45,39.82h7.54v2.17h-4.95v4.19h4v2.17h-4v4.62h4.95v2.17h-7.54v-15.31Z"/><path class="e" d="M76.91,39.82h3.89c2.8,0,4.88,1.11,4.88,4.64,0,2.21-1.01,3.56-2.47,4.17l3.18,6.5h-2.99l-2.68-6.03h-1.2v6.03h-2.59v-15.31ZM79.51,41.99v4.95h1.06c1.46,0,2.45-.31,2.45-2.47s-.99-2.47-2.45-2.47h-1.06Z"/><path class="e" d="M14.95,68.08h2.69l4.03,15.31h-2.69l-.82-3.3h-3.82l-.8,3.3h-2.61l4.03-15.31ZM14.81,77.93h2.9l-.49-2.19c-.24-1.04-.64-2.92-.9-4.69-.28,1.77-.71,3.65-.97,4.69l-.54,2.19Z"/><path class="e" d="M24.94,68.08h9.19v2.17h-3.3v13.14h-2.59v-13.14h-3.3v-2.17Z"/><path class="e" d="M40.91,68.08h2.59v15.31h-2.59v-15.31Z"/><path class="e" d="M50.5,75.74c0-6.45,1.67-7.94,4.88-7.94s4.88,1.41,4.88,7.94-1.67,7.94-4.88,7.94-4.88-1.39-4.88-7.94ZM57.57,75.74c0-4.52-.35-5.68-2.19-5.68s-2.19,1.15-2.19,5.68.35,5.68,2.19,5.68,2.19-1.15,2.19-5.68Z"/><path class="e" d="M63.46,68.08h2.99l4.43,11.61c-.19-1.37-.38-2.9-.38-4.31v-7.3h2.47v15.31h-2.99l-4.45-11.59c.21,1.34.4,2.87.4,4.29v7.3h-2.47v-15.31Z"/><path class="e" d="M77.88,83.07v-2.36c.68.38,1.58.66,2.73.66,1.3,0,2.14-.49,2.14-1.74,0-1.15-.52-1.67-1.48-2.5l-1.25-1.06c-1.41-1.2-2.17-2.14-2.17-4.12,0-2.33,1.6-4.15,4.59-4.15,1.11,0,2.21.31,2.64.59v2.36c-.52-.31-1.41-.64-2.4-.64-1.3,0-2.14.49-2.14,1.74,0,1.15.52,1.67,1.48,2.5l1.25,1.06c1.41,1.2,2.17,2.14,2.17,4.12,0,2.33-1.6,4.15-4.59,4.15-1.41,0-2.45-.28-2.97-.61Z"/><path class="e" d="M92.19,5v86.87H5.32V5h86.87M97.19,0H.32v96.87h96.87V0h0Z"/><path class="e" d="M1.19,105.02c0-2.93.8-3.67,2.38-3.67s2.38.71,2.38,3.67-.8,3.67-2.38,3.67-2.38-.71-2.38-3.67ZM4.7,105.02c0-2.03-.24-2.58-1.13-2.58s-1.13.55-1.13,2.58.24,2.58,1.13,2.58,1.13-.55,1.13-2.58Z"/><path class="e" d="M7.84,101.98h1.04v-.76c0-1.54.85-1.81,1.82-1.81h.71v1.02h-.39c-.67,0-.91.15-.91.9v.64h1.3v1.02h-1.3v5.52h-1.23v-5.52h-1.04v-1.02Z"/><path class="e" d="M19.9,101.51h.88l.1.41c.39-.34.9-.57,1.51-.57,1.51,0,2.13.84,2.13,3.67s-.67,3.67-2.09,3.67c-.52,0-.95-.15-1.3-.39v2.33h-1.23v-9.11ZM21.14,102.75v4.54c.28.18.6.31.98.31.91,0,1.15-.53,1.15-2.58s-.24-2.58-1.15-2.58c-.38,0-.7.13-.98.31Z"/><path class="e" d="M27.21,101.51h.9l.15.6c.43-.36,1.05-.69,1.96-.69v1.22c-.8,0-1.34.13-1.78.32v5.55h-1.23v-7Z"/><path class="e" d="M32.11,105.02c0-2.93.8-3.67,2.38-3.67s2.38.71,2.38,3.67-.8,3.67-2.38,3.67-2.38-.71-2.38-3.67ZM35.63,105.02c0-2.03-.24-2.58-1.13-2.58s-1.13.55-1.13,2.58.24,2.58,1.13,2.58,1.13-.55,1.13-2.58Z"/><path class="e" d="M39.76,110.42v-1.15c.27.17.94.41,1.55.41.92,0,1.4-.25,1.4-1.26v-.55c-.35.25-.76.42-1.26.42-1.51,0-2.13-.87-2.13-3.47s.67-3.47,2.09-3.47c.64,0,1.15.21,1.54.55l.11-.38h.88v7.14c0,1.68-1.18,2.13-2.49,2.13-.88,0-1.53-.25-1.69-.36ZM42.71,106.88v-4.12c-.28-.18-.6-.32-.98-.32-.9,0-1.13.57-1.13,2.38s.24,2.37,1.13,2.37c.38,0,.7-.13.98-.31Z"/><path class="e" d="M46.87,101.51h.9l.15.6c.43-.36,1.05-.69,1.96-.69v1.22c-.8,0-1.34.13-1.78.32v5.55h-1.23v-7Z"/><path class="e" d="M55.28,108.11c-.42.35-.94.57-1.61.57-1.47,0-1.89-.91-1.89-2.28s.45-2.3,1.89-2.3c.56,0,.99.17,1.39.43v-.45c0-1.15-.29-1.65-1.4-1.65-.62,0-1.25.27-1.53.45v-1.12c.17-.13.84-.42,1.75-.42,1.4,0,2.41.6,2.41,2.46v4.71h-.9l-.11-.41ZM55.06,107.31v-1.83c-.32-.21-.67-.35-1.09-.35-.73,0-.94.39-.94,1.27s.21,1.26.94,1.26c.42,0,.77-.14,1.09-.35Z"/><path class="e" d="M59.16,101.51h.9l.1.39c.42-.34.94-.56,1.53-.56.73,0,1.22.24,1.53.64.43-.41,1.02-.64,1.72-.64,1.57,0,2.02,1.05,2.02,2.37v4.8h-1.23v-4.66c0-.83-.17-1.43-1.05-1.43-.41,0-.78.15-1.09.38.07.28.1.59.1.91v4.8h-1.23v-4.66c0-.83-.17-1.43-1.06-1.43-.36,0-.7.13-.98.31v5.79h-1.23v-7Z"/><path class="e" d="M69.81,101.51h.9l.1.39c.42-.34.94-.56,1.53-.56.73,0,1.22.24,1.53.64.43-.41,1.02-.64,1.72-.64,1.57,0,2.02,1.05,2.02,2.37v4.8h-1.23v-4.66c0-.83-.17-1.43-1.05-1.43-.41,0-.78.15-1.09.38.07.28.1.59.1.91v4.8h-1.23v-4.66c0-.83-.17-1.43-1.06-1.43-.36,0-.7.13-.98.31v5.79h-1.23v-7Z"/><path class="e" d="M80.3,100.07c0-.48.27-.73.78-.73s.78.25.78.73-.27.71-.78.71-.78-.24-.78-.71ZM80.47,101.51h1.23v7h-1.23v-7Z"/><path class="e" d="M84.62,101.51h.9l.1.39c.42-.34.94-.56,1.53-.56,1.53,0,1.99,1.05,1.99,2.37v4.8h-1.23v-4.66c0-.83-.17-1.43-1.06-1.43-.36,0-.7.13-.98.31v5.79h-1.23v-7Z"/><path class="e" d="M92.18,110.42v-1.15c.27.17.94.41,1.55.41.92,0,1.4-.25,1.4-1.26v-.55c-.35.25-.76.42-1.26.42-1.51,0-2.13-.87-2.13-3.47s.67-3.47,2.09-3.47c.64,0,1.15.21,1.54.55l.11-.38h.88v7.14c0,1.68-1.18,2.13-2.49,2.13-.88,0-1.53-.25-1.69-.36ZM95.14,106.88v-4.12c-.28-.18-.6-.32-.98-.32-.9,0-1.13.57-1.13,2.38s.24,2.37,1.13,2.37c.38,0,.7-.13.98-.31Z"/><path class="e" d="M1.09,118.96v-7.55h1.23v7.34c0,.55.14.78.77.78h.25v1.04h-.53c-.97,0-1.72-.29-1.72-1.61Z"/><path class="e" d="M8.74,120.11c-.42.35-.94.57-1.61.57-1.47,0-1.89-.91-1.89-2.28s.45-2.3,1.89-2.3c.56,0,.99.17,1.39.43v-.45c0-1.15-.29-1.65-1.4-1.65-.62,0-1.25.27-1.53.45v-1.12c.17-.13.84-.42,1.75-.42,1.4,0,2.41.6,2.41,2.46v4.71h-.9l-.11-.41ZM8.52,119.31v-1.83c-.32-.21-.67-.35-1.09-.35-.73,0-.94.39-.94,1.27s.21,1.26.94,1.26c.42,0,.77-.14,1.09-.35Z"/><path class="e" d="M12.62,113.51h.9l.1.39c.42-.34.94-.56,1.53-.56,1.53,0,1.99,1.05,1.99,2.37v4.8h-1.23v-4.66c0-.83-.17-1.43-1.06-1.43-.36,0-.7.13-.98.31v5.79h-1.23v-7Z"/><path class="e" d="M20.18,122.42v-1.15c.27.17.94.41,1.55.41.92,0,1.4-.25,1.4-1.26v-.55c-.35.25-.76.42-1.26.42-1.51,0-2.13-.87-2.13-3.47s.67-3.47,2.09-3.47c.64,0,1.15.21,1.54.55l.11-.38h.88v7.14c0,1.68-1.18,2.13-2.49,2.13-.88,0-1.53-.25-1.69-.36ZM23.14,118.88v-4.12c-.28-.18-.6-.32-.98-.32-.9,0-1.13.57-1.13,2.38s.24,2.37,1.13,2.37c.38,0,.7-.13.98-.31Z"/><path class="e" d="M30.65,120.14c-.39.34-.9.55-1.46.55-1.54,0-1.98-1.05-1.98-2.37v-4.8h1.23v4.67c0,.85.14,1.43,1.04,1.43.36,0,.67-.11.94-.29v-5.8h1.23v7h-.9l-.11-.38Z"/><path class="e" d="M37.77,120.11c-.42.35-.94.57-1.61.57-1.47,0-1.89-.91-1.89-2.28s.45-2.3,1.89-2.3c.56,0,.99.17,1.39.43v-.45c0-1.15-.29-1.65-1.4-1.65-.62,0-1.25.27-1.53.45v-1.12c.17-.13.84-.42,1.75-.42,1.4,0,2.41.6,2.41,2.46v4.71h-.9l-.11-.41ZM37.54,119.31v-1.83c-.32-.21-.67-.35-1.09-.35-.73,0-.94.39-.94,1.27s.21,1.26.94,1.26c.42,0,.77-.14,1.09-.35Z"/><path class="e" d="M41.84,122.42v-1.15c.27.17.94.41,1.55.41.92,0,1.4-.25,1.4-1.26v-.55c-.35.25-.76.42-1.26.42-1.51,0-2.13-.87-2.13-3.47s.67-3.47,2.09-3.47c.64,0,1.15.21,1.54.55l.11-.38h.88v7.14c0,1.68-1.18,2.13-2.49,2.13-.88,0-1.53-.25-1.69-.36ZM44.79,118.88v-4.12c-.28-.18-.6-.32-.98-.32-.9,0-1.13.57-1.13,2.38s.24,2.37,1.13,2.37c.38,0,.7-.13.98-.31Z"/><path class="e" d="M48.71,117.07c0-3,.77-3.73,2.31-3.73s2.31.7,2.31,3.67v.39h-3.38c.06,1.85.46,2.17,1.46,2.17.62,0,1.27-.24,1.54-.41v1.11c-.17.13-.81.41-1.65.41-1.58,0-2.59-.64-2.59-3.61ZM49.96,116.4h2.13c-.04-1.51-.28-1.99-1.06-1.99s-1.02.48-1.06,1.99Z"/><path class="e" d="M55.54,120.31v-1.18c.32.2.88.45,1.54.45.81,0,1.16-.34,1.16-.87,0-.42-.21-.73-.67-.98l-.84-.46c-.81-.45-1.2-1.11-1.2-1.89,0-1.34.91-2.03,2.24-2.03.76,0,1.19.18,1.44.32v1.13c-.21-.13-.73-.35-1.27-.35-.81,0-1.16.34-1.16.87,0,.42.22.71.67.97l.87.49c.91.52,1.18,1.12,1.18,1.88,0,1.29-.78,2.03-2.35,2.03-.77,0-1.39-.24-1.6-.38Z"/><path class="e" d="M80.18,118.96v-7.55h1.23v7.34c0,.55.14.78.77.78h.25v1.04h-.53c-.97,0-1.72-.29-1.72-1.61Z"/><path class="e" d="M87.84,120.11c-.42.35-.94.57-1.61.57-1.47,0-1.89-.91-1.89-2.28s.45-2.3,1.89-2.3c.56,0,.99.17,1.39.43v-.45c0-1.15-.29-1.65-1.4-1.65-.62,0-1.25.27-1.53.45v-1.12c.17-.13.84-.42,1.75-.42,1.4,0,2.41.6,2.41,2.46v4.71h-.9l-.11-.41ZM87.61,119.31v-1.83c-.32-.21-.67-.35-1.09-.35-.73,0-.94.39-.94,1.27s.21,1.26.94,1.26c.42,0,.77-.14,1.09-.35Z"/><path class="e" d="M91.71,111.41h1.23v2.35c.34-.25.76-.42,1.26-.42,1.51,0,2.13.84,2.13,3.67s-.67,3.67-2.09,3.67c-.64,0-1.16-.21-1.55-.55l-.1.38h-.88v-9.1ZM92.95,114.75v4.54c.28.18.6.31.98.31.91,0,1.15-.53,1.15-2.58s-.24-2.58-1.15-2.58c-.38,0-.7.13-.98.31Z"/></g></g></svg>