<?xml version="1.0" encoding="UTF-8"?><svg id="b" xmlns="http://www.w3.org/2000/svg" viewBox="0 0 99.56 133.72"><defs><style>.d{fill:#fff;}.e{stroke:#fff;stroke-miterlimit:10;}.e,.f{fill:none;}</style></defs><g id="c"><rect class="f" x="10.37" y="11.55" width="79.24" height="79.24"/><path class="d" d="M10.64,11.55h10.46v2.47h-3.76v14.97h-2.95v-14.97h-3.76v-2.47Z"/><path class="d" d="M25.87,21.72l-4.69-10.17h3.19l1.93,4.56c.4.99.78,2.09,1.07,3.11.27-1.02.64-2.12,1.07-3.11l1.93-4.56h3.14l-4.69,10.17v7.27h-2.95v-7.27Z"/><path class="d" d="M35.34,11.55h4.67c3.3,0,5.23,1.53,5.23,5.69s-2.07,5.69-5.23,5.69h-1.72v6.06h-2.95V11.55ZM38.29,14.02v6.44h1.45c1.64,0,2.47-.75,2.47-3.22s-.83-3.22-2.47-3.22h-1.45Z"/><path class="d" d="M48.25,11.55h8.58v2.47h-5.63v4.77h4.56v2.47h-4.56v5.26h5.63v2.47h-8.58V11.55Z"/><path class="d" d="M59.01,28.61v-2.68c.78.43,1.8.75,3.11.75,1.48,0,2.44-.56,2.44-1.98,0-1.31-.59-1.9-1.69-2.84l-1.42-1.21c-1.61-1.37-2.47-2.44-2.47-4.69,0-2.66,1.82-4.72,5.23-4.72,1.26,0,2.52.35,3,.67v2.68c-.59-.35-1.61-.72-2.74-.72-1.48,0-2.44.56-2.44,1.99,0,1.31.59,1.9,1.69,2.84l1.42,1.21c1.61,1.37,2.47,2.44,2.47,4.69,0,2.66-1.82,4.72-5.23,4.72-1.61,0-2.79-.32-3.38-.7Z"/><path class="d" d="M76.94,24.11c0-2.17.97-3.41,2.36-4.08-1.1-.7-1.82-1.85-1.82-3.81,0-3,1.93-4.99,5.74-4.99,1.39,0,2.66.32,3.41.72v2.63c-.59-.38-1.85-.78-3.06-.78-2.25,0-3.11.72-3.11,2.68,0,2.36,1.48,2.49,3.33,2.49h5.55v2.33h-1.88v7.67h-4.56c-3.51,0-5.96-1.07-5.96-4.88ZM82.9,26.63h1.61v-5.31h-1.61c-1.64,0-3,.29-3,2.66s1.34,2.66,3,2.66Z"/><path class="d" d="M11.71,49.78c0-7.35,1.9-9.04,5.55-9.04s5.55,1.61,5.55,9.04-1.9,9.04-5.55,9.04-5.55-1.58-5.55-9.04ZM19.76,49.78c0-5.15-.4-6.46-2.49-6.46s-2.49,1.31-2.49,6.46.4,6.46,2.49,6.46,2.49-1.31,2.49-6.46Z"/><path class="d" d="M29.87,41.06h4.67c3.3,0,5.23,1.53,5.23,5.69s-2.07,5.69-5.23,5.69h-1.72v6.06h-2.95v-17.44ZM32.82,43.53v6.44h1.45c1.64,0,2.47-.75,2.47-3.22s-.83-3.22-2.47-3.22h-1.45Z"/><path class="d" d="M46.47,41.06h8.58v2.47h-5.63v4.77h4.56v2.47h-4.56v5.26h5.63v2.47h-8.58v-17.44Z"/><path class="d" d="M62.24,41.06h4.43c3.19,0,5.55,1.26,5.55,5.28,0,2.52-1.15,4.05-2.82,4.75l3.62,7.4h-3.41l-3.06-6.87h-1.37v6.87h-2.95v-17.44ZM65.19,43.53v5.63h1.21c1.66,0,2.79-.35,2.79-2.82s-1.13-2.82-2.79-2.82h-1.21Z"/><path class="d" d="M81.91,41.06h3.06l4.59,17.44h-3.06l-.94-3.76h-4.35l-.91,3.76h-2.98l4.59-17.44ZM81.74,52.28h3.3l-.56-2.5c-.27-1.18-.72-3.33-1.02-5.34-.32,2.01-.8,4.16-1.1,5.34l-.62,2.5Z"/><path class="d" d="M10.64,70.57h10.46v2.47h-3.76v14.97h-2.95v-14.97h-3.76v-2.47Z"/><path class="d" d="M29.46,70.57h2.95v17.44h-2.95v-17.44Z"/><path class="d" d="M41.84,79.29c0-7.35,1.9-9.04,5.55-9.04s5.55,1.61,5.55,9.04-1.9,9.04-5.55,9.04-5.55-1.58-5.55-9.04ZM49.89,79.29c0-5.15-.4-6.47-2.5-6.47s-2.49,1.31-2.49,6.47.4,6.46,2.49,6.46,2.5-1.31,2.5-6.46Z"/><path class="d" d="M62.38,70.57h3.41l5.04,13.22c-.21-1.56-.43-3.3-.43-4.91v-8.32h2.82v17.44h-3.41l-5.07-13.2c.24,1.53.46,3.27.46,4.88v8.32h-2.82v-17.44Z"/><path class="d" d="M82.55,87.63v-2.68c.78.43,1.8.75,3.11.75,1.48,0,2.44-.56,2.44-1.99,0-1.31-.59-1.9-1.69-2.84l-1.42-1.21c-1.61-1.37-2.47-2.44-2.47-4.69,0-2.66,1.82-4.72,5.23-4.72,1.26,0,2.52.35,3,.67v2.68c-.59-.35-1.61-.72-2.74-.72-1.48,0-2.44.56-2.44,1.99,0,1.31.59,1.9,1.69,2.84l1.42,1.21c1.61,1.37,2.47,2.44,2.47,4.69,0,2.66-1.82,4.72-5.23,4.72-1.61,0-2.79-.32-3.38-.7Z"/><path class="d" d="M.87,109.57c0-3.24.76-4.22,2.54-4.22s2.56.95,2.56,4.22-.76,4.22-2.56,4.22-2.54-.95-2.54-4.22ZM4.99,109.57c0-2.61-.35-3.36-1.58-3.36s-1.56.76-1.56,3.36.35,3.36,1.56,3.36,1.58-.76,1.58-3.36Z"/><path class="d" d="M7.68,106.01h1.27v-1.11c0-1.53.9-1.77,1.87-1.77h.68v.82h-.45c-.79,0-1.13.14-1.13,1.06v1h1.58v.84h-1.58v6.75h-.97v-6.75h-1.27v-.84Z"/><path class="d" d="M17.72,105.55h.71l.1.42c.43-.37,1.01-.61,1.64-.61,1.74,0,2.46.87,2.46,4.22s-.77,4.22-2.45,4.22c-.58,0-1.09-.19-1.5-.48v2.71h-.97v-10.46ZM18.69,106.64v5.88c.34.24.8.42,1.32.42,1.26,0,1.63-.71,1.63-3.36s-.37-3.36-1.63-3.36c-.52,0-.98.19-1.32.43Z"/><path class="d" d="M25.45,105.55h.71l.13.63c.6-.43,1.3-.74,2.32-.74v.95c-.92,0-1.59.13-2.19.43v6.78h-.97v-8.05Z"/><path class="d" d="M30.44,109.57c0-3.24.76-4.22,2.54-4.22s2.56.95,2.56,4.22-.76,4.22-2.56,4.22-2.54-.95-2.54-4.22ZM34.56,109.57c0-2.61-.35-3.36-1.58-3.36s-1.56.76-1.56,3.36.35,3.36,1.56,3.36,1.58-.76,1.58-3.36Z"/><path class="d" d="M38.61,115.8v-.93c.27.19,1.03.47,1.72.47,1.05,0,1.67-.35,1.67-1.64v-.8c-.4.31-.9.5-1.46.5-1.74,0-2.46-.85-2.46-4.02s.77-4.01,2.45-4.01c.63,0,1.22.23,1.66.6l.1-.4h.69v8.35c0,1.87-1.27,2.3-2.54,2.3-.82,0-1.55-.21-1.82-.4ZM42.01,112.1v-5.46c-.34-.24-.81-.43-1.3-.43-1.26,0-1.63.71-1.63,3.16s.37,3.17,1.63,3.17c.5,0,.97-.19,1.3-.43Z"/><path class="d" d="M46.08,105.55h.71l.13.63c.6-.43,1.3-.74,2.32-.74v.95c-.92,0-1.59.13-2.19.43v6.78h-.97v-8.05Z"/><path class="d" d="M55.03,113.11c-.48.42-1.08.68-1.79.68-1.61,0-2.12-.98-2.12-2.56s.55-2.56,2.12-2.56c.63,0,1.19.24,1.66.6v-1.05c0-1.32-.4-2.01-1.72-2.01-.77,0-1.46.35-1.72.53v-.92c.29-.19.97-.47,1.84-.47,1.77,0,2.56.93,2.56,2.69v5.55h-.69l-.13-.48ZM54.9,112.44v-2.42c-.39-.29-.87-.53-1.48-.53-1.01,0-1.32.58-1.32,1.74s.31,1.75,1.32,1.75c.61,0,1.09-.24,1.48-.55Z"/><path class="d" d="M58.88,105.55h.71l.1.45c.47-.42,1.09-.64,1.72-.64.85,0,1.42.32,1.75.82.5-.53,1.27-.82,1.96-.82,1.77,0,2.29,1.24,2.29,2.66v5.59h-.97v-5.42c0-1.11-.31-1.98-1.45-1.98-.58,0-1.14.27-1.53.61.11.37.16.79.16,1.21v5.59h-.97v-5.42c0-1.11-.31-1.98-1.45-1.98-.55,0-1.01.21-1.37.47v6.94h-.97v-8.05Z"/><path class="d" d="M70.42,105.55h.71l.1.45c.47-.42,1.09-.64,1.72-.64.85,0,1.42.32,1.75.82.5-.53,1.27-.82,1.96-.82,1.77,0,2.29,1.24,2.29,2.66v5.59h-.97v-5.42c0-1.11-.31-1.98-1.45-1.98-.58,0-1.14.27-1.53.61.11.37.16.79.16,1.21v5.59h-.97v-5.42c0-1.11-.31-1.98-1.45-1.98-.55,0-1.01.21-1.37.47v6.94h-.97v-8.05Z"/><path class="d" d="M81.78,103.89c0-.39.24-.63.66-.63s.66.24.66.63-.23.63-.66.63-.66-.24-.66-.63ZM81.96,105.55h.97v8.05h-.97v-8.05Z"/><path class="d" d="M86.02,105.55h.71l.1.45c.47-.42,1.09-.64,1.72-.64,1.71,0,2.22,1.24,2.22,2.66v5.59h-.97v-5.42c0-1.11-.31-1.98-1.45-1.98-.55,0-1.01.21-1.37.47v6.94h-.97v-8.05Z"/><path class="d" d="M94.03,115.8v-.93c.27.19,1.03.47,1.72.47,1.05,0,1.67-.35,1.67-1.64v-.8c-.4.31-.9.5-1.46.5-1.74,0-2.46-.85-2.46-4.02s.77-4.01,2.45-4.01c.63,0,1.22.23,1.66.6l.1-.4h.69v8.35c0,1.87-1.27,2.3-2.54,2.3-.82,0-1.55-.21-1.82-.4ZM97.43,112.1v-5.46c-.34-.24-.8-.43-1.3-.43-1.26,0-1.63.71-1.63,3.16s.37,3.17,1.63,3.17c.5,0,.97-.19,1.3-.43Z"/><path class="d" d="M1.06,128.21v-8.98h.97v8.79c0,.64.15.92.9.92h.39v.82h-.61c-.9,0-1.64-.27-1.64-1.55Z"/><path class="d" d="M9.11,129.21c-.48.42-1.08.68-1.79.68-1.61,0-2.12-.98-2.12-2.56s.55-2.56,2.12-2.56c.63,0,1.19.24,1.66.6v-1.05c0-1.32-.4-2.01-1.72-2.01-.77,0-1.47.35-1.72.53v-.92c.29-.19.97-.47,1.83-.47,1.77,0,2.56.93,2.56,2.69v5.55h-.69l-.13-.48ZM8.98,128.53v-2.42c-.39-.29-.87-.53-1.48-.53-1.01,0-1.32.58-1.32,1.74s.31,1.75,1.32,1.75c.61,0,1.09-.24,1.48-.55Z"/><path class="d" d="M12.96,121.64h.71l.1.45c.47-.42,1.09-.64,1.72-.64,1.71,0,2.22,1.24,2.22,2.66v5.59h-.97v-5.42c0-1.11-.31-1.98-1.45-1.98-.55,0-1.01.21-1.37.47v6.94h-.97v-8.05Z"/><path class="d" d="M20.97,131.9v-.93c.27.19,1.03.47,1.72.47,1.05,0,1.67-.35,1.67-1.64v-.8c-.4.31-.9.5-1.46.5-1.74,0-2.46-.85-2.46-4.02s.77-4.01,2.45-4.01c.63,0,1.22.23,1.66.6l.1-.4h.69v8.35c0,1.87-1.27,2.3-2.54,2.3-.82,0-1.55-.21-1.82-.4ZM24.37,128.2v-5.46c-.34-.24-.81-.43-1.3-.43-1.26,0-1.63.71-1.63,3.16s.37,3.17,1.63,3.17c.5,0,.97-.19,1.3-.43Z"/><path class="d" d="M31.98,129.21c-.48.42-1.08.68-1.79.68-1.61,0-2.12-.98-2.12-2.56s.55-2.56,2.12-2.56c.63,0,1.19.24,1.66.6v-1.05c0-1.32-.4-2.01-1.72-2.01-.77,0-1.47.35-1.72.53v-.92c.29-.19.97-.47,1.83-.47,1.77,0,2.56.93,2.56,2.69v5.55h-.69l-.13-.48ZM31.85,128.53v-2.42c-.39-.29-.87-.53-1.48-.53-1.01,0-1.32.58-1.32,1.74s.31,1.75,1.32,1.75c.61,0,1.09-.24,1.48-.55Z"/><path class="d" d="M39.63,129.27c-.47.4-1.05.61-1.66.61-1.71,0-2.22-1.24-2.22-2.66v-5.59h.97v5.42c0,1.16.31,1.98,1.45,1.98.53,0,.95-.19,1.3-.43v-6.97h.95v8.05h-.69l-.1-.42Z"/><path class="d" d="M43.78,131.9v-.93c.27.19,1.03.47,1.72.47,1.05,0,1.67-.35,1.67-1.64v-.8c-.4.31-.9.5-1.46.5-1.74,0-2.46-.85-2.46-4.02s.77-4.01,2.45-4.01c.63,0,1.22.23,1.66.6l.1-.4h.69v8.35c0,1.87-1.27,2.3-2.54,2.3-.82,0-1.55-.21-1.82-.4ZM47.18,128.2v-5.46c-.34-.24-.81-.43-1.3-.43-1.26,0-1.63.71-1.63,3.16s.37,3.17,1.63,3.17c.5,0,.97-.19,1.3-.43Z"/><path class="d" d="M50.98,125.68c0-3.3.77-4.23,2.46-4.23s2.46.9,2.46,4.22v.23h-3.94c.03,2.54.55,3.12,1.88,3.12.71,0,1.46-.29,1.72-.47v.92c-.27.18-.98.42-1.83.42-1.9,0-2.75-.93-2.75-4.2ZM51.96,125.07h2.96c-.05-2.08-.4-2.79-1.48-2.79s-1.43.71-1.48,2.79Z"/><path class="d" d="M58.09,129.47v-.93c.27.19.92.48,1.66.48,1.06,0,1.51-.48,1.51-1.24,0-.71-.37-1.14-.92-1.48l-.98-.61c-.87-.53-1.24-1.24-1.24-2.06,0-1.37.9-2.17,2.4-2.17.69,0,1.11.14,1.42.29v.92c-.21-.14-.74-.34-1.32-.34-1.03,0-1.51.48-1.51,1.24,0,.71.39,1.08.93,1.43l1,.64c.89.56,1.21,1.27,1.21,2.08,0,1.35-.82,2.17-2.43,2.17-.76,0-1.43-.21-1.72-.42Z"/><path class="d" d="M68.84,128.21v-8.98h.97v8.79c0,.64.14.92.9.92h.39v.82h-.61c-.9,0-1.64-.27-1.64-1.55Z"/><path class="d" d="M76.89,129.21c-.48.42-1.08.68-1.79.68-1.61,0-2.12-.98-2.12-2.56s.55-2.56,2.12-2.56c.63,0,1.19.24,1.66.6v-1.05c0-1.32-.4-2.01-1.72-2.01-.77,0-1.46.35-1.72.53v-.92c.29-.19.97-.47,1.84-.47,1.77,0,2.56.93,2.56,2.69v5.55h-.69l-.13-.48ZM76.76,128.53v-2.42c-.39-.29-.87-.53-1.48-.53-1.01,0-1.32.58-1.32,1.74s.31,1.75,1.32,1.75c.61,0,1.09-.24,1.48-.55Z"/><path class="d" d="M80.74,119.23h.97v2.74c.39-.31.9-.51,1.48-.51,1.74,0,2.46.87,2.46,4.22s-.77,4.22-2.45,4.22c-.64,0-1.24-.21-1.67-.58l-.08.39h-.71v-10.46ZM81.7,122.74v5.88c.34.24.81.42,1.32.42,1.26,0,1.63-.71,1.63-3.36s-.37-3.36-1.63-3.36c-.51,0-.98.19-1.32.43Z"/><rect class="e" x="1.55" y=".5" width="96.87" height="96.87"/></g></svg>