<?xml version="1.0" encoding="UTF-8"?><svg id="b" xmlns="http://www.w3.org/2000/svg" viewBox="0 0 96.87 107.29"><defs><style>.e{fill:#fff;}</style></defs><g id="c"><g id="d"><path class="e" d="M.53,103.23c0-1.98.46-2.58,1.56-2.58s1.57.58,1.57,2.58-.46,2.58-1.57,2.58-1.56-.58-1.56-2.58ZM3.06,103.23c0-1.6-.22-2.06-.97-2.06s-.96.46-.96,2.06.22,2.06.96,2.06.97-.46.97-2.06Z"/><path class="e" d="M3.96,101.05h.78v-.68c0-.94.55-1.08,1.14-1.08h.41v.5h-.28c-.48,0-.69.09-.69.65v.61h.97v.51h-.97v4.13h-.59v-4.13h-.78v-.51Z"/><path class="e" d="M8.64,100.76h.43l.06.26c.27-.23.62-.38,1.01-.38,1.06,0,1.51.53,1.51,2.58s-.47,2.58-1.5,2.58c-.35,0-.67-.12-.92-.3v1.66h-.59v-6.41ZM9.23,101.43v3.6c.21.15.49.26.81.26.77,0,1-.43,1-2.06s-.23-2.06-1-2.06c-.32,0-.6.12-.81.27Z"/><path class="e" d="M12.63,100.76h.43l.08.38c.36-.27.8-.45,1.42-.45v.58c-.56,0-.98.08-1.34.27v4.15h-.59v-4.93Z"/><path class="e" d="M14.95,103.23c0-1.98.46-2.58,1.56-2.58s1.57.58,1.57,2.58-.46,2.58-1.57,2.58-1.56-.58-1.56-2.58ZM17.47,103.23c0-1.6-.22-2.06-.97-2.06s-.96.46-.96,2.06.22,2.06.96,2.06.97-.46.97-2.06Z"/><path class="e" d="M19.21,107.04v-.57c.17.12.63.29,1.05.29.64,0,1.03-.22,1.03-1v-.49c-.25.19-.55.31-.9.31-1.06,0-1.51-.52-1.51-2.46s.47-2.45,1.5-2.45c.38,0,.75.14,1.02.36l.06-.25h.42v5.12c0,1.14-.78,1.41-1.56,1.41-.5,0-.95-.13-1.11-.25ZM21.29,104.77v-3.34c-.21-.15-.49-.27-.8-.27-.77,0-1,.43-1,1.93s.23,1.94,1,1.94c.31,0,.59-.12.8-.27Z"/><path class="e" d="M23.05,100.76h.43l.08.38c.36-.27.8-.45,1.42-.45v.58c-.56,0-.98.08-1.34.27v4.15h-.59v-4.93Z"/><path class="e" d="M27.79,105.4c-.3.26-.66.41-1.09.41-.99,0-1.3-.6-1.3-1.57s.33-1.57,1.3-1.57c.38,0,.73.15,1.02.37v-.64c0-.81-.25-1.23-1.05-1.23-.47,0-.9.22-1.05.33v-.56c.18-.12.59-.29,1.12-.29,1.08,0,1.57.57,1.57,1.65v3.4h-.42l-.08-.3ZM27.71,104.98v-1.48c-.24-.18-.53-.33-.91-.33-.62,0-.81.35-.81,1.06s.19,1.07.81,1.07c.37,0,.67-.15.91-.33Z"/><path class="e" d="M29.41,100.76h.43l.06.28c.29-.26.67-.39,1.05-.39.52,0,.87.2,1.07.5.31-.33.78-.5,1.2-.5,1.08,0,1.4.76,1.4,1.63v3.42h-.59v-3.32c0-.68-.19-1.21-.89-1.21-.35,0-.7.17-.94.37.07.23.1.48.1.74v3.42h-.59v-3.32c0-.68-.19-1.21-.89-1.21-.34,0-.62.13-.84.29v4.25h-.59v-4.93Z"/><path class="e" d="M35.74,100.76h.43l.06.28c.29-.26.67-.39,1.05-.39.52,0,.87.2,1.07.5.31-.33.78-.5,1.2-.5,1.08,0,1.4.76,1.4,1.63v3.42h-.59v-3.32c0-.68-.19-1.21-.89-1.21-.35,0-.7.17-.94.37.07.23.1.48.1.74v3.42h-.59v-3.32c0-.68-.19-1.21-.89-1.21-.34,0-.62.13-.84.29v4.25h-.59v-4.93Z"/><path class="e" d="M41.96,99.75c0-.24.15-.38.4-.38s.4.15.4.38-.14.38-.4.38-.4-.15-.4-.38ZM42.07,100.76h.59v4.93h-.59v-4.93Z"/><path class="e" d="M43.81,100.76h.43l.06.28c.29-.26.67-.39,1.05-.39,1.04,0,1.36.76,1.36,1.63v3.42h-.59v-3.32c0-.68-.19-1.21-.89-1.21-.33,0-.62.13-.84.29v4.25h-.59v-4.93Z"/><path class="e" d="M47.98,107.04v-.57c.17.12.63.29,1.05.29.64,0,1.03-.22,1.03-1v-.49c-.25.19-.55.31-.9.31-1.06,0-1.51-.52-1.51-2.46s.47-2.45,1.5-2.45c.38,0,.75.14,1.02.36l.06-.25h.42v5.12c0,1.14-.78,1.41-1.56,1.41-.5,0-.95-.13-1.11-.25ZM50.06,104.77v-3.34c-.21-.15-.49-.27-.8-.27-.77,0-1,.43-1,1.93s.23,1.94,1,1.94c.31,0,.59-.12.8-.27Z"/><path class="e" d="M53.49,104.78v-5.5h.59v5.38c0,.39.09.56.55.56h.24v.5h-.37c-.55,0-1.01-.17-1.01-.95Z"/><path class="e" d="M57.68,105.4c-.3.26-.66.41-1.09.41-.99,0-1.3-.6-1.3-1.57s.33-1.57,1.3-1.57c.38,0,.73.15,1.02.37v-.64c0-.81-.25-1.23-1.05-1.23-.47,0-.9.22-1.06.33v-.56c.18-.12.59-.29,1.12-.29,1.08,0,1.57.57,1.57,1.65v3.4h-.42l-.08-.3ZM57.6,104.98v-1.48c-.24-.18-.53-.33-.91-.33-.62,0-.81.35-.81,1.06s.19,1.07.81,1.07c.37,0,.67-.15.91-.33Z"/><path class="e" d="M59.3,100.76h.43l.06.28c.29-.26.67-.39,1.05-.39,1.04,0,1.36.76,1.36,1.63v3.42h-.59v-3.32c0-.68-.19-1.21-.89-1.21-.33,0-.62.13-.84.29v4.25h-.59v-4.93Z"/><path class="e" d="M63.47,107.04v-.57c.17.12.63.29,1.05.29.64,0,1.03-.22,1.03-1v-.49c-.25.19-.55.31-.9.31-1.06,0-1.51-.52-1.51-2.46s.47-2.45,1.5-2.45c.38,0,.75.14,1.02.36l.06-.25h.42v5.12c0,1.14-.78,1.41-1.56,1.41-.5,0-.95-.13-1.11-.25ZM65.55,104.77v-3.34c-.21-.15-.49-.27-.8-.27-.77,0-1,.43-1,1.93s.23,1.94,1,1.94c.31,0,.59-.12.8-.27Z"/><path class="e" d="M69.63,105.44c-.29.25-.64.37-1.02.37-1.04,0-1.36-.76-1.36-1.63v-3.42h.59v3.32c0,.71.19,1.21.89,1.21.33,0,.58-.12.8-.27v-4.27h.58v4.93h-.42l-.06-.26Z"/><path class="e" d="M73.44,105.4c-.3.26-.66.41-1.09.41-.99,0-1.3-.6-1.3-1.57s.33-1.57,1.3-1.57c.38,0,.73.15,1.02.37v-.64c0-.81-.25-1.23-1.05-1.23-.47,0-.9.22-1.06.33v-.56c.18-.12.59-.29,1.12-.29,1.08,0,1.57.57,1.57,1.65v3.4h-.42l-.08-.3ZM73.37,104.98v-1.48c-.24-.18-.53-.33-.91-.33-.62,0-.81.35-.81,1.06s.19,1.07.81,1.07c.37,0,.67-.15.91-.33Z"/><path class="e" d="M75.22,107.04v-.57c.17.12.63.29,1.05.29.64,0,1.03-.22,1.03-1v-.49c-.25.19-.55.31-.9.31-1.06,0-1.51-.52-1.51-2.46s.47-2.45,1.5-2.45c.38,0,.75.14,1.02.36l.06-.25h.42v5.12c0,1.14-.78,1.41-1.56,1.41-.5,0-.95-.13-1.11-.25ZM77.3,104.77v-3.34c-.21-.15-.49-.27-.8-.27-.77,0-1,.43-1,1.93s.23,1.94,1,1.94c.31,0,.59-.12.8-.27Z"/><path class="e" d="M78.89,103.24c0-2.02.47-2.59,1.51-2.59s1.51.55,1.51,2.58v.14h-2.42c.02,1.56.33,1.91,1.15,1.91.43,0,.9-.18,1.05-.29v.56c-.17.11-.6.26-1.12.26-1.16,0-1.69-.57-1.69-2.57ZM79.49,102.86h1.81c-.03-1.27-.25-1.71-.91-1.71s-.88.43-.91,1.71Z"/><path class="e" d="M82.5,105.55v-.57c.17.12.56.3,1.02.3.65,0,.93-.3.93-.76,0-.43-.23-.7-.56-.91l-.6-.37c-.53-.33-.76-.76-.76-1.26,0-.84.55-1.33,1.47-1.33.42,0,.68.09.87.18v.56c-.13-.09-.45-.21-.81-.21-.63,0-.93.3-.93.76,0,.43.24.66.57.88l.61.39c.54.35.74.78.74,1.27,0,.83-.5,1.33-1.49,1.33-.46,0-.88-.13-1.05-.26Z"/><path class="e" d="M87.61,104.78v-5.5h.59v5.38c0,.39.09.56.55.56h.24v.5h-.37c-.55,0-1.01-.17-1.01-.95Z"/><path class="e" d="M91.8,105.4c-.3.26-.66.41-1.09.41-.99,0-1.3-.6-1.3-1.57s.33-1.57,1.3-1.57c.38,0,.73.15,1.02.37v-.64c0-.81-.25-1.23-1.05-1.23-.47,0-.9.22-1.06.33v-.56c.18-.12.59-.29,1.12-.29,1.08,0,1.57.57,1.57,1.65v3.4h-.42l-.08-.3ZM91.72,104.98v-1.48c-.24-.18-.53-.33-.91-.33-.62,0-.81.35-.81,1.06s.19,1.07.81,1.07c.37,0,.67-.15.91-.33Z"/><path class="e" d="M93.42,99.28h.59v1.68c.24-.19.55-.32.91-.32,1.06,0,1.51.53,1.51,2.58s-.47,2.58-1.5,2.58c-.39,0-.76-.13-1.03-.35l-.05.24h-.43v-6.41ZM94.01,101.43v3.6c.21.15.49.26.81.26.77,0,1-.43,1-2.06s-.23-2.06-1-2.06c-.32,0-.6.12-.81.27Z"/><path class="e" d="M11.38,11.55h9.19v2.17h-3.3v13.14h-2.59v-13.14h-3.3v-2.17Z"/><path class="e" d="M31.33,20.08h-4.24v6.78h-2.59v-15.31h2.59v6.36h4.24v-6.36h2.59v15.31h-2.59v-6.78Z"/><path class="e" d="M38.11,11.55h7.54v2.17h-4.95v4.19h4v2.17h-4v4.62h4.95v2.17h-7.54v-15.31Z"/><path class="e" d="M50.18,19.21c0-6.45,1.67-7.94,4.88-7.94s4.88,1.41,4.88,7.94-1.67,7.94-4.88,7.94-4.88-1.39-4.88-7.94ZM57.25,19.21c0-4.52-.35-5.68-2.19-5.68s-2.19,1.15-2.19,5.68.35,5.68,2.19,5.68,2.19-1.15,2.19-5.68Z"/><path class="e" d="M63.17,11.55h3.89c2.8,0,4.88,1.11,4.88,4.64,0,2.21-1.01,3.56-2.47,4.17l3.18,6.5h-2.99l-2.68-6.03h-1.2v6.03h-2.59v-15.31ZM65.76,13.72v4.95h1.06c1.46,0,2.45-.31,2.45-2.47s-.99-2.47-2.45-2.47h-1.06Z"/><path class="e" d="M80.03,20.48l-4.12-8.93h2.8l1.7,4c.35.87.68,1.84.94,2.73.23-.9.57-1.86.94-2.73l1.7-4h2.76l-4.12,8.93v6.38h-2.59v-6.38Z"/><path class="e" d="M10.53,50.84c0-1.91.85-2.99,2.07-3.58-.97-.61-1.6-1.63-1.6-3.34,0-2.64,1.7-4.38,5.04-4.38,1.22,0,2.33.28,2.99.64v2.31c-.52-.33-1.63-.68-2.69-.68-1.98,0-2.73.64-2.73,2.36,0,2.07,1.3,2.19,2.92,2.19h4.88v2.05h-1.65v6.74h-4c-3.09,0-5.23-.94-5.23-4.29ZM15.76,53.06h1.41v-4.66h-1.41c-1.44,0-2.64.26-2.64,2.33s1.18,2.33,2.64,2.33Z"/><path class="e" d="M37.01,47.47c0-6.45,1.67-7.94,4.88-7.94s4.88,1.41,4.88,7.94-1.67,7.94-4.88,7.94-4.88-1.39-4.88-7.94ZM44.07,47.47c0-4.52-.35-5.68-2.19-5.68s-2.19,1.15-2.19,5.68.35,5.68,2.19,5.68,2.19-1.15,2.19-5.68Z"/><path class="e" d="M50.71,39.82h4.1c2.9,0,4.59,1.34,4.59,4.99s-1.81,4.99-4.59,4.99h-1.51v5.32h-2.59v-15.31ZM53.3,41.99v5.65h1.27c1.44,0,2.17-.66,2.17-2.83s-.73-2.83-2.17-2.83h-1.27Z"/><path class="e" d="M64.13,39.82h7.54v2.17h-4.95v4.19h4v2.17h-4v4.62h4.95v2.17h-7.54v-15.31Z"/><path class="e" d="M76.59,39.82h3.89c2.8,0,4.88,1.11,4.88,4.64,0,2.21-1.01,3.56-2.47,4.17l3.18,6.5h-2.99l-2.68-6.03h-1.2v6.03h-2.59v-15.31ZM79.18,41.99v4.95h1.06c1.46,0,2.45-.31,2.45-2.47s-.99-2.47-2.45-2.47h-1.06Z"/><path class="e" d="M14.63,68.08h2.69l4.03,15.31h-2.69l-.82-3.3h-3.82l-.8,3.3h-2.61l4.03-15.31ZM14.48,77.93h2.9l-.49-2.19c-.24-1.04-.64-2.92-.9-4.69-.28,1.77-.71,3.65-.97,4.69l-.54,2.19Z"/><path class="e" d="M24.62,68.08h9.19v2.17h-3.3v13.14h-2.59v-13.14h-3.3v-2.17Z"/><path class="e" d="M40.59,68.08h2.59v15.31h-2.59v-15.31Z"/><path class="e" d="M50.18,75.74c0-6.45,1.67-7.94,4.88-7.94s4.88,1.41,4.88,7.94-1.67,7.94-4.88,7.94-4.88-1.39-4.88-7.94ZM57.25,75.74c0-4.52-.35-5.68-2.19-5.68s-2.19,1.15-2.19,5.68.35,5.68,2.19,5.68,2.19-1.15,2.19-5.68Z"/><path class="e" d="M63.14,68.08h2.99l4.43,11.61c-.19-1.37-.38-2.9-.38-4.31v-7.3h2.47v15.31h-2.99l-4.45-11.59c.21,1.34.4,2.87.4,4.29v7.3h-2.47v-15.31Z"/><path class="e" d="M77.56,83.07v-2.36c.68.38,1.58.66,2.73.66,1.3,0,2.14-.49,2.14-1.74,0-1.15-.52-1.67-1.48-2.5l-1.25-1.06c-1.41-1.2-2.17-2.14-2.17-4.12,0-2.33,1.6-4.15,4.59-4.15,1.11,0,2.21.31,2.64.59v2.36c-.52-.31-1.41-.64-2.4-.64-1.3,0-2.14.49-2.14,1.74,0,1.15.52,1.67,1.48,2.5l1.25,1.06c1.41,1.2,2.17,2.14,2.17,4.12,0,2.33-1.6,4.15-4.59,4.15-1.41,0-2.45-.28-2.97-.61Z"/><path class="e" d="M94.87,2v92.87H2V2h92.87M96.87,0H0v96.87h96.87V0h0Z"/></g></g></svg>