<?xml version="1.0" encoding="UTF-8"?><svg id="b" xmlns="http://www.w3.org/2000/svg" viewBox="0 0 96.87 128.37"><defs><style>.d{fill:#fff;}.e{fill:none;stroke:#fff;stroke-width:.5px;}</style></defs><g id="c"><path class="d" d="M9.08,11.05h10.46v2.47h-3.76v14.97h-2.95v-14.97h-3.76v-2.47Z"/><path class="d" d="M29.54,21.22l-4.69-10.17h3.19l1.93,4.56c.4.99.78,2.09,1.07,3.11.27-1.02.64-2.12,1.07-3.11l1.93-4.56h3.14l-4.69,10.17v7.27h-2.95v-7.27Z"/><path class="d" d="M44.22,11.05h4.67c3.3,0,5.23,1.53,5.23,5.69s-2.07,5.69-5.23,5.69h-1.72v6.06h-2.95V11.05ZM47.17,13.52v6.44h1.45c1.64,0,2.47-.75,2.47-3.22s-.83-3.22-2.47-3.22h-1.45Z"/><path class="d" d="M61.35,11.05h8.58v2.47h-5.63v4.77h4.56v2.47h-4.56v5.26h5.63v2.47h-8.58V11.05Z"/><path class="d" d="M78.32,28.11v-2.68c.78.43,1.8.75,3.11.75,1.48,0,2.44-.56,2.44-1.98,0-1.31-.59-1.9-1.69-2.84l-1.42-1.21c-1.61-1.37-2.47-2.44-2.47-4.69,0-2.66,1.82-4.72,5.23-4.72,1.26,0,2.52.35,3,.67v2.68c-.59-.35-1.61-.72-2.74-.72-1.48,0-2.44.56-2.44,1.99,0,1.31.59,1.9,1.69,2.84l1.42,1.21c1.61,1.37,2.47,2.44,2.47,4.69,0,2.66-1.82,4.72-5.23,4.72-1.61,0-2.79-.32-3.38-.7Z"/><path class="d" d="M9.08,49.28c0-7.35,1.9-9.04,5.55-9.04s5.55,1.61,5.55,9.04-1.9,9.04-5.55,9.04-5.55-1.58-5.55-9.04ZM17.13,49.28c0-5.15-.4-6.46-2.49-6.46s-2.49,1.31-2.49,6.46.4,6.46,2.49,6.46,2.49-1.31,2.49-6.46Z"/><path class="d" d="M27.54,40.56h4.67c3.3,0,5.23,1.53,5.23,5.69s-2.07,5.69-5.23,5.69h-1.72v6.06h-2.95v-17.44ZM30.49,43.03v6.44h1.45c1.64,0,2.47-.75,2.47-3.22s-.83-3.22-2.47-3.22h-1.45Z"/><path class="d" d="M43.92,40.56h8.58v2.47h-5.63v4.77h4.56v2.47h-4.56v5.26h5.63v2.47h-8.58v-17.44Z"/><path class="d" d="M60.69,40.56h4.43c3.19,0,5.55,1.26,5.55,5.28,0,2.52-1.15,4.05-2.82,4.75l3.62,7.4h-3.41l-3.06-6.87h-1.37v6.87h-2.95v-17.44ZM63.64,43.03v5.63h1.21c1.66,0,2.79-.35,2.79-2.82s-1.13-2.82-2.79-2.82h-1.21Z"/><path class="d" d="M80.35,40.56h3.06l4.59,17.44h-3.06l-.94-3.76h-4.35l-.91,3.76h-2.98l4.59-17.44ZM80.19,51.78h3.3l-.56-2.5c-.27-1.18-.72-3.33-1.02-5.34-.32,2.01-.8,4.16-1.1,5.34l-.62,2.5Z"/><path class="d" d="M9.08,70.07h10.46v2.47h-3.76v14.97h-2.95v-14.97h-3.76v-2.47Z"/><path class="d" d="M29.54,70.07h2.95v17.44h-2.95v-17.44Z"/><path class="d" d="M41.62,78.79c0-7.35,1.9-9.04,5.55-9.04s5.55,1.61,5.55,9.04-1.9,9.04-5.55,9.04-5.55-1.58-5.55-9.04ZM49.67,78.79c0-5.15-.4-6.47-2.5-6.47s-2.49,1.31-2.49,6.47.4,6.46,2.49,6.46,2.5-1.31,2.5-6.46Z"/><path class="d" d="M60.67,70.07h3.41l5.04,13.22c-.21-1.56-.43-3.3-.43-4.91v-8.32h2.82v17.44h-3.41l-5.07-13.2c.24,1.53.46,3.27.46,4.88v8.32h-2.82v-17.44Z"/><path class="d" d="M78,87.13v-2.68c.78.43,1.8.75,3.11.75,1.48,0,2.44-.56,2.44-1.99,0-1.31-.59-1.9-1.69-2.84l-1.42-1.21c-1.61-1.37-2.47-2.44-2.47-4.69,0-2.66,1.82-4.72,5.23-4.72,1.26,0,2.52.35,3,.67v2.68c-.59-.35-1.61-.72-2.74-.72-1.48,0-2.44.56-2.44,1.99,0,1.31.59,1.9,1.69,2.84l1.42,1.21c1.61,1.37,2.47,2.44,2.47,4.69,0,2.66-1.82,4.72-5.23,4.72-1.61,0-2.79-.32-3.38-.7Z"/><path class="d" d="M.84,106.3c0-3.14.73-4.09,2.47-4.09s2.48.92,2.48,4.09-.73,4.09-2.48,4.09-2.47-.92-2.47-4.09ZM4.84,106.3c0-2.53-.34-3.27-1.53-3.27s-1.52.73-1.52,3.27.34,3.27,1.52,3.27,1.53-.73,1.53-3.27Z"/><path class="d" d="M7.46,102.85h1.23v-1.08c0-1.48.88-1.72,1.81-1.72h.66v.8h-.44c-.77,0-1.09.14-1.09,1.03v.97h1.53v.81h-1.53v6.55h-.94v-6.55h-1.23v-.81Z"/><path class="d" d="M17.21,102.4h.69l.09.41c.42-.36.98-.59,1.59-.59,1.69,0,2.39.84,2.39,4.09s-.75,4.09-2.38,4.09c-.56,0-1.06-.19-1.45-.47v2.62h-.94v-10.16ZM18.15,103.46v5.7c.33.23.78.41,1.28.41,1.22,0,1.58-.69,1.58-3.27s-.36-3.27-1.58-3.27c-.5,0-.95.19-1.28.42Z"/><path class="d" d="M24.71,102.4h.69l.12.61c.58-.42,1.27-.72,2.25-.72v.92c-.89,0-1.55.12-2.12.42v6.58h-.94v-7.81Z"/><path class="d" d="M29.56,106.3c0-3.14.73-4.09,2.47-4.09s2.48.92,2.48,4.09-.73,4.09-2.48,4.09-2.47-.92-2.47-4.09ZM33.56,106.3c0-2.53-.34-3.27-1.53-3.27s-1.52.73-1.52,3.27.34,3.27,1.52,3.27,1.53-.73,1.53-3.27Z"/><path class="d" d="M37.49,112.35v-.91c.27.19,1,.45,1.67.45,1.02,0,1.62-.34,1.62-1.59v-.78c-.39.3-.88.48-1.42.48-1.69,0-2.39-.83-2.39-3.91s.75-3.89,2.38-3.89c.61,0,1.19.22,1.61.58l.09-.39h.67v8.11c0,1.81-1.23,2.23-2.47,2.23-.8,0-1.5-.2-1.77-.39ZM40.79,108.76v-5.3c-.33-.23-.78-.42-1.27-.42-1.22,0-1.58.69-1.58,3.06s.36,3.08,1.58,3.08c.48,0,.94-.19,1.27-.42Z"/><path class="d" d="M44.75,102.4h.69l.12.61c.58-.42,1.27-.72,2.25-.72v.92c-.89,0-1.55.12-2.12.42v6.58h-.94v-7.81Z"/><path class="d" d="M53.44,109.74c-.47.41-1.05.66-1.73.66-1.56,0-2.06-.95-2.06-2.48s.53-2.48,2.06-2.48c.61,0,1.16.23,1.61.58v-1.02c0-1.28-.39-1.95-1.67-1.95-.75,0-1.42.34-1.67.52v-.89c.28-.19.94-.45,1.78-.45,1.72,0,2.48.91,2.48,2.61v5.39h-.67l-.12-.47ZM53.31,109.08v-2.34c-.38-.28-.84-.52-1.44-.52-.98,0-1.28.56-1.28,1.69s.3,1.7,1.28,1.7c.59,0,1.06-.23,1.44-.53Z"/><path class="d" d="M57.17,102.4h.69l.09.44c.45-.41,1.06-.62,1.67-.62.83,0,1.38.31,1.7.8.48-.52,1.23-.8,1.91-.8,1.72,0,2.22,1.2,2.22,2.58v5.42h-.94v-5.27c0-1.08-.3-1.92-1.41-1.92-.56,0-1.11.27-1.48.59.11.36.16.77.16,1.17v5.42h-.94v-5.27c0-1.08-.3-1.92-1.41-1.92-.53,0-.98.2-1.33.45v6.73h-.94v-7.81Z"/><path class="d" d="M68.38,102.4h.69l.09.44c.45-.41,1.06-.62,1.67-.62.83,0,1.38.31,1.7.8.48-.52,1.23-.8,1.91-.8,1.72,0,2.22,1.2,2.22,2.58v5.42h-.94v-5.27c0-1.08-.3-1.92-1.41-1.92-.56,0-1.11.27-1.48.59.11.36.16.77.16,1.17v5.42h-.94v-5.27c0-1.08-.3-1.92-1.41-1.92-.53,0-.98.2-1.33.45v6.73h-.94v-7.81Z"/><path class="d" d="M79.41,100.79c0-.38.23-.61.64-.61s.64.23.64.61-.22.61-.64.61-.64-.23-.64-.61ZM79.58,102.4h.94v7.81h-.94v-7.81Z"/><path class="d" d="M83.52,102.4h.69l.09.44c.45-.41,1.06-.62,1.67-.62,1.66,0,2.16,1.2,2.16,2.58v5.42h-.94v-5.27c0-1.08-.3-1.92-1.41-1.92-.53,0-.98.2-1.33.45v6.73h-.94v-7.81Z"/><path class="d" d="M91.31,112.35v-.91c.27.19,1,.45,1.67.45,1.02,0,1.62-.34,1.62-1.59v-.78c-.39.3-.88.48-1.42.48-1.69,0-2.39-.83-2.39-3.91s.75-3.89,2.38-3.89c.61,0,1.19.22,1.61.58l.09-.39h.67v8.11c0,1.81-1.23,2.23-2.47,2.23-.8,0-1.5-.2-1.77-.39ZM94.6,108.76v-5.3c-.33-.23-.78-.42-1.27-.42-1.22,0-1.58.69-1.58,3.06s.36,3.08,1.58,3.08c.48,0,.94-.19,1.27-.42Z"/><path class="d" d="M1.03,124.4v-8.72h.94v8.53c0,.62.14.89.88.89h.38v.8h-.59c-.88,0-1.59-.27-1.59-1.5Z"/><path class="d" d="M8.85,125.37c-.47.41-1.05.66-1.73.66-1.56,0-2.06-.95-2.06-2.48s.53-2.48,2.06-2.48c.61,0,1.16.23,1.61.58v-1.02c0-1.28-.39-1.95-1.67-1.95-.75,0-1.42.34-1.67.52v-.89c.28-.19.94-.45,1.78-.45,1.72,0,2.48.91,2.48,2.61v5.39h-.67l-.12-.47ZM8.72,124.71v-2.34c-.38-.28-.84-.52-1.44-.52-.98,0-1.28.56-1.28,1.69s.3,1.7,1.28,1.7c.59,0,1.06-.23,1.44-.53Z"/><path class="d" d="M12.58,118.03h.69l.09.44c.45-.41,1.06-.62,1.67-.62,1.66,0,2.16,1.2,2.16,2.58v5.42h-.94v-5.27c0-1.08-.3-1.92-1.41-1.92-.53,0-.98.2-1.33.45v6.73h-.94v-7.81Z"/><path class="d" d="M20.36,127.98v-.91c.27.19,1,.45,1.67.45,1.02,0,1.62-.34,1.62-1.59v-.78c-.39.3-.88.48-1.42.48-1.69,0-2.39-.83-2.39-3.91s.75-3.89,2.38-3.89c.61,0,1.19.22,1.61.58l.09-.39h.67v8.11c0,1.81-1.23,2.23-2.47,2.23-.8,0-1.5-.2-1.77-.39ZM23.66,124.39v-5.3c-.33-.23-.78-.42-1.27-.42-1.22,0-1.58.69-1.58,3.06s.36,3.08,1.58,3.08c.48,0,.94-.19,1.27-.42Z"/><path class="d" d="M31.05,125.37c-.47.41-1.05.66-1.73.66-1.56,0-2.06-.95-2.06-2.48s.53-2.48,2.06-2.48c.61,0,1.16.23,1.61.58v-1.02c0-1.28-.39-1.95-1.67-1.95-.75,0-1.42.34-1.67.52v-.89c.28-.19.94-.45,1.78-.45,1.72,0,2.48.91,2.48,2.61v5.39h-.67l-.12-.47ZM30.93,124.71v-2.34c-.38-.28-.84-.52-1.44-.52-.98,0-1.28.56-1.28,1.69s.3,1.7,1.28,1.7c.59,0,1.06-.23,1.44-.53Z"/><path class="d" d="M38.48,125.43c-.45.39-1.02.59-1.61.59-1.66,0-2.16-1.2-2.16-2.58v-5.42h.94v5.27c0,1.12.3,1.92,1.41,1.92.52,0,.92-.19,1.27-.42v-6.77h.92v7.81h-.67l-.09-.41Z"/><path class="d" d="M42.51,127.98v-.91c.27.19,1,.45,1.67.45,1.02,0,1.62-.34,1.62-1.59v-.78c-.39.3-.88.48-1.42.48-1.69,0-2.39-.83-2.39-3.91s.75-3.89,2.38-3.89c.61,0,1.19.22,1.61.58l.09-.39h.67v8.11c0,1.81-1.23,2.23-2.47,2.23-.8,0-1.5-.2-1.77-.39ZM45.81,124.39v-5.3c-.33-.23-.78-.42-1.27-.42-1.22,0-1.58.69-1.58,3.06s.36,3.08,1.58,3.08c.48,0,.94-.19,1.27-.42Z"/><path class="d" d="M49.5,121.95c0-3.2.75-4.11,2.39-4.11s2.39.88,2.39,4.09v.22h-3.83c.03,2.47.53,3.03,1.83,3.03.69,0,1.42-.28,1.67-.45v.89c-.27.17-.95.41-1.78.41-1.84,0-2.67-.91-2.67-4.08ZM50.45,121.35h2.88c-.05-2.02-.39-2.7-1.44-2.7s-1.39.69-1.44,2.7Z"/><path class="d" d="M56.41,125.62v-.91c.27.19.89.47,1.61.47,1.03,0,1.47-.47,1.47-1.2,0-.69-.36-1.11-.89-1.44l-.95-.59c-.84-.52-1.2-1.2-1.2-2,0-1.33.88-2.11,2.33-2.11.67,0,1.08.14,1.38.28v.89c-.2-.14-.72-.33-1.28-.33-1,0-1.47.47-1.47,1.2,0,.69.38,1.05.91,1.39l.97.62c.86.55,1.17,1.23,1.17,2.02,0,1.31-.8,2.11-2.36,2.11-.73,0-1.39-.2-1.67-.41Z"/><path class="d" d="M66.85,124.4v-8.72h.94v8.53c0,.62.14.89.88.89h.38v.8h-.59c-.88,0-1.59-.27-1.59-1.5Z"/><path class="d" d="M74.66,125.37c-.47.41-1.05.66-1.73.66-1.56,0-2.06-.95-2.06-2.48s.53-2.48,2.06-2.48c.61,0,1.16.23,1.61.58v-1.02c0-1.28-.39-1.95-1.67-1.95-.75,0-1.42.34-1.67.52v-.89c.28-.19.94-.45,1.78-.45,1.72,0,2.48.91,2.48,2.61v5.39h-.67l-.12-.47ZM74.53,124.71v-2.34c-.38-.28-.84-.52-1.44-.52-.98,0-1.28.56-1.28,1.69s.3,1.7,1.28,1.7c.59,0,1.06-.23,1.44-.53Z"/><path class="d" d="M78.4,115.68h.94v2.66c.38-.3.88-.5,1.44-.5,1.69,0,2.39.84,2.39,4.09s-.75,4.09-2.38,4.09c-.62,0-1.2-.2-1.62-.56l-.08.38h-.69v-10.16ZM79.33,119.09v5.7c.33.23.78.41,1.28.41,1.22,0,1.58-.69,1.58-3.27s-.36-3.27-1.58-3.27c-.5,0-.95.19-1.28.42Z"/><path class="d" d="M94.87,2v92.87H2V2h92.87M96.87,0H0v96.87h96.87V0h0Z"/><path class="e" d="M4.48,35.57c0-1.05.47-1.65,1.14-1.98-.53-.34-.88-.9-.88-1.85,0-1.46.94-2.42,2.78-2.42.68,0,1.29.16,1.65.35v1.27c-.29-.18-.9-.38-1.48-.38-1.09,0-1.51.35-1.51,1.3,0,1.14.71,1.21,1.61,1.21h2.69v1.13h-.91v3.72h-2.21c-1.7,0-2.89-.52-2.89-2.37ZM7.36,36.79h.78v-2.57h-.78c-.79,0-1.46.14-1.46,1.29s.65,1.29,1.46,1.29Z"/></g></svg>